G75*
G70*
%OFA0B0*%
%FSLAX24Y24*%
%IPPOS*%
%LPD*%
G04 *
G04 macro definitions for tiled file 'midi-to-audio.sol':*
G04 *
%AMOC8*
5,1,8,0,0,1.08239X$1,22.5*
%
G04 *
G04 aperture list for tiled file 'midi-to-audio.sol':*
G04 *
%ADD13C,0.0780*%
%ADD11OC8,0.0825*%
%ADD15C,0.0240*%
%ADD12OC8,0.1270*%
%ADD10OC8,0.0520*%
%ADD14OC8,0.0860*%
G04 *
G04 next data from source file './midi-to-audio.sol', *
G04 source file key is 'infile_0003'. *
G04 *
D10*
X008004Y008922D03*
X012004Y008922D03*
D11*
X010004Y010422D03*
D12*
X012204Y010422D03*
X007804Y010422D03*
X010004Y013422D03*
D13*
X014122Y012422D02*
X014902Y012422D01*
X005886Y012422D02*
X005106Y012422D01*
D14*
X001535Y013422D03*
X001535Y014422D03*
X005457Y015382D03*
X006417Y014422D03*
X013591Y014422D03*
X014551Y015422D03*
X018472Y014422D03*
X018472Y013422D03*
X018472Y011422D03*
X018472Y010422D03*
X014551Y009461D03*
X013591Y010422D03*
X006417Y010422D03*
X005457Y009422D03*
X001535Y010422D03*
X001535Y011422D03*
D15*
X001024Y010014D02*
X001024Y008942D01*
X005046Y008942D01*
X004827Y009161D01*
X004827Y009683D01*
X005196Y010052D01*
X005718Y010052D01*
X006087Y009683D01*
X006087Y009161D01*
X005868Y008942D01*
X007544Y008942D01*
X007544Y009112D01*
X007684Y009252D01*
X007684Y009318D01*
X007684Y009445D01*
X007733Y009563D01*
X007756Y009587D01*
X007458Y009587D01*
X006969Y010076D01*
X006969Y010082D01*
X006678Y009792D01*
X006156Y009792D01*
X005787Y010161D01*
X005787Y010683D01*
X006097Y010993D01*
X006097Y011115D01*
X006146Y011233D01*
X006164Y011251D01*
X006164Y011879D01*
X006120Y011856D01*
X006029Y011827D01*
X005934Y011812D01*
X005506Y011812D01*
X005506Y012411D01*
X005486Y012411D01*
X005486Y011812D01*
X005058Y011812D01*
X004963Y011827D01*
X004872Y011856D01*
X004786Y011900D01*
X004709Y011956D01*
X004641Y012024D01*
X004584Y012102D01*
X004541Y012188D01*
X004511Y012279D01*
X004496Y012374D01*
X004496Y012412D01*
X005486Y012412D01*
X005486Y012432D01*
X005486Y013032D01*
X005058Y013032D01*
X004963Y013017D01*
X004872Y012987D01*
X004786Y012943D01*
X004709Y012887D01*
X004641Y012819D01*
X004584Y012741D01*
X004541Y012656D01*
X004511Y012565D01*
X004496Y012470D01*
X004496Y012432D01*
X005486Y012432D01*
X005506Y012432D01*
X005506Y013032D01*
X005934Y013032D01*
X006029Y013017D01*
X006120Y012987D01*
X006164Y012964D01*
X006164Y012992D01*
X005606Y013551D01*
X005516Y013641D01*
X005467Y013759D01*
X005467Y014622D01*
X005467Y014750D01*
X005468Y014752D01*
X005196Y014752D01*
X004827Y015121D01*
X004827Y015643D01*
X005081Y015898D01*
X001024Y015898D01*
X001024Y014829D01*
X001266Y015072D01*
X001525Y015072D01*
X001525Y014432D01*
X001545Y014432D01*
X001545Y015072D01*
X001805Y015072D01*
X002185Y014691D01*
X002185Y014432D01*
X001546Y014432D01*
X001546Y014412D01*
X002185Y014412D01*
X002185Y014152D01*
X001940Y013908D01*
X002106Y013742D01*
X002443Y013742D01*
X002560Y013693D01*
X002650Y013603D01*
X002699Y013485D01*
X002699Y013358D01*
X002650Y013240D01*
X002560Y013150D01*
X002443Y013102D01*
X002106Y013102D01*
X001796Y012792D01*
X001274Y012792D01*
X001024Y013042D01*
X001024Y011801D01*
X001274Y012052D01*
X001796Y012052D01*
X002106Y011742D01*
X002318Y011742D01*
X002435Y011693D01*
X002525Y011603D01*
X002574Y011485D01*
X002574Y011358D01*
X002525Y011240D01*
X002435Y011150D01*
X002318Y011102D01*
X002106Y011102D01*
X001940Y010936D01*
X002185Y010691D01*
X002185Y010432D01*
X001546Y010432D01*
X001546Y010412D01*
X002185Y010412D01*
X002185Y010152D01*
X001805Y009772D01*
X001545Y009772D01*
X001545Y010411D01*
X001525Y010411D01*
X001525Y009772D01*
X001266Y009772D01*
X001024Y010014D01*
X001024Y009853D02*
X001185Y009853D01*
X001525Y009853D02*
X001545Y009853D01*
X001886Y009853D02*
X004997Y009853D01*
X004827Y009614D02*
X001024Y009614D01*
X001024Y009376D02*
X004827Y009376D01*
X004850Y009137D02*
X001024Y009137D01*
X001525Y010092D02*
X001545Y010092D01*
X001525Y010330D02*
X001545Y010330D01*
X001535Y010422D02*
X001981Y010422D01*
X002352Y010792D01*
X002352Y011328D01*
X003422Y011328D01*
X004516Y012422D01*
X005496Y012422D01*
X005486Y012477D02*
X005506Y012477D01*
X005486Y012716D02*
X005506Y012716D01*
X005486Y012954D02*
X005506Y012954D01*
X005964Y013193D02*
X002602Y013193D01*
X002699Y013431D02*
X005726Y013431D01*
X005504Y013670D02*
X002584Y013670D01*
X002199Y013457D02*
X002165Y013490D01*
X002165Y014422D01*
X001535Y014422D01*
X001525Y014624D02*
X001545Y014624D01*
X001525Y014862D02*
X001545Y014862D01*
X001057Y014862D02*
X001024Y014862D01*
X001024Y015101D02*
X004847Y015101D01*
X004827Y015339D02*
X001024Y015339D01*
X001024Y015578D02*
X004827Y015578D01*
X005000Y015817D02*
X001024Y015817D01*
X002014Y014862D02*
X005086Y014862D01*
X005467Y014624D02*
X002185Y014624D01*
X002165Y014422D02*
X004516Y014422D01*
X004516Y012422D01*
X004497Y012477D02*
X001024Y012477D01*
X001024Y012716D02*
X004571Y012716D01*
X004807Y012954D02*
X001959Y012954D01*
X001112Y012954D02*
X001024Y012954D01*
X001629Y013422D02*
X002379Y013422D01*
X001941Y013908D02*
X005467Y013908D01*
X005787Y013822D02*
X005787Y014686D01*
X006160Y015059D01*
X012323Y015059D01*
X012961Y014422D01*
X013591Y014422D01*
X014221Y014385D02*
X017822Y014385D01*
X017822Y014412D02*
X017822Y014152D01*
X018067Y013908D01*
X013968Y013908D01*
X013851Y013792D02*
X014221Y014161D01*
X014221Y014683D01*
X013851Y015052D01*
X013330Y015052D01*
X013056Y014778D01*
X012504Y015330D01*
X012387Y015379D01*
X012259Y015379D01*
X006097Y015379D01*
X006087Y015375D01*
X006087Y015643D01*
X005832Y015898D01*
X014136Y015898D01*
X013921Y015683D01*
X013921Y015161D01*
X014290Y014792D01*
X014812Y014792D01*
X015181Y015161D01*
X015181Y015683D01*
X014966Y015898D01*
X018979Y015898D01*
X018979Y014834D01*
X018742Y015072D01*
X018482Y015072D01*
X018482Y014432D01*
X018462Y014432D01*
X018462Y014412D01*
X017822Y014412D01*
X017822Y014432D02*
X018462Y014432D01*
X018462Y015072D01*
X018203Y015072D01*
X017822Y014691D01*
X017822Y014432D01*
X017842Y014422D02*
X018472Y014422D01*
X018472Y014097D01*
X018456Y014081D01*
X018462Y014052D02*
X018462Y014411D01*
X018482Y014411D01*
X018482Y014052D01*
X018462Y014052D01*
X018462Y014147D02*
X018482Y014147D01*
X018462Y014385D02*
X018482Y014385D01*
X018462Y014624D02*
X018482Y014624D01*
X018462Y014862D02*
X018482Y014862D01*
X018951Y014862D02*
X018979Y014862D01*
X018979Y015101D02*
X015121Y015101D01*
X015181Y015339D02*
X018979Y015339D01*
X018979Y015578D02*
X015181Y015578D01*
X015047Y015817D02*
X018979Y015817D01*
X017994Y014862D02*
X014883Y014862D01*
X014220Y014862D02*
X014041Y014862D01*
X013981Y015101D02*
X012734Y015101D01*
X012972Y014862D02*
X013140Y014862D01*
X012306Y014624D02*
X007047Y014624D01*
X007047Y014683D02*
X006991Y014739D01*
X012190Y014739D01*
X012689Y014240D01*
X012779Y014150D01*
X012897Y014102D01*
X013020Y014102D01*
X013330Y013792D01*
X013851Y013792D01*
X013213Y013908D02*
X010727Y013908D01*
X010859Y013776D02*
X010358Y014277D01*
X010101Y014277D01*
X010101Y013519D01*
X009906Y013519D01*
X009906Y013324D01*
X009149Y013324D01*
X009149Y013068D01*
X009650Y012567D01*
X009906Y012567D01*
X009906Y013324D01*
X010101Y013324D01*
X010101Y012567D01*
X010358Y012567D01*
X010859Y013068D01*
X010859Y013324D01*
X010102Y013324D01*
X010102Y013519D01*
X010859Y013519D01*
X010859Y013776D01*
X010859Y013670D02*
X017674Y013670D01*
X017698Y013693D02*
X017608Y013603D01*
X017559Y013485D01*
X017559Y013358D01*
X017608Y013240D01*
X017698Y013150D01*
X017815Y013102D01*
X017901Y013102D01*
X018211Y012792D01*
X018733Y012792D01*
X018979Y013037D01*
X018979Y011806D01*
X018733Y012052D01*
X018211Y012052D01*
X017901Y011742D01*
X017690Y011742D01*
X017573Y011693D01*
X017483Y011603D01*
X017434Y011485D01*
X017434Y011358D01*
X017483Y011240D01*
X017573Y011150D01*
X017690Y011102D01*
X017901Y011102D01*
X018067Y010936D01*
X017822Y010691D01*
X017822Y010432D01*
X018462Y010432D01*
X018462Y010412D01*
X017822Y010412D01*
X017822Y010152D01*
X018203Y009772D01*
X018462Y009772D01*
X018462Y010411D01*
X018482Y010411D01*
X018482Y009772D01*
X018742Y009772D01*
X018979Y010009D01*
X018979Y008942D01*
X014923Y008942D01*
X015181Y009200D01*
X015181Y009722D01*
X014812Y010091D01*
X014290Y010091D01*
X013921Y009722D01*
X013921Y009200D01*
X014180Y008942D01*
X012464Y008942D01*
X012464Y009112D01*
X012324Y009252D01*
X012324Y009318D01*
X012324Y009445D01*
X012275Y009563D01*
X012251Y009587D01*
X012550Y009587D01*
X013039Y010076D01*
X013039Y010082D01*
X013330Y009792D01*
X013851Y009792D01*
X014221Y010161D01*
X014221Y010683D01*
X013851Y011052D01*
X013413Y011052D01*
X013025Y011440D01*
X012935Y011530D01*
X012818Y011578D01*
X008964Y011578D01*
X008964Y011629D01*
X008915Y011746D01*
X006774Y013888D01*
X007047Y014161D01*
X007047Y014683D01*
X006417Y014422D02*
X006417Y013792D01*
X008644Y011565D01*
X008644Y011258D01*
X012754Y011258D01*
X013591Y010422D01*
X014221Y010330D02*
X017822Y010330D01*
X017822Y010569D02*
X014221Y010569D01*
X014096Y010807D02*
X017939Y010807D01*
X017958Y011046D02*
X013857Y011046D01*
X013181Y011284D02*
X017464Y011284D01*
X017754Y011422D02*
X018504Y011422D01*
X017921Y011761D02*
X008900Y011761D01*
X008662Y012000D02*
X013681Y012000D01*
X013657Y012024D02*
X013724Y011956D01*
X013802Y011900D01*
X013888Y011856D01*
X013979Y011827D01*
X014074Y011812D01*
X014502Y011812D01*
X014502Y012411D01*
X014522Y012411D01*
X014522Y011812D01*
X014950Y011812D01*
X015045Y011827D01*
X015136Y011856D01*
X015221Y011900D01*
X015299Y011956D01*
X015367Y012024D01*
X015424Y012102D01*
X015467Y012188D01*
X015497Y012279D01*
X015512Y012374D01*
X015512Y012412D01*
X014522Y012412D01*
X014522Y012432D01*
X014502Y012432D01*
X014502Y013032D01*
X014074Y013032D01*
X013979Y013017D01*
X013888Y012987D01*
X013802Y012943D01*
X013724Y012887D01*
X013657Y012819D01*
X013600Y012741D01*
X013556Y012656D01*
X013527Y012565D01*
X013512Y012470D01*
X013512Y012432D01*
X014502Y012432D01*
X014502Y012412D01*
X013512Y012412D01*
X013512Y012374D01*
X013527Y012279D01*
X013556Y012188D01*
X013600Y012102D01*
X013657Y012024D01*
X013540Y012238D02*
X008423Y012238D01*
X008185Y012477D02*
X013513Y012477D01*
X013587Y012716D02*
X010507Y012716D01*
X010101Y012716D02*
X009906Y012716D01*
X009501Y012716D02*
X007946Y012716D01*
X007707Y012954D02*
X009262Y012954D01*
X009149Y013193D02*
X007469Y013193D01*
X007230Y013431D02*
X009906Y013431D01*
X009906Y013519D02*
X009149Y013519D01*
X009149Y013776D01*
X009650Y014277D01*
X009906Y014277D01*
X009906Y013519D01*
X010004Y013422D02*
X010839Y013422D01*
X011839Y012422D01*
X014512Y012422D01*
X015492Y012422D01*
X015492Y013402D01*
X015497Y013407D01*
X016828Y013407D01*
X016828Y012066D01*
X018472Y010422D01*
X018462Y010330D02*
X018482Y010330D01*
X018462Y010092D02*
X018482Y010092D01*
X018462Y009853D02*
X018482Y009853D01*
X018823Y009853D02*
X018979Y009853D01*
X018979Y009614D02*
X015181Y009614D01*
X015181Y009376D02*
X018979Y009376D01*
X018979Y009137D02*
X015118Y009137D01*
X013984Y009137D02*
X012439Y009137D01*
X012324Y009376D02*
X013921Y009376D01*
X013921Y009614D02*
X012577Y009614D01*
X012004Y009382D02*
X011656Y009382D01*
X010616Y010422D01*
X010004Y010422D01*
X008644Y010022D02*
X008644Y011258D01*
X006484Y010927D02*
X006417Y010860D01*
X006417Y010422D01*
X005787Y010330D02*
X002185Y010330D01*
X002185Y010569D02*
X005787Y010569D01*
X005912Y010807D02*
X002069Y010807D01*
X002050Y011046D02*
X006097Y011046D01*
X006417Y011052D02*
X006417Y010860D01*
X006484Y010927D02*
X006484Y013125D01*
X005787Y013822D01*
X005467Y014147D02*
X002180Y014147D01*
X002185Y014385D02*
X005467Y014385D01*
X004516Y014422D02*
X004516Y015335D01*
X005200Y016019D01*
X012885Y016019D01*
X015497Y013407D01*
X015221Y012943D02*
X015136Y012987D01*
X015045Y013017D01*
X014950Y013032D01*
X014522Y013032D01*
X014522Y012432D01*
X015512Y012432D01*
X015512Y012470D01*
X015497Y012565D01*
X015467Y012656D01*
X015424Y012741D01*
X015367Y012819D01*
X015299Y012887D01*
X015221Y012943D01*
X015201Y012954D02*
X018049Y012954D01*
X017655Y013193D02*
X010859Y013193D01*
X010745Y012954D02*
X013823Y012954D01*
X014502Y012954D02*
X014522Y012954D01*
X014502Y012716D02*
X014522Y012716D01*
X014502Y012477D02*
X014522Y012477D01*
X014502Y012238D02*
X014522Y012238D01*
X014502Y012000D02*
X014522Y012000D01*
X015343Y012000D02*
X018160Y012000D01*
X018785Y012000D02*
X018979Y012000D01*
X018979Y012238D02*
X015484Y012238D01*
X015511Y012477D02*
X018979Y012477D01*
X018979Y012716D02*
X015437Y012716D01*
X016828Y013407D02*
X017842Y014422D01*
X017822Y014624D02*
X014221Y014624D01*
X014206Y014147D02*
X017828Y014147D01*
X018067Y013908D02*
X017901Y013742D01*
X017815Y013742D01*
X017698Y013693D01*
X017559Y013431D02*
X010102Y013431D01*
X010101Y013193D02*
X009906Y013193D01*
X009906Y012954D02*
X010101Y012954D01*
X010101Y013670D02*
X009906Y013670D01*
X009906Y013908D02*
X010101Y013908D01*
X010101Y014147D02*
X009906Y014147D01*
X009520Y014147D02*
X007033Y014147D01*
X007047Y014385D02*
X012544Y014385D01*
X012788Y014147D02*
X010488Y014147D01*
X009281Y013908D02*
X006795Y013908D01*
X006992Y013670D02*
X009149Y013670D01*
X005506Y012238D02*
X005486Y012238D01*
X005486Y012000D02*
X005506Y012000D01*
X006164Y011761D02*
X002087Y011761D01*
X001848Y012000D02*
X004665Y012000D01*
X004524Y012238D02*
X001024Y012238D01*
X001024Y012000D02*
X001223Y012000D01*
X002558Y011523D02*
X006164Y011523D01*
X006164Y011284D02*
X002543Y011284D01*
X002254Y011422D02*
X001504Y011422D01*
X002124Y010092D02*
X005857Y010092D01*
X005916Y009853D02*
X006095Y009853D01*
X006087Y009614D02*
X007430Y009614D01*
X007684Y009376D02*
X006087Y009376D01*
X006063Y009137D02*
X007569Y009137D01*
X008004Y008922D02*
X008004Y009382D01*
X008644Y010022D01*
X007192Y009853D02*
X006739Y009853D01*
X012004Y009382D02*
X012004Y008922D01*
X012816Y009853D02*
X013268Y009853D01*
X013913Y009853D02*
X014052Y009853D01*
X014151Y010092D02*
X017883Y010092D01*
X018122Y009853D02*
X015050Y009853D01*
X012942Y011523D02*
X017449Y011523D01*
X018896Y012954D02*
X018979Y012954D01*
X018504Y013422D02*
X017879Y013422D01*
X013921Y015339D02*
X012482Y015339D01*
X013921Y015578D02*
X006087Y015578D01*
X005913Y015817D02*
X014055Y015817D01*
G04 *
G04 next data from source file './midi-to-audio.sol', *
G04 source file key is 'infile_0010'. *
G04 *
D10*
X027504Y033722D03*
X031504Y033722D03*
D11*
X029504Y035222D03*
D12*
X031704Y035222D03*
X027304Y035222D03*
X029504Y038222D03*
D13*
X033622Y037222D02*
X034402Y037222D01*
X025386Y037222D02*
X024606Y037222D01*
D14*
X021035Y038222D03*
X021035Y039222D03*
X024957Y040182D03*
X025917Y039222D03*
X033091Y039222D03*
X034051Y040222D03*
X037972Y039222D03*
X037972Y038222D03*
X037972Y036222D03*
X037972Y035222D03*
X034051Y034261D03*
X033091Y035222D03*
X025917Y035222D03*
X024957Y034222D03*
X021035Y035222D03*
X021035Y036222D03*
D15*
X020524Y034814D02*
X020524Y033742D01*
X024546Y033742D01*
X024327Y033961D01*
X024327Y034483D01*
X024696Y034852D01*
X025218Y034852D01*
X025587Y034483D01*
X025587Y033961D01*
X025368Y033742D01*
X027044Y033742D01*
X027044Y033912D01*
X027184Y034052D01*
X027184Y034118D01*
X027184Y034245D01*
X027233Y034363D01*
X027256Y034387D01*
X026958Y034387D01*
X026469Y034876D01*
X026469Y034882D01*
X026178Y034592D01*
X025656Y034592D01*
X025287Y034961D01*
X025287Y035483D01*
X025597Y035793D01*
X025597Y035915D01*
X025646Y036033D01*
X025664Y036051D01*
X025664Y036679D01*
X025620Y036656D01*
X025529Y036627D01*
X025434Y036612D01*
X025006Y036612D01*
X025006Y037211D01*
X024986Y037211D01*
X024986Y036612D01*
X024558Y036612D01*
X024463Y036627D01*
X024372Y036656D01*
X024286Y036700D01*
X024209Y036756D01*
X024141Y036824D01*
X024084Y036902D01*
X024041Y036988D01*
X024011Y037079D01*
X023996Y037174D01*
X023996Y037212D01*
X024986Y037212D01*
X024986Y037232D01*
X024986Y037832D01*
X024558Y037832D01*
X024463Y037817D01*
X024372Y037787D01*
X024286Y037743D01*
X024209Y037687D01*
X024141Y037619D01*
X024084Y037541D01*
X024041Y037456D01*
X024011Y037365D01*
X023996Y037270D01*
X023996Y037232D01*
X024986Y037232D01*
X025006Y037232D01*
X025006Y037832D01*
X025434Y037832D01*
X025529Y037817D01*
X025620Y037787D01*
X025664Y037764D01*
X025664Y037792D01*
X025106Y038351D01*
X025016Y038441D01*
X024967Y038559D01*
X024967Y039422D01*
X024967Y039550D01*
X024968Y039552D01*
X024696Y039552D01*
X024327Y039921D01*
X024327Y040443D01*
X024581Y040698D01*
X020524Y040698D01*
X020524Y039629D01*
X020766Y039872D01*
X021025Y039872D01*
X021025Y039232D01*
X021045Y039232D01*
X021045Y039872D01*
X021305Y039872D01*
X021685Y039491D01*
X021685Y039232D01*
X021046Y039232D01*
X021046Y039212D01*
X021685Y039212D01*
X021685Y038952D01*
X021440Y038708D01*
X021606Y038542D01*
X021943Y038542D01*
X022060Y038493D01*
X022150Y038403D01*
X022199Y038285D01*
X022199Y038158D01*
X022150Y038040D01*
X022060Y037950D01*
X021943Y037902D01*
X021606Y037902D01*
X021296Y037592D01*
X020774Y037592D01*
X020524Y037842D01*
X020524Y036601D01*
X020774Y036852D01*
X021296Y036852D01*
X021606Y036542D01*
X021818Y036542D01*
X021935Y036493D01*
X022025Y036403D01*
X022074Y036285D01*
X022074Y036158D01*
X022025Y036040D01*
X021935Y035950D01*
X021818Y035902D01*
X021606Y035902D01*
X021440Y035736D01*
X021685Y035491D01*
X021685Y035232D01*
X021046Y035232D01*
X021046Y035212D01*
X021685Y035212D01*
X021685Y034952D01*
X021305Y034572D01*
X021045Y034572D01*
X021045Y035211D01*
X021025Y035211D01*
X021025Y034572D01*
X020766Y034572D01*
X020524Y034814D01*
X020524Y034653D02*
X020685Y034653D01*
X021025Y034653D02*
X021045Y034653D01*
X021386Y034653D02*
X024497Y034653D01*
X024327Y034414D02*
X020524Y034414D01*
X020524Y034176D02*
X024327Y034176D01*
X024350Y033937D02*
X020524Y033937D01*
X021025Y034892D02*
X021045Y034892D01*
X021025Y035130D02*
X021045Y035130D01*
X021035Y035222D02*
X021481Y035222D01*
X021852Y035592D01*
X021852Y036128D01*
X022922Y036128D01*
X024016Y037222D01*
X024996Y037222D01*
X024986Y037277D02*
X025006Y037277D01*
X024986Y037516D02*
X025006Y037516D01*
X024986Y037754D02*
X025006Y037754D01*
X025464Y037993D02*
X022102Y037993D01*
X022199Y038231D02*
X025226Y038231D01*
X025004Y038470D02*
X022084Y038470D01*
X021699Y038257D02*
X021665Y038290D01*
X021665Y039222D01*
X021035Y039222D01*
X021025Y039424D02*
X021045Y039424D01*
X021025Y039662D02*
X021045Y039662D01*
X020557Y039662D02*
X020524Y039662D01*
X020524Y039901D02*
X024347Y039901D01*
X024327Y040139D02*
X020524Y040139D01*
X020524Y040378D02*
X024327Y040378D01*
X024500Y040617D02*
X020524Y040617D01*
X021514Y039662D02*
X024586Y039662D01*
X024967Y039424D02*
X021685Y039424D01*
X021665Y039222D02*
X024016Y039222D01*
X024016Y037222D01*
X023997Y037277D02*
X020524Y037277D01*
X020524Y037516D02*
X024071Y037516D01*
X024307Y037754D02*
X021459Y037754D01*
X020612Y037754D02*
X020524Y037754D01*
X021129Y038222D02*
X021879Y038222D01*
X021441Y038708D02*
X024967Y038708D01*
X025287Y038622D02*
X025287Y039486D01*
X025660Y039859D01*
X031823Y039859D01*
X032461Y039222D01*
X033091Y039222D01*
X033721Y039185D02*
X037322Y039185D01*
X037322Y039212D02*
X037322Y038952D01*
X037567Y038708D01*
X033468Y038708D01*
X033351Y038592D02*
X033721Y038961D01*
X033721Y039483D01*
X033351Y039852D01*
X032830Y039852D01*
X032556Y039578D01*
X032004Y040130D01*
X031887Y040179D01*
X031759Y040179D01*
X025597Y040179D01*
X025587Y040175D01*
X025587Y040443D01*
X025332Y040698D01*
X033636Y040698D01*
X033421Y040483D01*
X033421Y039961D01*
X033790Y039592D01*
X034312Y039592D01*
X034681Y039961D01*
X034681Y040483D01*
X034466Y040698D01*
X038479Y040698D01*
X038479Y039634D01*
X038242Y039872D01*
X037982Y039872D01*
X037982Y039232D01*
X037962Y039232D01*
X037962Y039212D01*
X037322Y039212D01*
X037322Y039232D02*
X037962Y039232D01*
X037962Y039872D01*
X037703Y039872D01*
X037322Y039491D01*
X037322Y039232D01*
X037342Y039222D02*
X037972Y039222D01*
X037972Y038897D01*
X037956Y038881D01*
X037962Y038852D02*
X037962Y039211D01*
X037982Y039211D01*
X037982Y038852D01*
X037962Y038852D01*
X037962Y038947D02*
X037982Y038947D01*
X037962Y039185D02*
X037982Y039185D01*
X037962Y039424D02*
X037982Y039424D01*
X037962Y039662D02*
X037982Y039662D01*
X038451Y039662D02*
X038479Y039662D01*
X038479Y039901D02*
X034621Y039901D01*
X034681Y040139D02*
X038479Y040139D01*
X038479Y040378D02*
X034681Y040378D01*
X034547Y040617D02*
X038479Y040617D01*
X037494Y039662D02*
X034383Y039662D01*
X033720Y039662D02*
X033541Y039662D01*
X033481Y039901D02*
X032234Y039901D01*
X032472Y039662D02*
X032640Y039662D01*
X031806Y039424D02*
X026547Y039424D01*
X026547Y039483D02*
X026491Y039539D01*
X031690Y039539D01*
X032189Y039040D01*
X032279Y038950D01*
X032397Y038902D01*
X032520Y038902D01*
X032830Y038592D01*
X033351Y038592D01*
X032713Y038708D02*
X030227Y038708D01*
X030359Y038576D02*
X029858Y039077D01*
X029601Y039077D01*
X029601Y038319D01*
X029406Y038319D01*
X029406Y038124D01*
X028649Y038124D01*
X028649Y037868D01*
X029150Y037367D01*
X029406Y037367D01*
X029406Y038124D01*
X029601Y038124D01*
X029601Y037367D01*
X029858Y037367D01*
X030359Y037868D01*
X030359Y038124D01*
X029602Y038124D01*
X029602Y038319D01*
X030359Y038319D01*
X030359Y038576D01*
X030359Y038470D02*
X037174Y038470D01*
X037198Y038493D02*
X037108Y038403D01*
X037059Y038285D01*
X037059Y038158D01*
X037108Y038040D01*
X037198Y037950D01*
X037315Y037902D01*
X037401Y037902D01*
X037711Y037592D01*
X038233Y037592D01*
X038479Y037837D01*
X038479Y036606D01*
X038233Y036852D01*
X037711Y036852D01*
X037401Y036542D01*
X037190Y036542D01*
X037073Y036493D01*
X036983Y036403D01*
X036934Y036285D01*
X036934Y036158D01*
X036983Y036040D01*
X037073Y035950D01*
X037190Y035902D01*
X037401Y035902D01*
X037567Y035736D01*
X037322Y035491D01*
X037322Y035232D01*
X037962Y035232D01*
X037962Y035212D01*
X037322Y035212D01*
X037322Y034952D01*
X037703Y034572D01*
X037962Y034572D01*
X037962Y035211D01*
X037982Y035211D01*
X037982Y034572D01*
X038242Y034572D01*
X038479Y034809D01*
X038479Y033742D01*
X034423Y033742D01*
X034681Y034000D01*
X034681Y034522D01*
X034312Y034891D01*
X033790Y034891D01*
X033421Y034522D01*
X033421Y034000D01*
X033680Y033742D01*
X031964Y033742D01*
X031964Y033912D01*
X031824Y034052D01*
X031824Y034118D01*
X031824Y034245D01*
X031775Y034363D01*
X031751Y034387D01*
X032050Y034387D01*
X032539Y034876D01*
X032539Y034882D01*
X032830Y034592D01*
X033351Y034592D01*
X033721Y034961D01*
X033721Y035483D01*
X033351Y035852D01*
X032913Y035852D01*
X032525Y036240D01*
X032435Y036330D01*
X032318Y036378D01*
X028464Y036378D01*
X028464Y036429D01*
X028415Y036546D01*
X026274Y038688D01*
X026547Y038961D01*
X026547Y039483D01*
X025917Y039222D02*
X025917Y038592D01*
X028144Y036365D01*
X028144Y036058D01*
X032254Y036058D01*
X033091Y035222D01*
X033721Y035130D02*
X037322Y035130D01*
X037322Y035369D02*
X033721Y035369D01*
X033596Y035607D02*
X037439Y035607D01*
X037458Y035846D02*
X033357Y035846D01*
X032681Y036084D02*
X036964Y036084D01*
X037254Y036222D02*
X038004Y036222D01*
X037421Y036561D02*
X028400Y036561D01*
X028162Y036800D02*
X033181Y036800D01*
X033157Y036824D02*
X033224Y036756D01*
X033302Y036700D01*
X033388Y036656D01*
X033479Y036627D01*
X033574Y036612D01*
X034002Y036612D01*
X034002Y037211D01*
X034022Y037211D01*
X034022Y036612D01*
X034450Y036612D01*
X034545Y036627D01*
X034636Y036656D01*
X034721Y036700D01*
X034799Y036756D01*
X034867Y036824D01*
X034924Y036902D01*
X034967Y036988D01*
X034997Y037079D01*
X035012Y037174D01*
X035012Y037212D01*
X034022Y037212D01*
X034022Y037232D01*
X034002Y037232D01*
X034002Y037832D01*
X033574Y037832D01*
X033479Y037817D01*
X033388Y037787D01*
X033302Y037743D01*
X033224Y037687D01*
X033157Y037619D01*
X033100Y037541D01*
X033056Y037456D01*
X033027Y037365D01*
X033012Y037270D01*
X033012Y037232D01*
X034002Y037232D01*
X034002Y037212D01*
X033012Y037212D01*
X033012Y037174D01*
X033027Y037079D01*
X033056Y036988D01*
X033100Y036902D01*
X033157Y036824D01*
X033040Y037038D02*
X027923Y037038D01*
X027685Y037277D02*
X033013Y037277D01*
X033087Y037516D02*
X030007Y037516D01*
X029601Y037516D02*
X029406Y037516D01*
X029001Y037516D02*
X027446Y037516D01*
X027207Y037754D02*
X028762Y037754D01*
X028649Y037993D02*
X026969Y037993D01*
X026730Y038231D02*
X029406Y038231D01*
X029406Y038319D02*
X028649Y038319D01*
X028649Y038576D01*
X029150Y039077D01*
X029406Y039077D01*
X029406Y038319D01*
X029504Y038222D02*
X030339Y038222D01*
X031339Y037222D01*
X034012Y037222D01*
X034992Y037222D01*
X034992Y038202D01*
X034997Y038207D01*
X036328Y038207D01*
X036328Y036866D01*
X037972Y035222D01*
X037962Y035130D02*
X037982Y035130D01*
X037962Y034892D02*
X037982Y034892D01*
X037962Y034653D02*
X037982Y034653D01*
X038323Y034653D02*
X038479Y034653D01*
X038479Y034414D02*
X034681Y034414D01*
X034681Y034176D02*
X038479Y034176D01*
X038479Y033937D02*
X034618Y033937D01*
X033484Y033937D02*
X031939Y033937D01*
X031824Y034176D02*
X033421Y034176D01*
X033421Y034414D02*
X032077Y034414D01*
X031504Y034182D02*
X031156Y034182D01*
X030116Y035222D01*
X029504Y035222D01*
X028144Y034822D02*
X028144Y036058D01*
X025984Y035727D02*
X025917Y035660D01*
X025917Y035222D01*
X025287Y035130D02*
X021685Y035130D01*
X021685Y035369D02*
X025287Y035369D01*
X025412Y035607D02*
X021569Y035607D01*
X021550Y035846D02*
X025597Y035846D01*
X025917Y035852D02*
X025917Y035660D01*
X025984Y035727D02*
X025984Y037925D01*
X025287Y038622D01*
X024967Y038947D02*
X021680Y038947D01*
X021685Y039185D02*
X024967Y039185D01*
X024016Y039222D02*
X024016Y040135D01*
X024700Y040819D01*
X032385Y040819D01*
X034997Y038207D01*
X034721Y037743D02*
X034636Y037787D01*
X034545Y037817D01*
X034450Y037832D01*
X034022Y037832D01*
X034022Y037232D01*
X035012Y037232D01*
X035012Y037270D01*
X034997Y037365D01*
X034967Y037456D01*
X034924Y037541D01*
X034867Y037619D01*
X034799Y037687D01*
X034721Y037743D01*
X034701Y037754D02*
X037549Y037754D01*
X037155Y037993D02*
X030359Y037993D01*
X030245Y037754D02*
X033323Y037754D01*
X034002Y037754D02*
X034022Y037754D01*
X034002Y037516D02*
X034022Y037516D01*
X034002Y037277D02*
X034022Y037277D01*
X034002Y037038D02*
X034022Y037038D01*
X034002Y036800D02*
X034022Y036800D01*
X034843Y036800D02*
X037660Y036800D01*
X038285Y036800D02*
X038479Y036800D01*
X038479Y037038D02*
X034984Y037038D01*
X035011Y037277D02*
X038479Y037277D01*
X038479Y037516D02*
X034937Y037516D01*
X036328Y038207D02*
X037342Y039222D01*
X037322Y039424D02*
X033721Y039424D01*
X033706Y038947D02*
X037328Y038947D01*
X037567Y038708D02*
X037401Y038542D01*
X037315Y038542D01*
X037198Y038493D01*
X037059Y038231D02*
X029602Y038231D01*
X029601Y037993D02*
X029406Y037993D01*
X029406Y037754D02*
X029601Y037754D01*
X029601Y038470D02*
X029406Y038470D01*
X029406Y038708D02*
X029601Y038708D01*
X029601Y038947D02*
X029406Y038947D01*
X029020Y038947D02*
X026533Y038947D01*
X026547Y039185D02*
X032044Y039185D01*
X032288Y038947D02*
X029988Y038947D01*
X028781Y038708D02*
X026295Y038708D01*
X026492Y038470D02*
X028649Y038470D01*
X025006Y037038D02*
X024986Y037038D01*
X024986Y036800D02*
X025006Y036800D01*
X025664Y036561D02*
X021587Y036561D01*
X021348Y036800D02*
X024165Y036800D01*
X024024Y037038D02*
X020524Y037038D01*
X020524Y036800D02*
X020723Y036800D01*
X022058Y036323D02*
X025664Y036323D01*
X025664Y036084D02*
X022043Y036084D01*
X021754Y036222D02*
X021004Y036222D01*
X021624Y034892D02*
X025357Y034892D01*
X025416Y034653D02*
X025595Y034653D01*
X025587Y034414D02*
X026930Y034414D01*
X027184Y034176D02*
X025587Y034176D01*
X025563Y033937D02*
X027069Y033937D01*
X027504Y033722D02*
X027504Y034182D01*
X028144Y034822D01*
X026692Y034653D02*
X026239Y034653D01*
X031504Y034182D02*
X031504Y033722D01*
X032316Y034653D02*
X032768Y034653D01*
X033413Y034653D02*
X033552Y034653D01*
X033651Y034892D02*
X037383Y034892D01*
X037622Y034653D02*
X034550Y034653D01*
X032442Y036323D02*
X036949Y036323D01*
X038396Y037754D02*
X038479Y037754D01*
X038004Y038222D02*
X037379Y038222D01*
X033421Y040139D02*
X031982Y040139D01*
X033421Y040378D02*
X025587Y040378D01*
X025413Y040617D02*
X033555Y040617D01*
G04 *
G04 next data from source file './midi-to-audio.sol', *
G04 source file key is 'infile_0008'. *
G04 *
D10*
X027504Y025322D03*
X031504Y025322D03*
D11*
X029504Y026822D03*
D12*
X031704Y026822D03*
X027304Y026822D03*
X029504Y029822D03*
D13*
X033622Y028822D02*
X034402Y028822D01*
X025386Y028822D02*
X024606Y028822D01*
D14*
X021035Y029822D03*
X021035Y030822D03*
X024957Y031782D03*
X025917Y030822D03*
X033091Y030822D03*
X034051Y031822D03*
X037972Y030822D03*
X037972Y029822D03*
X037972Y027822D03*
X037972Y026822D03*
X034051Y025861D03*
X033091Y026822D03*
X025917Y026822D03*
X024957Y025822D03*
X021035Y026822D03*
X021035Y027822D03*
D15*
X020524Y026414D02*
X020524Y025342D01*
X024546Y025342D01*
X024327Y025561D01*
X024327Y026083D01*
X024696Y026452D01*
X025218Y026452D01*
X025587Y026083D01*
X025587Y025561D01*
X025368Y025342D01*
X027044Y025342D01*
X027044Y025512D01*
X027184Y025652D01*
X027184Y025718D01*
X027184Y025845D01*
X027233Y025963D01*
X027256Y025987D01*
X026958Y025987D01*
X026469Y026476D01*
X026469Y026482D01*
X026178Y026192D01*
X025656Y026192D01*
X025287Y026561D01*
X025287Y027083D01*
X025597Y027393D01*
X025597Y027515D01*
X025646Y027633D01*
X025664Y027651D01*
X025664Y028279D01*
X025620Y028256D01*
X025529Y028227D01*
X025434Y028212D01*
X025006Y028212D01*
X025006Y028811D01*
X024986Y028811D01*
X024986Y028212D01*
X024558Y028212D01*
X024463Y028227D01*
X024372Y028256D01*
X024286Y028300D01*
X024209Y028356D01*
X024141Y028424D01*
X024084Y028502D01*
X024041Y028588D01*
X024011Y028679D01*
X023996Y028774D01*
X023996Y028812D01*
X024986Y028812D01*
X024986Y028832D01*
X024986Y029432D01*
X024558Y029432D01*
X024463Y029417D01*
X024372Y029387D01*
X024286Y029343D01*
X024209Y029287D01*
X024141Y029219D01*
X024084Y029141D01*
X024041Y029056D01*
X024011Y028965D01*
X023996Y028870D01*
X023996Y028832D01*
X024986Y028832D01*
X025006Y028832D01*
X025006Y029432D01*
X025434Y029432D01*
X025529Y029417D01*
X025620Y029387D01*
X025664Y029364D01*
X025664Y029392D01*
X025106Y029951D01*
X025016Y030041D01*
X024967Y030159D01*
X024967Y031022D01*
X024967Y031150D01*
X024968Y031152D01*
X024696Y031152D01*
X024327Y031521D01*
X024327Y032043D01*
X024581Y032298D01*
X020524Y032298D01*
X020524Y031229D01*
X020766Y031472D01*
X021025Y031472D01*
X021025Y030832D01*
X021045Y030832D01*
X021045Y031472D01*
X021305Y031472D01*
X021685Y031091D01*
X021685Y030832D01*
X021046Y030832D01*
X021046Y030812D01*
X021685Y030812D01*
X021685Y030552D01*
X021440Y030308D01*
X021606Y030142D01*
X021943Y030142D01*
X022060Y030093D01*
X022150Y030003D01*
X022199Y029885D01*
X022199Y029758D01*
X022150Y029640D01*
X022060Y029550D01*
X021943Y029502D01*
X021606Y029502D01*
X021296Y029192D01*
X020774Y029192D01*
X020524Y029442D01*
X020524Y028201D01*
X020774Y028452D01*
X021296Y028452D01*
X021606Y028142D01*
X021818Y028142D01*
X021935Y028093D01*
X022025Y028003D01*
X022074Y027885D01*
X022074Y027758D01*
X022025Y027640D01*
X021935Y027550D01*
X021818Y027502D01*
X021606Y027502D01*
X021440Y027336D01*
X021685Y027091D01*
X021685Y026832D01*
X021046Y026832D01*
X021046Y026812D01*
X021685Y026812D01*
X021685Y026552D01*
X021305Y026172D01*
X021045Y026172D01*
X021045Y026811D01*
X021025Y026811D01*
X021025Y026172D01*
X020766Y026172D01*
X020524Y026414D01*
X020524Y026253D02*
X020685Y026253D01*
X021025Y026253D02*
X021045Y026253D01*
X021386Y026253D02*
X024497Y026253D01*
X024327Y026014D02*
X020524Y026014D01*
X020524Y025776D02*
X024327Y025776D01*
X024350Y025537D02*
X020524Y025537D01*
X021025Y026492D02*
X021045Y026492D01*
X021025Y026730D02*
X021045Y026730D01*
X021035Y026822D02*
X021481Y026822D01*
X021852Y027192D01*
X021852Y027728D01*
X022922Y027728D01*
X024016Y028822D01*
X024996Y028822D01*
X024986Y028877D02*
X025006Y028877D01*
X024986Y029116D02*
X025006Y029116D01*
X024986Y029354D02*
X025006Y029354D01*
X025464Y029593D02*
X022102Y029593D01*
X022199Y029831D02*
X025226Y029831D01*
X025004Y030070D02*
X022084Y030070D01*
X021699Y029857D02*
X021665Y029890D01*
X021665Y030822D01*
X021035Y030822D01*
X021025Y031024D02*
X021045Y031024D01*
X021025Y031262D02*
X021045Y031262D01*
X020557Y031262D02*
X020524Y031262D01*
X020524Y031501D02*
X024347Y031501D01*
X024327Y031739D02*
X020524Y031739D01*
X020524Y031978D02*
X024327Y031978D01*
X024500Y032217D02*
X020524Y032217D01*
X021514Y031262D02*
X024586Y031262D01*
X024967Y031024D02*
X021685Y031024D01*
X021665Y030822D02*
X024016Y030822D01*
X024016Y028822D01*
X023997Y028877D02*
X020524Y028877D01*
X020524Y029116D02*
X024071Y029116D01*
X024307Y029354D02*
X021459Y029354D01*
X020612Y029354D02*
X020524Y029354D01*
X021129Y029822D02*
X021879Y029822D01*
X021441Y030308D02*
X024967Y030308D01*
X025287Y030222D02*
X025287Y031086D01*
X025660Y031459D01*
X031823Y031459D01*
X032461Y030822D01*
X033091Y030822D01*
X033721Y030785D02*
X037322Y030785D01*
X037322Y030812D02*
X037322Y030552D01*
X037567Y030308D01*
X033468Y030308D01*
X033351Y030192D02*
X033721Y030561D01*
X033721Y031083D01*
X033351Y031452D01*
X032830Y031452D01*
X032556Y031178D01*
X032004Y031730D01*
X031887Y031779D01*
X031759Y031779D01*
X025597Y031779D01*
X025587Y031775D01*
X025587Y032043D01*
X025332Y032298D01*
X033636Y032298D01*
X033421Y032083D01*
X033421Y031561D01*
X033790Y031192D01*
X034312Y031192D01*
X034681Y031561D01*
X034681Y032083D01*
X034466Y032298D01*
X038479Y032298D01*
X038479Y031234D01*
X038242Y031472D01*
X037982Y031472D01*
X037982Y030832D01*
X037962Y030832D01*
X037962Y030812D01*
X037322Y030812D01*
X037322Y030832D02*
X037962Y030832D01*
X037962Y031472D01*
X037703Y031472D01*
X037322Y031091D01*
X037322Y030832D01*
X037342Y030822D02*
X037972Y030822D01*
X037972Y030497D01*
X037956Y030481D01*
X037962Y030452D02*
X037962Y030811D01*
X037982Y030811D01*
X037982Y030452D01*
X037962Y030452D01*
X037962Y030547D02*
X037982Y030547D01*
X037962Y030785D02*
X037982Y030785D01*
X037962Y031024D02*
X037982Y031024D01*
X037962Y031262D02*
X037982Y031262D01*
X038451Y031262D02*
X038479Y031262D01*
X038479Y031501D02*
X034621Y031501D01*
X034681Y031739D02*
X038479Y031739D01*
X038479Y031978D02*
X034681Y031978D01*
X034547Y032217D02*
X038479Y032217D01*
X037494Y031262D02*
X034383Y031262D01*
X033720Y031262D02*
X033541Y031262D01*
X033481Y031501D02*
X032234Y031501D01*
X032472Y031262D02*
X032640Y031262D01*
X031806Y031024D02*
X026547Y031024D01*
X026547Y031083D02*
X026491Y031139D01*
X031690Y031139D01*
X032189Y030640D01*
X032279Y030550D01*
X032397Y030502D01*
X032520Y030502D01*
X032830Y030192D01*
X033351Y030192D01*
X032713Y030308D02*
X030227Y030308D01*
X030359Y030176D02*
X029858Y030677D01*
X029601Y030677D01*
X029601Y029919D01*
X029406Y029919D01*
X029406Y029724D01*
X028649Y029724D01*
X028649Y029468D01*
X029150Y028967D01*
X029406Y028967D01*
X029406Y029724D01*
X029601Y029724D01*
X029601Y028967D01*
X029858Y028967D01*
X030359Y029468D01*
X030359Y029724D01*
X029602Y029724D01*
X029602Y029919D01*
X030359Y029919D01*
X030359Y030176D01*
X030359Y030070D02*
X037174Y030070D01*
X037198Y030093D02*
X037108Y030003D01*
X037059Y029885D01*
X037059Y029758D01*
X037108Y029640D01*
X037198Y029550D01*
X037315Y029502D01*
X037401Y029502D01*
X037711Y029192D01*
X038233Y029192D01*
X038479Y029437D01*
X038479Y028206D01*
X038233Y028452D01*
X037711Y028452D01*
X037401Y028142D01*
X037190Y028142D01*
X037073Y028093D01*
X036983Y028003D01*
X036934Y027885D01*
X036934Y027758D01*
X036983Y027640D01*
X037073Y027550D01*
X037190Y027502D01*
X037401Y027502D01*
X037567Y027336D01*
X037322Y027091D01*
X037322Y026832D01*
X037962Y026832D01*
X037962Y026812D01*
X037322Y026812D01*
X037322Y026552D01*
X037703Y026172D01*
X037962Y026172D01*
X037962Y026811D01*
X037982Y026811D01*
X037982Y026172D01*
X038242Y026172D01*
X038479Y026409D01*
X038479Y025342D01*
X034423Y025342D01*
X034681Y025600D01*
X034681Y026122D01*
X034312Y026491D01*
X033790Y026491D01*
X033421Y026122D01*
X033421Y025600D01*
X033680Y025342D01*
X031964Y025342D01*
X031964Y025512D01*
X031824Y025652D01*
X031824Y025718D01*
X031824Y025845D01*
X031775Y025963D01*
X031751Y025987D01*
X032050Y025987D01*
X032539Y026476D01*
X032539Y026482D01*
X032830Y026192D01*
X033351Y026192D01*
X033721Y026561D01*
X033721Y027083D01*
X033351Y027452D01*
X032913Y027452D01*
X032525Y027840D01*
X032435Y027930D01*
X032318Y027978D01*
X028464Y027978D01*
X028464Y028029D01*
X028415Y028146D01*
X026274Y030288D01*
X026547Y030561D01*
X026547Y031083D01*
X025917Y030822D02*
X025917Y030192D01*
X028144Y027965D01*
X028144Y027658D01*
X032254Y027658D01*
X033091Y026822D01*
X033721Y026730D02*
X037322Y026730D01*
X037322Y026969D02*
X033721Y026969D01*
X033596Y027207D02*
X037439Y027207D01*
X037458Y027446D02*
X033357Y027446D01*
X032681Y027684D02*
X036964Y027684D01*
X037254Y027822D02*
X038004Y027822D01*
X037421Y028161D02*
X028400Y028161D01*
X028162Y028400D02*
X033181Y028400D01*
X033157Y028424D02*
X033224Y028356D01*
X033302Y028300D01*
X033388Y028256D01*
X033479Y028227D01*
X033574Y028212D01*
X034002Y028212D01*
X034002Y028811D01*
X034022Y028811D01*
X034022Y028212D01*
X034450Y028212D01*
X034545Y028227D01*
X034636Y028256D01*
X034721Y028300D01*
X034799Y028356D01*
X034867Y028424D01*
X034924Y028502D01*
X034967Y028588D01*
X034997Y028679D01*
X035012Y028774D01*
X035012Y028812D01*
X034022Y028812D01*
X034022Y028832D01*
X034002Y028832D01*
X034002Y029432D01*
X033574Y029432D01*
X033479Y029417D01*
X033388Y029387D01*
X033302Y029343D01*
X033224Y029287D01*
X033157Y029219D01*
X033100Y029141D01*
X033056Y029056D01*
X033027Y028965D01*
X033012Y028870D01*
X033012Y028832D01*
X034002Y028832D01*
X034002Y028812D01*
X033012Y028812D01*
X033012Y028774D01*
X033027Y028679D01*
X033056Y028588D01*
X033100Y028502D01*
X033157Y028424D01*
X033040Y028638D02*
X027923Y028638D01*
X027685Y028877D02*
X033013Y028877D01*
X033087Y029116D02*
X030007Y029116D01*
X029601Y029116D02*
X029406Y029116D01*
X029001Y029116D02*
X027446Y029116D01*
X027207Y029354D02*
X028762Y029354D01*
X028649Y029593D02*
X026969Y029593D01*
X026730Y029831D02*
X029406Y029831D01*
X029406Y029919D02*
X028649Y029919D01*
X028649Y030176D01*
X029150Y030677D01*
X029406Y030677D01*
X029406Y029919D01*
X029504Y029822D02*
X030339Y029822D01*
X031339Y028822D01*
X034012Y028822D01*
X034992Y028822D01*
X034992Y029802D01*
X034997Y029807D01*
X036328Y029807D01*
X036328Y028466D01*
X037972Y026822D01*
X037962Y026730D02*
X037982Y026730D01*
X037962Y026492D02*
X037982Y026492D01*
X037962Y026253D02*
X037982Y026253D01*
X038323Y026253D02*
X038479Y026253D01*
X038479Y026014D02*
X034681Y026014D01*
X034681Y025776D02*
X038479Y025776D01*
X038479Y025537D02*
X034618Y025537D01*
X033484Y025537D02*
X031939Y025537D01*
X031824Y025776D02*
X033421Y025776D01*
X033421Y026014D02*
X032077Y026014D01*
X031504Y025782D02*
X031156Y025782D01*
X030116Y026822D01*
X029504Y026822D01*
X028144Y026422D02*
X028144Y027658D01*
X025984Y027327D02*
X025917Y027260D01*
X025917Y026822D01*
X025287Y026730D02*
X021685Y026730D01*
X021685Y026969D02*
X025287Y026969D01*
X025412Y027207D02*
X021569Y027207D01*
X021550Y027446D02*
X025597Y027446D01*
X025917Y027452D02*
X025917Y027260D01*
X025984Y027327D02*
X025984Y029525D01*
X025287Y030222D01*
X024967Y030547D02*
X021680Y030547D01*
X021685Y030785D02*
X024967Y030785D01*
X024016Y030822D02*
X024016Y031735D01*
X024700Y032419D01*
X032385Y032419D01*
X034997Y029807D01*
X034721Y029343D02*
X034636Y029387D01*
X034545Y029417D01*
X034450Y029432D01*
X034022Y029432D01*
X034022Y028832D01*
X035012Y028832D01*
X035012Y028870D01*
X034997Y028965D01*
X034967Y029056D01*
X034924Y029141D01*
X034867Y029219D01*
X034799Y029287D01*
X034721Y029343D01*
X034701Y029354D02*
X037549Y029354D01*
X037155Y029593D02*
X030359Y029593D01*
X030245Y029354D02*
X033323Y029354D01*
X034002Y029354D02*
X034022Y029354D01*
X034002Y029116D02*
X034022Y029116D01*
X034002Y028877D02*
X034022Y028877D01*
X034002Y028638D02*
X034022Y028638D01*
X034002Y028400D02*
X034022Y028400D01*
X034843Y028400D02*
X037660Y028400D01*
X038285Y028400D02*
X038479Y028400D01*
X038479Y028638D02*
X034984Y028638D01*
X035011Y028877D02*
X038479Y028877D01*
X038479Y029116D02*
X034937Y029116D01*
X036328Y029807D02*
X037342Y030822D01*
X037322Y031024D02*
X033721Y031024D01*
X033706Y030547D02*
X037328Y030547D01*
X037567Y030308D02*
X037401Y030142D01*
X037315Y030142D01*
X037198Y030093D01*
X037059Y029831D02*
X029602Y029831D01*
X029601Y029593D02*
X029406Y029593D01*
X029406Y029354D02*
X029601Y029354D01*
X029601Y030070D02*
X029406Y030070D01*
X029406Y030308D02*
X029601Y030308D01*
X029601Y030547D02*
X029406Y030547D01*
X029020Y030547D02*
X026533Y030547D01*
X026547Y030785D02*
X032044Y030785D01*
X032288Y030547D02*
X029988Y030547D01*
X028781Y030308D02*
X026295Y030308D01*
X026492Y030070D02*
X028649Y030070D01*
X025006Y028638D02*
X024986Y028638D01*
X024986Y028400D02*
X025006Y028400D01*
X025664Y028161D02*
X021587Y028161D01*
X021348Y028400D02*
X024165Y028400D01*
X024024Y028638D02*
X020524Y028638D01*
X020524Y028400D02*
X020723Y028400D01*
X022058Y027923D02*
X025664Y027923D01*
X025664Y027684D02*
X022043Y027684D01*
X021754Y027822D02*
X021004Y027822D01*
X021624Y026492D02*
X025357Y026492D01*
X025416Y026253D02*
X025595Y026253D01*
X025587Y026014D02*
X026930Y026014D01*
X027184Y025776D02*
X025587Y025776D01*
X025563Y025537D02*
X027069Y025537D01*
X027504Y025322D02*
X027504Y025782D01*
X028144Y026422D01*
X026692Y026253D02*
X026239Y026253D01*
X031504Y025782D02*
X031504Y025322D01*
X032316Y026253D02*
X032768Y026253D01*
X033413Y026253D02*
X033552Y026253D01*
X033651Y026492D02*
X037383Y026492D01*
X037622Y026253D02*
X034550Y026253D01*
X032442Y027923D02*
X036949Y027923D01*
X038396Y029354D02*
X038479Y029354D01*
X038004Y029822D02*
X037379Y029822D01*
X033421Y031739D02*
X031982Y031739D01*
X033421Y031978D02*
X025587Y031978D01*
X025413Y032217D02*
X033555Y032217D01*
G04 *
G04 next data from source file './midi-to-audio.sol', *
G04 source file key is 'infile_0007'. *
G04 *
D10*
X008004Y025322D03*
X012004Y025322D03*
D11*
X010004Y026822D03*
D12*
X012204Y026822D03*
X007804Y026822D03*
X010004Y029822D03*
D13*
X014122Y028822D02*
X014902Y028822D01*
X005886Y028822D02*
X005106Y028822D01*
D14*
X001535Y029822D03*
X001535Y030822D03*
X005457Y031782D03*
X006417Y030822D03*
X013591Y030822D03*
X014551Y031822D03*
X018472Y030822D03*
X018472Y029822D03*
X018472Y027822D03*
X018472Y026822D03*
X014551Y025861D03*
X013591Y026822D03*
X006417Y026822D03*
X005457Y025822D03*
X001535Y026822D03*
X001535Y027822D03*
D15*
X001024Y026414D02*
X001024Y025342D01*
X005046Y025342D01*
X004827Y025561D01*
X004827Y026083D01*
X005196Y026452D01*
X005718Y026452D01*
X006087Y026083D01*
X006087Y025561D01*
X005868Y025342D01*
X007544Y025342D01*
X007544Y025512D01*
X007684Y025652D01*
X007684Y025718D01*
X007684Y025845D01*
X007733Y025963D01*
X007756Y025987D01*
X007458Y025987D01*
X006969Y026476D01*
X006969Y026482D01*
X006678Y026192D01*
X006156Y026192D01*
X005787Y026561D01*
X005787Y027083D01*
X006097Y027393D01*
X006097Y027515D01*
X006146Y027633D01*
X006164Y027651D01*
X006164Y028279D01*
X006120Y028256D01*
X006029Y028227D01*
X005934Y028212D01*
X005506Y028212D01*
X005506Y028811D01*
X005486Y028811D01*
X005486Y028212D01*
X005058Y028212D01*
X004963Y028227D01*
X004872Y028256D01*
X004786Y028300D01*
X004709Y028356D01*
X004641Y028424D01*
X004584Y028502D01*
X004541Y028588D01*
X004511Y028679D01*
X004496Y028774D01*
X004496Y028812D01*
X005486Y028812D01*
X005486Y028832D01*
X005486Y029432D01*
X005058Y029432D01*
X004963Y029417D01*
X004872Y029387D01*
X004786Y029343D01*
X004709Y029287D01*
X004641Y029219D01*
X004584Y029141D01*
X004541Y029056D01*
X004511Y028965D01*
X004496Y028870D01*
X004496Y028832D01*
X005486Y028832D01*
X005506Y028832D01*
X005506Y029432D01*
X005934Y029432D01*
X006029Y029417D01*
X006120Y029387D01*
X006164Y029364D01*
X006164Y029392D01*
X005606Y029951D01*
X005516Y030041D01*
X005467Y030159D01*
X005467Y031022D01*
X005467Y031150D01*
X005468Y031152D01*
X005196Y031152D01*
X004827Y031521D01*
X004827Y032043D01*
X005081Y032298D01*
X001024Y032298D01*
X001024Y031229D01*
X001266Y031472D01*
X001525Y031472D01*
X001525Y030832D01*
X001545Y030832D01*
X001545Y031472D01*
X001805Y031472D01*
X002185Y031091D01*
X002185Y030832D01*
X001546Y030832D01*
X001546Y030812D01*
X002185Y030812D01*
X002185Y030552D01*
X001940Y030308D01*
X002106Y030142D01*
X002443Y030142D01*
X002560Y030093D01*
X002650Y030003D01*
X002699Y029885D01*
X002699Y029758D01*
X002650Y029640D01*
X002560Y029550D01*
X002443Y029502D01*
X002106Y029502D01*
X001796Y029192D01*
X001274Y029192D01*
X001024Y029442D01*
X001024Y028201D01*
X001274Y028452D01*
X001796Y028452D01*
X002106Y028142D01*
X002318Y028142D01*
X002435Y028093D01*
X002525Y028003D01*
X002574Y027885D01*
X002574Y027758D01*
X002525Y027640D01*
X002435Y027550D01*
X002318Y027502D01*
X002106Y027502D01*
X001940Y027336D01*
X002185Y027091D01*
X002185Y026832D01*
X001546Y026832D01*
X001546Y026812D01*
X002185Y026812D01*
X002185Y026552D01*
X001805Y026172D01*
X001545Y026172D01*
X001545Y026811D01*
X001525Y026811D01*
X001525Y026172D01*
X001266Y026172D01*
X001024Y026414D01*
X001024Y026253D02*
X001185Y026253D01*
X001525Y026253D02*
X001545Y026253D01*
X001886Y026253D02*
X004997Y026253D01*
X004827Y026014D02*
X001024Y026014D01*
X001024Y025776D02*
X004827Y025776D01*
X004850Y025537D02*
X001024Y025537D01*
X001525Y026492D02*
X001545Y026492D01*
X001525Y026730D02*
X001545Y026730D01*
X001535Y026822D02*
X001981Y026822D01*
X002352Y027192D01*
X002352Y027728D01*
X003422Y027728D01*
X004516Y028822D01*
X005496Y028822D01*
X005486Y028877D02*
X005506Y028877D01*
X005486Y029116D02*
X005506Y029116D01*
X005486Y029354D02*
X005506Y029354D01*
X005964Y029593D02*
X002602Y029593D01*
X002699Y029831D02*
X005726Y029831D01*
X005504Y030070D02*
X002584Y030070D01*
X002199Y029857D02*
X002165Y029890D01*
X002165Y030822D01*
X001535Y030822D01*
X001525Y031024D02*
X001545Y031024D01*
X001525Y031262D02*
X001545Y031262D01*
X001057Y031262D02*
X001024Y031262D01*
X001024Y031501D02*
X004847Y031501D01*
X004827Y031739D02*
X001024Y031739D01*
X001024Y031978D02*
X004827Y031978D01*
X005000Y032217D02*
X001024Y032217D01*
X002014Y031262D02*
X005086Y031262D01*
X005467Y031024D02*
X002185Y031024D01*
X002165Y030822D02*
X004516Y030822D01*
X004516Y028822D01*
X004497Y028877D02*
X001024Y028877D01*
X001024Y029116D02*
X004571Y029116D01*
X004807Y029354D02*
X001959Y029354D01*
X001112Y029354D02*
X001024Y029354D01*
X001629Y029822D02*
X002379Y029822D01*
X001941Y030308D02*
X005467Y030308D01*
X005787Y030222D02*
X005787Y031086D01*
X006160Y031459D01*
X012323Y031459D01*
X012961Y030822D01*
X013591Y030822D01*
X014221Y030785D02*
X017822Y030785D01*
X017822Y030812D02*
X017822Y030552D01*
X018067Y030308D01*
X013968Y030308D01*
X013851Y030192D02*
X014221Y030561D01*
X014221Y031083D01*
X013851Y031452D01*
X013330Y031452D01*
X013056Y031178D01*
X012504Y031730D01*
X012387Y031779D01*
X012259Y031779D01*
X006097Y031779D01*
X006087Y031775D01*
X006087Y032043D01*
X005832Y032298D01*
X014136Y032298D01*
X013921Y032083D01*
X013921Y031561D01*
X014290Y031192D01*
X014812Y031192D01*
X015181Y031561D01*
X015181Y032083D01*
X014966Y032298D01*
X018979Y032298D01*
X018979Y031234D01*
X018742Y031472D01*
X018482Y031472D01*
X018482Y030832D01*
X018462Y030832D01*
X018462Y030812D01*
X017822Y030812D01*
X017822Y030832D02*
X018462Y030832D01*
X018462Y031472D01*
X018203Y031472D01*
X017822Y031091D01*
X017822Y030832D01*
X017842Y030822D02*
X018472Y030822D01*
X018472Y030497D01*
X018456Y030481D01*
X018462Y030452D02*
X018462Y030811D01*
X018482Y030811D01*
X018482Y030452D01*
X018462Y030452D01*
X018462Y030547D02*
X018482Y030547D01*
X018462Y030785D02*
X018482Y030785D01*
X018462Y031024D02*
X018482Y031024D01*
X018462Y031262D02*
X018482Y031262D01*
X018951Y031262D02*
X018979Y031262D01*
X018979Y031501D02*
X015121Y031501D01*
X015181Y031739D02*
X018979Y031739D01*
X018979Y031978D02*
X015181Y031978D01*
X015047Y032217D02*
X018979Y032217D01*
X017994Y031262D02*
X014883Y031262D01*
X014220Y031262D02*
X014041Y031262D01*
X013981Y031501D02*
X012734Y031501D01*
X012972Y031262D02*
X013140Y031262D01*
X012306Y031024D02*
X007047Y031024D01*
X007047Y031083D02*
X006991Y031139D01*
X012190Y031139D01*
X012689Y030640D01*
X012779Y030550D01*
X012897Y030502D01*
X013020Y030502D01*
X013330Y030192D01*
X013851Y030192D01*
X013213Y030308D02*
X010727Y030308D01*
X010859Y030176D02*
X010358Y030677D01*
X010101Y030677D01*
X010101Y029919D01*
X009906Y029919D01*
X009906Y029724D01*
X009149Y029724D01*
X009149Y029468D01*
X009650Y028967D01*
X009906Y028967D01*
X009906Y029724D01*
X010101Y029724D01*
X010101Y028967D01*
X010358Y028967D01*
X010859Y029468D01*
X010859Y029724D01*
X010102Y029724D01*
X010102Y029919D01*
X010859Y029919D01*
X010859Y030176D01*
X010859Y030070D02*
X017674Y030070D01*
X017698Y030093D02*
X017608Y030003D01*
X017559Y029885D01*
X017559Y029758D01*
X017608Y029640D01*
X017698Y029550D01*
X017815Y029502D01*
X017901Y029502D01*
X018211Y029192D01*
X018733Y029192D01*
X018979Y029437D01*
X018979Y028206D01*
X018733Y028452D01*
X018211Y028452D01*
X017901Y028142D01*
X017690Y028142D01*
X017573Y028093D01*
X017483Y028003D01*
X017434Y027885D01*
X017434Y027758D01*
X017483Y027640D01*
X017573Y027550D01*
X017690Y027502D01*
X017901Y027502D01*
X018067Y027336D01*
X017822Y027091D01*
X017822Y026832D01*
X018462Y026832D01*
X018462Y026812D01*
X017822Y026812D01*
X017822Y026552D01*
X018203Y026172D01*
X018462Y026172D01*
X018462Y026811D01*
X018482Y026811D01*
X018482Y026172D01*
X018742Y026172D01*
X018979Y026409D01*
X018979Y025342D01*
X014923Y025342D01*
X015181Y025600D01*
X015181Y026122D01*
X014812Y026491D01*
X014290Y026491D01*
X013921Y026122D01*
X013921Y025600D01*
X014180Y025342D01*
X012464Y025342D01*
X012464Y025512D01*
X012324Y025652D01*
X012324Y025718D01*
X012324Y025845D01*
X012275Y025963D01*
X012251Y025987D01*
X012550Y025987D01*
X013039Y026476D01*
X013039Y026482D01*
X013330Y026192D01*
X013851Y026192D01*
X014221Y026561D01*
X014221Y027083D01*
X013851Y027452D01*
X013413Y027452D01*
X013025Y027840D01*
X012935Y027930D01*
X012818Y027978D01*
X008964Y027978D01*
X008964Y028029D01*
X008915Y028146D01*
X006774Y030288D01*
X007047Y030561D01*
X007047Y031083D01*
X006417Y030822D02*
X006417Y030192D01*
X008644Y027965D01*
X008644Y027658D01*
X012754Y027658D01*
X013591Y026822D01*
X014221Y026730D02*
X017822Y026730D01*
X017822Y026969D02*
X014221Y026969D01*
X014096Y027207D02*
X017939Y027207D01*
X017958Y027446D02*
X013857Y027446D01*
X013181Y027684D02*
X017464Y027684D01*
X017754Y027822D02*
X018504Y027822D01*
X017921Y028161D02*
X008900Y028161D01*
X008662Y028400D02*
X013681Y028400D01*
X013657Y028424D02*
X013724Y028356D01*
X013802Y028300D01*
X013888Y028256D01*
X013979Y028227D01*
X014074Y028212D01*
X014502Y028212D01*
X014502Y028811D01*
X014522Y028811D01*
X014522Y028212D01*
X014950Y028212D01*
X015045Y028227D01*
X015136Y028256D01*
X015221Y028300D01*
X015299Y028356D01*
X015367Y028424D01*
X015424Y028502D01*
X015467Y028588D01*
X015497Y028679D01*
X015512Y028774D01*
X015512Y028812D01*
X014522Y028812D01*
X014522Y028832D01*
X014502Y028832D01*
X014502Y029432D01*
X014074Y029432D01*
X013979Y029417D01*
X013888Y029387D01*
X013802Y029343D01*
X013724Y029287D01*
X013657Y029219D01*
X013600Y029141D01*
X013556Y029056D01*
X013527Y028965D01*
X013512Y028870D01*
X013512Y028832D01*
X014502Y028832D01*
X014502Y028812D01*
X013512Y028812D01*
X013512Y028774D01*
X013527Y028679D01*
X013556Y028588D01*
X013600Y028502D01*
X013657Y028424D01*
X013540Y028638D02*
X008423Y028638D01*
X008185Y028877D02*
X013513Y028877D01*
X013587Y029116D02*
X010507Y029116D01*
X010101Y029116D02*
X009906Y029116D01*
X009501Y029116D02*
X007946Y029116D01*
X007707Y029354D02*
X009262Y029354D01*
X009149Y029593D02*
X007469Y029593D01*
X007230Y029831D02*
X009906Y029831D01*
X009906Y029919D02*
X009149Y029919D01*
X009149Y030176D01*
X009650Y030677D01*
X009906Y030677D01*
X009906Y029919D01*
X010004Y029822D02*
X010839Y029822D01*
X011839Y028822D01*
X014512Y028822D01*
X015492Y028822D01*
X015492Y029802D01*
X015497Y029807D01*
X016828Y029807D01*
X016828Y028466D01*
X018472Y026822D01*
X018462Y026730D02*
X018482Y026730D01*
X018462Y026492D02*
X018482Y026492D01*
X018462Y026253D02*
X018482Y026253D01*
X018823Y026253D02*
X018979Y026253D01*
X018979Y026014D02*
X015181Y026014D01*
X015181Y025776D02*
X018979Y025776D01*
X018979Y025537D02*
X015118Y025537D01*
X013984Y025537D02*
X012439Y025537D01*
X012324Y025776D02*
X013921Y025776D01*
X013921Y026014D02*
X012577Y026014D01*
X012004Y025782D02*
X011656Y025782D01*
X010616Y026822D01*
X010004Y026822D01*
X008644Y026422D02*
X008644Y027658D01*
X006484Y027327D02*
X006417Y027260D01*
X006417Y026822D01*
X005787Y026730D02*
X002185Y026730D01*
X002185Y026969D02*
X005787Y026969D01*
X005912Y027207D02*
X002069Y027207D01*
X002050Y027446D02*
X006097Y027446D01*
X006417Y027452D02*
X006417Y027260D01*
X006484Y027327D02*
X006484Y029525D01*
X005787Y030222D01*
X005467Y030547D02*
X002180Y030547D01*
X002185Y030785D02*
X005467Y030785D01*
X004516Y030822D02*
X004516Y031735D01*
X005200Y032419D01*
X012885Y032419D01*
X015497Y029807D01*
X015221Y029343D02*
X015136Y029387D01*
X015045Y029417D01*
X014950Y029432D01*
X014522Y029432D01*
X014522Y028832D01*
X015512Y028832D01*
X015512Y028870D01*
X015497Y028965D01*
X015467Y029056D01*
X015424Y029141D01*
X015367Y029219D01*
X015299Y029287D01*
X015221Y029343D01*
X015201Y029354D02*
X018049Y029354D01*
X017655Y029593D02*
X010859Y029593D01*
X010745Y029354D02*
X013823Y029354D01*
X014502Y029354D02*
X014522Y029354D01*
X014502Y029116D02*
X014522Y029116D01*
X014502Y028877D02*
X014522Y028877D01*
X014502Y028638D02*
X014522Y028638D01*
X014502Y028400D02*
X014522Y028400D01*
X015343Y028400D02*
X018160Y028400D01*
X018785Y028400D02*
X018979Y028400D01*
X018979Y028638D02*
X015484Y028638D01*
X015511Y028877D02*
X018979Y028877D01*
X018979Y029116D02*
X015437Y029116D01*
X016828Y029807D02*
X017842Y030822D01*
X017822Y031024D02*
X014221Y031024D01*
X014206Y030547D02*
X017828Y030547D01*
X018067Y030308D02*
X017901Y030142D01*
X017815Y030142D01*
X017698Y030093D01*
X017559Y029831D02*
X010102Y029831D01*
X010101Y029593D02*
X009906Y029593D01*
X009906Y029354D02*
X010101Y029354D01*
X010101Y030070D02*
X009906Y030070D01*
X009906Y030308D02*
X010101Y030308D01*
X010101Y030547D02*
X009906Y030547D01*
X009520Y030547D02*
X007033Y030547D01*
X007047Y030785D02*
X012544Y030785D01*
X012788Y030547D02*
X010488Y030547D01*
X009281Y030308D02*
X006795Y030308D01*
X006992Y030070D02*
X009149Y030070D01*
X005506Y028638D02*
X005486Y028638D01*
X005486Y028400D02*
X005506Y028400D01*
X006164Y028161D02*
X002087Y028161D01*
X001848Y028400D02*
X004665Y028400D01*
X004524Y028638D02*
X001024Y028638D01*
X001024Y028400D02*
X001223Y028400D01*
X002558Y027923D02*
X006164Y027923D01*
X006164Y027684D02*
X002543Y027684D01*
X002254Y027822D02*
X001504Y027822D01*
X002124Y026492D02*
X005857Y026492D01*
X005916Y026253D02*
X006095Y026253D01*
X006087Y026014D02*
X007430Y026014D01*
X007684Y025776D02*
X006087Y025776D01*
X006063Y025537D02*
X007569Y025537D01*
X008004Y025322D02*
X008004Y025782D01*
X008644Y026422D01*
X007192Y026253D02*
X006739Y026253D01*
X012004Y025782D02*
X012004Y025322D01*
X012816Y026253D02*
X013268Y026253D01*
X013913Y026253D02*
X014052Y026253D01*
X014151Y026492D02*
X017883Y026492D01*
X018122Y026253D02*
X015050Y026253D01*
X012942Y027923D02*
X017449Y027923D01*
X018896Y029354D02*
X018979Y029354D01*
X018504Y029822D02*
X017879Y029822D01*
X013921Y031739D02*
X012482Y031739D01*
X013921Y031978D02*
X006087Y031978D01*
X005913Y032217D02*
X014055Y032217D01*
G04 *
G04 next data from source file './midi-to-audio.sol', *
G04 source file key is 'infile_0004'. *
G04 *
D10*
X027504Y008922D03*
X031504Y008922D03*
D11*
X029504Y010422D03*
D12*
X031704Y010422D03*
X027304Y010422D03*
X029504Y013422D03*
D13*
X033622Y012422D02*
X034402Y012422D01*
X025386Y012422D02*
X024606Y012422D01*
D14*
X021035Y013422D03*
X021035Y014422D03*
X024957Y015382D03*
X025917Y014422D03*
X033091Y014422D03*
X034051Y015422D03*
X037972Y014422D03*
X037972Y013422D03*
X037972Y011422D03*
X037972Y010422D03*
X034051Y009461D03*
X033091Y010422D03*
X025917Y010422D03*
X024957Y009422D03*
X021035Y010422D03*
X021035Y011422D03*
D15*
X020524Y010014D02*
X020524Y008942D01*
X024546Y008942D01*
X024327Y009161D01*
X024327Y009683D01*
X024696Y010052D01*
X025218Y010052D01*
X025587Y009683D01*
X025587Y009161D01*
X025368Y008942D01*
X027044Y008942D01*
X027044Y009112D01*
X027184Y009252D01*
X027184Y009318D01*
X027184Y009445D01*
X027233Y009563D01*
X027256Y009587D01*
X026958Y009587D01*
X026469Y010076D01*
X026469Y010082D01*
X026178Y009792D01*
X025656Y009792D01*
X025287Y010161D01*
X025287Y010683D01*
X025597Y010993D01*
X025597Y011115D01*
X025646Y011233D01*
X025664Y011251D01*
X025664Y011879D01*
X025620Y011856D01*
X025529Y011827D01*
X025434Y011812D01*
X025006Y011812D01*
X025006Y012411D01*
X024986Y012411D01*
X024986Y011812D01*
X024558Y011812D01*
X024463Y011827D01*
X024372Y011856D01*
X024286Y011900D01*
X024209Y011956D01*
X024141Y012024D01*
X024084Y012102D01*
X024041Y012188D01*
X024011Y012279D01*
X023996Y012374D01*
X023996Y012412D01*
X024986Y012412D01*
X024986Y012432D01*
X024986Y013032D01*
X024558Y013032D01*
X024463Y013017D01*
X024372Y012987D01*
X024286Y012943D01*
X024209Y012887D01*
X024141Y012819D01*
X024084Y012741D01*
X024041Y012656D01*
X024011Y012565D01*
X023996Y012470D01*
X023996Y012432D01*
X024986Y012432D01*
X025006Y012432D01*
X025006Y013032D01*
X025434Y013032D01*
X025529Y013017D01*
X025620Y012987D01*
X025664Y012964D01*
X025664Y012992D01*
X025106Y013551D01*
X025016Y013641D01*
X024967Y013759D01*
X024967Y014622D01*
X024967Y014750D01*
X024968Y014752D01*
X024696Y014752D01*
X024327Y015121D01*
X024327Y015643D01*
X024581Y015898D01*
X020524Y015898D01*
X020524Y014829D01*
X020766Y015072D01*
X021025Y015072D01*
X021025Y014432D01*
X021045Y014432D01*
X021045Y015072D01*
X021305Y015072D01*
X021685Y014691D01*
X021685Y014432D01*
X021046Y014432D01*
X021046Y014412D01*
X021685Y014412D01*
X021685Y014152D01*
X021440Y013908D01*
X021606Y013742D01*
X021943Y013742D01*
X022060Y013693D01*
X022150Y013603D01*
X022199Y013485D01*
X022199Y013358D01*
X022150Y013240D01*
X022060Y013150D01*
X021943Y013102D01*
X021606Y013102D01*
X021296Y012792D01*
X020774Y012792D01*
X020524Y013042D01*
X020524Y011801D01*
X020774Y012052D01*
X021296Y012052D01*
X021606Y011742D01*
X021818Y011742D01*
X021935Y011693D01*
X022025Y011603D01*
X022074Y011485D01*
X022074Y011358D01*
X022025Y011240D01*
X021935Y011150D01*
X021818Y011102D01*
X021606Y011102D01*
X021440Y010936D01*
X021685Y010691D01*
X021685Y010432D01*
X021046Y010432D01*
X021046Y010412D01*
X021685Y010412D01*
X021685Y010152D01*
X021305Y009772D01*
X021045Y009772D01*
X021045Y010411D01*
X021025Y010411D01*
X021025Y009772D01*
X020766Y009772D01*
X020524Y010014D01*
X020524Y009853D02*
X020685Y009853D01*
X021025Y009853D02*
X021045Y009853D01*
X021386Y009853D02*
X024497Y009853D01*
X024327Y009614D02*
X020524Y009614D01*
X020524Y009376D02*
X024327Y009376D01*
X024350Y009137D02*
X020524Y009137D01*
X021025Y010092D02*
X021045Y010092D01*
X021025Y010330D02*
X021045Y010330D01*
X021035Y010422D02*
X021481Y010422D01*
X021852Y010792D01*
X021852Y011328D01*
X022922Y011328D01*
X024016Y012422D01*
X024996Y012422D01*
X024986Y012477D02*
X025006Y012477D01*
X024986Y012716D02*
X025006Y012716D01*
X024986Y012954D02*
X025006Y012954D01*
X025464Y013193D02*
X022102Y013193D01*
X022199Y013431D02*
X025226Y013431D01*
X025004Y013670D02*
X022084Y013670D01*
X021699Y013457D02*
X021665Y013490D01*
X021665Y014422D01*
X021035Y014422D01*
X021025Y014624D02*
X021045Y014624D01*
X021025Y014862D02*
X021045Y014862D01*
X020557Y014862D02*
X020524Y014862D01*
X020524Y015101D02*
X024347Y015101D01*
X024327Y015339D02*
X020524Y015339D01*
X020524Y015578D02*
X024327Y015578D01*
X024500Y015817D02*
X020524Y015817D01*
X021514Y014862D02*
X024586Y014862D01*
X024967Y014624D02*
X021685Y014624D01*
X021665Y014422D02*
X024016Y014422D01*
X024016Y012422D01*
X023997Y012477D02*
X020524Y012477D01*
X020524Y012716D02*
X024071Y012716D01*
X024307Y012954D02*
X021459Y012954D01*
X020612Y012954D02*
X020524Y012954D01*
X021129Y013422D02*
X021879Y013422D01*
X021441Y013908D02*
X024967Y013908D01*
X025287Y013822D02*
X025287Y014686D01*
X025660Y015059D01*
X031823Y015059D01*
X032461Y014422D01*
X033091Y014422D01*
X033721Y014385D02*
X037322Y014385D01*
X037322Y014412D02*
X037322Y014152D01*
X037567Y013908D01*
X033468Y013908D01*
X033351Y013792D02*
X033721Y014161D01*
X033721Y014683D01*
X033351Y015052D01*
X032830Y015052D01*
X032556Y014778D01*
X032004Y015330D01*
X031887Y015379D01*
X031759Y015379D01*
X025597Y015379D01*
X025587Y015375D01*
X025587Y015643D01*
X025332Y015898D01*
X033636Y015898D01*
X033421Y015683D01*
X033421Y015161D01*
X033790Y014792D01*
X034312Y014792D01*
X034681Y015161D01*
X034681Y015683D01*
X034466Y015898D01*
X038479Y015898D01*
X038479Y014834D01*
X038242Y015072D01*
X037982Y015072D01*
X037982Y014432D01*
X037962Y014432D01*
X037962Y014412D01*
X037322Y014412D01*
X037322Y014432D02*
X037962Y014432D01*
X037962Y015072D01*
X037703Y015072D01*
X037322Y014691D01*
X037322Y014432D01*
X037342Y014422D02*
X037972Y014422D01*
X037972Y014097D01*
X037956Y014081D01*
X037962Y014052D02*
X037962Y014411D01*
X037982Y014411D01*
X037982Y014052D01*
X037962Y014052D01*
X037962Y014147D02*
X037982Y014147D01*
X037962Y014385D02*
X037982Y014385D01*
X037962Y014624D02*
X037982Y014624D01*
X037962Y014862D02*
X037982Y014862D01*
X038451Y014862D02*
X038479Y014862D01*
X038479Y015101D02*
X034621Y015101D01*
X034681Y015339D02*
X038479Y015339D01*
X038479Y015578D02*
X034681Y015578D01*
X034547Y015817D02*
X038479Y015817D01*
X037494Y014862D02*
X034383Y014862D01*
X033720Y014862D02*
X033541Y014862D01*
X033481Y015101D02*
X032234Y015101D01*
X032472Y014862D02*
X032640Y014862D01*
X031806Y014624D02*
X026547Y014624D01*
X026547Y014683D02*
X026491Y014739D01*
X031690Y014739D01*
X032189Y014240D01*
X032279Y014150D01*
X032397Y014102D01*
X032520Y014102D01*
X032830Y013792D01*
X033351Y013792D01*
X032713Y013908D02*
X030227Y013908D01*
X030359Y013776D02*
X029858Y014277D01*
X029601Y014277D01*
X029601Y013519D01*
X029406Y013519D01*
X029406Y013324D01*
X028649Y013324D01*
X028649Y013068D01*
X029150Y012567D01*
X029406Y012567D01*
X029406Y013324D01*
X029601Y013324D01*
X029601Y012567D01*
X029858Y012567D01*
X030359Y013068D01*
X030359Y013324D01*
X029602Y013324D01*
X029602Y013519D01*
X030359Y013519D01*
X030359Y013776D01*
X030359Y013670D02*
X037174Y013670D01*
X037198Y013693D02*
X037108Y013603D01*
X037059Y013485D01*
X037059Y013358D01*
X037108Y013240D01*
X037198Y013150D01*
X037315Y013102D01*
X037401Y013102D01*
X037711Y012792D01*
X038233Y012792D01*
X038479Y013037D01*
X038479Y011806D01*
X038233Y012052D01*
X037711Y012052D01*
X037401Y011742D01*
X037190Y011742D01*
X037073Y011693D01*
X036983Y011603D01*
X036934Y011485D01*
X036934Y011358D01*
X036983Y011240D01*
X037073Y011150D01*
X037190Y011102D01*
X037401Y011102D01*
X037567Y010936D01*
X037322Y010691D01*
X037322Y010432D01*
X037962Y010432D01*
X037962Y010412D01*
X037322Y010412D01*
X037322Y010152D01*
X037703Y009772D01*
X037962Y009772D01*
X037962Y010411D01*
X037982Y010411D01*
X037982Y009772D01*
X038242Y009772D01*
X038479Y010009D01*
X038479Y008942D01*
X034423Y008942D01*
X034681Y009200D01*
X034681Y009722D01*
X034312Y010091D01*
X033790Y010091D01*
X033421Y009722D01*
X033421Y009200D01*
X033680Y008942D01*
X031964Y008942D01*
X031964Y009112D01*
X031824Y009252D01*
X031824Y009318D01*
X031824Y009445D01*
X031775Y009563D01*
X031751Y009587D01*
X032050Y009587D01*
X032539Y010076D01*
X032539Y010082D01*
X032830Y009792D01*
X033351Y009792D01*
X033721Y010161D01*
X033721Y010683D01*
X033351Y011052D01*
X032913Y011052D01*
X032525Y011440D01*
X032435Y011530D01*
X032318Y011578D01*
X028464Y011578D01*
X028464Y011629D01*
X028415Y011746D01*
X026274Y013888D01*
X026547Y014161D01*
X026547Y014683D01*
X025917Y014422D02*
X025917Y013792D01*
X028144Y011565D01*
X028144Y011258D01*
X032254Y011258D01*
X033091Y010422D01*
X033721Y010330D02*
X037322Y010330D01*
X037322Y010569D02*
X033721Y010569D01*
X033596Y010807D02*
X037439Y010807D01*
X037458Y011046D02*
X033357Y011046D01*
X032681Y011284D02*
X036964Y011284D01*
X037254Y011422D02*
X038004Y011422D01*
X037421Y011761D02*
X028400Y011761D01*
X028162Y012000D02*
X033181Y012000D01*
X033157Y012024D02*
X033224Y011956D01*
X033302Y011900D01*
X033388Y011856D01*
X033479Y011827D01*
X033574Y011812D01*
X034002Y011812D01*
X034002Y012411D01*
X034022Y012411D01*
X034022Y011812D01*
X034450Y011812D01*
X034545Y011827D01*
X034636Y011856D01*
X034721Y011900D01*
X034799Y011956D01*
X034867Y012024D01*
X034924Y012102D01*
X034967Y012188D01*
X034997Y012279D01*
X035012Y012374D01*
X035012Y012412D01*
X034022Y012412D01*
X034022Y012432D01*
X034002Y012432D01*
X034002Y013032D01*
X033574Y013032D01*
X033479Y013017D01*
X033388Y012987D01*
X033302Y012943D01*
X033224Y012887D01*
X033157Y012819D01*
X033100Y012741D01*
X033056Y012656D01*
X033027Y012565D01*
X033012Y012470D01*
X033012Y012432D01*
X034002Y012432D01*
X034002Y012412D01*
X033012Y012412D01*
X033012Y012374D01*
X033027Y012279D01*
X033056Y012188D01*
X033100Y012102D01*
X033157Y012024D01*
X033040Y012238D02*
X027923Y012238D01*
X027685Y012477D02*
X033013Y012477D01*
X033087Y012716D02*
X030007Y012716D01*
X029601Y012716D02*
X029406Y012716D01*
X029001Y012716D02*
X027446Y012716D01*
X027207Y012954D02*
X028762Y012954D01*
X028649Y013193D02*
X026969Y013193D01*
X026730Y013431D02*
X029406Y013431D01*
X029406Y013519D02*
X028649Y013519D01*
X028649Y013776D01*
X029150Y014277D01*
X029406Y014277D01*
X029406Y013519D01*
X029504Y013422D02*
X030339Y013422D01*
X031339Y012422D01*
X034012Y012422D01*
X034992Y012422D01*
X034992Y013402D01*
X034997Y013407D01*
X036328Y013407D01*
X036328Y012066D01*
X037972Y010422D01*
X037962Y010330D02*
X037982Y010330D01*
X037962Y010092D02*
X037982Y010092D01*
X037962Y009853D02*
X037982Y009853D01*
X038323Y009853D02*
X038479Y009853D01*
X038479Y009614D02*
X034681Y009614D01*
X034681Y009376D02*
X038479Y009376D01*
X038479Y009137D02*
X034618Y009137D01*
X033484Y009137D02*
X031939Y009137D01*
X031824Y009376D02*
X033421Y009376D01*
X033421Y009614D02*
X032077Y009614D01*
X031504Y009382D02*
X031156Y009382D01*
X030116Y010422D01*
X029504Y010422D01*
X028144Y010022D02*
X028144Y011258D01*
X025984Y010927D02*
X025917Y010860D01*
X025917Y010422D01*
X025287Y010330D02*
X021685Y010330D01*
X021685Y010569D02*
X025287Y010569D01*
X025412Y010807D02*
X021569Y010807D01*
X021550Y011046D02*
X025597Y011046D01*
X025917Y011052D02*
X025917Y010860D01*
X025984Y010927D02*
X025984Y013125D01*
X025287Y013822D01*
X024967Y014147D02*
X021680Y014147D01*
X021685Y014385D02*
X024967Y014385D01*
X024016Y014422D02*
X024016Y015335D01*
X024700Y016019D01*
X032385Y016019D01*
X034997Y013407D01*
X034721Y012943D02*
X034636Y012987D01*
X034545Y013017D01*
X034450Y013032D01*
X034022Y013032D01*
X034022Y012432D01*
X035012Y012432D01*
X035012Y012470D01*
X034997Y012565D01*
X034967Y012656D01*
X034924Y012741D01*
X034867Y012819D01*
X034799Y012887D01*
X034721Y012943D01*
X034701Y012954D02*
X037549Y012954D01*
X037155Y013193D02*
X030359Y013193D01*
X030245Y012954D02*
X033323Y012954D01*
X034002Y012954D02*
X034022Y012954D01*
X034002Y012716D02*
X034022Y012716D01*
X034002Y012477D02*
X034022Y012477D01*
X034002Y012238D02*
X034022Y012238D01*
X034002Y012000D02*
X034022Y012000D01*
X034843Y012000D02*
X037660Y012000D01*
X038285Y012000D02*
X038479Y012000D01*
X038479Y012238D02*
X034984Y012238D01*
X035011Y012477D02*
X038479Y012477D01*
X038479Y012716D02*
X034937Y012716D01*
X036328Y013407D02*
X037342Y014422D01*
X037322Y014624D02*
X033721Y014624D01*
X033706Y014147D02*
X037328Y014147D01*
X037567Y013908D02*
X037401Y013742D01*
X037315Y013742D01*
X037198Y013693D01*
X037059Y013431D02*
X029602Y013431D01*
X029601Y013193D02*
X029406Y013193D01*
X029406Y012954D02*
X029601Y012954D01*
X029601Y013670D02*
X029406Y013670D01*
X029406Y013908D02*
X029601Y013908D01*
X029601Y014147D02*
X029406Y014147D01*
X029020Y014147D02*
X026533Y014147D01*
X026547Y014385D02*
X032044Y014385D01*
X032288Y014147D02*
X029988Y014147D01*
X028781Y013908D02*
X026295Y013908D01*
X026492Y013670D02*
X028649Y013670D01*
X025006Y012238D02*
X024986Y012238D01*
X024986Y012000D02*
X025006Y012000D01*
X025664Y011761D02*
X021587Y011761D01*
X021348Y012000D02*
X024165Y012000D01*
X024024Y012238D02*
X020524Y012238D01*
X020524Y012000D02*
X020723Y012000D01*
X022058Y011523D02*
X025664Y011523D01*
X025664Y011284D02*
X022043Y011284D01*
X021754Y011422D02*
X021004Y011422D01*
X021624Y010092D02*
X025357Y010092D01*
X025416Y009853D02*
X025595Y009853D01*
X025587Y009614D02*
X026930Y009614D01*
X027184Y009376D02*
X025587Y009376D01*
X025563Y009137D02*
X027069Y009137D01*
X027504Y008922D02*
X027504Y009382D01*
X028144Y010022D01*
X026692Y009853D02*
X026239Y009853D01*
X031504Y009382D02*
X031504Y008922D01*
X032316Y009853D02*
X032768Y009853D01*
X033413Y009853D02*
X033552Y009853D01*
X033651Y010092D02*
X037383Y010092D01*
X037622Y009853D02*
X034550Y009853D01*
X032442Y011523D02*
X036949Y011523D01*
X038396Y012954D02*
X038479Y012954D01*
X038004Y013422D02*
X037379Y013422D01*
X033421Y015339D02*
X031982Y015339D01*
X033421Y015578D02*
X025587Y015578D01*
X025413Y015817D02*
X033555Y015817D01*
G04 *
G04 next data from source file './midi-to-audio.sol', *
G04 source file key is 'infile_0012'. *
G04 *
D10*
X027504Y042122D03*
X031504Y042122D03*
D11*
X029504Y043622D03*
D12*
X031704Y043622D03*
X027304Y043622D03*
X029504Y046622D03*
D13*
X033622Y045622D02*
X034402Y045622D01*
X025386Y045622D02*
X024606Y045622D01*
D14*
X021035Y046622D03*
X021035Y047622D03*
X024957Y048582D03*
X025917Y047622D03*
X033091Y047622D03*
X034051Y048622D03*
X037972Y047622D03*
X037972Y046622D03*
X037972Y044622D03*
X037972Y043622D03*
X034051Y042661D03*
X033091Y043622D03*
X025917Y043622D03*
X024957Y042622D03*
X021035Y043622D03*
X021035Y044622D03*
D15*
X020524Y043214D02*
X020524Y042142D01*
X024546Y042142D01*
X024327Y042361D01*
X024327Y042883D01*
X024696Y043252D01*
X025218Y043252D01*
X025587Y042883D01*
X025587Y042361D01*
X025368Y042142D01*
X027044Y042142D01*
X027044Y042312D01*
X027184Y042452D01*
X027184Y042518D01*
X027184Y042645D01*
X027233Y042763D01*
X027256Y042787D01*
X026958Y042787D01*
X026469Y043276D01*
X026469Y043282D01*
X026178Y042992D01*
X025656Y042992D01*
X025287Y043361D01*
X025287Y043883D01*
X025597Y044193D01*
X025597Y044315D01*
X025646Y044433D01*
X025664Y044451D01*
X025664Y045079D01*
X025620Y045056D01*
X025529Y045027D01*
X025434Y045012D01*
X025006Y045012D01*
X025006Y045611D01*
X024986Y045611D01*
X024986Y045012D01*
X024558Y045012D01*
X024463Y045027D01*
X024372Y045056D01*
X024286Y045100D01*
X024209Y045156D01*
X024141Y045224D01*
X024084Y045302D01*
X024041Y045388D01*
X024011Y045479D01*
X023996Y045574D01*
X023996Y045612D01*
X024986Y045612D01*
X024986Y045632D01*
X024986Y046232D01*
X024558Y046232D01*
X024463Y046217D01*
X024372Y046187D01*
X024286Y046143D01*
X024209Y046087D01*
X024141Y046019D01*
X024084Y045941D01*
X024041Y045856D01*
X024011Y045765D01*
X023996Y045670D01*
X023996Y045632D01*
X024986Y045632D01*
X025006Y045632D01*
X025006Y046232D01*
X025434Y046232D01*
X025529Y046217D01*
X025620Y046187D01*
X025664Y046164D01*
X025664Y046192D01*
X025106Y046751D01*
X025016Y046841D01*
X024967Y046959D01*
X024967Y047822D01*
X024967Y047950D01*
X024968Y047952D01*
X024696Y047952D01*
X024327Y048321D01*
X024327Y048843D01*
X024581Y049098D01*
X020524Y049098D01*
X020524Y048029D01*
X020766Y048272D01*
X021025Y048272D01*
X021025Y047632D01*
X021045Y047632D01*
X021045Y048272D01*
X021305Y048272D01*
X021685Y047891D01*
X021685Y047632D01*
X021046Y047632D01*
X021046Y047612D01*
X021685Y047612D01*
X021685Y047352D01*
X021440Y047108D01*
X021606Y046942D01*
X021943Y046942D01*
X022060Y046893D01*
X022150Y046803D01*
X022199Y046685D01*
X022199Y046558D01*
X022150Y046440D01*
X022060Y046350D01*
X021943Y046302D01*
X021606Y046302D01*
X021296Y045992D01*
X020774Y045992D01*
X020524Y046242D01*
X020524Y045001D01*
X020774Y045252D01*
X021296Y045252D01*
X021606Y044942D01*
X021818Y044942D01*
X021935Y044893D01*
X022025Y044803D01*
X022074Y044685D01*
X022074Y044558D01*
X022025Y044440D01*
X021935Y044350D01*
X021818Y044302D01*
X021606Y044302D01*
X021440Y044136D01*
X021685Y043891D01*
X021685Y043632D01*
X021046Y043632D01*
X021046Y043612D01*
X021685Y043612D01*
X021685Y043352D01*
X021305Y042972D01*
X021045Y042972D01*
X021045Y043611D01*
X021025Y043611D01*
X021025Y042972D01*
X020766Y042972D01*
X020524Y043214D01*
X020524Y043053D02*
X020685Y043053D01*
X021025Y043053D02*
X021045Y043053D01*
X021386Y043053D02*
X024497Y043053D01*
X024327Y042814D02*
X020524Y042814D01*
X020524Y042576D02*
X024327Y042576D01*
X024350Y042337D02*
X020524Y042337D01*
X021025Y043292D02*
X021045Y043292D01*
X021025Y043530D02*
X021045Y043530D01*
X021035Y043622D02*
X021481Y043622D01*
X021852Y043992D01*
X021852Y044528D01*
X022922Y044528D01*
X024016Y045622D01*
X024996Y045622D01*
X024986Y045677D02*
X025006Y045677D01*
X024986Y045916D02*
X025006Y045916D01*
X024986Y046154D02*
X025006Y046154D01*
X025464Y046393D02*
X022102Y046393D01*
X022199Y046631D02*
X025226Y046631D01*
X025004Y046870D02*
X022084Y046870D01*
X021699Y046657D02*
X021665Y046690D01*
X021665Y047622D01*
X021035Y047622D01*
X021025Y047824D02*
X021045Y047824D01*
X021025Y048062D02*
X021045Y048062D01*
X020557Y048062D02*
X020524Y048062D01*
X020524Y048301D02*
X024347Y048301D01*
X024327Y048539D02*
X020524Y048539D01*
X020524Y048778D02*
X024327Y048778D01*
X024500Y049017D02*
X020524Y049017D01*
X021514Y048062D02*
X024586Y048062D01*
X024967Y047824D02*
X021685Y047824D01*
X021665Y047622D02*
X024016Y047622D01*
X024016Y045622D01*
X023997Y045677D02*
X020524Y045677D01*
X020524Y045916D02*
X024071Y045916D01*
X024307Y046154D02*
X021459Y046154D01*
X020612Y046154D02*
X020524Y046154D01*
X021129Y046622D02*
X021879Y046622D01*
X021441Y047108D02*
X024967Y047108D01*
X025287Y047022D02*
X025287Y047886D01*
X025660Y048259D01*
X031823Y048259D01*
X032461Y047622D01*
X033091Y047622D01*
X033721Y047585D02*
X037322Y047585D01*
X037322Y047612D02*
X037322Y047352D01*
X037567Y047108D01*
X033468Y047108D01*
X033351Y046992D02*
X033721Y047361D01*
X033721Y047883D01*
X033351Y048252D01*
X032830Y048252D01*
X032556Y047978D01*
X032004Y048530D01*
X031887Y048579D01*
X031759Y048579D01*
X025597Y048579D01*
X025587Y048575D01*
X025587Y048843D01*
X025332Y049098D01*
X033636Y049098D01*
X033421Y048883D01*
X033421Y048361D01*
X033790Y047992D01*
X034312Y047992D01*
X034681Y048361D01*
X034681Y048883D01*
X034466Y049098D01*
X038479Y049098D01*
X038479Y048034D01*
X038242Y048272D01*
X037982Y048272D01*
X037982Y047632D01*
X037962Y047632D01*
X037962Y047612D01*
X037322Y047612D01*
X037322Y047632D02*
X037962Y047632D01*
X037962Y048272D01*
X037703Y048272D01*
X037322Y047891D01*
X037322Y047632D01*
X037342Y047622D02*
X037972Y047622D01*
X037972Y047297D01*
X037956Y047281D01*
X037962Y047252D02*
X037962Y047611D01*
X037982Y047611D01*
X037982Y047252D01*
X037962Y047252D01*
X037962Y047347D02*
X037982Y047347D01*
X037962Y047585D02*
X037982Y047585D01*
X037962Y047824D02*
X037982Y047824D01*
X037962Y048062D02*
X037982Y048062D01*
X038451Y048062D02*
X038479Y048062D01*
X038479Y048301D02*
X034621Y048301D01*
X034681Y048539D02*
X038479Y048539D01*
X038479Y048778D02*
X034681Y048778D01*
X034547Y049017D02*
X038479Y049017D01*
X037494Y048062D02*
X034383Y048062D01*
X033720Y048062D02*
X033541Y048062D01*
X033481Y048301D02*
X032234Y048301D01*
X032472Y048062D02*
X032640Y048062D01*
X031806Y047824D02*
X026547Y047824D01*
X026547Y047883D02*
X026491Y047939D01*
X031690Y047939D01*
X032189Y047440D01*
X032279Y047350D01*
X032397Y047302D01*
X032520Y047302D01*
X032830Y046992D01*
X033351Y046992D01*
X032713Y047108D02*
X030227Y047108D01*
X030359Y046976D02*
X029858Y047477D01*
X029601Y047477D01*
X029601Y046719D01*
X029406Y046719D01*
X029406Y046524D01*
X028649Y046524D01*
X028649Y046268D01*
X029150Y045767D01*
X029406Y045767D01*
X029406Y046524D01*
X029601Y046524D01*
X029601Y045767D01*
X029858Y045767D01*
X030359Y046268D01*
X030359Y046524D01*
X029602Y046524D01*
X029602Y046719D01*
X030359Y046719D01*
X030359Y046976D01*
X030359Y046870D02*
X037174Y046870D01*
X037198Y046893D02*
X037108Y046803D01*
X037059Y046685D01*
X037059Y046558D01*
X037108Y046440D01*
X037198Y046350D01*
X037315Y046302D01*
X037401Y046302D01*
X037711Y045992D01*
X038233Y045992D01*
X038479Y046237D01*
X038479Y045006D01*
X038233Y045252D01*
X037711Y045252D01*
X037401Y044942D01*
X037190Y044942D01*
X037073Y044893D01*
X036983Y044803D01*
X036934Y044685D01*
X036934Y044558D01*
X036983Y044440D01*
X037073Y044350D01*
X037190Y044302D01*
X037401Y044302D01*
X037567Y044136D01*
X037322Y043891D01*
X037322Y043632D01*
X037962Y043632D01*
X037962Y043612D01*
X037322Y043612D01*
X037322Y043352D01*
X037703Y042972D01*
X037962Y042972D01*
X037962Y043611D01*
X037982Y043611D01*
X037982Y042972D01*
X038242Y042972D01*
X038479Y043209D01*
X038479Y042142D01*
X034423Y042142D01*
X034681Y042400D01*
X034681Y042922D01*
X034312Y043291D01*
X033790Y043291D01*
X033421Y042922D01*
X033421Y042400D01*
X033680Y042142D01*
X031964Y042142D01*
X031964Y042312D01*
X031824Y042452D01*
X031824Y042518D01*
X031824Y042645D01*
X031775Y042763D01*
X031751Y042787D01*
X032050Y042787D01*
X032539Y043276D01*
X032539Y043282D01*
X032830Y042992D01*
X033351Y042992D01*
X033721Y043361D01*
X033721Y043883D01*
X033351Y044252D01*
X032913Y044252D01*
X032525Y044640D01*
X032435Y044730D01*
X032318Y044778D01*
X028464Y044778D01*
X028464Y044829D01*
X028415Y044946D01*
X026274Y047088D01*
X026547Y047361D01*
X026547Y047883D01*
X025917Y047622D02*
X025917Y046992D01*
X028144Y044765D01*
X028144Y044458D01*
X032254Y044458D01*
X033091Y043622D01*
X033721Y043530D02*
X037322Y043530D01*
X037322Y043769D02*
X033721Y043769D01*
X033596Y044007D02*
X037439Y044007D01*
X037458Y044246D02*
X033357Y044246D01*
X032681Y044484D02*
X036964Y044484D01*
X037254Y044622D02*
X038004Y044622D01*
X037421Y044961D02*
X028400Y044961D01*
X028162Y045200D02*
X033181Y045200D01*
X033157Y045224D02*
X033224Y045156D01*
X033302Y045100D01*
X033388Y045056D01*
X033479Y045027D01*
X033574Y045012D01*
X034002Y045012D01*
X034002Y045611D01*
X034022Y045611D01*
X034022Y045012D01*
X034450Y045012D01*
X034545Y045027D01*
X034636Y045056D01*
X034721Y045100D01*
X034799Y045156D01*
X034867Y045224D01*
X034924Y045302D01*
X034967Y045388D01*
X034997Y045479D01*
X035012Y045574D01*
X035012Y045612D01*
X034022Y045612D01*
X034022Y045632D01*
X034002Y045632D01*
X034002Y046232D01*
X033574Y046232D01*
X033479Y046217D01*
X033388Y046187D01*
X033302Y046143D01*
X033224Y046087D01*
X033157Y046019D01*
X033100Y045941D01*
X033056Y045856D01*
X033027Y045765D01*
X033012Y045670D01*
X033012Y045632D01*
X034002Y045632D01*
X034002Y045612D01*
X033012Y045612D01*
X033012Y045574D01*
X033027Y045479D01*
X033056Y045388D01*
X033100Y045302D01*
X033157Y045224D01*
X033040Y045438D02*
X027923Y045438D01*
X027685Y045677D02*
X033013Y045677D01*
X033087Y045916D02*
X030007Y045916D01*
X029601Y045916D02*
X029406Y045916D01*
X029001Y045916D02*
X027446Y045916D01*
X027207Y046154D02*
X028762Y046154D01*
X028649Y046393D02*
X026969Y046393D01*
X026730Y046631D02*
X029406Y046631D01*
X029406Y046719D02*
X028649Y046719D01*
X028649Y046976D01*
X029150Y047477D01*
X029406Y047477D01*
X029406Y046719D01*
X029504Y046622D02*
X030339Y046622D01*
X031339Y045622D01*
X034012Y045622D01*
X034992Y045622D01*
X034992Y046602D01*
X034997Y046607D01*
X036328Y046607D01*
X036328Y045266D01*
X037972Y043622D01*
X037962Y043530D02*
X037982Y043530D01*
X037962Y043292D02*
X037982Y043292D01*
X037962Y043053D02*
X037982Y043053D01*
X038323Y043053D02*
X038479Y043053D01*
X038479Y042814D02*
X034681Y042814D01*
X034681Y042576D02*
X038479Y042576D01*
X038479Y042337D02*
X034618Y042337D01*
X033484Y042337D02*
X031939Y042337D01*
X031824Y042576D02*
X033421Y042576D01*
X033421Y042814D02*
X032077Y042814D01*
X031504Y042582D02*
X031156Y042582D01*
X030116Y043622D01*
X029504Y043622D01*
X028144Y043222D02*
X028144Y044458D01*
X025984Y044127D02*
X025917Y044060D01*
X025917Y043622D01*
X025287Y043530D02*
X021685Y043530D01*
X021685Y043769D02*
X025287Y043769D01*
X025412Y044007D02*
X021569Y044007D01*
X021550Y044246D02*
X025597Y044246D01*
X025917Y044252D02*
X025917Y044060D01*
X025984Y044127D02*
X025984Y046325D01*
X025287Y047022D01*
X024967Y047347D02*
X021680Y047347D01*
X021685Y047585D02*
X024967Y047585D01*
X024016Y047622D02*
X024016Y048535D01*
X024700Y049219D01*
X032385Y049219D01*
X034997Y046607D01*
X034721Y046143D02*
X034636Y046187D01*
X034545Y046217D01*
X034450Y046232D01*
X034022Y046232D01*
X034022Y045632D01*
X035012Y045632D01*
X035012Y045670D01*
X034997Y045765D01*
X034967Y045856D01*
X034924Y045941D01*
X034867Y046019D01*
X034799Y046087D01*
X034721Y046143D01*
X034701Y046154D02*
X037549Y046154D01*
X037155Y046393D02*
X030359Y046393D01*
X030245Y046154D02*
X033323Y046154D01*
X034002Y046154D02*
X034022Y046154D01*
X034002Y045916D02*
X034022Y045916D01*
X034002Y045677D02*
X034022Y045677D01*
X034002Y045438D02*
X034022Y045438D01*
X034002Y045200D02*
X034022Y045200D01*
X034843Y045200D02*
X037660Y045200D01*
X038285Y045200D02*
X038479Y045200D01*
X038479Y045438D02*
X034984Y045438D01*
X035011Y045677D02*
X038479Y045677D01*
X038479Y045916D02*
X034937Y045916D01*
X036328Y046607D02*
X037342Y047622D01*
X037322Y047824D02*
X033721Y047824D01*
X033706Y047347D02*
X037328Y047347D01*
X037567Y047108D02*
X037401Y046942D01*
X037315Y046942D01*
X037198Y046893D01*
X037059Y046631D02*
X029602Y046631D01*
X029601Y046393D02*
X029406Y046393D01*
X029406Y046154D02*
X029601Y046154D01*
X029601Y046870D02*
X029406Y046870D01*
X029406Y047108D02*
X029601Y047108D01*
X029601Y047347D02*
X029406Y047347D01*
X029020Y047347D02*
X026533Y047347D01*
X026547Y047585D02*
X032044Y047585D01*
X032288Y047347D02*
X029988Y047347D01*
X028781Y047108D02*
X026295Y047108D01*
X026492Y046870D02*
X028649Y046870D01*
X025006Y045438D02*
X024986Y045438D01*
X024986Y045200D02*
X025006Y045200D01*
X025664Y044961D02*
X021587Y044961D01*
X021348Y045200D02*
X024165Y045200D01*
X024024Y045438D02*
X020524Y045438D01*
X020524Y045200D02*
X020723Y045200D01*
X022058Y044723D02*
X025664Y044723D01*
X025664Y044484D02*
X022043Y044484D01*
X021754Y044622D02*
X021004Y044622D01*
X021624Y043292D02*
X025357Y043292D01*
X025416Y043053D02*
X025595Y043053D01*
X025587Y042814D02*
X026930Y042814D01*
X027184Y042576D02*
X025587Y042576D01*
X025563Y042337D02*
X027069Y042337D01*
X027504Y042122D02*
X027504Y042582D01*
X028144Y043222D01*
X026692Y043053D02*
X026239Y043053D01*
X031504Y042582D02*
X031504Y042122D01*
X032316Y043053D02*
X032768Y043053D01*
X033413Y043053D02*
X033552Y043053D01*
X033651Y043292D02*
X037383Y043292D01*
X037622Y043053D02*
X034550Y043053D01*
X032442Y044723D02*
X036949Y044723D01*
X038396Y046154D02*
X038479Y046154D01*
X038004Y046622D02*
X037379Y046622D01*
X033421Y048539D02*
X031982Y048539D01*
X033421Y048778D02*
X025587Y048778D01*
X025413Y049017D02*
X033555Y049017D01*
G04 *
G04 next data from source file './midi-to-audio.sol', *
G04 source file key is 'infile_0002'. *
G04 *
D10*
X027504Y000722D03*
X031504Y000722D03*
D11*
X029504Y002222D03*
D12*
X031704Y002222D03*
X027304Y002222D03*
X029504Y005222D03*
D13*
X033622Y004222D02*
X034402Y004222D01*
X025386Y004222D02*
X024606Y004222D01*
D14*
X021035Y005222D03*
X021035Y006222D03*
X024957Y007182D03*
X025917Y006222D03*
X033091Y006222D03*
X034051Y007222D03*
X037972Y006222D03*
X037972Y005222D03*
X037972Y003222D03*
X037972Y002222D03*
X034051Y001261D03*
X033091Y002222D03*
X025917Y002222D03*
X024957Y001222D03*
X021035Y002222D03*
X021035Y003222D03*
D15*
X020524Y001814D02*
X020524Y000742D01*
X024546Y000742D01*
X024327Y000961D01*
X024327Y001483D01*
X024696Y001852D01*
X025218Y001852D01*
X025587Y001483D01*
X025587Y000961D01*
X025368Y000742D01*
X027044Y000742D01*
X027044Y000912D01*
X027184Y001052D01*
X027184Y001118D01*
X027184Y001245D01*
X027233Y001363D01*
X027256Y001387D01*
X026958Y001387D01*
X026469Y001876D01*
X026469Y001882D01*
X026178Y001592D01*
X025656Y001592D01*
X025287Y001961D01*
X025287Y002483D01*
X025597Y002793D01*
X025597Y002915D01*
X025646Y003033D01*
X025664Y003051D01*
X025664Y003679D01*
X025620Y003656D01*
X025529Y003627D01*
X025434Y003612D01*
X025006Y003612D01*
X025006Y004211D01*
X024986Y004211D01*
X024986Y003612D01*
X024558Y003612D01*
X024463Y003627D01*
X024372Y003656D01*
X024286Y003700D01*
X024209Y003756D01*
X024141Y003824D01*
X024084Y003902D01*
X024041Y003988D01*
X024011Y004079D01*
X023996Y004174D01*
X023996Y004212D01*
X024986Y004212D01*
X024986Y004232D01*
X024986Y004832D01*
X024558Y004832D01*
X024463Y004817D01*
X024372Y004787D01*
X024286Y004743D01*
X024209Y004687D01*
X024141Y004619D01*
X024084Y004541D01*
X024041Y004456D01*
X024011Y004365D01*
X023996Y004270D01*
X023996Y004232D01*
X024986Y004232D01*
X025006Y004232D01*
X025006Y004832D01*
X025434Y004832D01*
X025529Y004817D01*
X025620Y004787D01*
X025664Y004764D01*
X025664Y004792D01*
X025106Y005351D01*
X025016Y005441D01*
X024967Y005559D01*
X024967Y006422D01*
X024967Y006550D01*
X024968Y006552D01*
X024696Y006552D01*
X024327Y006921D01*
X024327Y007443D01*
X024581Y007698D01*
X020524Y007698D01*
X020524Y006629D01*
X020766Y006872D01*
X021025Y006872D01*
X021025Y006232D01*
X021045Y006232D01*
X021045Y006872D01*
X021305Y006872D01*
X021685Y006491D01*
X021685Y006232D01*
X021046Y006232D01*
X021046Y006212D01*
X021685Y006212D01*
X021685Y005952D01*
X021440Y005708D01*
X021606Y005542D01*
X021943Y005542D01*
X022060Y005493D01*
X022150Y005403D01*
X022199Y005285D01*
X022199Y005158D01*
X022150Y005040D01*
X022060Y004950D01*
X021943Y004902D01*
X021606Y004902D01*
X021296Y004592D01*
X020774Y004592D01*
X020524Y004842D01*
X020524Y003601D01*
X020774Y003852D01*
X021296Y003852D01*
X021606Y003542D01*
X021818Y003542D01*
X021935Y003493D01*
X022025Y003403D01*
X022074Y003285D01*
X022074Y003158D01*
X022025Y003040D01*
X021935Y002950D01*
X021818Y002902D01*
X021606Y002902D01*
X021440Y002736D01*
X021685Y002491D01*
X021685Y002232D01*
X021046Y002232D01*
X021046Y002212D01*
X021685Y002212D01*
X021685Y001952D01*
X021305Y001572D01*
X021045Y001572D01*
X021045Y002211D01*
X021025Y002211D01*
X021025Y001572D01*
X020766Y001572D01*
X020524Y001814D01*
X020524Y001653D02*
X020685Y001653D01*
X021025Y001653D02*
X021045Y001653D01*
X021386Y001653D02*
X024497Y001653D01*
X024327Y001414D02*
X020524Y001414D01*
X020524Y001176D02*
X024327Y001176D01*
X024350Y000937D02*
X020524Y000937D01*
X021025Y001892D02*
X021045Y001892D01*
X021025Y002130D02*
X021045Y002130D01*
X021035Y002222D02*
X021481Y002222D01*
X021852Y002592D01*
X021852Y003128D01*
X022922Y003128D01*
X024016Y004222D01*
X024996Y004222D01*
X024986Y004277D02*
X025006Y004277D01*
X024986Y004516D02*
X025006Y004516D01*
X024986Y004754D02*
X025006Y004754D01*
X025464Y004993D02*
X022102Y004993D01*
X022199Y005231D02*
X025226Y005231D01*
X025004Y005470D02*
X022084Y005470D01*
X021699Y005257D02*
X021665Y005290D01*
X021665Y006222D01*
X021035Y006222D01*
X021025Y006424D02*
X021045Y006424D01*
X021025Y006662D02*
X021045Y006662D01*
X020557Y006662D02*
X020524Y006662D01*
X020524Y006901D02*
X024347Y006901D01*
X024327Y007139D02*
X020524Y007139D01*
X020524Y007378D02*
X024327Y007378D01*
X024500Y007617D02*
X020524Y007617D01*
X021514Y006662D02*
X024586Y006662D01*
X024967Y006424D02*
X021685Y006424D01*
X021665Y006222D02*
X024016Y006222D01*
X024016Y004222D01*
X023997Y004277D02*
X020524Y004277D01*
X020524Y004516D02*
X024071Y004516D01*
X024307Y004754D02*
X021459Y004754D01*
X020612Y004754D02*
X020524Y004754D01*
X021129Y005222D02*
X021879Y005222D01*
X021441Y005708D02*
X024967Y005708D01*
X025287Y005622D02*
X025287Y006486D01*
X025660Y006859D01*
X031823Y006859D01*
X032461Y006222D01*
X033091Y006222D01*
X033721Y006185D02*
X037322Y006185D01*
X037322Y006212D02*
X037322Y005952D01*
X037567Y005708D01*
X033468Y005708D01*
X033351Y005592D02*
X033721Y005961D01*
X033721Y006483D01*
X033351Y006852D01*
X032830Y006852D01*
X032556Y006578D01*
X032004Y007130D01*
X031887Y007179D01*
X031759Y007179D01*
X025597Y007179D01*
X025587Y007175D01*
X025587Y007443D01*
X025332Y007698D01*
X033636Y007698D01*
X033421Y007483D01*
X033421Y006961D01*
X033790Y006592D01*
X034312Y006592D01*
X034681Y006961D01*
X034681Y007483D01*
X034466Y007698D01*
X038479Y007698D01*
X038479Y006634D01*
X038242Y006872D01*
X037982Y006872D01*
X037982Y006232D01*
X037962Y006232D01*
X037962Y006212D01*
X037322Y006212D01*
X037322Y006232D02*
X037962Y006232D01*
X037962Y006872D01*
X037703Y006872D01*
X037322Y006491D01*
X037322Y006232D01*
X037342Y006222D02*
X037972Y006222D01*
X037972Y005897D01*
X037956Y005881D01*
X037962Y005852D02*
X037962Y006211D01*
X037982Y006211D01*
X037982Y005852D01*
X037962Y005852D01*
X037962Y005947D02*
X037982Y005947D01*
X037962Y006185D02*
X037982Y006185D01*
X037962Y006424D02*
X037982Y006424D01*
X037962Y006662D02*
X037982Y006662D01*
X038451Y006662D02*
X038479Y006662D01*
X038479Y006901D02*
X034621Y006901D01*
X034681Y007139D02*
X038479Y007139D01*
X038479Y007378D02*
X034681Y007378D01*
X034547Y007617D02*
X038479Y007617D01*
X037494Y006662D02*
X034383Y006662D01*
X033720Y006662D02*
X033541Y006662D01*
X033481Y006901D02*
X032234Y006901D01*
X032472Y006662D02*
X032640Y006662D01*
X031806Y006424D02*
X026547Y006424D01*
X026547Y006483D02*
X026491Y006539D01*
X031690Y006539D01*
X032189Y006040D01*
X032279Y005950D01*
X032397Y005902D01*
X032520Y005902D01*
X032830Y005592D01*
X033351Y005592D01*
X032713Y005708D02*
X030227Y005708D01*
X030359Y005576D02*
X029858Y006077D01*
X029601Y006077D01*
X029601Y005319D01*
X029406Y005319D01*
X029406Y005124D01*
X028649Y005124D01*
X028649Y004868D01*
X029150Y004367D01*
X029406Y004367D01*
X029406Y005124D01*
X029601Y005124D01*
X029601Y004367D01*
X029858Y004367D01*
X030359Y004868D01*
X030359Y005124D01*
X029602Y005124D01*
X029602Y005319D01*
X030359Y005319D01*
X030359Y005576D01*
X030359Y005470D02*
X037174Y005470D01*
X037198Y005493D02*
X037108Y005403D01*
X037059Y005285D01*
X037059Y005158D01*
X037108Y005040D01*
X037198Y004950D01*
X037315Y004902D01*
X037401Y004902D01*
X037711Y004592D01*
X038233Y004592D01*
X038479Y004837D01*
X038479Y003606D01*
X038233Y003852D01*
X037711Y003852D01*
X037401Y003542D01*
X037190Y003542D01*
X037073Y003493D01*
X036983Y003403D01*
X036934Y003285D01*
X036934Y003158D01*
X036983Y003040D01*
X037073Y002950D01*
X037190Y002902D01*
X037401Y002902D01*
X037567Y002736D01*
X037322Y002491D01*
X037322Y002232D01*
X037962Y002232D01*
X037962Y002212D01*
X037322Y002212D01*
X037322Y001952D01*
X037703Y001572D01*
X037962Y001572D01*
X037962Y002211D01*
X037982Y002211D01*
X037982Y001572D01*
X038242Y001572D01*
X038479Y001809D01*
X038479Y000742D01*
X034423Y000742D01*
X034681Y001000D01*
X034681Y001522D01*
X034312Y001891D01*
X033790Y001891D01*
X033421Y001522D01*
X033421Y001000D01*
X033680Y000742D01*
X031964Y000742D01*
X031964Y000912D01*
X031824Y001052D01*
X031824Y001118D01*
X031824Y001245D01*
X031775Y001363D01*
X031751Y001387D01*
X032050Y001387D01*
X032539Y001876D01*
X032539Y001882D01*
X032830Y001592D01*
X033351Y001592D01*
X033721Y001961D01*
X033721Y002483D01*
X033351Y002852D01*
X032913Y002852D01*
X032525Y003240D01*
X032435Y003330D01*
X032318Y003378D01*
X028464Y003378D01*
X028464Y003429D01*
X028415Y003546D01*
X026274Y005688D01*
X026547Y005961D01*
X026547Y006483D01*
X025917Y006222D02*
X025917Y005592D01*
X028144Y003365D01*
X028144Y003058D01*
X032254Y003058D01*
X033091Y002222D01*
X033721Y002130D02*
X037322Y002130D01*
X037322Y002369D02*
X033721Y002369D01*
X033596Y002607D02*
X037439Y002607D01*
X037458Y002846D02*
X033357Y002846D01*
X032681Y003084D02*
X036964Y003084D01*
X037254Y003222D02*
X038004Y003222D01*
X037421Y003561D02*
X028400Y003561D01*
X028162Y003800D02*
X033181Y003800D01*
X033157Y003824D02*
X033224Y003756D01*
X033302Y003700D01*
X033388Y003656D01*
X033479Y003627D01*
X033574Y003612D01*
X034002Y003612D01*
X034002Y004211D01*
X034022Y004211D01*
X034022Y003612D01*
X034450Y003612D01*
X034545Y003627D01*
X034636Y003656D01*
X034721Y003700D01*
X034799Y003756D01*
X034867Y003824D01*
X034924Y003902D01*
X034967Y003988D01*
X034997Y004079D01*
X035012Y004174D01*
X035012Y004212D01*
X034022Y004212D01*
X034022Y004232D01*
X034002Y004232D01*
X034002Y004832D01*
X033574Y004832D01*
X033479Y004817D01*
X033388Y004787D01*
X033302Y004743D01*
X033224Y004687D01*
X033157Y004619D01*
X033100Y004541D01*
X033056Y004456D01*
X033027Y004365D01*
X033012Y004270D01*
X033012Y004232D01*
X034002Y004232D01*
X034002Y004212D01*
X033012Y004212D01*
X033012Y004174D01*
X033027Y004079D01*
X033056Y003988D01*
X033100Y003902D01*
X033157Y003824D01*
X033040Y004038D02*
X027923Y004038D01*
X027685Y004277D02*
X033013Y004277D01*
X033087Y004516D02*
X030007Y004516D01*
X029601Y004516D02*
X029406Y004516D01*
X029001Y004516D02*
X027446Y004516D01*
X027207Y004754D02*
X028762Y004754D01*
X028649Y004993D02*
X026969Y004993D01*
X026730Y005231D02*
X029406Y005231D01*
X029406Y005319D02*
X028649Y005319D01*
X028649Y005576D01*
X029150Y006077D01*
X029406Y006077D01*
X029406Y005319D01*
X029504Y005222D02*
X030339Y005222D01*
X031339Y004222D01*
X034012Y004222D01*
X034992Y004222D01*
X034992Y005202D01*
X034997Y005207D01*
X036328Y005207D01*
X036328Y003866D01*
X037972Y002222D01*
X037962Y002130D02*
X037982Y002130D01*
X037962Y001892D02*
X037982Y001892D01*
X037962Y001653D02*
X037982Y001653D01*
X038323Y001653D02*
X038479Y001653D01*
X038479Y001414D02*
X034681Y001414D01*
X034681Y001176D02*
X038479Y001176D01*
X038479Y000937D02*
X034618Y000937D01*
X033484Y000937D02*
X031939Y000937D01*
X031824Y001176D02*
X033421Y001176D01*
X033421Y001414D02*
X032077Y001414D01*
X031504Y001182D02*
X031156Y001182D01*
X030116Y002222D01*
X029504Y002222D01*
X028144Y001822D02*
X028144Y003058D01*
X025984Y002727D02*
X025917Y002660D01*
X025917Y002222D01*
X025287Y002130D02*
X021685Y002130D01*
X021685Y002369D02*
X025287Y002369D01*
X025412Y002607D02*
X021569Y002607D01*
X021550Y002846D02*
X025597Y002846D01*
X025917Y002852D02*
X025917Y002660D01*
X025984Y002727D02*
X025984Y004925D01*
X025287Y005622D01*
X024967Y005947D02*
X021680Y005947D01*
X021685Y006185D02*
X024967Y006185D01*
X024016Y006222D02*
X024016Y007135D01*
X024700Y007819D01*
X032385Y007819D01*
X034997Y005207D01*
X034721Y004743D02*
X034636Y004787D01*
X034545Y004817D01*
X034450Y004832D01*
X034022Y004832D01*
X034022Y004232D01*
X035012Y004232D01*
X035012Y004270D01*
X034997Y004365D01*
X034967Y004456D01*
X034924Y004541D01*
X034867Y004619D01*
X034799Y004687D01*
X034721Y004743D01*
X034701Y004754D02*
X037549Y004754D01*
X037155Y004993D02*
X030359Y004993D01*
X030245Y004754D02*
X033323Y004754D01*
X034002Y004754D02*
X034022Y004754D01*
X034002Y004516D02*
X034022Y004516D01*
X034002Y004277D02*
X034022Y004277D01*
X034002Y004038D02*
X034022Y004038D01*
X034002Y003800D02*
X034022Y003800D01*
X034843Y003800D02*
X037660Y003800D01*
X038285Y003800D02*
X038479Y003800D01*
X038479Y004038D02*
X034984Y004038D01*
X035011Y004277D02*
X038479Y004277D01*
X038479Y004516D02*
X034937Y004516D01*
X036328Y005207D02*
X037342Y006222D01*
X037322Y006424D02*
X033721Y006424D01*
X033706Y005947D02*
X037328Y005947D01*
X037567Y005708D02*
X037401Y005542D01*
X037315Y005542D01*
X037198Y005493D01*
X037059Y005231D02*
X029602Y005231D01*
X029601Y004993D02*
X029406Y004993D01*
X029406Y004754D02*
X029601Y004754D01*
X029601Y005470D02*
X029406Y005470D01*
X029406Y005708D02*
X029601Y005708D01*
X029601Y005947D02*
X029406Y005947D01*
X029020Y005947D02*
X026533Y005947D01*
X026547Y006185D02*
X032044Y006185D01*
X032288Y005947D02*
X029988Y005947D01*
X028781Y005708D02*
X026295Y005708D01*
X026492Y005470D02*
X028649Y005470D01*
X025006Y004038D02*
X024986Y004038D01*
X024986Y003800D02*
X025006Y003800D01*
X025664Y003561D02*
X021587Y003561D01*
X021348Y003800D02*
X024165Y003800D01*
X024024Y004038D02*
X020524Y004038D01*
X020524Y003800D02*
X020723Y003800D01*
X022058Y003323D02*
X025664Y003323D01*
X025664Y003084D02*
X022043Y003084D01*
X021754Y003222D02*
X021004Y003222D01*
X021624Y001892D02*
X025357Y001892D01*
X025416Y001653D02*
X025595Y001653D01*
X025587Y001414D02*
X026930Y001414D01*
X027184Y001176D02*
X025587Y001176D01*
X025563Y000937D02*
X027069Y000937D01*
X027504Y000722D02*
X027504Y001182D01*
X028144Y001822D01*
X026692Y001653D02*
X026239Y001653D01*
X031504Y001182D02*
X031504Y000722D01*
X032316Y001653D02*
X032768Y001653D01*
X033413Y001653D02*
X033552Y001653D01*
X033651Y001892D02*
X037383Y001892D01*
X037622Y001653D02*
X034550Y001653D01*
X032442Y003323D02*
X036949Y003323D01*
X038396Y004754D02*
X038479Y004754D01*
X038004Y005222D02*
X037379Y005222D01*
X033421Y007139D02*
X031982Y007139D01*
X033421Y007378D02*
X025587Y007378D01*
X025413Y007617D02*
X033555Y007617D01*
G04 *
G04 next data from source file './midi-to-audio.sol', *
G04 source file key is 'infile_0013'. *
G04 *
D10*
X008004Y050522D03*
X012004Y050522D03*
D11*
X010004Y052022D03*
D12*
X012204Y052022D03*
X007804Y052022D03*
X010004Y055022D03*
D13*
X014122Y054022D02*
X014902Y054022D01*
X005886Y054022D02*
X005106Y054022D01*
D14*
X001535Y055022D03*
X001535Y056022D03*
X005457Y056982D03*
X006417Y056022D03*
X013591Y056022D03*
X014551Y057022D03*
X018472Y056022D03*
X018472Y055022D03*
X018472Y053022D03*
X018472Y052022D03*
X014551Y051061D03*
X013591Y052022D03*
X006417Y052022D03*
X005457Y051022D03*
X001535Y052022D03*
X001535Y053022D03*
D15*
X001024Y051614D02*
X001024Y050542D01*
X005046Y050542D01*
X004827Y050761D01*
X004827Y051283D01*
X005196Y051652D01*
X005718Y051652D01*
X006087Y051283D01*
X006087Y050761D01*
X005868Y050542D01*
X007544Y050542D01*
X007544Y050712D01*
X007684Y050852D01*
X007684Y050918D01*
X007684Y051045D01*
X007733Y051163D01*
X007756Y051187D01*
X007458Y051187D01*
X006969Y051676D01*
X006969Y051682D01*
X006678Y051392D01*
X006156Y051392D01*
X005787Y051761D01*
X005787Y052283D01*
X006097Y052593D01*
X006097Y052715D01*
X006146Y052833D01*
X006164Y052851D01*
X006164Y053479D01*
X006120Y053456D01*
X006029Y053427D01*
X005934Y053412D01*
X005506Y053412D01*
X005506Y054011D01*
X005486Y054011D01*
X005486Y053412D01*
X005058Y053412D01*
X004963Y053427D01*
X004872Y053456D01*
X004786Y053500D01*
X004709Y053556D01*
X004641Y053624D01*
X004584Y053702D01*
X004541Y053788D01*
X004511Y053879D01*
X004496Y053974D01*
X004496Y054012D01*
X005486Y054012D01*
X005486Y054032D01*
X005486Y054632D01*
X005058Y054632D01*
X004963Y054617D01*
X004872Y054587D01*
X004786Y054543D01*
X004709Y054487D01*
X004641Y054419D01*
X004584Y054341D01*
X004541Y054256D01*
X004511Y054165D01*
X004496Y054070D01*
X004496Y054032D01*
X005486Y054032D01*
X005506Y054032D01*
X005506Y054632D01*
X005934Y054632D01*
X006029Y054617D01*
X006120Y054587D01*
X006164Y054564D01*
X006164Y054592D01*
X005606Y055151D01*
X005516Y055241D01*
X005467Y055359D01*
X005467Y056222D01*
X005467Y056350D01*
X005468Y056352D01*
X005196Y056352D01*
X004827Y056721D01*
X004827Y057243D01*
X005081Y057498D01*
X001024Y057498D01*
X001024Y056429D01*
X001266Y056672D01*
X001525Y056672D01*
X001525Y056032D01*
X001545Y056032D01*
X001545Y056672D01*
X001805Y056672D01*
X002185Y056291D01*
X002185Y056032D01*
X001546Y056032D01*
X001546Y056012D01*
X002185Y056012D01*
X002185Y055752D01*
X001940Y055508D01*
X002106Y055342D01*
X002443Y055342D01*
X002560Y055293D01*
X002650Y055203D01*
X002699Y055085D01*
X002699Y054958D01*
X002650Y054840D01*
X002560Y054750D01*
X002443Y054702D01*
X002106Y054702D01*
X001796Y054392D01*
X001274Y054392D01*
X001024Y054642D01*
X001024Y053401D01*
X001274Y053652D01*
X001796Y053652D01*
X002106Y053342D01*
X002318Y053342D01*
X002435Y053293D01*
X002525Y053203D01*
X002574Y053085D01*
X002574Y052958D01*
X002525Y052840D01*
X002435Y052750D01*
X002318Y052702D01*
X002106Y052702D01*
X001940Y052536D01*
X002185Y052291D01*
X002185Y052032D01*
X001546Y052032D01*
X001546Y052012D01*
X002185Y052012D01*
X002185Y051752D01*
X001805Y051372D01*
X001545Y051372D01*
X001545Y052011D01*
X001525Y052011D01*
X001525Y051372D01*
X001266Y051372D01*
X001024Y051614D01*
X001024Y051453D02*
X001185Y051453D01*
X001525Y051453D02*
X001545Y051453D01*
X001886Y051453D02*
X004997Y051453D01*
X004827Y051214D02*
X001024Y051214D01*
X001024Y050976D02*
X004827Y050976D01*
X004850Y050737D02*
X001024Y050737D01*
X001525Y051692D02*
X001545Y051692D01*
X001525Y051930D02*
X001545Y051930D01*
X001535Y052022D02*
X001981Y052022D01*
X002352Y052392D01*
X002352Y052928D01*
X003422Y052928D01*
X004516Y054022D01*
X005496Y054022D01*
X005486Y054077D02*
X005506Y054077D01*
X005486Y054316D02*
X005506Y054316D01*
X005486Y054554D02*
X005506Y054554D01*
X005964Y054793D02*
X002602Y054793D01*
X002699Y055031D02*
X005726Y055031D01*
X005504Y055270D02*
X002584Y055270D01*
X002199Y055057D02*
X002165Y055090D01*
X002165Y056022D01*
X001535Y056022D01*
X001525Y056224D02*
X001545Y056224D01*
X001525Y056462D02*
X001545Y056462D01*
X001057Y056462D02*
X001024Y056462D01*
X001024Y056701D02*
X004847Y056701D01*
X004827Y056939D02*
X001024Y056939D01*
X001024Y057178D02*
X004827Y057178D01*
X005000Y057417D02*
X001024Y057417D01*
X002014Y056462D02*
X005086Y056462D01*
X005467Y056224D02*
X002185Y056224D01*
X002165Y056022D02*
X004516Y056022D01*
X004516Y054022D01*
X004497Y054077D02*
X001024Y054077D01*
X001024Y054316D02*
X004571Y054316D01*
X004807Y054554D02*
X001959Y054554D01*
X001112Y054554D02*
X001024Y054554D01*
X001629Y055022D02*
X002379Y055022D01*
X001941Y055508D02*
X005467Y055508D01*
X005787Y055422D02*
X005787Y056286D01*
X006160Y056659D01*
X012323Y056659D01*
X012961Y056022D01*
X013591Y056022D01*
X014221Y055985D02*
X017822Y055985D01*
X017822Y056012D02*
X017822Y055752D01*
X018067Y055508D01*
X013968Y055508D01*
X013851Y055392D02*
X014221Y055761D01*
X014221Y056283D01*
X013851Y056652D01*
X013330Y056652D01*
X013056Y056378D01*
X012504Y056930D01*
X012387Y056979D01*
X012259Y056979D01*
X006097Y056979D01*
X006087Y056975D01*
X006087Y057243D01*
X005832Y057498D01*
X014136Y057498D01*
X013921Y057283D01*
X013921Y056761D01*
X014290Y056392D01*
X014812Y056392D01*
X015181Y056761D01*
X015181Y057283D01*
X014966Y057498D01*
X018979Y057498D01*
X018979Y056434D01*
X018742Y056672D01*
X018482Y056672D01*
X018482Y056032D01*
X018462Y056032D01*
X018462Y056012D01*
X017822Y056012D01*
X017822Y056032D02*
X018462Y056032D01*
X018462Y056672D01*
X018203Y056672D01*
X017822Y056291D01*
X017822Y056032D01*
X017842Y056022D02*
X018472Y056022D01*
X018472Y055697D01*
X018456Y055681D01*
X018462Y055652D02*
X018462Y056011D01*
X018482Y056011D01*
X018482Y055652D01*
X018462Y055652D01*
X018462Y055747D02*
X018482Y055747D01*
X018462Y055985D02*
X018482Y055985D01*
X018462Y056224D02*
X018482Y056224D01*
X018462Y056462D02*
X018482Y056462D01*
X018951Y056462D02*
X018979Y056462D01*
X018979Y056701D02*
X015121Y056701D01*
X015181Y056939D02*
X018979Y056939D01*
X018979Y057178D02*
X015181Y057178D01*
X015047Y057417D02*
X018979Y057417D01*
X017994Y056462D02*
X014883Y056462D01*
X014220Y056462D02*
X014041Y056462D01*
X013981Y056701D02*
X012734Y056701D01*
X012972Y056462D02*
X013140Y056462D01*
X012306Y056224D02*
X007047Y056224D01*
X007047Y056283D02*
X006991Y056339D01*
X012190Y056339D01*
X012689Y055840D01*
X012779Y055750D01*
X012897Y055702D01*
X013020Y055702D01*
X013330Y055392D01*
X013851Y055392D01*
X013213Y055508D02*
X010727Y055508D01*
X010859Y055376D02*
X010358Y055877D01*
X010101Y055877D01*
X010101Y055119D01*
X009906Y055119D01*
X009906Y054924D01*
X009149Y054924D01*
X009149Y054668D01*
X009650Y054167D01*
X009906Y054167D01*
X009906Y054924D01*
X010101Y054924D01*
X010101Y054167D01*
X010358Y054167D01*
X010859Y054668D01*
X010859Y054924D01*
X010102Y054924D01*
X010102Y055119D01*
X010859Y055119D01*
X010859Y055376D01*
X010859Y055270D02*
X017674Y055270D01*
X017698Y055293D02*
X017608Y055203D01*
X017559Y055085D01*
X017559Y054958D01*
X017608Y054840D01*
X017698Y054750D01*
X017815Y054702D01*
X017901Y054702D01*
X018211Y054392D01*
X018733Y054392D01*
X018979Y054637D01*
X018979Y053406D01*
X018733Y053652D01*
X018211Y053652D01*
X017901Y053342D01*
X017690Y053342D01*
X017573Y053293D01*
X017483Y053203D01*
X017434Y053085D01*
X017434Y052958D01*
X017483Y052840D01*
X017573Y052750D01*
X017690Y052702D01*
X017901Y052702D01*
X018067Y052536D01*
X017822Y052291D01*
X017822Y052032D01*
X018462Y052032D01*
X018462Y052012D01*
X017822Y052012D01*
X017822Y051752D01*
X018203Y051372D01*
X018462Y051372D01*
X018462Y052011D01*
X018482Y052011D01*
X018482Y051372D01*
X018742Y051372D01*
X018979Y051609D01*
X018979Y050542D01*
X014923Y050542D01*
X015181Y050800D01*
X015181Y051322D01*
X014812Y051691D01*
X014290Y051691D01*
X013921Y051322D01*
X013921Y050800D01*
X014180Y050542D01*
X012464Y050542D01*
X012464Y050712D01*
X012324Y050852D01*
X012324Y050918D01*
X012324Y051045D01*
X012275Y051163D01*
X012251Y051187D01*
X012550Y051187D01*
X013039Y051676D01*
X013039Y051682D01*
X013330Y051392D01*
X013851Y051392D01*
X014221Y051761D01*
X014221Y052283D01*
X013851Y052652D01*
X013413Y052652D01*
X013025Y053040D01*
X012935Y053130D01*
X012818Y053178D01*
X008964Y053178D01*
X008964Y053229D01*
X008915Y053346D01*
X006774Y055488D01*
X007047Y055761D01*
X007047Y056283D01*
X006417Y056022D02*
X006417Y055392D01*
X008644Y053165D01*
X008644Y052858D01*
X012754Y052858D01*
X013591Y052022D01*
X014221Y051930D02*
X017822Y051930D01*
X017822Y052169D02*
X014221Y052169D01*
X014096Y052407D02*
X017939Y052407D01*
X017958Y052646D02*
X013857Y052646D01*
X013181Y052884D02*
X017464Y052884D01*
X017754Y053022D02*
X018504Y053022D01*
X017921Y053361D02*
X008900Y053361D01*
X008662Y053600D02*
X013681Y053600D01*
X013657Y053624D02*
X013724Y053556D01*
X013802Y053500D01*
X013888Y053456D01*
X013979Y053427D01*
X014074Y053412D01*
X014502Y053412D01*
X014502Y054011D01*
X014522Y054011D01*
X014522Y053412D01*
X014950Y053412D01*
X015045Y053427D01*
X015136Y053456D01*
X015221Y053500D01*
X015299Y053556D01*
X015367Y053624D01*
X015424Y053702D01*
X015467Y053788D01*
X015497Y053879D01*
X015512Y053974D01*
X015512Y054012D01*
X014522Y054012D01*
X014522Y054032D01*
X014502Y054032D01*
X014502Y054632D01*
X014074Y054632D01*
X013979Y054617D01*
X013888Y054587D01*
X013802Y054543D01*
X013724Y054487D01*
X013657Y054419D01*
X013600Y054341D01*
X013556Y054256D01*
X013527Y054165D01*
X013512Y054070D01*
X013512Y054032D01*
X014502Y054032D01*
X014502Y054012D01*
X013512Y054012D01*
X013512Y053974D01*
X013527Y053879D01*
X013556Y053788D01*
X013600Y053702D01*
X013657Y053624D01*
X013540Y053838D02*
X008423Y053838D01*
X008185Y054077D02*
X013513Y054077D01*
X013587Y054316D02*
X010507Y054316D01*
X010101Y054316D02*
X009906Y054316D01*
X009501Y054316D02*
X007946Y054316D01*
X007707Y054554D02*
X009262Y054554D01*
X009149Y054793D02*
X007469Y054793D01*
X007230Y055031D02*
X009906Y055031D01*
X009906Y055119D02*
X009149Y055119D01*
X009149Y055376D01*
X009650Y055877D01*
X009906Y055877D01*
X009906Y055119D01*
X010004Y055022D02*
X010839Y055022D01*
X011839Y054022D01*
X014512Y054022D01*
X015492Y054022D01*
X015492Y055002D01*
X015497Y055007D01*
X016828Y055007D01*
X016828Y053666D01*
X018472Y052022D01*
X018462Y051930D02*
X018482Y051930D01*
X018462Y051692D02*
X018482Y051692D01*
X018462Y051453D02*
X018482Y051453D01*
X018823Y051453D02*
X018979Y051453D01*
X018979Y051214D02*
X015181Y051214D01*
X015181Y050976D02*
X018979Y050976D01*
X018979Y050737D02*
X015118Y050737D01*
X013984Y050737D02*
X012439Y050737D01*
X012324Y050976D02*
X013921Y050976D01*
X013921Y051214D02*
X012577Y051214D01*
X012004Y050982D02*
X011656Y050982D01*
X010616Y052022D01*
X010004Y052022D01*
X008644Y051622D02*
X008644Y052858D01*
X006484Y052527D02*
X006417Y052460D01*
X006417Y052022D01*
X005787Y051930D02*
X002185Y051930D01*
X002185Y052169D02*
X005787Y052169D01*
X005912Y052407D02*
X002069Y052407D01*
X002050Y052646D02*
X006097Y052646D01*
X006417Y052652D02*
X006417Y052460D01*
X006484Y052527D02*
X006484Y054725D01*
X005787Y055422D01*
X005467Y055747D02*
X002180Y055747D01*
X002185Y055985D02*
X005467Y055985D01*
X004516Y056022D02*
X004516Y056935D01*
X005200Y057619D01*
X012885Y057619D01*
X015497Y055007D01*
X015221Y054543D02*
X015136Y054587D01*
X015045Y054617D01*
X014950Y054632D01*
X014522Y054632D01*
X014522Y054032D01*
X015512Y054032D01*
X015512Y054070D01*
X015497Y054165D01*
X015467Y054256D01*
X015424Y054341D01*
X015367Y054419D01*
X015299Y054487D01*
X015221Y054543D01*
X015201Y054554D02*
X018049Y054554D01*
X017655Y054793D02*
X010859Y054793D01*
X010745Y054554D02*
X013823Y054554D01*
X014502Y054554D02*
X014522Y054554D01*
X014502Y054316D02*
X014522Y054316D01*
X014502Y054077D02*
X014522Y054077D01*
X014502Y053838D02*
X014522Y053838D01*
X014502Y053600D02*
X014522Y053600D01*
X015343Y053600D02*
X018160Y053600D01*
X018785Y053600D02*
X018979Y053600D01*
X018979Y053838D02*
X015484Y053838D01*
X015511Y054077D02*
X018979Y054077D01*
X018979Y054316D02*
X015437Y054316D01*
X016828Y055007D02*
X017842Y056022D01*
X017822Y056224D02*
X014221Y056224D01*
X014206Y055747D02*
X017828Y055747D01*
X018067Y055508D02*
X017901Y055342D01*
X017815Y055342D01*
X017698Y055293D01*
X017559Y055031D02*
X010102Y055031D01*
X010101Y054793D02*
X009906Y054793D01*
X009906Y054554D02*
X010101Y054554D01*
X010101Y055270D02*
X009906Y055270D01*
X009906Y055508D02*
X010101Y055508D01*
X010101Y055747D02*
X009906Y055747D01*
X009520Y055747D02*
X007033Y055747D01*
X007047Y055985D02*
X012544Y055985D01*
X012788Y055747D02*
X010488Y055747D01*
X009281Y055508D02*
X006795Y055508D01*
X006992Y055270D02*
X009149Y055270D01*
X005506Y053838D02*
X005486Y053838D01*
X005486Y053600D02*
X005506Y053600D01*
X006164Y053361D02*
X002087Y053361D01*
X001848Y053600D02*
X004665Y053600D01*
X004524Y053838D02*
X001024Y053838D01*
X001024Y053600D02*
X001223Y053600D01*
X002558Y053123D02*
X006164Y053123D01*
X006164Y052884D02*
X002543Y052884D01*
X002254Y053022D02*
X001504Y053022D01*
X002124Y051692D02*
X005857Y051692D01*
X005916Y051453D02*
X006095Y051453D01*
X006087Y051214D02*
X007430Y051214D01*
X007684Y050976D02*
X006087Y050976D01*
X006063Y050737D02*
X007569Y050737D01*
X008004Y050522D02*
X008004Y050982D01*
X008644Y051622D01*
X007192Y051453D02*
X006739Y051453D01*
X012004Y050982D02*
X012004Y050522D01*
X012816Y051453D02*
X013268Y051453D01*
X013913Y051453D02*
X014052Y051453D01*
X014151Y051692D02*
X017883Y051692D01*
X018122Y051453D02*
X015050Y051453D01*
X012942Y053123D02*
X017449Y053123D01*
X018896Y054554D02*
X018979Y054554D01*
X018504Y055022D02*
X017879Y055022D01*
X013921Y056939D02*
X012482Y056939D01*
X013921Y057178D02*
X006087Y057178D01*
X005913Y057417D02*
X014055Y057417D01*
G04 *
G04 next data from source file './midi-to-audio.sol', *
G04 source file key is 'infile_0005'. *
G04 *
D10*
X008004Y017122D03*
X012004Y017122D03*
D11*
X010004Y018622D03*
D12*
X012204Y018622D03*
X007804Y018622D03*
X010004Y021622D03*
D13*
X014122Y020622D02*
X014902Y020622D01*
X005886Y020622D02*
X005106Y020622D01*
D14*
X001535Y021622D03*
X001535Y022622D03*
X005457Y023582D03*
X006417Y022622D03*
X013591Y022622D03*
X014551Y023622D03*
X018472Y022622D03*
X018472Y021622D03*
X018472Y019622D03*
X018472Y018622D03*
X014551Y017661D03*
X013591Y018622D03*
X006417Y018622D03*
X005457Y017622D03*
X001535Y018622D03*
X001535Y019622D03*
D15*
X001024Y018214D02*
X001024Y017142D01*
X005046Y017142D01*
X004827Y017361D01*
X004827Y017883D01*
X005196Y018252D01*
X005718Y018252D01*
X006087Y017883D01*
X006087Y017361D01*
X005868Y017142D01*
X007544Y017142D01*
X007544Y017312D01*
X007684Y017452D01*
X007684Y017518D01*
X007684Y017645D01*
X007733Y017763D01*
X007756Y017787D01*
X007458Y017787D01*
X006969Y018276D01*
X006969Y018282D01*
X006678Y017992D01*
X006156Y017992D01*
X005787Y018361D01*
X005787Y018883D01*
X006097Y019193D01*
X006097Y019315D01*
X006146Y019433D01*
X006164Y019451D01*
X006164Y020079D01*
X006120Y020056D01*
X006029Y020027D01*
X005934Y020012D01*
X005506Y020012D01*
X005506Y020611D01*
X005486Y020611D01*
X005486Y020012D01*
X005058Y020012D01*
X004963Y020027D01*
X004872Y020056D01*
X004786Y020100D01*
X004709Y020156D01*
X004641Y020224D01*
X004584Y020302D01*
X004541Y020388D01*
X004511Y020479D01*
X004496Y020574D01*
X004496Y020612D01*
X005486Y020612D01*
X005486Y020632D01*
X005486Y021232D01*
X005058Y021232D01*
X004963Y021217D01*
X004872Y021187D01*
X004786Y021143D01*
X004709Y021087D01*
X004641Y021019D01*
X004584Y020941D01*
X004541Y020856D01*
X004511Y020765D01*
X004496Y020670D01*
X004496Y020632D01*
X005486Y020632D01*
X005506Y020632D01*
X005506Y021232D01*
X005934Y021232D01*
X006029Y021217D01*
X006120Y021187D01*
X006164Y021164D01*
X006164Y021192D01*
X005606Y021751D01*
X005516Y021841D01*
X005467Y021959D01*
X005467Y022822D01*
X005467Y022950D01*
X005468Y022952D01*
X005196Y022952D01*
X004827Y023321D01*
X004827Y023843D01*
X005081Y024098D01*
X001024Y024098D01*
X001024Y023029D01*
X001266Y023272D01*
X001525Y023272D01*
X001525Y022632D01*
X001545Y022632D01*
X001545Y023272D01*
X001805Y023272D01*
X002185Y022891D01*
X002185Y022632D01*
X001546Y022632D01*
X001546Y022612D01*
X002185Y022612D01*
X002185Y022352D01*
X001940Y022108D01*
X002106Y021942D01*
X002443Y021942D01*
X002560Y021893D01*
X002650Y021803D01*
X002699Y021685D01*
X002699Y021558D01*
X002650Y021440D01*
X002560Y021350D01*
X002443Y021302D01*
X002106Y021302D01*
X001796Y020992D01*
X001274Y020992D01*
X001024Y021242D01*
X001024Y020001D01*
X001274Y020252D01*
X001796Y020252D01*
X002106Y019942D01*
X002318Y019942D01*
X002435Y019893D01*
X002525Y019803D01*
X002574Y019685D01*
X002574Y019558D01*
X002525Y019440D01*
X002435Y019350D01*
X002318Y019302D01*
X002106Y019302D01*
X001940Y019136D01*
X002185Y018891D01*
X002185Y018632D01*
X001546Y018632D01*
X001546Y018612D01*
X002185Y018612D01*
X002185Y018352D01*
X001805Y017972D01*
X001545Y017972D01*
X001545Y018611D01*
X001525Y018611D01*
X001525Y017972D01*
X001266Y017972D01*
X001024Y018214D01*
X001024Y018053D02*
X001185Y018053D01*
X001525Y018053D02*
X001545Y018053D01*
X001886Y018053D02*
X004997Y018053D01*
X004827Y017814D02*
X001024Y017814D01*
X001024Y017576D02*
X004827Y017576D01*
X004850Y017337D02*
X001024Y017337D01*
X001525Y018292D02*
X001545Y018292D01*
X001525Y018530D02*
X001545Y018530D01*
X001535Y018622D02*
X001981Y018622D01*
X002352Y018992D01*
X002352Y019528D01*
X003422Y019528D01*
X004516Y020622D01*
X005496Y020622D01*
X005486Y020677D02*
X005506Y020677D01*
X005486Y020916D02*
X005506Y020916D01*
X005486Y021154D02*
X005506Y021154D01*
X005964Y021393D02*
X002602Y021393D01*
X002699Y021631D02*
X005726Y021631D01*
X005504Y021870D02*
X002584Y021870D01*
X002199Y021657D02*
X002165Y021690D01*
X002165Y022622D01*
X001535Y022622D01*
X001525Y022824D02*
X001545Y022824D01*
X001525Y023062D02*
X001545Y023062D01*
X001057Y023062D02*
X001024Y023062D01*
X001024Y023301D02*
X004847Y023301D01*
X004827Y023539D02*
X001024Y023539D01*
X001024Y023778D02*
X004827Y023778D01*
X005000Y024017D02*
X001024Y024017D01*
X002014Y023062D02*
X005086Y023062D01*
X005467Y022824D02*
X002185Y022824D01*
X002165Y022622D02*
X004516Y022622D01*
X004516Y020622D01*
X004497Y020677D02*
X001024Y020677D01*
X001024Y020916D02*
X004571Y020916D01*
X004807Y021154D02*
X001959Y021154D01*
X001112Y021154D02*
X001024Y021154D01*
X001629Y021622D02*
X002379Y021622D01*
X001941Y022108D02*
X005467Y022108D01*
X005787Y022022D02*
X005787Y022886D01*
X006160Y023259D01*
X012323Y023259D01*
X012961Y022622D01*
X013591Y022622D01*
X014221Y022585D02*
X017822Y022585D01*
X017822Y022612D02*
X017822Y022352D01*
X018067Y022108D01*
X013968Y022108D01*
X013851Y021992D02*
X014221Y022361D01*
X014221Y022883D01*
X013851Y023252D01*
X013330Y023252D01*
X013056Y022978D01*
X012504Y023530D01*
X012387Y023579D01*
X012259Y023579D01*
X006097Y023579D01*
X006087Y023575D01*
X006087Y023843D01*
X005832Y024098D01*
X014136Y024098D01*
X013921Y023883D01*
X013921Y023361D01*
X014290Y022992D01*
X014812Y022992D01*
X015181Y023361D01*
X015181Y023883D01*
X014966Y024098D01*
X018979Y024098D01*
X018979Y023034D01*
X018742Y023272D01*
X018482Y023272D01*
X018482Y022632D01*
X018462Y022632D01*
X018462Y022612D01*
X017822Y022612D01*
X017822Y022632D02*
X018462Y022632D01*
X018462Y023272D01*
X018203Y023272D01*
X017822Y022891D01*
X017822Y022632D01*
X017842Y022622D02*
X018472Y022622D01*
X018472Y022297D01*
X018456Y022281D01*
X018462Y022252D02*
X018462Y022611D01*
X018482Y022611D01*
X018482Y022252D01*
X018462Y022252D01*
X018462Y022347D02*
X018482Y022347D01*
X018462Y022585D02*
X018482Y022585D01*
X018462Y022824D02*
X018482Y022824D01*
X018462Y023062D02*
X018482Y023062D01*
X018951Y023062D02*
X018979Y023062D01*
X018979Y023301D02*
X015121Y023301D01*
X015181Y023539D02*
X018979Y023539D01*
X018979Y023778D02*
X015181Y023778D01*
X015047Y024017D02*
X018979Y024017D01*
X017994Y023062D02*
X014883Y023062D01*
X014220Y023062D02*
X014041Y023062D01*
X013981Y023301D02*
X012734Y023301D01*
X012972Y023062D02*
X013140Y023062D01*
X012306Y022824D02*
X007047Y022824D01*
X007047Y022883D02*
X006991Y022939D01*
X012190Y022939D01*
X012689Y022440D01*
X012779Y022350D01*
X012897Y022302D01*
X013020Y022302D01*
X013330Y021992D01*
X013851Y021992D01*
X013213Y022108D02*
X010727Y022108D01*
X010859Y021976D02*
X010358Y022477D01*
X010101Y022477D01*
X010101Y021719D01*
X009906Y021719D01*
X009906Y021524D01*
X009149Y021524D01*
X009149Y021268D01*
X009650Y020767D01*
X009906Y020767D01*
X009906Y021524D01*
X010101Y021524D01*
X010101Y020767D01*
X010358Y020767D01*
X010859Y021268D01*
X010859Y021524D01*
X010102Y021524D01*
X010102Y021719D01*
X010859Y021719D01*
X010859Y021976D01*
X010859Y021870D02*
X017674Y021870D01*
X017698Y021893D02*
X017608Y021803D01*
X017559Y021685D01*
X017559Y021558D01*
X017608Y021440D01*
X017698Y021350D01*
X017815Y021302D01*
X017901Y021302D01*
X018211Y020992D01*
X018733Y020992D01*
X018979Y021237D01*
X018979Y020006D01*
X018733Y020252D01*
X018211Y020252D01*
X017901Y019942D01*
X017690Y019942D01*
X017573Y019893D01*
X017483Y019803D01*
X017434Y019685D01*
X017434Y019558D01*
X017483Y019440D01*
X017573Y019350D01*
X017690Y019302D01*
X017901Y019302D01*
X018067Y019136D01*
X017822Y018891D01*
X017822Y018632D01*
X018462Y018632D01*
X018462Y018612D01*
X017822Y018612D01*
X017822Y018352D01*
X018203Y017972D01*
X018462Y017972D01*
X018462Y018611D01*
X018482Y018611D01*
X018482Y017972D01*
X018742Y017972D01*
X018979Y018209D01*
X018979Y017142D01*
X014923Y017142D01*
X015181Y017400D01*
X015181Y017922D01*
X014812Y018291D01*
X014290Y018291D01*
X013921Y017922D01*
X013921Y017400D01*
X014180Y017142D01*
X012464Y017142D01*
X012464Y017312D01*
X012324Y017452D01*
X012324Y017518D01*
X012324Y017645D01*
X012275Y017763D01*
X012251Y017787D01*
X012550Y017787D01*
X013039Y018276D01*
X013039Y018282D01*
X013330Y017992D01*
X013851Y017992D01*
X014221Y018361D01*
X014221Y018883D01*
X013851Y019252D01*
X013413Y019252D01*
X013025Y019640D01*
X012935Y019730D01*
X012818Y019778D01*
X008964Y019778D01*
X008964Y019829D01*
X008915Y019946D01*
X006774Y022088D01*
X007047Y022361D01*
X007047Y022883D01*
X006417Y022622D02*
X006417Y021992D01*
X008644Y019765D01*
X008644Y019458D01*
X012754Y019458D01*
X013591Y018622D01*
X014221Y018530D02*
X017822Y018530D01*
X017822Y018769D02*
X014221Y018769D01*
X014096Y019007D02*
X017939Y019007D01*
X017958Y019246D02*
X013857Y019246D01*
X013181Y019484D02*
X017464Y019484D01*
X017754Y019622D02*
X018504Y019622D01*
X017921Y019961D02*
X008900Y019961D01*
X008662Y020200D02*
X013681Y020200D01*
X013657Y020224D02*
X013724Y020156D01*
X013802Y020100D01*
X013888Y020056D01*
X013979Y020027D01*
X014074Y020012D01*
X014502Y020012D01*
X014502Y020611D01*
X014522Y020611D01*
X014522Y020012D01*
X014950Y020012D01*
X015045Y020027D01*
X015136Y020056D01*
X015221Y020100D01*
X015299Y020156D01*
X015367Y020224D01*
X015424Y020302D01*
X015467Y020388D01*
X015497Y020479D01*
X015512Y020574D01*
X015512Y020612D01*
X014522Y020612D01*
X014522Y020632D01*
X014502Y020632D01*
X014502Y021232D01*
X014074Y021232D01*
X013979Y021217D01*
X013888Y021187D01*
X013802Y021143D01*
X013724Y021087D01*
X013657Y021019D01*
X013600Y020941D01*
X013556Y020856D01*
X013527Y020765D01*
X013512Y020670D01*
X013512Y020632D01*
X014502Y020632D01*
X014502Y020612D01*
X013512Y020612D01*
X013512Y020574D01*
X013527Y020479D01*
X013556Y020388D01*
X013600Y020302D01*
X013657Y020224D01*
X013540Y020438D02*
X008423Y020438D01*
X008185Y020677D02*
X013513Y020677D01*
X013587Y020916D02*
X010507Y020916D01*
X010101Y020916D02*
X009906Y020916D01*
X009501Y020916D02*
X007946Y020916D01*
X007707Y021154D02*
X009262Y021154D01*
X009149Y021393D02*
X007469Y021393D01*
X007230Y021631D02*
X009906Y021631D01*
X009906Y021719D02*
X009149Y021719D01*
X009149Y021976D01*
X009650Y022477D01*
X009906Y022477D01*
X009906Y021719D01*
X010004Y021622D02*
X010839Y021622D01*
X011839Y020622D01*
X014512Y020622D01*
X015492Y020622D01*
X015492Y021602D01*
X015497Y021607D01*
X016828Y021607D01*
X016828Y020266D01*
X018472Y018622D01*
X018462Y018530D02*
X018482Y018530D01*
X018462Y018292D02*
X018482Y018292D01*
X018462Y018053D02*
X018482Y018053D01*
X018823Y018053D02*
X018979Y018053D01*
X018979Y017814D02*
X015181Y017814D01*
X015181Y017576D02*
X018979Y017576D01*
X018979Y017337D02*
X015118Y017337D01*
X013984Y017337D02*
X012439Y017337D01*
X012324Y017576D02*
X013921Y017576D01*
X013921Y017814D02*
X012577Y017814D01*
X012004Y017582D02*
X011656Y017582D01*
X010616Y018622D01*
X010004Y018622D01*
X008644Y018222D02*
X008644Y019458D01*
X006484Y019127D02*
X006417Y019060D01*
X006417Y018622D01*
X005787Y018530D02*
X002185Y018530D01*
X002185Y018769D02*
X005787Y018769D01*
X005912Y019007D02*
X002069Y019007D01*
X002050Y019246D02*
X006097Y019246D01*
X006417Y019252D02*
X006417Y019060D01*
X006484Y019127D02*
X006484Y021325D01*
X005787Y022022D01*
X005467Y022347D02*
X002180Y022347D01*
X002185Y022585D02*
X005467Y022585D01*
X004516Y022622D02*
X004516Y023535D01*
X005200Y024219D01*
X012885Y024219D01*
X015497Y021607D01*
X015221Y021143D02*
X015136Y021187D01*
X015045Y021217D01*
X014950Y021232D01*
X014522Y021232D01*
X014522Y020632D01*
X015512Y020632D01*
X015512Y020670D01*
X015497Y020765D01*
X015467Y020856D01*
X015424Y020941D01*
X015367Y021019D01*
X015299Y021087D01*
X015221Y021143D01*
X015201Y021154D02*
X018049Y021154D01*
X017655Y021393D02*
X010859Y021393D01*
X010745Y021154D02*
X013823Y021154D01*
X014502Y021154D02*
X014522Y021154D01*
X014502Y020916D02*
X014522Y020916D01*
X014502Y020677D02*
X014522Y020677D01*
X014502Y020438D02*
X014522Y020438D01*
X014502Y020200D02*
X014522Y020200D01*
X015343Y020200D02*
X018160Y020200D01*
X018785Y020200D02*
X018979Y020200D01*
X018979Y020438D02*
X015484Y020438D01*
X015511Y020677D02*
X018979Y020677D01*
X018979Y020916D02*
X015437Y020916D01*
X016828Y021607D02*
X017842Y022622D01*
X017822Y022824D02*
X014221Y022824D01*
X014206Y022347D02*
X017828Y022347D01*
X018067Y022108D02*
X017901Y021942D01*
X017815Y021942D01*
X017698Y021893D01*
X017559Y021631D02*
X010102Y021631D01*
X010101Y021393D02*
X009906Y021393D01*
X009906Y021154D02*
X010101Y021154D01*
X010101Y021870D02*
X009906Y021870D01*
X009906Y022108D02*
X010101Y022108D01*
X010101Y022347D02*
X009906Y022347D01*
X009520Y022347D02*
X007033Y022347D01*
X007047Y022585D02*
X012544Y022585D01*
X012788Y022347D02*
X010488Y022347D01*
X009281Y022108D02*
X006795Y022108D01*
X006992Y021870D02*
X009149Y021870D01*
X005506Y020438D02*
X005486Y020438D01*
X005486Y020200D02*
X005506Y020200D01*
X006164Y019961D02*
X002087Y019961D01*
X001848Y020200D02*
X004665Y020200D01*
X004524Y020438D02*
X001024Y020438D01*
X001024Y020200D02*
X001223Y020200D01*
X002558Y019723D02*
X006164Y019723D01*
X006164Y019484D02*
X002543Y019484D01*
X002254Y019622D02*
X001504Y019622D01*
X002124Y018292D02*
X005857Y018292D01*
X005916Y018053D02*
X006095Y018053D01*
X006087Y017814D02*
X007430Y017814D01*
X007684Y017576D02*
X006087Y017576D01*
X006063Y017337D02*
X007569Y017337D01*
X008004Y017122D02*
X008004Y017582D01*
X008644Y018222D01*
X007192Y018053D02*
X006739Y018053D01*
X012004Y017582D02*
X012004Y017122D01*
X012816Y018053D02*
X013268Y018053D01*
X013913Y018053D02*
X014052Y018053D01*
X014151Y018292D02*
X017883Y018292D01*
X018122Y018053D02*
X015050Y018053D01*
X012942Y019723D02*
X017449Y019723D01*
X018896Y021154D02*
X018979Y021154D01*
X018504Y021622D02*
X017879Y021622D01*
X013921Y023539D02*
X012482Y023539D01*
X013921Y023778D02*
X006087Y023778D01*
X005913Y024017D02*
X014055Y024017D01*
G04 *
G04 next data from source file './midi-to-audio.sol', *
G04 source file key is 'infile_0011'. *
G04 *
D10*
X008004Y042122D03*
X012004Y042122D03*
D11*
X010004Y043622D03*
D12*
X012204Y043622D03*
X007804Y043622D03*
X010004Y046622D03*
D13*
X014122Y045622D02*
X014902Y045622D01*
X005886Y045622D02*
X005106Y045622D01*
D14*
X001535Y046622D03*
X001535Y047622D03*
X005457Y048582D03*
X006417Y047622D03*
X013591Y047622D03*
X014551Y048622D03*
X018472Y047622D03*
X018472Y046622D03*
X018472Y044622D03*
X018472Y043622D03*
X014551Y042661D03*
X013591Y043622D03*
X006417Y043622D03*
X005457Y042622D03*
X001535Y043622D03*
X001535Y044622D03*
D15*
X001024Y043214D02*
X001024Y042142D01*
X005046Y042142D01*
X004827Y042361D01*
X004827Y042883D01*
X005196Y043252D01*
X005718Y043252D01*
X006087Y042883D01*
X006087Y042361D01*
X005868Y042142D01*
X007544Y042142D01*
X007544Y042312D01*
X007684Y042452D01*
X007684Y042518D01*
X007684Y042645D01*
X007733Y042763D01*
X007756Y042787D01*
X007458Y042787D01*
X006969Y043276D01*
X006969Y043282D01*
X006678Y042992D01*
X006156Y042992D01*
X005787Y043361D01*
X005787Y043883D01*
X006097Y044193D01*
X006097Y044315D01*
X006146Y044433D01*
X006164Y044451D01*
X006164Y045079D01*
X006120Y045056D01*
X006029Y045027D01*
X005934Y045012D01*
X005506Y045012D01*
X005506Y045611D01*
X005486Y045611D01*
X005486Y045012D01*
X005058Y045012D01*
X004963Y045027D01*
X004872Y045056D01*
X004786Y045100D01*
X004709Y045156D01*
X004641Y045224D01*
X004584Y045302D01*
X004541Y045388D01*
X004511Y045479D01*
X004496Y045574D01*
X004496Y045612D01*
X005486Y045612D01*
X005486Y045632D01*
X005486Y046232D01*
X005058Y046232D01*
X004963Y046217D01*
X004872Y046187D01*
X004786Y046143D01*
X004709Y046087D01*
X004641Y046019D01*
X004584Y045941D01*
X004541Y045856D01*
X004511Y045765D01*
X004496Y045670D01*
X004496Y045632D01*
X005486Y045632D01*
X005506Y045632D01*
X005506Y046232D01*
X005934Y046232D01*
X006029Y046217D01*
X006120Y046187D01*
X006164Y046164D01*
X006164Y046192D01*
X005606Y046751D01*
X005516Y046841D01*
X005467Y046959D01*
X005467Y047822D01*
X005467Y047950D01*
X005468Y047952D01*
X005196Y047952D01*
X004827Y048321D01*
X004827Y048843D01*
X005081Y049098D01*
X001024Y049098D01*
X001024Y048029D01*
X001266Y048272D01*
X001525Y048272D01*
X001525Y047632D01*
X001545Y047632D01*
X001545Y048272D01*
X001805Y048272D01*
X002185Y047891D01*
X002185Y047632D01*
X001546Y047632D01*
X001546Y047612D01*
X002185Y047612D01*
X002185Y047352D01*
X001940Y047108D01*
X002106Y046942D01*
X002443Y046942D01*
X002560Y046893D01*
X002650Y046803D01*
X002699Y046685D01*
X002699Y046558D01*
X002650Y046440D01*
X002560Y046350D01*
X002443Y046302D01*
X002106Y046302D01*
X001796Y045992D01*
X001274Y045992D01*
X001024Y046242D01*
X001024Y045001D01*
X001274Y045252D01*
X001796Y045252D01*
X002106Y044942D01*
X002318Y044942D01*
X002435Y044893D01*
X002525Y044803D01*
X002574Y044685D01*
X002574Y044558D01*
X002525Y044440D01*
X002435Y044350D01*
X002318Y044302D01*
X002106Y044302D01*
X001940Y044136D01*
X002185Y043891D01*
X002185Y043632D01*
X001546Y043632D01*
X001546Y043612D01*
X002185Y043612D01*
X002185Y043352D01*
X001805Y042972D01*
X001545Y042972D01*
X001545Y043611D01*
X001525Y043611D01*
X001525Y042972D01*
X001266Y042972D01*
X001024Y043214D01*
X001024Y043053D02*
X001185Y043053D01*
X001525Y043053D02*
X001545Y043053D01*
X001886Y043053D02*
X004997Y043053D01*
X004827Y042814D02*
X001024Y042814D01*
X001024Y042576D02*
X004827Y042576D01*
X004850Y042337D02*
X001024Y042337D01*
X001525Y043292D02*
X001545Y043292D01*
X001525Y043530D02*
X001545Y043530D01*
X001535Y043622D02*
X001981Y043622D01*
X002352Y043992D01*
X002352Y044528D01*
X003422Y044528D01*
X004516Y045622D01*
X005496Y045622D01*
X005486Y045677D02*
X005506Y045677D01*
X005486Y045916D02*
X005506Y045916D01*
X005486Y046154D02*
X005506Y046154D01*
X005964Y046393D02*
X002602Y046393D01*
X002699Y046631D02*
X005726Y046631D01*
X005504Y046870D02*
X002584Y046870D01*
X002199Y046657D02*
X002165Y046690D01*
X002165Y047622D01*
X001535Y047622D01*
X001525Y047824D02*
X001545Y047824D01*
X001525Y048062D02*
X001545Y048062D01*
X001057Y048062D02*
X001024Y048062D01*
X001024Y048301D02*
X004847Y048301D01*
X004827Y048539D02*
X001024Y048539D01*
X001024Y048778D02*
X004827Y048778D01*
X005000Y049017D02*
X001024Y049017D01*
X002014Y048062D02*
X005086Y048062D01*
X005467Y047824D02*
X002185Y047824D01*
X002165Y047622D02*
X004516Y047622D01*
X004516Y045622D01*
X004497Y045677D02*
X001024Y045677D01*
X001024Y045916D02*
X004571Y045916D01*
X004807Y046154D02*
X001959Y046154D01*
X001112Y046154D02*
X001024Y046154D01*
X001629Y046622D02*
X002379Y046622D01*
X001941Y047108D02*
X005467Y047108D01*
X005787Y047022D02*
X005787Y047886D01*
X006160Y048259D01*
X012323Y048259D01*
X012961Y047622D01*
X013591Y047622D01*
X014221Y047585D02*
X017822Y047585D01*
X017822Y047612D02*
X017822Y047352D01*
X018067Y047108D01*
X013968Y047108D01*
X013851Y046992D02*
X014221Y047361D01*
X014221Y047883D01*
X013851Y048252D01*
X013330Y048252D01*
X013056Y047978D01*
X012504Y048530D01*
X012387Y048579D01*
X012259Y048579D01*
X006097Y048579D01*
X006087Y048575D01*
X006087Y048843D01*
X005832Y049098D01*
X014136Y049098D01*
X013921Y048883D01*
X013921Y048361D01*
X014290Y047992D01*
X014812Y047992D01*
X015181Y048361D01*
X015181Y048883D01*
X014966Y049098D01*
X018979Y049098D01*
X018979Y048034D01*
X018742Y048272D01*
X018482Y048272D01*
X018482Y047632D01*
X018462Y047632D01*
X018462Y047612D01*
X017822Y047612D01*
X017822Y047632D02*
X018462Y047632D01*
X018462Y048272D01*
X018203Y048272D01*
X017822Y047891D01*
X017822Y047632D01*
X017842Y047622D02*
X018472Y047622D01*
X018472Y047297D01*
X018456Y047281D01*
X018462Y047252D02*
X018462Y047611D01*
X018482Y047611D01*
X018482Y047252D01*
X018462Y047252D01*
X018462Y047347D02*
X018482Y047347D01*
X018462Y047585D02*
X018482Y047585D01*
X018462Y047824D02*
X018482Y047824D01*
X018462Y048062D02*
X018482Y048062D01*
X018951Y048062D02*
X018979Y048062D01*
X018979Y048301D02*
X015121Y048301D01*
X015181Y048539D02*
X018979Y048539D01*
X018979Y048778D02*
X015181Y048778D01*
X015047Y049017D02*
X018979Y049017D01*
X017994Y048062D02*
X014883Y048062D01*
X014220Y048062D02*
X014041Y048062D01*
X013981Y048301D02*
X012734Y048301D01*
X012972Y048062D02*
X013140Y048062D01*
X012306Y047824D02*
X007047Y047824D01*
X007047Y047883D02*
X006991Y047939D01*
X012190Y047939D01*
X012689Y047440D01*
X012779Y047350D01*
X012897Y047302D01*
X013020Y047302D01*
X013330Y046992D01*
X013851Y046992D01*
X013213Y047108D02*
X010727Y047108D01*
X010859Y046976D02*
X010358Y047477D01*
X010101Y047477D01*
X010101Y046719D01*
X009906Y046719D01*
X009906Y046524D01*
X009149Y046524D01*
X009149Y046268D01*
X009650Y045767D01*
X009906Y045767D01*
X009906Y046524D01*
X010101Y046524D01*
X010101Y045767D01*
X010358Y045767D01*
X010859Y046268D01*
X010859Y046524D01*
X010102Y046524D01*
X010102Y046719D01*
X010859Y046719D01*
X010859Y046976D01*
X010859Y046870D02*
X017674Y046870D01*
X017698Y046893D02*
X017608Y046803D01*
X017559Y046685D01*
X017559Y046558D01*
X017608Y046440D01*
X017698Y046350D01*
X017815Y046302D01*
X017901Y046302D01*
X018211Y045992D01*
X018733Y045992D01*
X018979Y046237D01*
X018979Y045006D01*
X018733Y045252D01*
X018211Y045252D01*
X017901Y044942D01*
X017690Y044942D01*
X017573Y044893D01*
X017483Y044803D01*
X017434Y044685D01*
X017434Y044558D01*
X017483Y044440D01*
X017573Y044350D01*
X017690Y044302D01*
X017901Y044302D01*
X018067Y044136D01*
X017822Y043891D01*
X017822Y043632D01*
X018462Y043632D01*
X018462Y043612D01*
X017822Y043612D01*
X017822Y043352D01*
X018203Y042972D01*
X018462Y042972D01*
X018462Y043611D01*
X018482Y043611D01*
X018482Y042972D01*
X018742Y042972D01*
X018979Y043209D01*
X018979Y042142D01*
X014923Y042142D01*
X015181Y042400D01*
X015181Y042922D01*
X014812Y043291D01*
X014290Y043291D01*
X013921Y042922D01*
X013921Y042400D01*
X014180Y042142D01*
X012464Y042142D01*
X012464Y042312D01*
X012324Y042452D01*
X012324Y042518D01*
X012324Y042645D01*
X012275Y042763D01*
X012251Y042787D01*
X012550Y042787D01*
X013039Y043276D01*
X013039Y043282D01*
X013330Y042992D01*
X013851Y042992D01*
X014221Y043361D01*
X014221Y043883D01*
X013851Y044252D01*
X013413Y044252D01*
X013025Y044640D01*
X012935Y044730D01*
X012818Y044778D01*
X008964Y044778D01*
X008964Y044829D01*
X008915Y044946D01*
X006774Y047088D01*
X007047Y047361D01*
X007047Y047883D01*
X006417Y047622D02*
X006417Y046992D01*
X008644Y044765D01*
X008644Y044458D01*
X012754Y044458D01*
X013591Y043622D01*
X014221Y043530D02*
X017822Y043530D01*
X017822Y043769D02*
X014221Y043769D01*
X014096Y044007D02*
X017939Y044007D01*
X017958Y044246D02*
X013857Y044246D01*
X013181Y044484D02*
X017464Y044484D01*
X017754Y044622D02*
X018504Y044622D01*
X017921Y044961D02*
X008900Y044961D01*
X008662Y045200D02*
X013681Y045200D01*
X013657Y045224D02*
X013724Y045156D01*
X013802Y045100D01*
X013888Y045056D01*
X013979Y045027D01*
X014074Y045012D01*
X014502Y045012D01*
X014502Y045611D01*
X014522Y045611D01*
X014522Y045012D01*
X014950Y045012D01*
X015045Y045027D01*
X015136Y045056D01*
X015221Y045100D01*
X015299Y045156D01*
X015367Y045224D01*
X015424Y045302D01*
X015467Y045388D01*
X015497Y045479D01*
X015512Y045574D01*
X015512Y045612D01*
X014522Y045612D01*
X014522Y045632D01*
X014502Y045632D01*
X014502Y046232D01*
X014074Y046232D01*
X013979Y046217D01*
X013888Y046187D01*
X013802Y046143D01*
X013724Y046087D01*
X013657Y046019D01*
X013600Y045941D01*
X013556Y045856D01*
X013527Y045765D01*
X013512Y045670D01*
X013512Y045632D01*
X014502Y045632D01*
X014502Y045612D01*
X013512Y045612D01*
X013512Y045574D01*
X013527Y045479D01*
X013556Y045388D01*
X013600Y045302D01*
X013657Y045224D01*
X013540Y045438D02*
X008423Y045438D01*
X008185Y045677D02*
X013513Y045677D01*
X013587Y045916D02*
X010507Y045916D01*
X010101Y045916D02*
X009906Y045916D01*
X009501Y045916D02*
X007946Y045916D01*
X007707Y046154D02*
X009262Y046154D01*
X009149Y046393D02*
X007469Y046393D01*
X007230Y046631D02*
X009906Y046631D01*
X009906Y046719D02*
X009149Y046719D01*
X009149Y046976D01*
X009650Y047477D01*
X009906Y047477D01*
X009906Y046719D01*
X010004Y046622D02*
X010839Y046622D01*
X011839Y045622D01*
X014512Y045622D01*
X015492Y045622D01*
X015492Y046602D01*
X015497Y046607D01*
X016828Y046607D01*
X016828Y045266D01*
X018472Y043622D01*
X018462Y043530D02*
X018482Y043530D01*
X018462Y043292D02*
X018482Y043292D01*
X018462Y043053D02*
X018482Y043053D01*
X018823Y043053D02*
X018979Y043053D01*
X018979Y042814D02*
X015181Y042814D01*
X015181Y042576D02*
X018979Y042576D01*
X018979Y042337D02*
X015118Y042337D01*
X013984Y042337D02*
X012439Y042337D01*
X012324Y042576D02*
X013921Y042576D01*
X013921Y042814D02*
X012577Y042814D01*
X012004Y042582D02*
X011656Y042582D01*
X010616Y043622D01*
X010004Y043622D01*
X008644Y043222D02*
X008644Y044458D01*
X006484Y044127D02*
X006417Y044060D01*
X006417Y043622D01*
X005787Y043530D02*
X002185Y043530D01*
X002185Y043769D02*
X005787Y043769D01*
X005912Y044007D02*
X002069Y044007D01*
X002050Y044246D02*
X006097Y044246D01*
X006417Y044252D02*
X006417Y044060D01*
X006484Y044127D02*
X006484Y046325D01*
X005787Y047022D01*
X005467Y047347D02*
X002180Y047347D01*
X002185Y047585D02*
X005467Y047585D01*
X004516Y047622D02*
X004516Y048535D01*
X005200Y049219D01*
X012885Y049219D01*
X015497Y046607D01*
X015221Y046143D02*
X015136Y046187D01*
X015045Y046217D01*
X014950Y046232D01*
X014522Y046232D01*
X014522Y045632D01*
X015512Y045632D01*
X015512Y045670D01*
X015497Y045765D01*
X015467Y045856D01*
X015424Y045941D01*
X015367Y046019D01*
X015299Y046087D01*
X015221Y046143D01*
X015201Y046154D02*
X018049Y046154D01*
X017655Y046393D02*
X010859Y046393D01*
X010745Y046154D02*
X013823Y046154D01*
X014502Y046154D02*
X014522Y046154D01*
X014502Y045916D02*
X014522Y045916D01*
X014502Y045677D02*
X014522Y045677D01*
X014502Y045438D02*
X014522Y045438D01*
X014502Y045200D02*
X014522Y045200D01*
X015343Y045200D02*
X018160Y045200D01*
X018785Y045200D02*
X018979Y045200D01*
X018979Y045438D02*
X015484Y045438D01*
X015511Y045677D02*
X018979Y045677D01*
X018979Y045916D02*
X015437Y045916D01*
X016828Y046607D02*
X017842Y047622D01*
X017822Y047824D02*
X014221Y047824D01*
X014206Y047347D02*
X017828Y047347D01*
X018067Y047108D02*
X017901Y046942D01*
X017815Y046942D01*
X017698Y046893D01*
X017559Y046631D02*
X010102Y046631D01*
X010101Y046393D02*
X009906Y046393D01*
X009906Y046154D02*
X010101Y046154D01*
X010101Y046870D02*
X009906Y046870D01*
X009906Y047108D02*
X010101Y047108D01*
X010101Y047347D02*
X009906Y047347D01*
X009520Y047347D02*
X007033Y047347D01*
X007047Y047585D02*
X012544Y047585D01*
X012788Y047347D02*
X010488Y047347D01*
X009281Y047108D02*
X006795Y047108D01*
X006992Y046870D02*
X009149Y046870D01*
X005506Y045438D02*
X005486Y045438D01*
X005486Y045200D02*
X005506Y045200D01*
X006164Y044961D02*
X002087Y044961D01*
X001848Y045200D02*
X004665Y045200D01*
X004524Y045438D02*
X001024Y045438D01*
X001024Y045200D02*
X001223Y045200D01*
X002558Y044723D02*
X006164Y044723D01*
X006164Y044484D02*
X002543Y044484D01*
X002254Y044622D02*
X001504Y044622D01*
X002124Y043292D02*
X005857Y043292D01*
X005916Y043053D02*
X006095Y043053D01*
X006087Y042814D02*
X007430Y042814D01*
X007684Y042576D02*
X006087Y042576D01*
X006063Y042337D02*
X007569Y042337D01*
X008004Y042122D02*
X008004Y042582D01*
X008644Y043222D01*
X007192Y043053D02*
X006739Y043053D01*
X012004Y042582D02*
X012004Y042122D01*
X012816Y043053D02*
X013268Y043053D01*
X013913Y043053D02*
X014052Y043053D01*
X014151Y043292D02*
X017883Y043292D01*
X018122Y043053D02*
X015050Y043053D01*
X012942Y044723D02*
X017449Y044723D01*
X018896Y046154D02*
X018979Y046154D01*
X018504Y046622D02*
X017879Y046622D01*
X013921Y048539D02*
X012482Y048539D01*
X013921Y048778D02*
X006087Y048778D01*
X005913Y049017D02*
X014055Y049017D01*
G04 *
G04 next data from source file './midi-to-audio.sol', *
G04 source file key is 'infile_0009'. *
G04 *
D10*
X008004Y033722D03*
X012004Y033722D03*
D11*
X010004Y035222D03*
D12*
X012204Y035222D03*
X007804Y035222D03*
X010004Y038222D03*
D13*
X014122Y037222D02*
X014902Y037222D01*
X005886Y037222D02*
X005106Y037222D01*
D14*
X001535Y038222D03*
X001535Y039222D03*
X005457Y040182D03*
X006417Y039222D03*
X013591Y039222D03*
X014551Y040222D03*
X018472Y039222D03*
X018472Y038222D03*
X018472Y036222D03*
X018472Y035222D03*
X014551Y034261D03*
X013591Y035222D03*
X006417Y035222D03*
X005457Y034222D03*
X001535Y035222D03*
X001535Y036222D03*
D15*
X001024Y034814D02*
X001024Y033742D01*
X005046Y033742D01*
X004827Y033961D01*
X004827Y034483D01*
X005196Y034852D01*
X005718Y034852D01*
X006087Y034483D01*
X006087Y033961D01*
X005868Y033742D01*
X007544Y033742D01*
X007544Y033912D01*
X007684Y034052D01*
X007684Y034118D01*
X007684Y034245D01*
X007733Y034363D01*
X007756Y034387D01*
X007458Y034387D01*
X006969Y034876D01*
X006969Y034882D01*
X006678Y034592D01*
X006156Y034592D01*
X005787Y034961D01*
X005787Y035483D01*
X006097Y035793D01*
X006097Y035915D01*
X006146Y036033D01*
X006164Y036051D01*
X006164Y036679D01*
X006120Y036656D01*
X006029Y036627D01*
X005934Y036612D01*
X005506Y036612D01*
X005506Y037211D01*
X005486Y037211D01*
X005486Y036612D01*
X005058Y036612D01*
X004963Y036627D01*
X004872Y036656D01*
X004786Y036700D01*
X004709Y036756D01*
X004641Y036824D01*
X004584Y036902D01*
X004541Y036988D01*
X004511Y037079D01*
X004496Y037174D01*
X004496Y037212D01*
X005486Y037212D01*
X005486Y037232D01*
X005486Y037832D01*
X005058Y037832D01*
X004963Y037817D01*
X004872Y037787D01*
X004786Y037743D01*
X004709Y037687D01*
X004641Y037619D01*
X004584Y037541D01*
X004541Y037456D01*
X004511Y037365D01*
X004496Y037270D01*
X004496Y037232D01*
X005486Y037232D01*
X005506Y037232D01*
X005506Y037832D01*
X005934Y037832D01*
X006029Y037817D01*
X006120Y037787D01*
X006164Y037764D01*
X006164Y037792D01*
X005606Y038351D01*
X005516Y038441D01*
X005467Y038559D01*
X005467Y039422D01*
X005467Y039550D01*
X005468Y039552D01*
X005196Y039552D01*
X004827Y039921D01*
X004827Y040443D01*
X005081Y040698D01*
X001024Y040698D01*
X001024Y039629D01*
X001266Y039872D01*
X001525Y039872D01*
X001525Y039232D01*
X001545Y039232D01*
X001545Y039872D01*
X001805Y039872D01*
X002185Y039491D01*
X002185Y039232D01*
X001546Y039232D01*
X001546Y039212D01*
X002185Y039212D01*
X002185Y038952D01*
X001940Y038708D01*
X002106Y038542D01*
X002443Y038542D01*
X002560Y038493D01*
X002650Y038403D01*
X002699Y038285D01*
X002699Y038158D01*
X002650Y038040D01*
X002560Y037950D01*
X002443Y037902D01*
X002106Y037902D01*
X001796Y037592D01*
X001274Y037592D01*
X001024Y037842D01*
X001024Y036601D01*
X001274Y036852D01*
X001796Y036852D01*
X002106Y036542D01*
X002318Y036542D01*
X002435Y036493D01*
X002525Y036403D01*
X002574Y036285D01*
X002574Y036158D01*
X002525Y036040D01*
X002435Y035950D01*
X002318Y035902D01*
X002106Y035902D01*
X001940Y035736D01*
X002185Y035491D01*
X002185Y035232D01*
X001546Y035232D01*
X001546Y035212D01*
X002185Y035212D01*
X002185Y034952D01*
X001805Y034572D01*
X001545Y034572D01*
X001545Y035211D01*
X001525Y035211D01*
X001525Y034572D01*
X001266Y034572D01*
X001024Y034814D01*
X001024Y034653D02*
X001185Y034653D01*
X001525Y034653D02*
X001545Y034653D01*
X001886Y034653D02*
X004997Y034653D01*
X004827Y034414D02*
X001024Y034414D01*
X001024Y034176D02*
X004827Y034176D01*
X004850Y033937D02*
X001024Y033937D01*
X001525Y034892D02*
X001545Y034892D01*
X001525Y035130D02*
X001545Y035130D01*
X001535Y035222D02*
X001981Y035222D01*
X002352Y035592D01*
X002352Y036128D01*
X003422Y036128D01*
X004516Y037222D01*
X005496Y037222D01*
X005486Y037277D02*
X005506Y037277D01*
X005486Y037516D02*
X005506Y037516D01*
X005486Y037754D02*
X005506Y037754D01*
X005964Y037993D02*
X002602Y037993D01*
X002699Y038231D02*
X005726Y038231D01*
X005504Y038470D02*
X002584Y038470D01*
X002199Y038257D02*
X002165Y038290D01*
X002165Y039222D01*
X001535Y039222D01*
X001525Y039424D02*
X001545Y039424D01*
X001525Y039662D02*
X001545Y039662D01*
X001057Y039662D02*
X001024Y039662D01*
X001024Y039901D02*
X004847Y039901D01*
X004827Y040139D02*
X001024Y040139D01*
X001024Y040378D02*
X004827Y040378D01*
X005000Y040617D02*
X001024Y040617D01*
X002014Y039662D02*
X005086Y039662D01*
X005467Y039424D02*
X002185Y039424D01*
X002165Y039222D02*
X004516Y039222D01*
X004516Y037222D01*
X004497Y037277D02*
X001024Y037277D01*
X001024Y037516D02*
X004571Y037516D01*
X004807Y037754D02*
X001959Y037754D01*
X001112Y037754D02*
X001024Y037754D01*
X001629Y038222D02*
X002379Y038222D01*
X001941Y038708D02*
X005467Y038708D01*
X005787Y038622D02*
X005787Y039486D01*
X006160Y039859D01*
X012323Y039859D01*
X012961Y039222D01*
X013591Y039222D01*
X014221Y039185D02*
X017822Y039185D01*
X017822Y039212D02*
X017822Y038952D01*
X018067Y038708D01*
X013968Y038708D01*
X013851Y038592D02*
X014221Y038961D01*
X014221Y039483D01*
X013851Y039852D01*
X013330Y039852D01*
X013056Y039578D01*
X012504Y040130D01*
X012387Y040179D01*
X012259Y040179D01*
X006097Y040179D01*
X006087Y040175D01*
X006087Y040443D01*
X005832Y040698D01*
X014136Y040698D01*
X013921Y040483D01*
X013921Y039961D01*
X014290Y039592D01*
X014812Y039592D01*
X015181Y039961D01*
X015181Y040483D01*
X014966Y040698D01*
X018979Y040698D01*
X018979Y039634D01*
X018742Y039872D01*
X018482Y039872D01*
X018482Y039232D01*
X018462Y039232D01*
X018462Y039212D01*
X017822Y039212D01*
X017822Y039232D02*
X018462Y039232D01*
X018462Y039872D01*
X018203Y039872D01*
X017822Y039491D01*
X017822Y039232D01*
X017842Y039222D02*
X018472Y039222D01*
X018472Y038897D01*
X018456Y038881D01*
X018462Y038852D02*
X018462Y039211D01*
X018482Y039211D01*
X018482Y038852D01*
X018462Y038852D01*
X018462Y038947D02*
X018482Y038947D01*
X018462Y039185D02*
X018482Y039185D01*
X018462Y039424D02*
X018482Y039424D01*
X018462Y039662D02*
X018482Y039662D01*
X018951Y039662D02*
X018979Y039662D01*
X018979Y039901D02*
X015121Y039901D01*
X015181Y040139D02*
X018979Y040139D01*
X018979Y040378D02*
X015181Y040378D01*
X015047Y040617D02*
X018979Y040617D01*
X017994Y039662D02*
X014883Y039662D01*
X014220Y039662D02*
X014041Y039662D01*
X013981Y039901D02*
X012734Y039901D01*
X012972Y039662D02*
X013140Y039662D01*
X012306Y039424D02*
X007047Y039424D01*
X007047Y039483D02*
X006991Y039539D01*
X012190Y039539D01*
X012689Y039040D01*
X012779Y038950D01*
X012897Y038902D01*
X013020Y038902D01*
X013330Y038592D01*
X013851Y038592D01*
X013213Y038708D02*
X010727Y038708D01*
X010859Y038576D02*
X010358Y039077D01*
X010101Y039077D01*
X010101Y038319D01*
X009906Y038319D01*
X009906Y038124D01*
X009149Y038124D01*
X009149Y037868D01*
X009650Y037367D01*
X009906Y037367D01*
X009906Y038124D01*
X010101Y038124D01*
X010101Y037367D01*
X010358Y037367D01*
X010859Y037868D01*
X010859Y038124D01*
X010102Y038124D01*
X010102Y038319D01*
X010859Y038319D01*
X010859Y038576D01*
X010859Y038470D02*
X017674Y038470D01*
X017698Y038493D02*
X017608Y038403D01*
X017559Y038285D01*
X017559Y038158D01*
X017608Y038040D01*
X017698Y037950D01*
X017815Y037902D01*
X017901Y037902D01*
X018211Y037592D01*
X018733Y037592D01*
X018979Y037837D01*
X018979Y036606D01*
X018733Y036852D01*
X018211Y036852D01*
X017901Y036542D01*
X017690Y036542D01*
X017573Y036493D01*
X017483Y036403D01*
X017434Y036285D01*
X017434Y036158D01*
X017483Y036040D01*
X017573Y035950D01*
X017690Y035902D01*
X017901Y035902D01*
X018067Y035736D01*
X017822Y035491D01*
X017822Y035232D01*
X018462Y035232D01*
X018462Y035212D01*
X017822Y035212D01*
X017822Y034952D01*
X018203Y034572D01*
X018462Y034572D01*
X018462Y035211D01*
X018482Y035211D01*
X018482Y034572D01*
X018742Y034572D01*
X018979Y034809D01*
X018979Y033742D01*
X014923Y033742D01*
X015181Y034000D01*
X015181Y034522D01*
X014812Y034891D01*
X014290Y034891D01*
X013921Y034522D01*
X013921Y034000D01*
X014180Y033742D01*
X012464Y033742D01*
X012464Y033912D01*
X012324Y034052D01*
X012324Y034118D01*
X012324Y034245D01*
X012275Y034363D01*
X012251Y034387D01*
X012550Y034387D01*
X013039Y034876D01*
X013039Y034882D01*
X013330Y034592D01*
X013851Y034592D01*
X014221Y034961D01*
X014221Y035483D01*
X013851Y035852D01*
X013413Y035852D01*
X013025Y036240D01*
X012935Y036330D01*
X012818Y036378D01*
X008964Y036378D01*
X008964Y036429D01*
X008915Y036546D01*
X006774Y038688D01*
X007047Y038961D01*
X007047Y039483D01*
X006417Y039222D02*
X006417Y038592D01*
X008644Y036365D01*
X008644Y036058D01*
X012754Y036058D01*
X013591Y035222D01*
X014221Y035130D02*
X017822Y035130D01*
X017822Y035369D02*
X014221Y035369D01*
X014096Y035607D02*
X017939Y035607D01*
X017958Y035846D02*
X013857Y035846D01*
X013181Y036084D02*
X017464Y036084D01*
X017754Y036222D02*
X018504Y036222D01*
X017921Y036561D02*
X008900Y036561D01*
X008662Y036800D02*
X013681Y036800D01*
X013657Y036824D02*
X013724Y036756D01*
X013802Y036700D01*
X013888Y036656D01*
X013979Y036627D01*
X014074Y036612D01*
X014502Y036612D01*
X014502Y037211D01*
X014522Y037211D01*
X014522Y036612D01*
X014950Y036612D01*
X015045Y036627D01*
X015136Y036656D01*
X015221Y036700D01*
X015299Y036756D01*
X015367Y036824D01*
X015424Y036902D01*
X015467Y036988D01*
X015497Y037079D01*
X015512Y037174D01*
X015512Y037212D01*
X014522Y037212D01*
X014522Y037232D01*
X014502Y037232D01*
X014502Y037832D01*
X014074Y037832D01*
X013979Y037817D01*
X013888Y037787D01*
X013802Y037743D01*
X013724Y037687D01*
X013657Y037619D01*
X013600Y037541D01*
X013556Y037456D01*
X013527Y037365D01*
X013512Y037270D01*
X013512Y037232D01*
X014502Y037232D01*
X014502Y037212D01*
X013512Y037212D01*
X013512Y037174D01*
X013527Y037079D01*
X013556Y036988D01*
X013600Y036902D01*
X013657Y036824D01*
X013540Y037038D02*
X008423Y037038D01*
X008185Y037277D02*
X013513Y037277D01*
X013587Y037516D02*
X010507Y037516D01*
X010101Y037516D02*
X009906Y037516D01*
X009501Y037516D02*
X007946Y037516D01*
X007707Y037754D02*
X009262Y037754D01*
X009149Y037993D02*
X007469Y037993D01*
X007230Y038231D02*
X009906Y038231D01*
X009906Y038319D02*
X009149Y038319D01*
X009149Y038576D01*
X009650Y039077D01*
X009906Y039077D01*
X009906Y038319D01*
X010004Y038222D02*
X010839Y038222D01*
X011839Y037222D01*
X014512Y037222D01*
X015492Y037222D01*
X015492Y038202D01*
X015497Y038207D01*
X016828Y038207D01*
X016828Y036866D01*
X018472Y035222D01*
X018462Y035130D02*
X018482Y035130D01*
X018462Y034892D02*
X018482Y034892D01*
X018462Y034653D02*
X018482Y034653D01*
X018823Y034653D02*
X018979Y034653D01*
X018979Y034414D02*
X015181Y034414D01*
X015181Y034176D02*
X018979Y034176D01*
X018979Y033937D02*
X015118Y033937D01*
X013984Y033937D02*
X012439Y033937D01*
X012324Y034176D02*
X013921Y034176D01*
X013921Y034414D02*
X012577Y034414D01*
X012004Y034182D02*
X011656Y034182D01*
X010616Y035222D01*
X010004Y035222D01*
X008644Y034822D02*
X008644Y036058D01*
X006484Y035727D02*
X006417Y035660D01*
X006417Y035222D01*
X005787Y035130D02*
X002185Y035130D01*
X002185Y035369D02*
X005787Y035369D01*
X005912Y035607D02*
X002069Y035607D01*
X002050Y035846D02*
X006097Y035846D01*
X006417Y035852D02*
X006417Y035660D01*
X006484Y035727D02*
X006484Y037925D01*
X005787Y038622D01*
X005467Y038947D02*
X002180Y038947D01*
X002185Y039185D02*
X005467Y039185D01*
X004516Y039222D02*
X004516Y040135D01*
X005200Y040819D01*
X012885Y040819D01*
X015497Y038207D01*
X015221Y037743D02*
X015136Y037787D01*
X015045Y037817D01*
X014950Y037832D01*
X014522Y037832D01*
X014522Y037232D01*
X015512Y037232D01*
X015512Y037270D01*
X015497Y037365D01*
X015467Y037456D01*
X015424Y037541D01*
X015367Y037619D01*
X015299Y037687D01*
X015221Y037743D01*
X015201Y037754D02*
X018049Y037754D01*
X017655Y037993D02*
X010859Y037993D01*
X010745Y037754D02*
X013823Y037754D01*
X014502Y037754D02*
X014522Y037754D01*
X014502Y037516D02*
X014522Y037516D01*
X014502Y037277D02*
X014522Y037277D01*
X014502Y037038D02*
X014522Y037038D01*
X014502Y036800D02*
X014522Y036800D01*
X015343Y036800D02*
X018160Y036800D01*
X018785Y036800D02*
X018979Y036800D01*
X018979Y037038D02*
X015484Y037038D01*
X015511Y037277D02*
X018979Y037277D01*
X018979Y037516D02*
X015437Y037516D01*
X016828Y038207D02*
X017842Y039222D01*
X017822Y039424D02*
X014221Y039424D01*
X014206Y038947D02*
X017828Y038947D01*
X018067Y038708D02*
X017901Y038542D01*
X017815Y038542D01*
X017698Y038493D01*
X017559Y038231D02*
X010102Y038231D01*
X010101Y037993D02*
X009906Y037993D01*
X009906Y037754D02*
X010101Y037754D01*
X010101Y038470D02*
X009906Y038470D01*
X009906Y038708D02*
X010101Y038708D01*
X010101Y038947D02*
X009906Y038947D01*
X009520Y038947D02*
X007033Y038947D01*
X007047Y039185D02*
X012544Y039185D01*
X012788Y038947D02*
X010488Y038947D01*
X009281Y038708D02*
X006795Y038708D01*
X006992Y038470D02*
X009149Y038470D01*
X005506Y037038D02*
X005486Y037038D01*
X005486Y036800D02*
X005506Y036800D01*
X006164Y036561D02*
X002087Y036561D01*
X001848Y036800D02*
X004665Y036800D01*
X004524Y037038D02*
X001024Y037038D01*
X001024Y036800D02*
X001223Y036800D01*
X002558Y036323D02*
X006164Y036323D01*
X006164Y036084D02*
X002543Y036084D01*
X002254Y036222D02*
X001504Y036222D01*
X002124Y034892D02*
X005857Y034892D01*
X005916Y034653D02*
X006095Y034653D01*
X006087Y034414D02*
X007430Y034414D01*
X007684Y034176D02*
X006087Y034176D01*
X006063Y033937D02*
X007569Y033937D01*
X008004Y033722D02*
X008004Y034182D01*
X008644Y034822D01*
X007192Y034653D02*
X006739Y034653D01*
X012004Y034182D02*
X012004Y033722D01*
X012816Y034653D02*
X013268Y034653D01*
X013913Y034653D02*
X014052Y034653D01*
X014151Y034892D02*
X017883Y034892D01*
X018122Y034653D02*
X015050Y034653D01*
X012942Y036323D02*
X017449Y036323D01*
X018896Y037754D02*
X018979Y037754D01*
X018504Y038222D02*
X017879Y038222D01*
X013921Y040139D02*
X012482Y040139D01*
X013921Y040378D02*
X006087Y040378D01*
X005913Y040617D02*
X014055Y040617D01*
G04 *
G04 next data from source file './midi-to-audio.sol', *
G04 source file key is 'infile_0006'. *
G04 *
D10*
X027504Y017122D03*
X031504Y017122D03*
D11*
X029504Y018622D03*
D12*
X031704Y018622D03*
X027304Y018622D03*
X029504Y021622D03*
D13*
X033622Y020622D02*
X034402Y020622D01*
X025386Y020622D02*
X024606Y020622D01*
D14*
X021035Y021622D03*
X021035Y022622D03*
X024957Y023582D03*
X025917Y022622D03*
X033091Y022622D03*
X034051Y023622D03*
X037972Y022622D03*
X037972Y021622D03*
X037972Y019622D03*
X037972Y018622D03*
X034051Y017661D03*
X033091Y018622D03*
X025917Y018622D03*
X024957Y017622D03*
X021035Y018622D03*
X021035Y019622D03*
D15*
X020524Y018214D02*
X020524Y017142D01*
X024546Y017142D01*
X024327Y017361D01*
X024327Y017883D01*
X024696Y018252D01*
X025218Y018252D01*
X025587Y017883D01*
X025587Y017361D01*
X025368Y017142D01*
X027044Y017142D01*
X027044Y017312D01*
X027184Y017452D01*
X027184Y017518D01*
X027184Y017645D01*
X027233Y017763D01*
X027256Y017787D01*
X026958Y017787D01*
X026469Y018276D01*
X026469Y018282D01*
X026178Y017992D01*
X025656Y017992D01*
X025287Y018361D01*
X025287Y018883D01*
X025597Y019193D01*
X025597Y019315D01*
X025646Y019433D01*
X025664Y019451D01*
X025664Y020079D01*
X025620Y020056D01*
X025529Y020027D01*
X025434Y020012D01*
X025006Y020012D01*
X025006Y020611D01*
X024986Y020611D01*
X024986Y020012D01*
X024558Y020012D01*
X024463Y020027D01*
X024372Y020056D01*
X024286Y020100D01*
X024209Y020156D01*
X024141Y020224D01*
X024084Y020302D01*
X024041Y020388D01*
X024011Y020479D01*
X023996Y020574D01*
X023996Y020612D01*
X024986Y020612D01*
X024986Y020632D01*
X024986Y021232D01*
X024558Y021232D01*
X024463Y021217D01*
X024372Y021187D01*
X024286Y021143D01*
X024209Y021087D01*
X024141Y021019D01*
X024084Y020941D01*
X024041Y020856D01*
X024011Y020765D01*
X023996Y020670D01*
X023996Y020632D01*
X024986Y020632D01*
X025006Y020632D01*
X025006Y021232D01*
X025434Y021232D01*
X025529Y021217D01*
X025620Y021187D01*
X025664Y021164D01*
X025664Y021192D01*
X025106Y021751D01*
X025016Y021841D01*
X024967Y021959D01*
X024967Y022822D01*
X024967Y022950D01*
X024968Y022952D01*
X024696Y022952D01*
X024327Y023321D01*
X024327Y023843D01*
X024581Y024098D01*
X020524Y024098D01*
X020524Y023029D01*
X020766Y023272D01*
X021025Y023272D01*
X021025Y022632D01*
X021045Y022632D01*
X021045Y023272D01*
X021305Y023272D01*
X021685Y022891D01*
X021685Y022632D01*
X021046Y022632D01*
X021046Y022612D01*
X021685Y022612D01*
X021685Y022352D01*
X021440Y022108D01*
X021606Y021942D01*
X021943Y021942D01*
X022060Y021893D01*
X022150Y021803D01*
X022199Y021685D01*
X022199Y021558D01*
X022150Y021440D01*
X022060Y021350D01*
X021943Y021302D01*
X021606Y021302D01*
X021296Y020992D01*
X020774Y020992D01*
X020524Y021242D01*
X020524Y020001D01*
X020774Y020252D01*
X021296Y020252D01*
X021606Y019942D01*
X021818Y019942D01*
X021935Y019893D01*
X022025Y019803D01*
X022074Y019685D01*
X022074Y019558D01*
X022025Y019440D01*
X021935Y019350D01*
X021818Y019302D01*
X021606Y019302D01*
X021440Y019136D01*
X021685Y018891D01*
X021685Y018632D01*
X021046Y018632D01*
X021046Y018612D01*
X021685Y018612D01*
X021685Y018352D01*
X021305Y017972D01*
X021045Y017972D01*
X021045Y018611D01*
X021025Y018611D01*
X021025Y017972D01*
X020766Y017972D01*
X020524Y018214D01*
X020524Y018053D02*
X020685Y018053D01*
X021025Y018053D02*
X021045Y018053D01*
X021386Y018053D02*
X024497Y018053D01*
X024327Y017814D02*
X020524Y017814D01*
X020524Y017576D02*
X024327Y017576D01*
X024350Y017337D02*
X020524Y017337D01*
X021025Y018292D02*
X021045Y018292D01*
X021025Y018530D02*
X021045Y018530D01*
X021035Y018622D02*
X021481Y018622D01*
X021852Y018992D01*
X021852Y019528D01*
X022922Y019528D01*
X024016Y020622D01*
X024996Y020622D01*
X024986Y020677D02*
X025006Y020677D01*
X024986Y020916D02*
X025006Y020916D01*
X024986Y021154D02*
X025006Y021154D01*
X025464Y021393D02*
X022102Y021393D01*
X022199Y021631D02*
X025226Y021631D01*
X025004Y021870D02*
X022084Y021870D01*
X021699Y021657D02*
X021665Y021690D01*
X021665Y022622D01*
X021035Y022622D01*
X021025Y022824D02*
X021045Y022824D01*
X021025Y023062D02*
X021045Y023062D01*
X020557Y023062D02*
X020524Y023062D01*
X020524Y023301D02*
X024347Y023301D01*
X024327Y023539D02*
X020524Y023539D01*
X020524Y023778D02*
X024327Y023778D01*
X024500Y024017D02*
X020524Y024017D01*
X021514Y023062D02*
X024586Y023062D01*
X024967Y022824D02*
X021685Y022824D01*
X021665Y022622D02*
X024016Y022622D01*
X024016Y020622D01*
X023997Y020677D02*
X020524Y020677D01*
X020524Y020916D02*
X024071Y020916D01*
X024307Y021154D02*
X021459Y021154D01*
X020612Y021154D02*
X020524Y021154D01*
X021129Y021622D02*
X021879Y021622D01*
X021441Y022108D02*
X024967Y022108D01*
X025287Y022022D02*
X025287Y022886D01*
X025660Y023259D01*
X031823Y023259D01*
X032461Y022622D01*
X033091Y022622D01*
X033721Y022585D02*
X037322Y022585D01*
X037322Y022612D02*
X037322Y022352D01*
X037567Y022108D01*
X033468Y022108D01*
X033351Y021992D02*
X033721Y022361D01*
X033721Y022883D01*
X033351Y023252D01*
X032830Y023252D01*
X032556Y022978D01*
X032004Y023530D01*
X031887Y023579D01*
X031759Y023579D01*
X025597Y023579D01*
X025587Y023575D01*
X025587Y023843D01*
X025332Y024098D01*
X033636Y024098D01*
X033421Y023883D01*
X033421Y023361D01*
X033790Y022992D01*
X034312Y022992D01*
X034681Y023361D01*
X034681Y023883D01*
X034466Y024098D01*
X038479Y024098D01*
X038479Y023034D01*
X038242Y023272D01*
X037982Y023272D01*
X037982Y022632D01*
X037962Y022632D01*
X037962Y022612D01*
X037322Y022612D01*
X037322Y022632D02*
X037962Y022632D01*
X037962Y023272D01*
X037703Y023272D01*
X037322Y022891D01*
X037322Y022632D01*
X037342Y022622D02*
X037972Y022622D01*
X037972Y022297D01*
X037956Y022281D01*
X037962Y022252D02*
X037962Y022611D01*
X037982Y022611D01*
X037982Y022252D01*
X037962Y022252D01*
X037962Y022347D02*
X037982Y022347D01*
X037962Y022585D02*
X037982Y022585D01*
X037962Y022824D02*
X037982Y022824D01*
X037962Y023062D02*
X037982Y023062D01*
X038451Y023062D02*
X038479Y023062D01*
X038479Y023301D02*
X034621Y023301D01*
X034681Y023539D02*
X038479Y023539D01*
X038479Y023778D02*
X034681Y023778D01*
X034547Y024017D02*
X038479Y024017D01*
X037494Y023062D02*
X034383Y023062D01*
X033720Y023062D02*
X033541Y023062D01*
X033481Y023301D02*
X032234Y023301D01*
X032472Y023062D02*
X032640Y023062D01*
X031806Y022824D02*
X026547Y022824D01*
X026547Y022883D02*
X026491Y022939D01*
X031690Y022939D01*
X032189Y022440D01*
X032279Y022350D01*
X032397Y022302D01*
X032520Y022302D01*
X032830Y021992D01*
X033351Y021992D01*
X032713Y022108D02*
X030227Y022108D01*
X030359Y021976D02*
X029858Y022477D01*
X029601Y022477D01*
X029601Y021719D01*
X029406Y021719D01*
X029406Y021524D01*
X028649Y021524D01*
X028649Y021268D01*
X029150Y020767D01*
X029406Y020767D01*
X029406Y021524D01*
X029601Y021524D01*
X029601Y020767D01*
X029858Y020767D01*
X030359Y021268D01*
X030359Y021524D01*
X029602Y021524D01*
X029602Y021719D01*
X030359Y021719D01*
X030359Y021976D01*
X030359Y021870D02*
X037174Y021870D01*
X037198Y021893D02*
X037108Y021803D01*
X037059Y021685D01*
X037059Y021558D01*
X037108Y021440D01*
X037198Y021350D01*
X037315Y021302D01*
X037401Y021302D01*
X037711Y020992D01*
X038233Y020992D01*
X038479Y021237D01*
X038479Y020006D01*
X038233Y020252D01*
X037711Y020252D01*
X037401Y019942D01*
X037190Y019942D01*
X037073Y019893D01*
X036983Y019803D01*
X036934Y019685D01*
X036934Y019558D01*
X036983Y019440D01*
X037073Y019350D01*
X037190Y019302D01*
X037401Y019302D01*
X037567Y019136D01*
X037322Y018891D01*
X037322Y018632D01*
X037962Y018632D01*
X037962Y018612D01*
X037322Y018612D01*
X037322Y018352D01*
X037703Y017972D01*
X037962Y017972D01*
X037962Y018611D01*
X037982Y018611D01*
X037982Y017972D01*
X038242Y017972D01*
X038479Y018209D01*
X038479Y017142D01*
X034423Y017142D01*
X034681Y017400D01*
X034681Y017922D01*
X034312Y018291D01*
X033790Y018291D01*
X033421Y017922D01*
X033421Y017400D01*
X033680Y017142D01*
X031964Y017142D01*
X031964Y017312D01*
X031824Y017452D01*
X031824Y017518D01*
X031824Y017645D01*
X031775Y017763D01*
X031751Y017787D01*
X032050Y017787D01*
X032539Y018276D01*
X032539Y018282D01*
X032830Y017992D01*
X033351Y017992D01*
X033721Y018361D01*
X033721Y018883D01*
X033351Y019252D01*
X032913Y019252D01*
X032525Y019640D01*
X032435Y019730D01*
X032318Y019778D01*
X028464Y019778D01*
X028464Y019829D01*
X028415Y019946D01*
X026274Y022088D01*
X026547Y022361D01*
X026547Y022883D01*
X025917Y022622D02*
X025917Y021992D01*
X028144Y019765D01*
X028144Y019458D01*
X032254Y019458D01*
X033091Y018622D01*
X033721Y018530D02*
X037322Y018530D01*
X037322Y018769D02*
X033721Y018769D01*
X033596Y019007D02*
X037439Y019007D01*
X037458Y019246D02*
X033357Y019246D01*
X032681Y019484D02*
X036964Y019484D01*
X037254Y019622D02*
X038004Y019622D01*
X037421Y019961D02*
X028400Y019961D01*
X028162Y020200D02*
X033181Y020200D01*
X033157Y020224D02*
X033224Y020156D01*
X033302Y020100D01*
X033388Y020056D01*
X033479Y020027D01*
X033574Y020012D01*
X034002Y020012D01*
X034002Y020611D01*
X034022Y020611D01*
X034022Y020012D01*
X034450Y020012D01*
X034545Y020027D01*
X034636Y020056D01*
X034721Y020100D01*
X034799Y020156D01*
X034867Y020224D01*
X034924Y020302D01*
X034967Y020388D01*
X034997Y020479D01*
X035012Y020574D01*
X035012Y020612D01*
X034022Y020612D01*
X034022Y020632D01*
X034002Y020632D01*
X034002Y021232D01*
X033574Y021232D01*
X033479Y021217D01*
X033388Y021187D01*
X033302Y021143D01*
X033224Y021087D01*
X033157Y021019D01*
X033100Y020941D01*
X033056Y020856D01*
X033027Y020765D01*
X033012Y020670D01*
X033012Y020632D01*
X034002Y020632D01*
X034002Y020612D01*
X033012Y020612D01*
X033012Y020574D01*
X033027Y020479D01*
X033056Y020388D01*
X033100Y020302D01*
X033157Y020224D01*
X033040Y020438D02*
X027923Y020438D01*
X027685Y020677D02*
X033013Y020677D01*
X033087Y020916D02*
X030007Y020916D01*
X029601Y020916D02*
X029406Y020916D01*
X029001Y020916D02*
X027446Y020916D01*
X027207Y021154D02*
X028762Y021154D01*
X028649Y021393D02*
X026969Y021393D01*
X026730Y021631D02*
X029406Y021631D01*
X029406Y021719D02*
X028649Y021719D01*
X028649Y021976D01*
X029150Y022477D01*
X029406Y022477D01*
X029406Y021719D01*
X029504Y021622D02*
X030339Y021622D01*
X031339Y020622D01*
X034012Y020622D01*
X034992Y020622D01*
X034992Y021602D01*
X034997Y021607D01*
X036328Y021607D01*
X036328Y020266D01*
X037972Y018622D01*
X037962Y018530D02*
X037982Y018530D01*
X037962Y018292D02*
X037982Y018292D01*
X037962Y018053D02*
X037982Y018053D01*
X038323Y018053D02*
X038479Y018053D01*
X038479Y017814D02*
X034681Y017814D01*
X034681Y017576D02*
X038479Y017576D01*
X038479Y017337D02*
X034618Y017337D01*
X033484Y017337D02*
X031939Y017337D01*
X031824Y017576D02*
X033421Y017576D01*
X033421Y017814D02*
X032077Y017814D01*
X031504Y017582D02*
X031156Y017582D01*
X030116Y018622D01*
X029504Y018622D01*
X028144Y018222D02*
X028144Y019458D01*
X025984Y019127D02*
X025917Y019060D01*
X025917Y018622D01*
X025287Y018530D02*
X021685Y018530D01*
X021685Y018769D02*
X025287Y018769D01*
X025412Y019007D02*
X021569Y019007D01*
X021550Y019246D02*
X025597Y019246D01*
X025917Y019252D02*
X025917Y019060D01*
X025984Y019127D02*
X025984Y021325D01*
X025287Y022022D01*
X024967Y022347D02*
X021680Y022347D01*
X021685Y022585D02*
X024967Y022585D01*
X024016Y022622D02*
X024016Y023535D01*
X024700Y024219D01*
X032385Y024219D01*
X034997Y021607D01*
X034721Y021143D02*
X034636Y021187D01*
X034545Y021217D01*
X034450Y021232D01*
X034022Y021232D01*
X034022Y020632D01*
X035012Y020632D01*
X035012Y020670D01*
X034997Y020765D01*
X034967Y020856D01*
X034924Y020941D01*
X034867Y021019D01*
X034799Y021087D01*
X034721Y021143D01*
X034701Y021154D02*
X037549Y021154D01*
X037155Y021393D02*
X030359Y021393D01*
X030245Y021154D02*
X033323Y021154D01*
X034002Y021154D02*
X034022Y021154D01*
X034002Y020916D02*
X034022Y020916D01*
X034002Y020677D02*
X034022Y020677D01*
X034002Y020438D02*
X034022Y020438D01*
X034002Y020200D02*
X034022Y020200D01*
X034843Y020200D02*
X037660Y020200D01*
X038285Y020200D02*
X038479Y020200D01*
X038479Y020438D02*
X034984Y020438D01*
X035011Y020677D02*
X038479Y020677D01*
X038479Y020916D02*
X034937Y020916D01*
X036328Y021607D02*
X037342Y022622D01*
X037322Y022824D02*
X033721Y022824D01*
X033706Y022347D02*
X037328Y022347D01*
X037567Y022108D02*
X037401Y021942D01*
X037315Y021942D01*
X037198Y021893D01*
X037059Y021631D02*
X029602Y021631D01*
X029601Y021393D02*
X029406Y021393D01*
X029406Y021154D02*
X029601Y021154D01*
X029601Y021870D02*
X029406Y021870D01*
X029406Y022108D02*
X029601Y022108D01*
X029601Y022347D02*
X029406Y022347D01*
X029020Y022347D02*
X026533Y022347D01*
X026547Y022585D02*
X032044Y022585D01*
X032288Y022347D02*
X029988Y022347D01*
X028781Y022108D02*
X026295Y022108D01*
X026492Y021870D02*
X028649Y021870D01*
X025006Y020438D02*
X024986Y020438D01*
X024986Y020200D02*
X025006Y020200D01*
X025664Y019961D02*
X021587Y019961D01*
X021348Y020200D02*
X024165Y020200D01*
X024024Y020438D02*
X020524Y020438D01*
X020524Y020200D02*
X020723Y020200D01*
X022058Y019723D02*
X025664Y019723D01*
X025664Y019484D02*
X022043Y019484D01*
X021754Y019622D02*
X021004Y019622D01*
X021624Y018292D02*
X025357Y018292D01*
X025416Y018053D02*
X025595Y018053D01*
X025587Y017814D02*
X026930Y017814D01*
X027184Y017576D02*
X025587Y017576D01*
X025563Y017337D02*
X027069Y017337D01*
X027504Y017122D02*
X027504Y017582D01*
X028144Y018222D01*
X026692Y018053D02*
X026239Y018053D01*
X031504Y017582D02*
X031504Y017122D01*
X032316Y018053D02*
X032768Y018053D01*
X033413Y018053D02*
X033552Y018053D01*
X033651Y018292D02*
X037383Y018292D01*
X037622Y018053D02*
X034550Y018053D01*
X032442Y019723D02*
X036949Y019723D01*
X038396Y021154D02*
X038479Y021154D01*
X038004Y021622D02*
X037379Y021622D01*
X033421Y023539D02*
X031982Y023539D01*
X033421Y023778D02*
X025587Y023778D01*
X025413Y024017D02*
X033555Y024017D01*
G04 *
G04 next data from source file './midi-to-audio.sol', *
G04 source file key is 'infile_0014'. *
G04 *
D10*
X027504Y050522D03*
X031504Y050522D03*
D11*
X029504Y052022D03*
D12*
X031704Y052022D03*
X027304Y052022D03*
X029504Y055022D03*
D13*
X033622Y054022D02*
X034402Y054022D01*
X025386Y054022D02*
X024606Y054022D01*
D14*
X021035Y055022D03*
X021035Y056022D03*
X024957Y056982D03*
X025917Y056022D03*
X033091Y056022D03*
X034051Y057022D03*
X037972Y056022D03*
X037972Y055022D03*
X037972Y053022D03*
X037972Y052022D03*
X034051Y051061D03*
X033091Y052022D03*
X025917Y052022D03*
X024957Y051022D03*
X021035Y052022D03*
X021035Y053022D03*
D15*
X020524Y051614D02*
X020524Y050542D01*
X024546Y050542D01*
X024327Y050761D01*
X024327Y051283D01*
X024696Y051652D01*
X025218Y051652D01*
X025587Y051283D01*
X025587Y050761D01*
X025368Y050542D01*
X027044Y050542D01*
X027044Y050712D01*
X027184Y050852D01*
X027184Y050918D01*
X027184Y051045D01*
X027233Y051163D01*
X027256Y051187D01*
X026958Y051187D01*
X026469Y051676D01*
X026469Y051682D01*
X026178Y051392D01*
X025656Y051392D01*
X025287Y051761D01*
X025287Y052283D01*
X025597Y052593D01*
X025597Y052715D01*
X025646Y052833D01*
X025664Y052851D01*
X025664Y053479D01*
X025620Y053456D01*
X025529Y053427D01*
X025434Y053412D01*
X025006Y053412D01*
X025006Y054011D01*
X024986Y054011D01*
X024986Y053412D01*
X024558Y053412D01*
X024463Y053427D01*
X024372Y053456D01*
X024286Y053500D01*
X024209Y053556D01*
X024141Y053624D01*
X024084Y053702D01*
X024041Y053788D01*
X024011Y053879D01*
X023996Y053974D01*
X023996Y054012D01*
X024986Y054012D01*
X024986Y054032D01*
X024986Y054632D01*
X024558Y054632D01*
X024463Y054617D01*
X024372Y054587D01*
X024286Y054543D01*
X024209Y054487D01*
X024141Y054419D01*
X024084Y054341D01*
X024041Y054256D01*
X024011Y054165D01*
X023996Y054070D01*
X023996Y054032D01*
X024986Y054032D01*
X025006Y054032D01*
X025006Y054632D01*
X025434Y054632D01*
X025529Y054617D01*
X025620Y054587D01*
X025664Y054564D01*
X025664Y054592D01*
X025106Y055151D01*
X025016Y055241D01*
X024967Y055359D01*
X024967Y056222D01*
X024967Y056350D01*
X024968Y056352D01*
X024696Y056352D01*
X024327Y056721D01*
X024327Y057243D01*
X024581Y057498D01*
X020524Y057498D01*
X020524Y056429D01*
X020766Y056672D01*
X021025Y056672D01*
X021025Y056032D01*
X021045Y056032D01*
X021045Y056672D01*
X021305Y056672D01*
X021685Y056291D01*
X021685Y056032D01*
X021046Y056032D01*
X021046Y056012D01*
X021685Y056012D01*
X021685Y055752D01*
X021440Y055508D01*
X021606Y055342D01*
X021943Y055342D01*
X022060Y055293D01*
X022150Y055203D01*
X022199Y055085D01*
X022199Y054958D01*
X022150Y054840D01*
X022060Y054750D01*
X021943Y054702D01*
X021606Y054702D01*
X021296Y054392D01*
X020774Y054392D01*
X020524Y054642D01*
X020524Y053401D01*
X020774Y053652D01*
X021296Y053652D01*
X021606Y053342D01*
X021818Y053342D01*
X021935Y053293D01*
X022025Y053203D01*
X022074Y053085D01*
X022074Y052958D01*
X022025Y052840D01*
X021935Y052750D01*
X021818Y052702D01*
X021606Y052702D01*
X021440Y052536D01*
X021685Y052291D01*
X021685Y052032D01*
X021046Y052032D01*
X021046Y052012D01*
X021685Y052012D01*
X021685Y051752D01*
X021305Y051372D01*
X021045Y051372D01*
X021045Y052011D01*
X021025Y052011D01*
X021025Y051372D01*
X020766Y051372D01*
X020524Y051614D01*
X020524Y051453D02*
X020685Y051453D01*
X021025Y051453D02*
X021045Y051453D01*
X021386Y051453D02*
X024497Y051453D01*
X024327Y051214D02*
X020524Y051214D01*
X020524Y050976D02*
X024327Y050976D01*
X024350Y050737D02*
X020524Y050737D01*
X021025Y051692D02*
X021045Y051692D01*
X021025Y051930D02*
X021045Y051930D01*
X021035Y052022D02*
X021481Y052022D01*
X021852Y052392D01*
X021852Y052928D01*
X022922Y052928D01*
X024016Y054022D01*
X024996Y054022D01*
X024986Y054077D02*
X025006Y054077D01*
X024986Y054316D02*
X025006Y054316D01*
X024986Y054554D02*
X025006Y054554D01*
X025464Y054793D02*
X022102Y054793D01*
X022199Y055031D02*
X025226Y055031D01*
X025004Y055270D02*
X022084Y055270D01*
X021699Y055057D02*
X021665Y055090D01*
X021665Y056022D01*
X021035Y056022D01*
X021025Y056224D02*
X021045Y056224D01*
X021025Y056462D02*
X021045Y056462D01*
X020557Y056462D02*
X020524Y056462D01*
X020524Y056701D02*
X024347Y056701D01*
X024327Y056939D02*
X020524Y056939D01*
X020524Y057178D02*
X024327Y057178D01*
X024500Y057417D02*
X020524Y057417D01*
X021514Y056462D02*
X024586Y056462D01*
X024967Y056224D02*
X021685Y056224D01*
X021665Y056022D02*
X024016Y056022D01*
X024016Y054022D01*
X023997Y054077D02*
X020524Y054077D01*
X020524Y054316D02*
X024071Y054316D01*
X024307Y054554D02*
X021459Y054554D01*
X020612Y054554D02*
X020524Y054554D01*
X021129Y055022D02*
X021879Y055022D01*
X021441Y055508D02*
X024967Y055508D01*
X025287Y055422D02*
X025287Y056286D01*
X025660Y056659D01*
X031823Y056659D01*
X032461Y056022D01*
X033091Y056022D01*
X033721Y055985D02*
X037322Y055985D01*
X037322Y056012D02*
X037322Y055752D01*
X037567Y055508D01*
X033468Y055508D01*
X033351Y055392D02*
X033721Y055761D01*
X033721Y056283D01*
X033351Y056652D01*
X032830Y056652D01*
X032556Y056378D01*
X032004Y056930D01*
X031887Y056979D01*
X031759Y056979D01*
X025597Y056979D01*
X025587Y056975D01*
X025587Y057243D01*
X025332Y057498D01*
X033636Y057498D01*
X033421Y057283D01*
X033421Y056761D01*
X033790Y056392D01*
X034312Y056392D01*
X034681Y056761D01*
X034681Y057283D01*
X034466Y057498D01*
X038479Y057498D01*
X038479Y056434D01*
X038242Y056672D01*
X037982Y056672D01*
X037982Y056032D01*
X037962Y056032D01*
X037962Y056012D01*
X037322Y056012D01*
X037322Y056032D02*
X037962Y056032D01*
X037962Y056672D01*
X037703Y056672D01*
X037322Y056291D01*
X037322Y056032D01*
X037342Y056022D02*
X037972Y056022D01*
X037972Y055697D01*
X037956Y055681D01*
X037962Y055652D02*
X037962Y056011D01*
X037982Y056011D01*
X037982Y055652D01*
X037962Y055652D01*
X037962Y055747D02*
X037982Y055747D01*
X037962Y055985D02*
X037982Y055985D01*
X037962Y056224D02*
X037982Y056224D01*
X037962Y056462D02*
X037982Y056462D01*
X038451Y056462D02*
X038479Y056462D01*
X038479Y056701D02*
X034621Y056701D01*
X034681Y056939D02*
X038479Y056939D01*
X038479Y057178D02*
X034681Y057178D01*
X034547Y057417D02*
X038479Y057417D01*
X037494Y056462D02*
X034383Y056462D01*
X033720Y056462D02*
X033541Y056462D01*
X033481Y056701D02*
X032234Y056701D01*
X032472Y056462D02*
X032640Y056462D01*
X031806Y056224D02*
X026547Y056224D01*
X026547Y056283D02*
X026491Y056339D01*
X031690Y056339D01*
X032189Y055840D01*
X032279Y055750D01*
X032397Y055702D01*
X032520Y055702D01*
X032830Y055392D01*
X033351Y055392D01*
X032713Y055508D02*
X030227Y055508D01*
X030359Y055376D02*
X029858Y055877D01*
X029601Y055877D01*
X029601Y055119D01*
X029406Y055119D01*
X029406Y054924D01*
X028649Y054924D01*
X028649Y054668D01*
X029150Y054167D01*
X029406Y054167D01*
X029406Y054924D01*
X029601Y054924D01*
X029601Y054167D01*
X029858Y054167D01*
X030359Y054668D01*
X030359Y054924D01*
X029602Y054924D01*
X029602Y055119D01*
X030359Y055119D01*
X030359Y055376D01*
X030359Y055270D02*
X037174Y055270D01*
X037198Y055293D02*
X037108Y055203D01*
X037059Y055085D01*
X037059Y054958D01*
X037108Y054840D01*
X037198Y054750D01*
X037315Y054702D01*
X037401Y054702D01*
X037711Y054392D01*
X038233Y054392D01*
X038479Y054637D01*
X038479Y053406D01*
X038233Y053652D01*
X037711Y053652D01*
X037401Y053342D01*
X037190Y053342D01*
X037073Y053293D01*
X036983Y053203D01*
X036934Y053085D01*
X036934Y052958D01*
X036983Y052840D01*
X037073Y052750D01*
X037190Y052702D01*
X037401Y052702D01*
X037567Y052536D01*
X037322Y052291D01*
X037322Y052032D01*
X037962Y052032D01*
X037962Y052012D01*
X037322Y052012D01*
X037322Y051752D01*
X037703Y051372D01*
X037962Y051372D01*
X037962Y052011D01*
X037982Y052011D01*
X037982Y051372D01*
X038242Y051372D01*
X038479Y051609D01*
X038479Y050542D01*
X034423Y050542D01*
X034681Y050800D01*
X034681Y051322D01*
X034312Y051691D01*
X033790Y051691D01*
X033421Y051322D01*
X033421Y050800D01*
X033680Y050542D01*
X031964Y050542D01*
X031964Y050712D01*
X031824Y050852D01*
X031824Y050918D01*
X031824Y051045D01*
X031775Y051163D01*
X031751Y051187D01*
X032050Y051187D01*
X032539Y051676D01*
X032539Y051682D01*
X032830Y051392D01*
X033351Y051392D01*
X033721Y051761D01*
X033721Y052283D01*
X033351Y052652D01*
X032913Y052652D01*
X032525Y053040D01*
X032435Y053130D01*
X032318Y053178D01*
X028464Y053178D01*
X028464Y053229D01*
X028415Y053346D01*
X026274Y055488D01*
X026547Y055761D01*
X026547Y056283D01*
X025917Y056022D02*
X025917Y055392D01*
X028144Y053165D01*
X028144Y052858D01*
X032254Y052858D01*
X033091Y052022D01*
X033721Y051930D02*
X037322Y051930D01*
X037322Y052169D02*
X033721Y052169D01*
X033596Y052407D02*
X037439Y052407D01*
X037458Y052646D02*
X033357Y052646D01*
X032681Y052884D02*
X036964Y052884D01*
X037254Y053022D02*
X038004Y053022D01*
X037421Y053361D02*
X028400Y053361D01*
X028162Y053600D02*
X033181Y053600D01*
X033157Y053624D02*
X033224Y053556D01*
X033302Y053500D01*
X033388Y053456D01*
X033479Y053427D01*
X033574Y053412D01*
X034002Y053412D01*
X034002Y054011D01*
X034022Y054011D01*
X034022Y053412D01*
X034450Y053412D01*
X034545Y053427D01*
X034636Y053456D01*
X034721Y053500D01*
X034799Y053556D01*
X034867Y053624D01*
X034924Y053702D01*
X034967Y053788D01*
X034997Y053879D01*
X035012Y053974D01*
X035012Y054012D01*
X034022Y054012D01*
X034022Y054032D01*
X034002Y054032D01*
X034002Y054632D01*
X033574Y054632D01*
X033479Y054617D01*
X033388Y054587D01*
X033302Y054543D01*
X033224Y054487D01*
X033157Y054419D01*
X033100Y054341D01*
X033056Y054256D01*
X033027Y054165D01*
X033012Y054070D01*
X033012Y054032D01*
X034002Y054032D01*
X034002Y054012D01*
X033012Y054012D01*
X033012Y053974D01*
X033027Y053879D01*
X033056Y053788D01*
X033100Y053702D01*
X033157Y053624D01*
X033040Y053838D02*
X027923Y053838D01*
X027685Y054077D02*
X033013Y054077D01*
X033087Y054316D02*
X030007Y054316D01*
X029601Y054316D02*
X029406Y054316D01*
X029001Y054316D02*
X027446Y054316D01*
X027207Y054554D02*
X028762Y054554D01*
X028649Y054793D02*
X026969Y054793D01*
X026730Y055031D02*
X029406Y055031D01*
X029406Y055119D02*
X028649Y055119D01*
X028649Y055376D01*
X029150Y055877D01*
X029406Y055877D01*
X029406Y055119D01*
X029504Y055022D02*
X030339Y055022D01*
X031339Y054022D01*
X034012Y054022D01*
X034992Y054022D01*
X034992Y055002D01*
X034997Y055007D01*
X036328Y055007D01*
X036328Y053666D01*
X037972Y052022D01*
X037962Y051930D02*
X037982Y051930D01*
X037962Y051692D02*
X037982Y051692D01*
X037962Y051453D02*
X037982Y051453D01*
X038323Y051453D02*
X038479Y051453D01*
X038479Y051214D02*
X034681Y051214D01*
X034681Y050976D02*
X038479Y050976D01*
X038479Y050737D02*
X034618Y050737D01*
X033484Y050737D02*
X031939Y050737D01*
X031824Y050976D02*
X033421Y050976D01*
X033421Y051214D02*
X032077Y051214D01*
X031504Y050982D02*
X031156Y050982D01*
X030116Y052022D01*
X029504Y052022D01*
X028144Y051622D02*
X028144Y052858D01*
X025984Y052527D02*
X025917Y052460D01*
X025917Y052022D01*
X025287Y051930D02*
X021685Y051930D01*
X021685Y052169D02*
X025287Y052169D01*
X025412Y052407D02*
X021569Y052407D01*
X021550Y052646D02*
X025597Y052646D01*
X025917Y052652D02*
X025917Y052460D01*
X025984Y052527D02*
X025984Y054725D01*
X025287Y055422D01*
X024967Y055747D02*
X021680Y055747D01*
X021685Y055985D02*
X024967Y055985D01*
X024016Y056022D02*
X024016Y056935D01*
X024700Y057619D01*
X032385Y057619D01*
X034997Y055007D01*
X034721Y054543D02*
X034636Y054587D01*
X034545Y054617D01*
X034450Y054632D01*
X034022Y054632D01*
X034022Y054032D01*
X035012Y054032D01*
X035012Y054070D01*
X034997Y054165D01*
X034967Y054256D01*
X034924Y054341D01*
X034867Y054419D01*
X034799Y054487D01*
X034721Y054543D01*
X034701Y054554D02*
X037549Y054554D01*
X037155Y054793D02*
X030359Y054793D01*
X030245Y054554D02*
X033323Y054554D01*
X034002Y054554D02*
X034022Y054554D01*
X034002Y054316D02*
X034022Y054316D01*
X034002Y054077D02*
X034022Y054077D01*
X034002Y053838D02*
X034022Y053838D01*
X034002Y053600D02*
X034022Y053600D01*
X034843Y053600D02*
X037660Y053600D01*
X038285Y053600D02*
X038479Y053600D01*
X038479Y053838D02*
X034984Y053838D01*
X035011Y054077D02*
X038479Y054077D01*
X038479Y054316D02*
X034937Y054316D01*
X036328Y055007D02*
X037342Y056022D01*
X037322Y056224D02*
X033721Y056224D01*
X033706Y055747D02*
X037328Y055747D01*
X037567Y055508D02*
X037401Y055342D01*
X037315Y055342D01*
X037198Y055293D01*
X037059Y055031D02*
X029602Y055031D01*
X029601Y054793D02*
X029406Y054793D01*
X029406Y054554D02*
X029601Y054554D01*
X029601Y055270D02*
X029406Y055270D01*
X029406Y055508D02*
X029601Y055508D01*
X029601Y055747D02*
X029406Y055747D01*
X029020Y055747D02*
X026533Y055747D01*
X026547Y055985D02*
X032044Y055985D01*
X032288Y055747D02*
X029988Y055747D01*
X028781Y055508D02*
X026295Y055508D01*
X026492Y055270D02*
X028649Y055270D01*
X025006Y053838D02*
X024986Y053838D01*
X024986Y053600D02*
X025006Y053600D01*
X025664Y053361D02*
X021587Y053361D01*
X021348Y053600D02*
X024165Y053600D01*
X024024Y053838D02*
X020524Y053838D01*
X020524Y053600D02*
X020723Y053600D01*
X022058Y053123D02*
X025664Y053123D01*
X025664Y052884D02*
X022043Y052884D01*
X021754Y053022D02*
X021004Y053022D01*
X021624Y051692D02*
X025357Y051692D01*
X025416Y051453D02*
X025595Y051453D01*
X025587Y051214D02*
X026930Y051214D01*
X027184Y050976D02*
X025587Y050976D01*
X025563Y050737D02*
X027069Y050737D01*
X027504Y050522D02*
X027504Y050982D01*
X028144Y051622D01*
X026692Y051453D02*
X026239Y051453D01*
X031504Y050982D02*
X031504Y050522D01*
X032316Y051453D02*
X032768Y051453D01*
X033413Y051453D02*
X033552Y051453D01*
X033651Y051692D02*
X037383Y051692D01*
X037622Y051453D02*
X034550Y051453D01*
X032442Y053123D02*
X036949Y053123D01*
X038396Y054554D02*
X038479Y054554D01*
X038004Y055022D02*
X037379Y055022D01*
X033421Y056939D02*
X031982Y056939D01*
X033421Y057178D02*
X025587Y057178D01*
X025413Y057417D02*
X033555Y057417D01*
G04 *
G04 next data from source file './midi-to-audio.sol', *
G04 source file key is 'infile_0001'. *
G04 *
D10*
X008004Y000722D03*
X012004Y000722D03*
D11*
X010004Y002222D03*
D12*
X012204Y002222D03*
X007804Y002222D03*
X010004Y005222D03*
D13*
X014122Y004222D02*
X014902Y004222D01*
X005886Y004222D02*
X005106Y004222D01*
D14*
X001535Y005222D03*
X001535Y006222D03*
X005457Y007182D03*
X006417Y006222D03*
X013591Y006222D03*
X014551Y007222D03*
X018472Y006222D03*
X018472Y005222D03*
X018472Y003222D03*
X018472Y002222D03*
X014551Y001261D03*
X013591Y002222D03*
X006417Y002222D03*
X005457Y001222D03*
X001535Y002222D03*
X001535Y003222D03*
D15*
X001024Y001814D02*
X001024Y000742D01*
X005046Y000742D01*
X004827Y000961D01*
X004827Y001483D01*
X005196Y001852D01*
X005718Y001852D01*
X006087Y001483D01*
X006087Y000961D01*
X005868Y000742D01*
X007544Y000742D01*
X007544Y000912D01*
X007684Y001052D01*
X007684Y001118D01*
X007684Y001245D01*
X007733Y001363D01*
X007756Y001387D01*
X007458Y001387D01*
X006969Y001876D01*
X006969Y001882D01*
X006678Y001592D01*
X006156Y001592D01*
X005787Y001961D01*
X005787Y002483D01*
X006097Y002793D01*
X006097Y002915D01*
X006146Y003033D01*
X006164Y003051D01*
X006164Y003679D01*
X006120Y003656D01*
X006029Y003627D01*
X005934Y003612D01*
X005506Y003612D01*
X005506Y004211D01*
X005486Y004211D01*
X005486Y003612D01*
X005058Y003612D01*
X004963Y003627D01*
X004872Y003656D01*
X004786Y003700D01*
X004709Y003756D01*
X004641Y003824D01*
X004584Y003902D01*
X004541Y003988D01*
X004511Y004079D01*
X004496Y004174D01*
X004496Y004212D01*
X005486Y004212D01*
X005486Y004232D01*
X005486Y004832D01*
X005058Y004832D01*
X004963Y004817D01*
X004872Y004787D01*
X004786Y004743D01*
X004709Y004687D01*
X004641Y004619D01*
X004584Y004541D01*
X004541Y004456D01*
X004511Y004365D01*
X004496Y004270D01*
X004496Y004232D01*
X005486Y004232D01*
X005506Y004232D01*
X005506Y004832D01*
X005934Y004832D01*
X006029Y004817D01*
X006120Y004787D01*
X006164Y004764D01*
X006164Y004792D01*
X005606Y005351D01*
X005516Y005441D01*
X005467Y005559D01*
X005467Y006422D01*
X005467Y006550D01*
X005468Y006552D01*
X005196Y006552D01*
X004827Y006921D01*
X004827Y007443D01*
X005081Y007698D01*
X001024Y007698D01*
X001024Y006629D01*
X001266Y006872D01*
X001525Y006872D01*
X001525Y006232D01*
X001545Y006232D01*
X001545Y006872D01*
X001805Y006872D01*
X002185Y006491D01*
X002185Y006232D01*
X001546Y006232D01*
X001546Y006212D01*
X002185Y006212D01*
X002185Y005952D01*
X001940Y005708D01*
X002106Y005542D01*
X002443Y005542D01*
X002560Y005493D01*
X002650Y005403D01*
X002699Y005285D01*
X002699Y005158D01*
X002650Y005040D01*
X002560Y004950D01*
X002443Y004902D01*
X002106Y004902D01*
X001796Y004592D01*
X001274Y004592D01*
X001024Y004842D01*
X001024Y003601D01*
X001274Y003852D01*
X001796Y003852D01*
X002106Y003542D01*
X002318Y003542D01*
X002435Y003493D01*
X002525Y003403D01*
X002574Y003285D01*
X002574Y003158D01*
X002525Y003040D01*
X002435Y002950D01*
X002318Y002902D01*
X002106Y002902D01*
X001940Y002736D01*
X002185Y002491D01*
X002185Y002232D01*
X001546Y002232D01*
X001546Y002212D01*
X002185Y002212D01*
X002185Y001952D01*
X001805Y001572D01*
X001545Y001572D01*
X001545Y002211D01*
X001525Y002211D01*
X001525Y001572D01*
X001266Y001572D01*
X001024Y001814D01*
X001024Y001653D02*
X001185Y001653D01*
X001525Y001653D02*
X001545Y001653D01*
X001886Y001653D02*
X004997Y001653D01*
X004827Y001414D02*
X001024Y001414D01*
X001024Y001176D02*
X004827Y001176D01*
X004850Y000937D02*
X001024Y000937D01*
X001525Y001892D02*
X001545Y001892D01*
X001525Y002130D02*
X001545Y002130D01*
X001535Y002222D02*
X001981Y002222D01*
X002352Y002592D01*
X002352Y003128D01*
X003422Y003128D01*
X004516Y004222D01*
X005496Y004222D01*
X005486Y004277D02*
X005506Y004277D01*
X005486Y004516D02*
X005506Y004516D01*
X005486Y004754D02*
X005506Y004754D01*
X005964Y004993D02*
X002602Y004993D01*
X002699Y005231D02*
X005726Y005231D01*
X005504Y005470D02*
X002584Y005470D01*
X002199Y005257D02*
X002165Y005290D01*
X002165Y006222D01*
X001535Y006222D01*
X001525Y006424D02*
X001545Y006424D01*
X001525Y006662D02*
X001545Y006662D01*
X001057Y006662D02*
X001024Y006662D01*
X001024Y006901D02*
X004847Y006901D01*
X004827Y007139D02*
X001024Y007139D01*
X001024Y007378D02*
X004827Y007378D01*
X005000Y007617D02*
X001024Y007617D01*
X002014Y006662D02*
X005086Y006662D01*
X005467Y006424D02*
X002185Y006424D01*
X002165Y006222D02*
X004516Y006222D01*
X004516Y004222D01*
X004497Y004277D02*
X001024Y004277D01*
X001024Y004516D02*
X004571Y004516D01*
X004807Y004754D02*
X001959Y004754D01*
X001112Y004754D02*
X001024Y004754D01*
X001629Y005222D02*
X002379Y005222D01*
X001941Y005708D02*
X005467Y005708D01*
X005787Y005622D02*
X005787Y006486D01*
X006160Y006859D01*
X012323Y006859D01*
X012961Y006222D01*
X013591Y006222D01*
X014221Y006185D02*
X017822Y006185D01*
X017822Y006212D02*
X017822Y005952D01*
X018067Y005708D01*
X013968Y005708D01*
X013851Y005592D02*
X014221Y005961D01*
X014221Y006483D01*
X013851Y006852D01*
X013330Y006852D01*
X013056Y006578D01*
X012504Y007130D01*
X012387Y007179D01*
X012259Y007179D01*
X006097Y007179D01*
X006087Y007175D01*
X006087Y007443D01*
X005832Y007698D01*
X014136Y007698D01*
X013921Y007483D01*
X013921Y006961D01*
X014290Y006592D01*
X014812Y006592D01*
X015181Y006961D01*
X015181Y007483D01*
X014966Y007698D01*
X018979Y007698D01*
X018979Y006634D01*
X018742Y006872D01*
X018482Y006872D01*
X018482Y006232D01*
X018462Y006232D01*
X018462Y006212D01*
X017822Y006212D01*
X017822Y006232D02*
X018462Y006232D01*
X018462Y006872D01*
X018203Y006872D01*
X017822Y006491D01*
X017822Y006232D01*
X017842Y006222D02*
X018472Y006222D01*
X018472Y005897D01*
X018456Y005881D01*
X018462Y005852D02*
X018462Y006211D01*
X018482Y006211D01*
X018482Y005852D01*
X018462Y005852D01*
X018462Y005947D02*
X018482Y005947D01*
X018462Y006185D02*
X018482Y006185D01*
X018462Y006424D02*
X018482Y006424D01*
X018462Y006662D02*
X018482Y006662D01*
X018951Y006662D02*
X018979Y006662D01*
X018979Y006901D02*
X015121Y006901D01*
X015181Y007139D02*
X018979Y007139D01*
X018979Y007378D02*
X015181Y007378D01*
X015047Y007617D02*
X018979Y007617D01*
X017994Y006662D02*
X014883Y006662D01*
X014220Y006662D02*
X014041Y006662D01*
X013981Y006901D02*
X012734Y006901D01*
X012972Y006662D02*
X013140Y006662D01*
X012306Y006424D02*
X007047Y006424D01*
X007047Y006483D02*
X006991Y006539D01*
X012190Y006539D01*
X012689Y006040D01*
X012779Y005950D01*
X012897Y005902D01*
X013020Y005902D01*
X013330Y005592D01*
X013851Y005592D01*
X013213Y005708D02*
X010727Y005708D01*
X010859Y005576D02*
X010358Y006077D01*
X010101Y006077D01*
X010101Y005319D01*
X009906Y005319D01*
X009906Y005124D01*
X009149Y005124D01*
X009149Y004868D01*
X009650Y004367D01*
X009906Y004367D01*
X009906Y005124D01*
X010101Y005124D01*
X010101Y004367D01*
X010358Y004367D01*
X010859Y004868D01*
X010859Y005124D01*
X010102Y005124D01*
X010102Y005319D01*
X010859Y005319D01*
X010859Y005576D01*
X010859Y005470D02*
X017674Y005470D01*
X017698Y005493D02*
X017608Y005403D01*
X017559Y005285D01*
X017559Y005158D01*
X017608Y005040D01*
X017698Y004950D01*
X017815Y004902D01*
X017901Y004902D01*
X018211Y004592D01*
X018733Y004592D01*
X018979Y004837D01*
X018979Y003606D01*
X018733Y003852D01*
X018211Y003852D01*
X017901Y003542D01*
X017690Y003542D01*
X017573Y003493D01*
X017483Y003403D01*
X017434Y003285D01*
X017434Y003158D01*
X017483Y003040D01*
X017573Y002950D01*
X017690Y002902D01*
X017901Y002902D01*
X018067Y002736D01*
X017822Y002491D01*
X017822Y002232D01*
X018462Y002232D01*
X018462Y002212D01*
X017822Y002212D01*
X017822Y001952D01*
X018203Y001572D01*
X018462Y001572D01*
X018462Y002211D01*
X018482Y002211D01*
X018482Y001572D01*
X018742Y001572D01*
X018979Y001809D01*
X018979Y000742D01*
X014923Y000742D01*
X015181Y001000D01*
X015181Y001522D01*
X014812Y001891D01*
X014290Y001891D01*
X013921Y001522D01*
X013921Y001000D01*
X014180Y000742D01*
X012464Y000742D01*
X012464Y000912D01*
X012324Y001052D01*
X012324Y001118D01*
X012324Y001245D01*
X012275Y001363D01*
X012251Y001387D01*
X012550Y001387D01*
X013039Y001876D01*
X013039Y001882D01*
X013330Y001592D01*
X013851Y001592D01*
X014221Y001961D01*
X014221Y002483D01*
X013851Y002852D01*
X013413Y002852D01*
X013025Y003240D01*
X012935Y003330D01*
X012818Y003378D01*
X008964Y003378D01*
X008964Y003429D01*
X008915Y003546D01*
X006774Y005688D01*
X007047Y005961D01*
X007047Y006483D01*
X006417Y006222D02*
X006417Y005592D01*
X008644Y003365D01*
X008644Y003058D01*
X012754Y003058D01*
X013591Y002222D01*
X014221Y002130D02*
X017822Y002130D01*
X017822Y002369D02*
X014221Y002369D01*
X014096Y002607D02*
X017939Y002607D01*
X017958Y002846D02*
X013857Y002846D01*
X013181Y003084D02*
X017464Y003084D01*
X017754Y003222D02*
X018504Y003222D01*
X017921Y003561D02*
X008900Y003561D01*
X008662Y003800D02*
X013681Y003800D01*
X013657Y003824D02*
X013724Y003756D01*
X013802Y003700D01*
X013888Y003656D01*
X013979Y003627D01*
X014074Y003612D01*
X014502Y003612D01*
X014502Y004211D01*
X014522Y004211D01*
X014522Y003612D01*
X014950Y003612D01*
X015045Y003627D01*
X015136Y003656D01*
X015221Y003700D01*
X015299Y003756D01*
X015367Y003824D01*
X015424Y003902D01*
X015467Y003988D01*
X015497Y004079D01*
X015512Y004174D01*
X015512Y004212D01*
X014522Y004212D01*
X014522Y004232D01*
X014502Y004232D01*
X014502Y004832D01*
X014074Y004832D01*
X013979Y004817D01*
X013888Y004787D01*
X013802Y004743D01*
X013724Y004687D01*
X013657Y004619D01*
X013600Y004541D01*
X013556Y004456D01*
X013527Y004365D01*
X013512Y004270D01*
X013512Y004232D01*
X014502Y004232D01*
X014502Y004212D01*
X013512Y004212D01*
X013512Y004174D01*
X013527Y004079D01*
X013556Y003988D01*
X013600Y003902D01*
X013657Y003824D01*
X013540Y004038D02*
X008423Y004038D01*
X008185Y004277D02*
X013513Y004277D01*
X013587Y004516D02*
X010507Y004516D01*
X010101Y004516D02*
X009906Y004516D01*
X009501Y004516D02*
X007946Y004516D01*
X007707Y004754D02*
X009262Y004754D01*
X009149Y004993D02*
X007469Y004993D01*
X007230Y005231D02*
X009906Y005231D01*
X009906Y005319D02*
X009149Y005319D01*
X009149Y005576D01*
X009650Y006077D01*
X009906Y006077D01*
X009906Y005319D01*
X010004Y005222D02*
X010839Y005222D01*
X011839Y004222D01*
X014512Y004222D01*
X015492Y004222D01*
X015492Y005202D01*
X015497Y005207D01*
X016828Y005207D01*
X016828Y003866D01*
X018472Y002222D01*
X018462Y002130D02*
X018482Y002130D01*
X018462Y001892D02*
X018482Y001892D01*
X018462Y001653D02*
X018482Y001653D01*
X018823Y001653D02*
X018979Y001653D01*
X018979Y001414D02*
X015181Y001414D01*
X015181Y001176D02*
X018979Y001176D01*
X018979Y000937D02*
X015118Y000937D01*
X013984Y000937D02*
X012439Y000937D01*
X012324Y001176D02*
X013921Y001176D01*
X013921Y001414D02*
X012577Y001414D01*
X012004Y001182D02*
X011656Y001182D01*
X010616Y002222D01*
X010004Y002222D01*
X008644Y001822D02*
X008644Y003058D01*
X006484Y002727D02*
X006417Y002660D01*
X006417Y002222D01*
X005787Y002130D02*
X002185Y002130D01*
X002185Y002369D02*
X005787Y002369D01*
X005912Y002607D02*
X002069Y002607D01*
X002050Y002846D02*
X006097Y002846D01*
X006417Y002852D02*
X006417Y002660D01*
X006484Y002727D02*
X006484Y004925D01*
X005787Y005622D01*
X005467Y005947D02*
X002180Y005947D01*
X002185Y006185D02*
X005467Y006185D01*
X004516Y006222D02*
X004516Y007135D01*
X005200Y007819D01*
X012885Y007819D01*
X015497Y005207D01*
X015221Y004743D02*
X015136Y004787D01*
X015045Y004817D01*
X014950Y004832D01*
X014522Y004832D01*
X014522Y004232D01*
X015512Y004232D01*
X015512Y004270D01*
X015497Y004365D01*
X015467Y004456D01*
X015424Y004541D01*
X015367Y004619D01*
X015299Y004687D01*
X015221Y004743D01*
X015201Y004754D02*
X018049Y004754D01*
X017655Y004993D02*
X010859Y004993D01*
X010745Y004754D02*
X013823Y004754D01*
X014502Y004754D02*
X014522Y004754D01*
X014502Y004516D02*
X014522Y004516D01*
X014502Y004277D02*
X014522Y004277D01*
X014502Y004038D02*
X014522Y004038D01*
X014502Y003800D02*
X014522Y003800D01*
X015343Y003800D02*
X018160Y003800D01*
X018785Y003800D02*
X018979Y003800D01*
X018979Y004038D02*
X015484Y004038D01*
X015511Y004277D02*
X018979Y004277D01*
X018979Y004516D02*
X015437Y004516D01*
X016828Y005207D02*
X017842Y006222D01*
X017822Y006424D02*
X014221Y006424D01*
X014206Y005947D02*
X017828Y005947D01*
X018067Y005708D02*
X017901Y005542D01*
X017815Y005542D01*
X017698Y005493D01*
X017559Y005231D02*
X010102Y005231D01*
X010101Y004993D02*
X009906Y004993D01*
X009906Y004754D02*
X010101Y004754D01*
X010101Y005470D02*
X009906Y005470D01*
X009906Y005708D02*
X010101Y005708D01*
X010101Y005947D02*
X009906Y005947D01*
X009520Y005947D02*
X007033Y005947D01*
X007047Y006185D02*
X012544Y006185D01*
X012788Y005947D02*
X010488Y005947D01*
X009281Y005708D02*
X006795Y005708D01*
X006992Y005470D02*
X009149Y005470D01*
X005506Y004038D02*
X005486Y004038D01*
X005486Y003800D02*
X005506Y003800D01*
X006164Y003561D02*
X002087Y003561D01*
X001848Y003800D02*
X004665Y003800D01*
X004524Y004038D02*
X001024Y004038D01*
X001024Y003800D02*
X001223Y003800D01*
X002558Y003323D02*
X006164Y003323D01*
X006164Y003084D02*
X002543Y003084D01*
X002254Y003222D02*
X001504Y003222D01*
X002124Y001892D02*
X005857Y001892D01*
X005916Y001653D02*
X006095Y001653D01*
X006087Y001414D02*
X007430Y001414D01*
X007684Y001176D02*
X006087Y001176D01*
X006063Y000937D02*
X007569Y000937D01*
X008004Y000722D02*
X008004Y001182D01*
X008644Y001822D01*
X007192Y001653D02*
X006739Y001653D01*
X012004Y001182D02*
X012004Y000722D01*
X012816Y001653D02*
X013268Y001653D01*
X013913Y001653D02*
X014052Y001653D01*
X014151Y001892D02*
X017883Y001892D01*
X018122Y001653D02*
X015050Y001653D01*
X012942Y003323D02*
X017449Y003323D01*
X018896Y004754D02*
X018979Y004754D01*
X018504Y005222D02*
X017879Y005222D01*
X013921Y007139D02*
X012482Y007139D01*
X013921Y007378D02*
X006087Y007378D01*
X005913Y007617D02*
X014055Y007617D01*
M02*
