M48
T01C0.0320
T02C0.0520
T03C0.0550
T04C0.0870
G90
M72
%
T01
X8004Y8922
X12004Y8922
X27504Y33722
X31504Y33722
X27504Y25322
X31504Y25322
X8004Y25322
X12004Y25322
X27504Y8922
X31504Y8922
X27504Y42122
X31504Y42122
X27504Y722
X31504Y722
X8004Y50522
X12004Y50522
X8004Y17122
X12004Y17122
X8004Y42122
X12004Y42122
X8004Y33722
X12004Y33722
X27504Y17122
X31504Y17122
X27504Y50522
X31504Y50522
X8004Y722
X12004Y722
T04
X12204Y10422
X7804Y10422
X10004Y13422
X31704Y35222
X27304Y35222
X29504Y38222
X31704Y26822
X27304Y26822
X29504Y29822
X12204Y26822
X7804Y26822
X10004Y29822
X31704Y10422
X27304Y10422
X29504Y13422
X31704Y43622
X27304Y43622
X29504Y46622
X31704Y2222
X27304Y2222
X29504Y5222
X12204Y52022
X7804Y52022
X10004Y55022
X12204Y18622
X7804Y18622
X10004Y21622
X12204Y43622
X7804Y43622
X10004Y46622
X12204Y35222
X7804Y35222
X10004Y38222
X31704Y18622
X27304Y18622
X29504Y21622
X31704Y52022
X27304Y52022
X29504Y55022
X12204Y2222
X7804Y2222
X10004Y5222
T03
X10004Y10422
X29504Y35222
X29504Y26822
X10004Y26822
X29504Y10422
X29504Y43622
X29504Y2222
X10004Y52022
X10004Y18622
X10004Y43622
X10004Y35222
X29504Y18622
X29504Y52022
X10004Y2222
T02
X1535Y10422
X1535Y11422
X5496Y12422
X1535Y13422
X1535Y14422
X5457Y15382
X6417Y14422
X13591Y14422
X14551Y15422
X18472Y14422
X18472Y13422
X14512Y12422
X18472Y11422
X18472Y10422
X14551Y9461
X13591Y10422
X6417Y10422
X5457Y9422
X21035Y35222
X21035Y36222
X24996Y37222
X21035Y38222
X21035Y39222
X24957Y40182
X25917Y39222
X33091Y39222
X34051Y40222
X37972Y39222
X37972Y38222
X34012Y37222
X37972Y36222
X37972Y35222
X34051Y34261
X33091Y35222
X25917Y35222
X24957Y34222
X21035Y26822
X21035Y27822
X24996Y28822
X21035Y29822
X21035Y30822
X24957Y31782
X25917Y30822
X33091Y30822
X34051Y31822
X37972Y30822
X37972Y29822
X34012Y28822
X37972Y27822
X37972Y26822
X34051Y25861
X33091Y26822
X25917Y26822
X24957Y25822
X1535Y26822
X1535Y27822
X5496Y28822
X1535Y29822
X1535Y30822
X5457Y31782
X6417Y30822
X13591Y30822
X14551Y31822
X18472Y30822
X18472Y29822
X14512Y28822
X18472Y27822
X18472Y26822
X14551Y25861
X13591Y26822
X6417Y26822
X5457Y25822
X21035Y10422
X21035Y11422
X24996Y12422
X21035Y13422
X21035Y14422
X24957Y15382
X25917Y14422
X33091Y14422
X34051Y15422
X37972Y14422
X37972Y13422
X34012Y12422
X37972Y11422
X37972Y10422
X34051Y9461
X33091Y10422
X25917Y10422
X24957Y9422
X21035Y43622
X21035Y44622
X24996Y45622
X21035Y46622
X21035Y47622
X24957Y48582
X25917Y47622
X33091Y47622
X34051Y48622
X37972Y47622
X37972Y46622
X34012Y45622
X37972Y44622
X37972Y43622
X34051Y42661
X33091Y43622
X25917Y43622
X24957Y42622
X21035Y2222
X21035Y3222
X24996Y4222
X21035Y5222
X21035Y6222
X24957Y7182
X25917Y6222
X33091Y6222
X34051Y7222
X37972Y6222
X37972Y5222
X34012Y4222
X37972Y3222
X37972Y2222
X34051Y1261
X33091Y2222
X25917Y2222
X24957Y1222
X1535Y52022
X1535Y53022
X5496Y54022
X1535Y55022
X1535Y56022
X5457Y56982
X6417Y56022
X13591Y56022
X14551Y57022
X18472Y56022
X18472Y55022
X14512Y54022
X18472Y53022
X18472Y52022
X14551Y51061
X13591Y52022
X6417Y52022
X5457Y51022
X1535Y18622
X1535Y19622
X5496Y20622
X1535Y21622
X1535Y22622
X5457Y23582
X6417Y22622
X13591Y22622
X14551Y23622
X18472Y22622
X18472Y21622
X14512Y20622
X18472Y19622
X18472Y18622
X14551Y17661
X13591Y18622
X6417Y18622
X5457Y17622
X1535Y43622
X1535Y44622
X5496Y45622
X1535Y46622
X1535Y47622
X5457Y48582
X6417Y47622
X13591Y47622
X14551Y48622
X18472Y47622
X18472Y46622
X14512Y45622
X18472Y44622
X18472Y43622
X14551Y42661
X13591Y43622
X6417Y43622
X5457Y42622
X1535Y35222
X1535Y36222
X5496Y37222
X1535Y38222
X1535Y39222
X5457Y40182
X6417Y39222
X13591Y39222
X14551Y40222
X18472Y39222
X18472Y38222
X14512Y37222
X18472Y36222
X18472Y35222
X14551Y34261
X13591Y35222
X6417Y35222
X5457Y34222
X21035Y18622
X21035Y19622
X24996Y20622
X21035Y21622
X21035Y22622
X24957Y23582
X25917Y22622
X33091Y22622
X34051Y23622
X37972Y22622
X37972Y21622
X34012Y20622
X37972Y19622
X37972Y18622
X34051Y17661
X33091Y18622
X25917Y18622
X24957Y17622
X21035Y52022
X21035Y53022
X24996Y54022
X21035Y55022
X21035Y56022
X24957Y56982
X25917Y56022
X33091Y56022
X34051Y57022
X37972Y56022
X37972Y55022
X34012Y54022
X37972Y53022
X37972Y52022
X34051Y51061
X33091Y52022
X25917Y52022
X24957Y51022
X1535Y2222
X1535Y3222
X5496Y4222
X1535Y5222
X1535Y6222
X5457Y7182
X6417Y6222
X13591Y6222
X14551Y7222
X18472Y6222
X18472Y5222
X14512Y4222
X18472Y3222
X18472Y2222
X14551Y1261
X13591Y2222
X6417Y2222
X5457Y1222
M30
