G75*
G70*
%OFA0B0*%
%FSLAX24Y24*%
%IPPOS*%
%LPD*%
G04 *
G04 macro definitions for tiled file 'midi-to-audio.plc':*
G04 *
%AMOC8*
5,1,8,0,0,1.08239X$1,22.5*
%
G04 *
G04 aperture list for tiled file 'midi-to-audio.plc':*
G04 *
%ADD16C,0.0070*%
%ADD13C,0.0060*%
%ADD11C,0.0100*%
%ADD15C,0.0240*%
%ADD12C,0.0050*%
%ADD10C,0.0000*%
%ADD14R,0.0340X0.0240*%
G04 *
G04 next data from source file './midi-to-audio.plc', *
G04 source file key is 'infile_0003'. *
G04 *
D10*
X000504Y008422D02*
X000504Y016418D01*
X019499Y016418D01*
X019499Y008422D01*
X000504Y008422D01*
D11*
X019504Y008422D01*
X019504Y016422D01*
X000504Y016422D01*
X000504Y008422D01*
D12*
X004660Y010136D02*
X005110Y010136D01*
X005110Y009986D02*
X005110Y010287D01*
X004810Y009986D02*
X004660Y010136D01*
X006535Y009437D02*
X006535Y009136D01*
X006310Y009362D01*
X006760Y009362D01*
X008829Y009547D02*
X008829Y009997D01*
X009054Y009997D01*
X009129Y009922D01*
X009129Y009772D01*
X009054Y009697D01*
X008829Y009697D01*
X008979Y009697D02*
X009129Y009547D01*
X009289Y009547D02*
X009590Y009547D01*
X009439Y009547D02*
X009439Y009997D01*
X009289Y009847D01*
X010779Y010697D02*
X011079Y010697D01*
X010929Y010697D02*
X010929Y011147D01*
X010779Y010997D01*
X012529Y011447D02*
X012829Y011747D01*
X012829Y011822D01*
X012754Y011897D01*
X012604Y011897D01*
X012529Y011822D01*
X012529Y011447D02*
X012829Y011447D01*
X014897Y011872D02*
X014972Y011797D01*
X014897Y011872D02*
X014897Y012022D01*
X014972Y012097D01*
X015047Y012097D01*
X015347Y011797D01*
X015347Y012097D01*
X015272Y010297D02*
X015197Y010297D01*
X015122Y010222D01*
X015122Y010147D01*
X015122Y010222D02*
X015047Y010297D01*
X014972Y010297D01*
X014897Y010222D01*
X014897Y010072D01*
X014972Y009997D01*
X015272Y009997D02*
X015347Y010072D01*
X015347Y010222D01*
X015272Y010297D01*
X013697Y009422D02*
X013622Y009497D01*
X013472Y009497D01*
X013397Y009422D01*
X013397Y009347D01*
X013472Y009197D01*
X013247Y009197D01*
X013247Y009497D01*
X013697Y009422D02*
X013697Y009272D01*
X013622Y009197D01*
X008429Y011447D02*
X008129Y011447D01*
X008429Y011747D01*
X008429Y011822D01*
X008354Y011897D01*
X008204Y011897D01*
X008129Y011822D01*
X005110Y012636D02*
X004810Y012937D01*
X004735Y012937D01*
X004660Y012862D01*
X004660Y012711D01*
X004735Y012636D01*
X005110Y012636D02*
X005110Y012937D01*
X007629Y013897D02*
X007779Y014047D01*
X008079Y014047D01*
X007854Y014047D02*
X007854Y013747D01*
X007779Y013747D02*
X007629Y013897D01*
X007779Y013747D02*
X008079Y013747D01*
X008004Y014207D02*
X007629Y014207D01*
X008004Y014207D02*
X008079Y014282D01*
X008079Y014432D01*
X008004Y014507D01*
X007629Y014507D01*
X007629Y014667D02*
X007629Y014893D01*
X007704Y014968D01*
X008004Y014968D01*
X008079Y014893D01*
X008079Y014667D01*
X007629Y014667D01*
X007629Y015128D02*
X007629Y015278D01*
X007629Y015203D02*
X008079Y015203D01*
X008079Y015128D02*
X008079Y015278D01*
X008004Y015435D02*
X007704Y015435D01*
X007629Y015510D01*
X007629Y015660D01*
X007704Y015735D01*
X008004Y015735D01*
X008079Y015660D01*
X008079Y015510D01*
X008004Y015435D01*
X006760Y015462D02*
X006760Y015311D01*
X006685Y015236D01*
X006535Y015236D02*
X006460Y015386D01*
X006460Y015462D01*
X006535Y015537D01*
X006685Y015537D01*
X006760Y015462D01*
X006535Y015236D02*
X006310Y015236D01*
X006310Y015537D01*
X005110Y014662D02*
X005035Y014737D01*
X004960Y014737D01*
X004885Y014662D01*
X004885Y014586D01*
X004885Y014662D02*
X004810Y014737D01*
X004735Y014737D01*
X004660Y014662D01*
X004660Y014511D01*
X004735Y014436D01*
X005035Y014436D02*
X005110Y014511D01*
X005110Y014662D01*
X013247Y015522D02*
X013472Y015297D01*
X013472Y015597D01*
X013697Y015522D02*
X013247Y015522D01*
X015347Y014747D02*
X015347Y014447D01*
X015047Y014447D02*
X014897Y014597D01*
X015347Y014597D01*
D13*
X015472Y015422D02*
X015922Y015422D01*
X015472Y015422D02*
X015472Y013172D01*
X014722Y013172D01*
X014722Y013672D01*
X013972Y013672D01*
X013972Y013172D01*
X013672Y013172D01*
X013672Y012672D01*
X013072Y012672D01*
X013072Y012172D01*
X013072Y011672D01*
X013672Y011672D01*
X013922Y011672D01*
X014672Y011672D01*
X015472Y011672D01*
X015472Y009422D01*
X015922Y009422D01*
X015472Y009422D02*
X015472Y008572D01*
X013922Y008972D01*
X015472Y008572D02*
X017322Y008572D01*
X017322Y009422D01*
X017022Y009422D01*
X017322Y009422D02*
X018722Y009422D01*
X018722Y008458D01*
X018972Y008458D01*
X018972Y008475D01*
X019172Y008475D01*
X019172Y008458D01*
X019472Y008458D01*
X019472Y016350D01*
X019172Y016350D01*
X019133Y016346D01*
X018933Y016346D01*
X018972Y016350D01*
X018722Y016350D01*
X018722Y015422D01*
X018722Y013872D01*
X018722Y012972D02*
X018722Y011872D01*
X018722Y010972D02*
X018722Y009472D01*
X014672Y011172D02*
X014672Y011672D01*
X013922Y011672D02*
X013922Y011172D01*
X014672Y011172D01*
X015472Y011672D02*
X015472Y013172D01*
X014722Y013172D02*
X013972Y013172D01*
X013672Y013172D02*
X013072Y013172D01*
X013072Y012672D01*
X013072Y012172D02*
X013672Y012172D01*
X013672Y011672D01*
X010554Y012772D02*
X010554Y010422D01*
X009454Y010422D02*
X009454Y012772D01*
X009104Y013422D02*
X008104Y013422D01*
X008154Y013522D02*
X008180Y013524D01*
X008206Y013529D01*
X008231Y013537D01*
X008254Y013549D01*
X008276Y013563D01*
X008295Y013581D01*
X008313Y013600D01*
X008327Y013622D01*
X008339Y013645D01*
X008347Y013670D01*
X008352Y013696D01*
X008354Y013722D01*
X009154Y013722D01*
X009004Y013972D02*
X009004Y014522D01*
X008804Y014972D02*
X008804Y013972D01*
X008604Y013972D02*
X008604Y015622D01*
X008354Y015872D02*
X008356Y015898D01*
X008361Y015924D01*
X008369Y015949D01*
X008381Y015972D01*
X008395Y015994D01*
X008413Y016013D01*
X008432Y016031D01*
X008454Y016045D01*
X008477Y016057D01*
X008502Y016065D01*
X008528Y016070D01*
X008554Y016072D01*
X008804Y016072D01*
X011204Y016072D01*
X011454Y016072D01*
X011204Y016072D02*
X011204Y016122D01*
X008804Y016122D01*
X008804Y016072D01*
X008504Y015872D02*
X011504Y015872D01*
X011654Y015872D02*
X011652Y015898D01*
X011647Y015924D01*
X011639Y015949D01*
X011627Y015972D01*
X011613Y015994D01*
X011595Y016013D01*
X011576Y016031D01*
X011554Y016045D01*
X011531Y016057D01*
X011506Y016065D01*
X011480Y016070D01*
X011454Y016072D01*
X011654Y015872D02*
X011654Y013722D01*
X010854Y013722D01*
X011004Y013972D02*
X011004Y014522D01*
X011204Y014972D02*
X011204Y013972D01*
X011404Y013972D02*
X011404Y015622D01*
X013972Y015872D02*
X015472Y016272D01*
X015472Y015422D01*
X017022Y015422D02*
X017322Y015422D01*
X017322Y016272D01*
X015472Y016272D01*
X017322Y015422D02*
X018722Y015422D01*
X011854Y013522D02*
X011828Y013524D01*
X011802Y013529D01*
X011777Y013537D01*
X011754Y013549D01*
X011732Y013563D01*
X011713Y013581D01*
X011695Y013600D01*
X011681Y013622D01*
X011669Y013645D01*
X011661Y013670D01*
X011656Y013696D01*
X011654Y013722D01*
X011904Y013422D02*
X010904Y013422D01*
X008354Y013722D02*
X008354Y015872D01*
X006085Y015872D02*
X004535Y016272D01*
X004535Y015422D01*
X004085Y015422D01*
X004535Y015422D02*
X004535Y013172D01*
X005335Y013172D01*
X005335Y013672D01*
X006085Y013672D01*
X006085Y013172D01*
X006335Y013172D01*
X006335Y012672D01*
X006935Y012672D01*
X006935Y012172D01*
X006335Y012172D01*
X006335Y011672D01*
X006035Y011672D01*
X006035Y011172D01*
X005285Y011172D01*
X005285Y011672D01*
X004535Y011672D01*
X004535Y013172D01*
X005335Y013172D02*
X006085Y013172D01*
X006335Y013172D02*
X006935Y013172D01*
X006935Y012672D01*
X006935Y012172D02*
X006935Y011672D01*
X006335Y011672D01*
X006035Y011672D02*
X005285Y011672D01*
X004535Y011672D02*
X004535Y009422D01*
X004085Y009422D01*
X004535Y009422D02*
X004535Y008572D01*
X002685Y008572D01*
X002685Y009422D01*
X002985Y009422D01*
X002685Y009422D02*
X001285Y009422D01*
X001285Y010972D01*
X001285Y011872D02*
X001285Y012972D01*
X001285Y013872D02*
X001285Y015372D01*
X001285Y015422D02*
X002685Y015422D01*
X002985Y015422D01*
X002685Y015422D02*
X002685Y016272D01*
X004535Y016272D01*
X001285Y016386D02*
X001285Y015422D01*
X001285Y016386D02*
X001035Y016386D01*
X001035Y016369D01*
X000835Y016369D01*
X000835Y016386D01*
X000535Y016386D01*
X000535Y008493D01*
X000835Y008493D01*
X000875Y008497D01*
X001075Y008497D01*
X001035Y008493D01*
X001285Y008493D01*
X001285Y009422D01*
X004535Y008572D02*
X006035Y008972D01*
X008754Y009272D02*
X008754Y008572D01*
X008756Y008555D01*
X008760Y008538D01*
X008767Y008522D01*
X008777Y008508D01*
X008790Y008495D01*
X008804Y008485D01*
X008820Y008478D01*
X008837Y008474D01*
X008854Y008472D01*
X009004Y008472D01*
X009054Y008522D01*
X010954Y008522D01*
X011004Y008472D01*
X011154Y008472D01*
X011171Y008474D01*
X011188Y008478D01*
X011204Y008485D01*
X011218Y008495D01*
X011231Y008508D01*
X011241Y008522D01*
X011248Y008538D01*
X011252Y008555D01*
X011254Y008572D01*
X011254Y009272D01*
X011252Y009289D01*
X011248Y009306D01*
X011241Y009322D01*
X011231Y009336D01*
X011218Y009349D01*
X011204Y009359D01*
X011188Y009366D01*
X011171Y009370D01*
X011154Y009372D01*
X011004Y009372D01*
X010954Y009322D01*
X009054Y009322D01*
X009004Y009372D01*
X008854Y009372D01*
X008837Y009370D01*
X008820Y009366D01*
X008804Y009359D01*
X008790Y009349D01*
X008777Y009336D01*
X008767Y009322D01*
X008760Y009306D01*
X008756Y009289D01*
X008754Y009272D01*
D14*
X008584Y008922D03*
X011424Y008922D03*
D15*
X012204Y011372D02*
X012204Y013122D01*
X012202Y013156D01*
X012196Y013189D01*
X012187Y013221D01*
X012174Y013252D01*
X012158Y013282D01*
X012139Y013309D01*
X012116Y013334D01*
X012091Y013357D01*
X012064Y013376D01*
X012034Y013392D01*
X012003Y013405D01*
X011971Y013414D01*
X011938Y013420D01*
X011904Y013422D01*
X008104Y013422D02*
X008070Y013420D01*
X008037Y013414D01*
X008005Y013405D01*
X007974Y013392D01*
X007944Y013376D01*
X007917Y013357D01*
X007892Y013334D01*
X007869Y013309D01*
X007850Y013282D01*
X007834Y013252D01*
X007821Y013221D01*
X007812Y013189D01*
X007806Y013156D01*
X007804Y013122D01*
X007804Y011372D01*
D16*
X003337Y011477D02*
X002707Y011477D01*
X002917Y011267D01*
X002707Y011057D01*
X003337Y011057D01*
X003337Y011701D02*
X003337Y011911D01*
X003337Y011806D02*
X002707Y011806D01*
X002707Y011701D02*
X002707Y011911D01*
X002707Y012131D02*
X002707Y012446D01*
X002812Y012551D01*
X003232Y012551D01*
X003337Y012446D01*
X003337Y012131D01*
X002707Y012131D01*
X002707Y012775D02*
X002707Y012986D01*
X002707Y012881D02*
X003337Y012881D01*
X003337Y012986D02*
X003337Y012775D01*
X003337Y013205D02*
X003337Y013415D01*
X003337Y013310D02*
X002707Y013310D01*
X002707Y013205D02*
X002707Y013415D01*
X002707Y013635D02*
X003337Y014055D01*
X002707Y014055D01*
X002707Y013635D02*
X003337Y013635D01*
X016707Y013770D02*
X017232Y013770D01*
X017337Y013665D01*
X017337Y013455D01*
X017232Y013350D01*
X016707Y013350D01*
X016812Y013126D02*
X016707Y013020D01*
X016707Y012810D01*
X016812Y012705D01*
X017232Y012705D01*
X017337Y012810D01*
X017337Y013020D01*
X017232Y013126D01*
X016812Y013126D01*
X016707Y012486D02*
X016707Y012275D01*
X016707Y012381D02*
X017337Y012381D01*
X017337Y012486D02*
X017337Y012275D01*
X017232Y012051D02*
X016812Y012051D01*
X016707Y011946D01*
X016707Y011631D01*
X017337Y011631D01*
X017337Y011946D01*
X017232Y012051D01*
X017337Y011411D02*
X017337Y011201D01*
X017337Y011306D02*
X016707Y011306D01*
X016707Y011201D02*
X016707Y011411D01*
X016707Y010977D02*
X017337Y010977D01*
X016917Y010767D02*
X016707Y010977D01*
X016917Y010767D02*
X016707Y010557D01*
X017337Y010557D01*
X016707Y013994D02*
X016707Y014415D01*
X016707Y014204D02*
X017337Y014204D01*
G04 *
G04 next data from source file './midi-to-audio.plc', *
G04 source file key is 'infile_0010'. *
G04 *
D10*
X020004Y033222D02*
X020004Y041218D01*
X038999Y041218D01*
X038999Y033222D01*
X020004Y033222D01*
D11*
X039004Y033222D01*
X039004Y041222D01*
X020004Y041222D01*
X020004Y033222D01*
D12*
X024160Y034936D02*
X024610Y034936D01*
X024610Y034786D02*
X024610Y035087D01*
X024310Y034786D02*
X024160Y034936D01*
X026035Y034237D02*
X026035Y033936D01*
X025810Y034162D01*
X026260Y034162D01*
X028329Y034347D02*
X028329Y034797D01*
X028554Y034797D01*
X028629Y034722D01*
X028629Y034572D01*
X028554Y034497D01*
X028329Y034497D01*
X028479Y034497D02*
X028629Y034347D01*
X028789Y034347D02*
X029090Y034347D01*
X028939Y034347D02*
X028939Y034797D01*
X028789Y034647D01*
X030279Y035497D02*
X030579Y035497D01*
X030429Y035497D02*
X030429Y035947D01*
X030279Y035797D01*
X032029Y036247D02*
X032329Y036547D01*
X032329Y036622D01*
X032254Y036697D01*
X032104Y036697D01*
X032029Y036622D01*
X032029Y036247D02*
X032329Y036247D01*
X034397Y036672D02*
X034472Y036597D01*
X034397Y036672D02*
X034397Y036822D01*
X034472Y036897D01*
X034547Y036897D01*
X034847Y036597D01*
X034847Y036897D01*
X034772Y035097D02*
X034697Y035097D01*
X034622Y035022D01*
X034622Y034947D01*
X034622Y035022D02*
X034547Y035097D01*
X034472Y035097D01*
X034397Y035022D01*
X034397Y034872D01*
X034472Y034797D01*
X034772Y034797D02*
X034847Y034872D01*
X034847Y035022D01*
X034772Y035097D01*
X033197Y034222D02*
X033122Y034297D01*
X032972Y034297D01*
X032897Y034222D01*
X032897Y034147D01*
X032972Y033997D01*
X032747Y033997D01*
X032747Y034297D01*
X033197Y034222D02*
X033197Y034072D01*
X033122Y033997D01*
X027929Y036247D02*
X027629Y036247D01*
X027929Y036547D01*
X027929Y036622D01*
X027854Y036697D01*
X027704Y036697D01*
X027629Y036622D01*
X024610Y037436D02*
X024310Y037737D01*
X024235Y037737D01*
X024160Y037662D01*
X024160Y037511D01*
X024235Y037436D01*
X024610Y037436D02*
X024610Y037737D01*
X027129Y038697D02*
X027279Y038847D01*
X027579Y038847D01*
X027354Y038847D02*
X027354Y038547D01*
X027279Y038547D02*
X027129Y038697D01*
X027279Y038547D02*
X027579Y038547D01*
X027504Y039007D02*
X027129Y039007D01*
X027504Y039007D02*
X027579Y039082D01*
X027579Y039232D01*
X027504Y039307D01*
X027129Y039307D01*
X027129Y039467D02*
X027129Y039693D01*
X027204Y039768D01*
X027504Y039768D01*
X027579Y039693D01*
X027579Y039467D01*
X027129Y039467D01*
X027129Y039928D02*
X027129Y040078D01*
X027129Y040003D02*
X027579Y040003D01*
X027579Y039928D02*
X027579Y040078D01*
X027504Y040235D02*
X027204Y040235D01*
X027129Y040310D01*
X027129Y040460D01*
X027204Y040535D01*
X027504Y040535D01*
X027579Y040460D01*
X027579Y040310D01*
X027504Y040235D01*
X026260Y040262D02*
X026260Y040111D01*
X026185Y040036D01*
X026035Y040036D02*
X025960Y040186D01*
X025960Y040262D01*
X026035Y040337D01*
X026185Y040337D01*
X026260Y040262D01*
X026035Y040036D02*
X025810Y040036D01*
X025810Y040337D01*
X024610Y039462D02*
X024535Y039537D01*
X024460Y039537D01*
X024385Y039462D01*
X024385Y039386D01*
X024385Y039462D02*
X024310Y039537D01*
X024235Y039537D01*
X024160Y039462D01*
X024160Y039311D01*
X024235Y039236D01*
X024535Y039236D02*
X024610Y039311D01*
X024610Y039462D01*
X032747Y040322D02*
X032972Y040097D01*
X032972Y040397D01*
X033197Y040322D02*
X032747Y040322D01*
X034847Y039547D02*
X034847Y039247D01*
X034547Y039247D02*
X034397Y039397D01*
X034847Y039397D01*
D13*
X034972Y040222D02*
X035422Y040222D01*
X034972Y040222D02*
X034972Y037972D01*
X034222Y037972D01*
X034222Y038472D01*
X033472Y038472D01*
X033472Y037972D01*
X033172Y037972D01*
X033172Y037472D01*
X032572Y037472D01*
X032572Y036972D01*
X032572Y036472D01*
X033172Y036472D01*
X033422Y036472D01*
X034172Y036472D01*
X034972Y036472D01*
X034972Y034222D01*
X035422Y034222D01*
X034972Y034222D02*
X034972Y033372D01*
X033422Y033772D01*
X034972Y033372D02*
X036822Y033372D01*
X036822Y034222D01*
X036522Y034222D01*
X036822Y034222D02*
X038222Y034222D01*
X038222Y033258D01*
X038472Y033258D01*
X038472Y033275D01*
X038672Y033275D01*
X038672Y033258D01*
X038972Y033258D01*
X038972Y041150D01*
X038672Y041150D01*
X038633Y041146D01*
X038433Y041146D01*
X038472Y041150D01*
X038222Y041150D01*
X038222Y040222D01*
X038222Y038672D01*
X038222Y037772D02*
X038222Y036672D01*
X038222Y035772D02*
X038222Y034272D01*
X034172Y035972D02*
X034172Y036472D01*
X033422Y036472D02*
X033422Y035972D01*
X034172Y035972D01*
X034972Y036472D02*
X034972Y037972D01*
X034222Y037972D02*
X033472Y037972D01*
X033172Y037972D02*
X032572Y037972D01*
X032572Y037472D01*
X032572Y036972D02*
X033172Y036972D01*
X033172Y036472D01*
X030054Y037572D02*
X030054Y035222D01*
X028954Y035222D02*
X028954Y037572D01*
X028604Y038222D02*
X027604Y038222D01*
X027654Y038322D02*
X027680Y038324D01*
X027706Y038329D01*
X027731Y038337D01*
X027754Y038349D01*
X027776Y038363D01*
X027795Y038381D01*
X027813Y038400D01*
X027827Y038422D01*
X027839Y038445D01*
X027847Y038470D01*
X027852Y038496D01*
X027854Y038522D01*
X028654Y038522D01*
X028504Y038772D02*
X028504Y039322D01*
X028304Y039772D02*
X028304Y038772D01*
X028104Y038772D02*
X028104Y040422D01*
X027854Y040672D02*
X027856Y040698D01*
X027861Y040724D01*
X027869Y040749D01*
X027881Y040772D01*
X027895Y040794D01*
X027913Y040813D01*
X027932Y040831D01*
X027954Y040845D01*
X027977Y040857D01*
X028002Y040865D01*
X028028Y040870D01*
X028054Y040872D01*
X028304Y040872D01*
X030704Y040872D01*
X030954Y040872D01*
X030704Y040872D02*
X030704Y040922D01*
X028304Y040922D01*
X028304Y040872D01*
X028004Y040672D02*
X031004Y040672D01*
X031154Y040672D02*
X031152Y040698D01*
X031147Y040724D01*
X031139Y040749D01*
X031127Y040772D01*
X031113Y040794D01*
X031095Y040813D01*
X031076Y040831D01*
X031054Y040845D01*
X031031Y040857D01*
X031006Y040865D01*
X030980Y040870D01*
X030954Y040872D01*
X031154Y040672D02*
X031154Y038522D01*
X030354Y038522D01*
X030504Y038772D02*
X030504Y039322D01*
X030704Y039772D02*
X030704Y038772D01*
X030904Y038772D02*
X030904Y040422D01*
X033472Y040672D02*
X034972Y041072D01*
X034972Y040222D01*
X036522Y040222D02*
X036822Y040222D01*
X036822Y041072D01*
X034972Y041072D01*
X036822Y040222D02*
X038222Y040222D01*
X031354Y038322D02*
X031328Y038324D01*
X031302Y038329D01*
X031277Y038337D01*
X031254Y038349D01*
X031232Y038363D01*
X031213Y038381D01*
X031195Y038400D01*
X031181Y038422D01*
X031169Y038445D01*
X031161Y038470D01*
X031156Y038496D01*
X031154Y038522D01*
X031404Y038222D02*
X030404Y038222D01*
X027854Y038522D02*
X027854Y040672D01*
X025585Y040672D02*
X024035Y041072D01*
X024035Y040222D01*
X023585Y040222D01*
X024035Y040222D02*
X024035Y037972D01*
X024835Y037972D01*
X024835Y038472D01*
X025585Y038472D01*
X025585Y037972D01*
X025835Y037972D01*
X025835Y037472D01*
X026435Y037472D01*
X026435Y036972D01*
X025835Y036972D01*
X025835Y036472D01*
X025535Y036472D01*
X025535Y035972D01*
X024785Y035972D01*
X024785Y036472D01*
X024035Y036472D01*
X024035Y037972D01*
X024835Y037972D02*
X025585Y037972D01*
X025835Y037972D02*
X026435Y037972D01*
X026435Y037472D01*
X026435Y036972D02*
X026435Y036472D01*
X025835Y036472D01*
X025535Y036472D02*
X024785Y036472D01*
X024035Y036472D02*
X024035Y034222D01*
X023585Y034222D01*
X024035Y034222D02*
X024035Y033372D01*
X022185Y033372D01*
X022185Y034222D01*
X022485Y034222D01*
X022185Y034222D02*
X020785Y034222D01*
X020785Y035772D01*
X020785Y036672D02*
X020785Y037772D01*
X020785Y038672D02*
X020785Y040172D01*
X020785Y040222D02*
X022185Y040222D01*
X022485Y040222D01*
X022185Y040222D02*
X022185Y041072D01*
X024035Y041072D01*
X020785Y041186D02*
X020785Y040222D01*
X020785Y041186D02*
X020535Y041186D01*
X020535Y041169D01*
X020335Y041169D01*
X020335Y041186D01*
X020035Y041186D01*
X020035Y033293D01*
X020335Y033293D01*
X020375Y033297D01*
X020575Y033297D01*
X020535Y033293D01*
X020785Y033293D01*
X020785Y034222D01*
X024035Y033372D02*
X025535Y033772D01*
X028254Y034072D02*
X028254Y033372D01*
X028256Y033355D01*
X028260Y033338D01*
X028267Y033322D01*
X028277Y033308D01*
X028290Y033295D01*
X028304Y033285D01*
X028320Y033278D01*
X028337Y033274D01*
X028354Y033272D01*
X028504Y033272D01*
X028554Y033322D01*
X030454Y033322D01*
X030504Y033272D01*
X030654Y033272D01*
X030671Y033274D01*
X030688Y033278D01*
X030704Y033285D01*
X030718Y033295D01*
X030731Y033308D01*
X030741Y033322D01*
X030748Y033338D01*
X030752Y033355D01*
X030754Y033372D01*
X030754Y034072D01*
X030752Y034089D01*
X030748Y034106D01*
X030741Y034122D01*
X030731Y034136D01*
X030718Y034149D01*
X030704Y034159D01*
X030688Y034166D01*
X030671Y034170D01*
X030654Y034172D01*
X030504Y034172D01*
X030454Y034122D01*
X028554Y034122D01*
X028504Y034172D01*
X028354Y034172D01*
X028337Y034170D01*
X028320Y034166D01*
X028304Y034159D01*
X028290Y034149D01*
X028277Y034136D01*
X028267Y034122D01*
X028260Y034106D01*
X028256Y034089D01*
X028254Y034072D01*
D14*
X028084Y033722D03*
X030924Y033722D03*
D15*
X031704Y036172D02*
X031704Y037922D01*
X031702Y037956D01*
X031696Y037989D01*
X031687Y038021D01*
X031674Y038052D01*
X031658Y038082D01*
X031639Y038109D01*
X031616Y038134D01*
X031591Y038157D01*
X031564Y038176D01*
X031534Y038192D01*
X031503Y038205D01*
X031471Y038214D01*
X031438Y038220D01*
X031404Y038222D01*
X027604Y038222D02*
X027570Y038220D01*
X027537Y038214D01*
X027505Y038205D01*
X027474Y038192D01*
X027444Y038176D01*
X027417Y038157D01*
X027392Y038134D01*
X027369Y038109D01*
X027350Y038082D01*
X027334Y038052D01*
X027321Y038021D01*
X027312Y037989D01*
X027306Y037956D01*
X027304Y037922D01*
X027304Y036172D01*
D16*
X022837Y036277D02*
X022207Y036277D01*
X022417Y036067D01*
X022207Y035857D01*
X022837Y035857D01*
X022837Y036501D02*
X022837Y036711D01*
X022837Y036606D02*
X022207Y036606D01*
X022207Y036501D02*
X022207Y036711D01*
X022207Y036931D02*
X022207Y037246D01*
X022312Y037351D01*
X022732Y037351D01*
X022837Y037246D01*
X022837Y036931D01*
X022207Y036931D01*
X022207Y037575D02*
X022207Y037786D01*
X022207Y037681D02*
X022837Y037681D01*
X022837Y037786D02*
X022837Y037575D01*
X022837Y038005D02*
X022837Y038215D01*
X022837Y038110D02*
X022207Y038110D01*
X022207Y038005D02*
X022207Y038215D01*
X022207Y038435D02*
X022837Y038855D01*
X022207Y038855D01*
X022207Y038435D02*
X022837Y038435D01*
X036207Y038570D02*
X036732Y038570D01*
X036837Y038465D01*
X036837Y038255D01*
X036732Y038150D01*
X036207Y038150D01*
X036312Y037926D02*
X036207Y037820D01*
X036207Y037610D01*
X036312Y037505D01*
X036732Y037505D01*
X036837Y037610D01*
X036837Y037820D01*
X036732Y037926D01*
X036312Y037926D01*
X036207Y037286D02*
X036207Y037075D01*
X036207Y037181D02*
X036837Y037181D01*
X036837Y037286D02*
X036837Y037075D01*
X036732Y036851D02*
X036312Y036851D01*
X036207Y036746D01*
X036207Y036431D01*
X036837Y036431D01*
X036837Y036746D01*
X036732Y036851D01*
X036837Y036211D02*
X036837Y036001D01*
X036837Y036106D02*
X036207Y036106D01*
X036207Y036001D02*
X036207Y036211D01*
X036207Y035777D02*
X036837Y035777D01*
X036417Y035567D02*
X036207Y035777D01*
X036417Y035567D02*
X036207Y035357D01*
X036837Y035357D01*
X036207Y038794D02*
X036207Y039215D01*
X036207Y039004D02*
X036837Y039004D01*
G04 *
G04 next data from source file './midi-to-audio.plc', *
G04 source file key is 'infile_0008'. *
G04 *
D10*
X020004Y024822D02*
X020004Y032818D01*
X038999Y032818D01*
X038999Y024822D01*
X020004Y024822D01*
D11*
X039004Y024822D01*
X039004Y032822D01*
X020004Y032822D01*
X020004Y024822D01*
D12*
X024160Y026536D02*
X024610Y026536D01*
X024610Y026386D02*
X024610Y026687D01*
X024310Y026386D02*
X024160Y026536D01*
X026035Y025837D02*
X026035Y025536D01*
X025810Y025762D01*
X026260Y025762D01*
X028329Y025947D02*
X028329Y026397D01*
X028554Y026397D01*
X028629Y026322D01*
X028629Y026172D01*
X028554Y026097D01*
X028329Y026097D01*
X028479Y026097D02*
X028629Y025947D01*
X028789Y025947D02*
X029090Y025947D01*
X028939Y025947D02*
X028939Y026397D01*
X028789Y026247D01*
X030279Y027097D02*
X030579Y027097D01*
X030429Y027097D02*
X030429Y027547D01*
X030279Y027397D01*
X032029Y027847D02*
X032329Y028147D01*
X032329Y028222D01*
X032254Y028297D01*
X032104Y028297D01*
X032029Y028222D01*
X032029Y027847D02*
X032329Y027847D01*
X034397Y028272D02*
X034472Y028197D01*
X034397Y028272D02*
X034397Y028422D01*
X034472Y028497D01*
X034547Y028497D01*
X034847Y028197D01*
X034847Y028497D01*
X034772Y026697D02*
X034697Y026697D01*
X034622Y026622D01*
X034622Y026547D01*
X034622Y026622D02*
X034547Y026697D01*
X034472Y026697D01*
X034397Y026622D01*
X034397Y026472D01*
X034472Y026397D01*
X034772Y026397D02*
X034847Y026472D01*
X034847Y026622D01*
X034772Y026697D01*
X033197Y025822D02*
X033122Y025897D01*
X032972Y025897D01*
X032897Y025822D01*
X032897Y025747D01*
X032972Y025597D01*
X032747Y025597D01*
X032747Y025897D01*
X033197Y025822D02*
X033197Y025672D01*
X033122Y025597D01*
X027929Y027847D02*
X027629Y027847D01*
X027929Y028147D01*
X027929Y028222D01*
X027854Y028297D01*
X027704Y028297D01*
X027629Y028222D01*
X024610Y029036D02*
X024310Y029337D01*
X024235Y029337D01*
X024160Y029262D01*
X024160Y029111D01*
X024235Y029036D01*
X024610Y029036D02*
X024610Y029337D01*
X027129Y030297D02*
X027279Y030447D01*
X027579Y030447D01*
X027354Y030447D02*
X027354Y030147D01*
X027279Y030147D02*
X027129Y030297D01*
X027279Y030147D02*
X027579Y030147D01*
X027504Y030607D02*
X027129Y030607D01*
X027504Y030607D02*
X027579Y030682D01*
X027579Y030832D01*
X027504Y030907D01*
X027129Y030907D01*
X027129Y031067D02*
X027129Y031293D01*
X027204Y031368D01*
X027504Y031368D01*
X027579Y031293D01*
X027579Y031067D01*
X027129Y031067D01*
X027129Y031528D02*
X027129Y031678D01*
X027129Y031603D02*
X027579Y031603D01*
X027579Y031528D02*
X027579Y031678D01*
X027504Y031835D02*
X027204Y031835D01*
X027129Y031910D01*
X027129Y032060D01*
X027204Y032135D01*
X027504Y032135D01*
X027579Y032060D01*
X027579Y031910D01*
X027504Y031835D01*
X026260Y031862D02*
X026260Y031711D01*
X026185Y031636D01*
X026035Y031636D02*
X025960Y031786D01*
X025960Y031862D01*
X026035Y031937D01*
X026185Y031937D01*
X026260Y031862D01*
X026035Y031636D02*
X025810Y031636D01*
X025810Y031937D01*
X024610Y031062D02*
X024535Y031137D01*
X024460Y031137D01*
X024385Y031062D01*
X024385Y030986D01*
X024385Y031062D02*
X024310Y031137D01*
X024235Y031137D01*
X024160Y031062D01*
X024160Y030911D01*
X024235Y030836D01*
X024535Y030836D02*
X024610Y030911D01*
X024610Y031062D01*
X032747Y031922D02*
X032972Y031697D01*
X032972Y031997D01*
X033197Y031922D02*
X032747Y031922D01*
X034847Y031147D02*
X034847Y030847D01*
X034547Y030847D02*
X034397Y030997D01*
X034847Y030997D01*
D13*
X034972Y031822D02*
X035422Y031822D01*
X034972Y031822D02*
X034972Y029572D01*
X034222Y029572D01*
X034222Y030072D01*
X033472Y030072D01*
X033472Y029572D01*
X033172Y029572D01*
X033172Y029072D01*
X032572Y029072D01*
X032572Y028572D01*
X032572Y028072D01*
X033172Y028072D01*
X033422Y028072D01*
X034172Y028072D01*
X034972Y028072D01*
X034972Y025822D01*
X035422Y025822D01*
X034972Y025822D02*
X034972Y024972D01*
X033422Y025372D01*
X034972Y024972D02*
X036822Y024972D01*
X036822Y025822D01*
X036522Y025822D01*
X036822Y025822D02*
X038222Y025822D01*
X038222Y024858D01*
X038472Y024858D01*
X038472Y024875D01*
X038672Y024875D01*
X038672Y024858D01*
X038972Y024858D01*
X038972Y032750D01*
X038672Y032750D01*
X038633Y032746D01*
X038433Y032746D01*
X038472Y032750D01*
X038222Y032750D01*
X038222Y031822D01*
X038222Y030272D01*
X038222Y029372D02*
X038222Y028272D01*
X038222Y027372D02*
X038222Y025872D01*
X034172Y027572D02*
X034172Y028072D01*
X033422Y028072D02*
X033422Y027572D01*
X034172Y027572D01*
X034972Y028072D02*
X034972Y029572D01*
X034222Y029572D02*
X033472Y029572D01*
X033172Y029572D02*
X032572Y029572D01*
X032572Y029072D01*
X032572Y028572D02*
X033172Y028572D01*
X033172Y028072D01*
X030054Y029172D02*
X030054Y026822D01*
X028954Y026822D02*
X028954Y029172D01*
X028604Y029822D02*
X027604Y029822D01*
X027654Y029922D02*
X027680Y029924D01*
X027706Y029929D01*
X027731Y029937D01*
X027754Y029949D01*
X027776Y029963D01*
X027795Y029981D01*
X027813Y030000D01*
X027827Y030022D01*
X027839Y030045D01*
X027847Y030070D01*
X027852Y030096D01*
X027854Y030122D01*
X028654Y030122D01*
X028504Y030372D02*
X028504Y030922D01*
X028304Y031372D02*
X028304Y030372D01*
X028104Y030372D02*
X028104Y032022D01*
X027854Y032272D02*
X027856Y032298D01*
X027861Y032324D01*
X027869Y032349D01*
X027881Y032372D01*
X027895Y032394D01*
X027913Y032413D01*
X027932Y032431D01*
X027954Y032445D01*
X027977Y032457D01*
X028002Y032465D01*
X028028Y032470D01*
X028054Y032472D01*
X028304Y032472D01*
X030704Y032472D01*
X030954Y032472D01*
X030704Y032472D02*
X030704Y032522D01*
X028304Y032522D01*
X028304Y032472D01*
X028004Y032272D02*
X031004Y032272D01*
X031154Y032272D02*
X031152Y032298D01*
X031147Y032324D01*
X031139Y032349D01*
X031127Y032372D01*
X031113Y032394D01*
X031095Y032413D01*
X031076Y032431D01*
X031054Y032445D01*
X031031Y032457D01*
X031006Y032465D01*
X030980Y032470D01*
X030954Y032472D01*
X031154Y032272D02*
X031154Y030122D01*
X030354Y030122D01*
X030504Y030372D02*
X030504Y030922D01*
X030704Y031372D02*
X030704Y030372D01*
X030904Y030372D02*
X030904Y032022D01*
X033472Y032272D02*
X034972Y032672D01*
X034972Y031822D01*
X036522Y031822D02*
X036822Y031822D01*
X036822Y032672D01*
X034972Y032672D01*
X036822Y031822D02*
X038222Y031822D01*
X031354Y029922D02*
X031328Y029924D01*
X031302Y029929D01*
X031277Y029937D01*
X031254Y029949D01*
X031232Y029963D01*
X031213Y029981D01*
X031195Y030000D01*
X031181Y030022D01*
X031169Y030045D01*
X031161Y030070D01*
X031156Y030096D01*
X031154Y030122D01*
X031404Y029822D02*
X030404Y029822D01*
X027854Y030122D02*
X027854Y032272D01*
X025585Y032272D02*
X024035Y032672D01*
X024035Y031822D01*
X023585Y031822D01*
X024035Y031822D02*
X024035Y029572D01*
X024835Y029572D01*
X024835Y030072D01*
X025585Y030072D01*
X025585Y029572D01*
X025835Y029572D01*
X025835Y029072D01*
X026435Y029072D01*
X026435Y028572D01*
X025835Y028572D01*
X025835Y028072D01*
X025535Y028072D01*
X025535Y027572D01*
X024785Y027572D01*
X024785Y028072D01*
X024035Y028072D01*
X024035Y029572D01*
X024835Y029572D02*
X025585Y029572D01*
X025835Y029572D02*
X026435Y029572D01*
X026435Y029072D01*
X026435Y028572D02*
X026435Y028072D01*
X025835Y028072D01*
X025535Y028072D02*
X024785Y028072D01*
X024035Y028072D02*
X024035Y025822D01*
X023585Y025822D01*
X024035Y025822D02*
X024035Y024972D01*
X022185Y024972D01*
X022185Y025822D01*
X022485Y025822D01*
X022185Y025822D02*
X020785Y025822D01*
X020785Y027372D01*
X020785Y028272D02*
X020785Y029372D01*
X020785Y030272D02*
X020785Y031772D01*
X020785Y031822D02*
X022185Y031822D01*
X022485Y031822D01*
X022185Y031822D02*
X022185Y032672D01*
X024035Y032672D01*
X020785Y032786D02*
X020785Y031822D01*
X020785Y032786D02*
X020535Y032786D01*
X020535Y032769D01*
X020335Y032769D01*
X020335Y032786D01*
X020035Y032786D01*
X020035Y024893D01*
X020335Y024893D01*
X020375Y024897D01*
X020575Y024897D01*
X020535Y024893D01*
X020785Y024893D01*
X020785Y025822D01*
X024035Y024972D02*
X025535Y025372D01*
X028254Y025672D02*
X028254Y024972D01*
X028256Y024955D01*
X028260Y024938D01*
X028267Y024922D01*
X028277Y024908D01*
X028290Y024895D01*
X028304Y024885D01*
X028320Y024878D01*
X028337Y024874D01*
X028354Y024872D01*
X028504Y024872D01*
X028554Y024922D01*
X030454Y024922D01*
X030504Y024872D01*
X030654Y024872D01*
X030671Y024874D01*
X030688Y024878D01*
X030704Y024885D01*
X030718Y024895D01*
X030731Y024908D01*
X030741Y024922D01*
X030748Y024938D01*
X030752Y024955D01*
X030754Y024972D01*
X030754Y025672D01*
X030752Y025689D01*
X030748Y025706D01*
X030741Y025722D01*
X030731Y025736D01*
X030718Y025749D01*
X030704Y025759D01*
X030688Y025766D01*
X030671Y025770D01*
X030654Y025772D01*
X030504Y025772D01*
X030454Y025722D01*
X028554Y025722D01*
X028504Y025772D01*
X028354Y025772D01*
X028337Y025770D01*
X028320Y025766D01*
X028304Y025759D01*
X028290Y025749D01*
X028277Y025736D01*
X028267Y025722D01*
X028260Y025706D01*
X028256Y025689D01*
X028254Y025672D01*
D14*
X028084Y025322D03*
X030924Y025322D03*
D15*
X031704Y027772D02*
X031704Y029522D01*
X031702Y029556D01*
X031696Y029589D01*
X031687Y029621D01*
X031674Y029652D01*
X031658Y029682D01*
X031639Y029709D01*
X031616Y029734D01*
X031591Y029757D01*
X031564Y029776D01*
X031534Y029792D01*
X031503Y029805D01*
X031471Y029814D01*
X031438Y029820D01*
X031404Y029822D01*
X027604Y029822D02*
X027570Y029820D01*
X027537Y029814D01*
X027505Y029805D01*
X027474Y029792D01*
X027444Y029776D01*
X027417Y029757D01*
X027392Y029734D01*
X027369Y029709D01*
X027350Y029682D01*
X027334Y029652D01*
X027321Y029621D01*
X027312Y029589D01*
X027306Y029556D01*
X027304Y029522D01*
X027304Y027772D01*
D16*
X022837Y027877D02*
X022207Y027877D01*
X022417Y027667D01*
X022207Y027457D01*
X022837Y027457D01*
X022837Y028101D02*
X022837Y028311D01*
X022837Y028206D02*
X022207Y028206D01*
X022207Y028101D02*
X022207Y028311D01*
X022207Y028531D02*
X022207Y028846D01*
X022312Y028951D01*
X022732Y028951D01*
X022837Y028846D01*
X022837Y028531D01*
X022207Y028531D01*
X022207Y029175D02*
X022207Y029386D01*
X022207Y029281D02*
X022837Y029281D01*
X022837Y029386D02*
X022837Y029175D01*
X022837Y029605D02*
X022837Y029815D01*
X022837Y029710D02*
X022207Y029710D01*
X022207Y029605D02*
X022207Y029815D01*
X022207Y030035D02*
X022837Y030455D01*
X022207Y030455D01*
X022207Y030035D02*
X022837Y030035D01*
X036207Y030170D02*
X036732Y030170D01*
X036837Y030065D01*
X036837Y029855D01*
X036732Y029750D01*
X036207Y029750D01*
X036312Y029526D02*
X036207Y029420D01*
X036207Y029210D01*
X036312Y029105D01*
X036732Y029105D01*
X036837Y029210D01*
X036837Y029420D01*
X036732Y029526D01*
X036312Y029526D01*
X036207Y028886D02*
X036207Y028675D01*
X036207Y028781D02*
X036837Y028781D01*
X036837Y028886D02*
X036837Y028675D01*
X036732Y028451D02*
X036312Y028451D01*
X036207Y028346D01*
X036207Y028031D01*
X036837Y028031D01*
X036837Y028346D01*
X036732Y028451D01*
X036837Y027811D02*
X036837Y027601D01*
X036837Y027706D02*
X036207Y027706D01*
X036207Y027601D02*
X036207Y027811D01*
X036207Y027377D02*
X036837Y027377D01*
X036417Y027167D02*
X036207Y027377D01*
X036417Y027167D02*
X036207Y026957D01*
X036837Y026957D01*
X036207Y030394D02*
X036207Y030815D01*
X036207Y030604D02*
X036837Y030604D01*
G04 *
G04 next data from source file './midi-to-audio.plc', *
G04 source file key is 'infile_0007'. *
G04 *
D10*
X000504Y024822D02*
X000504Y032818D01*
X019499Y032818D01*
X019499Y024822D01*
X000504Y024822D01*
D11*
X019504Y024822D01*
X019504Y032822D01*
X000504Y032822D01*
X000504Y024822D01*
D12*
X004660Y026536D02*
X005110Y026536D01*
X005110Y026386D02*
X005110Y026687D01*
X004810Y026386D02*
X004660Y026536D01*
X006535Y025837D02*
X006535Y025536D01*
X006310Y025762D01*
X006760Y025762D01*
X008829Y025947D02*
X008829Y026397D01*
X009054Y026397D01*
X009129Y026322D01*
X009129Y026172D01*
X009054Y026097D01*
X008829Y026097D01*
X008979Y026097D02*
X009129Y025947D01*
X009289Y025947D02*
X009590Y025947D01*
X009439Y025947D02*
X009439Y026397D01*
X009289Y026247D01*
X010779Y027097D02*
X011079Y027097D01*
X010929Y027097D02*
X010929Y027547D01*
X010779Y027397D01*
X012529Y027847D02*
X012829Y028147D01*
X012829Y028222D01*
X012754Y028297D01*
X012604Y028297D01*
X012529Y028222D01*
X012529Y027847D02*
X012829Y027847D01*
X014897Y028272D02*
X014972Y028197D01*
X014897Y028272D02*
X014897Y028422D01*
X014972Y028497D01*
X015047Y028497D01*
X015347Y028197D01*
X015347Y028497D01*
X015272Y026697D02*
X015197Y026697D01*
X015122Y026622D01*
X015122Y026547D01*
X015122Y026622D02*
X015047Y026697D01*
X014972Y026697D01*
X014897Y026622D01*
X014897Y026472D01*
X014972Y026397D01*
X015272Y026397D02*
X015347Y026472D01*
X015347Y026622D01*
X015272Y026697D01*
X013697Y025822D02*
X013622Y025897D01*
X013472Y025897D01*
X013397Y025822D01*
X013397Y025747D01*
X013472Y025597D01*
X013247Y025597D01*
X013247Y025897D01*
X013697Y025822D02*
X013697Y025672D01*
X013622Y025597D01*
X008429Y027847D02*
X008129Y027847D01*
X008429Y028147D01*
X008429Y028222D01*
X008354Y028297D01*
X008204Y028297D01*
X008129Y028222D01*
X005110Y029036D02*
X004810Y029337D01*
X004735Y029337D01*
X004660Y029262D01*
X004660Y029111D01*
X004735Y029036D01*
X005110Y029036D02*
X005110Y029337D01*
X007629Y030297D02*
X007779Y030447D01*
X008079Y030447D01*
X007854Y030447D02*
X007854Y030147D01*
X007779Y030147D02*
X007629Y030297D01*
X007779Y030147D02*
X008079Y030147D01*
X008004Y030607D02*
X007629Y030607D01*
X008004Y030607D02*
X008079Y030682D01*
X008079Y030832D01*
X008004Y030907D01*
X007629Y030907D01*
X007629Y031067D02*
X007629Y031293D01*
X007704Y031368D01*
X008004Y031368D01*
X008079Y031293D01*
X008079Y031067D01*
X007629Y031067D01*
X007629Y031528D02*
X007629Y031678D01*
X007629Y031603D02*
X008079Y031603D01*
X008079Y031528D02*
X008079Y031678D01*
X008004Y031835D02*
X007704Y031835D01*
X007629Y031910D01*
X007629Y032060D01*
X007704Y032135D01*
X008004Y032135D01*
X008079Y032060D01*
X008079Y031910D01*
X008004Y031835D01*
X006760Y031862D02*
X006760Y031711D01*
X006685Y031636D01*
X006535Y031636D02*
X006460Y031786D01*
X006460Y031862D01*
X006535Y031937D01*
X006685Y031937D01*
X006760Y031862D01*
X006535Y031636D02*
X006310Y031636D01*
X006310Y031937D01*
X005110Y031062D02*
X005035Y031137D01*
X004960Y031137D01*
X004885Y031062D01*
X004885Y030986D01*
X004885Y031062D02*
X004810Y031137D01*
X004735Y031137D01*
X004660Y031062D01*
X004660Y030911D01*
X004735Y030836D01*
X005035Y030836D02*
X005110Y030911D01*
X005110Y031062D01*
X013247Y031922D02*
X013472Y031697D01*
X013472Y031997D01*
X013697Y031922D02*
X013247Y031922D01*
X015347Y031147D02*
X015347Y030847D01*
X015047Y030847D02*
X014897Y030997D01*
X015347Y030997D01*
D13*
X015472Y031822D02*
X015922Y031822D01*
X015472Y031822D02*
X015472Y029572D01*
X014722Y029572D01*
X014722Y030072D01*
X013972Y030072D01*
X013972Y029572D01*
X013672Y029572D01*
X013672Y029072D01*
X013072Y029072D01*
X013072Y028572D01*
X013072Y028072D01*
X013672Y028072D01*
X013922Y028072D01*
X014672Y028072D01*
X015472Y028072D01*
X015472Y025822D01*
X015922Y025822D01*
X015472Y025822D02*
X015472Y024972D01*
X013922Y025372D01*
X015472Y024972D02*
X017322Y024972D01*
X017322Y025822D01*
X017022Y025822D01*
X017322Y025822D02*
X018722Y025822D01*
X018722Y024858D01*
X018972Y024858D01*
X018972Y024875D01*
X019172Y024875D01*
X019172Y024858D01*
X019472Y024858D01*
X019472Y032750D01*
X019172Y032750D01*
X019133Y032746D01*
X018933Y032746D01*
X018972Y032750D01*
X018722Y032750D01*
X018722Y031822D01*
X018722Y030272D01*
X018722Y029372D02*
X018722Y028272D01*
X018722Y027372D02*
X018722Y025872D01*
X014672Y027572D02*
X014672Y028072D01*
X013922Y028072D02*
X013922Y027572D01*
X014672Y027572D01*
X015472Y028072D02*
X015472Y029572D01*
X014722Y029572D02*
X013972Y029572D01*
X013672Y029572D02*
X013072Y029572D01*
X013072Y029072D01*
X013072Y028572D02*
X013672Y028572D01*
X013672Y028072D01*
X010554Y029172D02*
X010554Y026822D01*
X009454Y026822D02*
X009454Y029172D01*
X009104Y029822D02*
X008104Y029822D01*
X008154Y029922D02*
X008180Y029924D01*
X008206Y029929D01*
X008231Y029937D01*
X008254Y029949D01*
X008276Y029963D01*
X008295Y029981D01*
X008313Y030000D01*
X008327Y030022D01*
X008339Y030045D01*
X008347Y030070D01*
X008352Y030096D01*
X008354Y030122D01*
X009154Y030122D01*
X009004Y030372D02*
X009004Y030922D01*
X008804Y031372D02*
X008804Y030372D01*
X008604Y030372D02*
X008604Y032022D01*
X008354Y032272D02*
X008356Y032298D01*
X008361Y032324D01*
X008369Y032349D01*
X008381Y032372D01*
X008395Y032394D01*
X008413Y032413D01*
X008432Y032431D01*
X008454Y032445D01*
X008477Y032457D01*
X008502Y032465D01*
X008528Y032470D01*
X008554Y032472D01*
X008804Y032472D01*
X011204Y032472D01*
X011454Y032472D01*
X011204Y032472D02*
X011204Y032522D01*
X008804Y032522D01*
X008804Y032472D01*
X008504Y032272D02*
X011504Y032272D01*
X011654Y032272D02*
X011652Y032298D01*
X011647Y032324D01*
X011639Y032349D01*
X011627Y032372D01*
X011613Y032394D01*
X011595Y032413D01*
X011576Y032431D01*
X011554Y032445D01*
X011531Y032457D01*
X011506Y032465D01*
X011480Y032470D01*
X011454Y032472D01*
X011654Y032272D02*
X011654Y030122D01*
X010854Y030122D01*
X011004Y030372D02*
X011004Y030922D01*
X011204Y031372D02*
X011204Y030372D01*
X011404Y030372D02*
X011404Y032022D01*
X013972Y032272D02*
X015472Y032672D01*
X015472Y031822D01*
X017022Y031822D02*
X017322Y031822D01*
X017322Y032672D01*
X015472Y032672D01*
X017322Y031822D02*
X018722Y031822D01*
X011854Y029922D02*
X011828Y029924D01*
X011802Y029929D01*
X011777Y029937D01*
X011754Y029949D01*
X011732Y029963D01*
X011713Y029981D01*
X011695Y030000D01*
X011681Y030022D01*
X011669Y030045D01*
X011661Y030070D01*
X011656Y030096D01*
X011654Y030122D01*
X011904Y029822D02*
X010904Y029822D01*
X008354Y030122D02*
X008354Y032272D01*
X006085Y032272D02*
X004535Y032672D01*
X004535Y031822D01*
X004085Y031822D01*
X004535Y031822D02*
X004535Y029572D01*
X005335Y029572D01*
X005335Y030072D01*
X006085Y030072D01*
X006085Y029572D01*
X006335Y029572D01*
X006335Y029072D01*
X006935Y029072D01*
X006935Y028572D01*
X006335Y028572D01*
X006335Y028072D01*
X006035Y028072D01*
X006035Y027572D01*
X005285Y027572D01*
X005285Y028072D01*
X004535Y028072D01*
X004535Y029572D01*
X005335Y029572D02*
X006085Y029572D01*
X006335Y029572D02*
X006935Y029572D01*
X006935Y029072D01*
X006935Y028572D02*
X006935Y028072D01*
X006335Y028072D01*
X006035Y028072D02*
X005285Y028072D01*
X004535Y028072D02*
X004535Y025822D01*
X004085Y025822D01*
X004535Y025822D02*
X004535Y024972D01*
X002685Y024972D01*
X002685Y025822D01*
X002985Y025822D01*
X002685Y025822D02*
X001285Y025822D01*
X001285Y027372D01*
X001285Y028272D02*
X001285Y029372D01*
X001285Y030272D02*
X001285Y031772D01*
X001285Y031822D02*
X002685Y031822D01*
X002985Y031822D01*
X002685Y031822D02*
X002685Y032672D01*
X004535Y032672D01*
X001285Y032786D02*
X001285Y031822D01*
X001285Y032786D02*
X001035Y032786D01*
X001035Y032769D01*
X000835Y032769D01*
X000835Y032786D01*
X000535Y032786D01*
X000535Y024893D01*
X000835Y024893D01*
X000875Y024897D01*
X001075Y024897D01*
X001035Y024893D01*
X001285Y024893D01*
X001285Y025822D01*
X004535Y024972D02*
X006035Y025372D01*
X008754Y025672D02*
X008754Y024972D01*
X008756Y024955D01*
X008760Y024938D01*
X008767Y024922D01*
X008777Y024908D01*
X008790Y024895D01*
X008804Y024885D01*
X008820Y024878D01*
X008837Y024874D01*
X008854Y024872D01*
X009004Y024872D01*
X009054Y024922D01*
X010954Y024922D01*
X011004Y024872D01*
X011154Y024872D01*
X011171Y024874D01*
X011188Y024878D01*
X011204Y024885D01*
X011218Y024895D01*
X011231Y024908D01*
X011241Y024922D01*
X011248Y024938D01*
X011252Y024955D01*
X011254Y024972D01*
X011254Y025672D01*
X011252Y025689D01*
X011248Y025706D01*
X011241Y025722D01*
X011231Y025736D01*
X011218Y025749D01*
X011204Y025759D01*
X011188Y025766D01*
X011171Y025770D01*
X011154Y025772D01*
X011004Y025772D01*
X010954Y025722D01*
X009054Y025722D01*
X009004Y025772D01*
X008854Y025772D01*
X008837Y025770D01*
X008820Y025766D01*
X008804Y025759D01*
X008790Y025749D01*
X008777Y025736D01*
X008767Y025722D01*
X008760Y025706D01*
X008756Y025689D01*
X008754Y025672D01*
D14*
X008584Y025322D03*
X011424Y025322D03*
D15*
X012204Y027772D02*
X012204Y029522D01*
X012202Y029556D01*
X012196Y029589D01*
X012187Y029621D01*
X012174Y029652D01*
X012158Y029682D01*
X012139Y029709D01*
X012116Y029734D01*
X012091Y029757D01*
X012064Y029776D01*
X012034Y029792D01*
X012003Y029805D01*
X011971Y029814D01*
X011938Y029820D01*
X011904Y029822D01*
X008104Y029822D02*
X008070Y029820D01*
X008037Y029814D01*
X008005Y029805D01*
X007974Y029792D01*
X007944Y029776D01*
X007917Y029757D01*
X007892Y029734D01*
X007869Y029709D01*
X007850Y029682D01*
X007834Y029652D01*
X007821Y029621D01*
X007812Y029589D01*
X007806Y029556D01*
X007804Y029522D01*
X007804Y027772D01*
D16*
X003337Y027877D02*
X002707Y027877D01*
X002917Y027667D01*
X002707Y027457D01*
X003337Y027457D01*
X003337Y028101D02*
X003337Y028311D01*
X003337Y028206D02*
X002707Y028206D01*
X002707Y028101D02*
X002707Y028311D01*
X002707Y028531D02*
X002707Y028846D01*
X002812Y028951D01*
X003232Y028951D01*
X003337Y028846D01*
X003337Y028531D01*
X002707Y028531D01*
X002707Y029175D02*
X002707Y029386D01*
X002707Y029281D02*
X003337Y029281D01*
X003337Y029386D02*
X003337Y029175D01*
X003337Y029605D02*
X003337Y029815D01*
X003337Y029710D02*
X002707Y029710D01*
X002707Y029605D02*
X002707Y029815D01*
X002707Y030035D02*
X003337Y030455D01*
X002707Y030455D01*
X002707Y030035D02*
X003337Y030035D01*
X016707Y030170D02*
X017232Y030170D01*
X017337Y030065D01*
X017337Y029855D01*
X017232Y029750D01*
X016707Y029750D01*
X016812Y029526D02*
X016707Y029420D01*
X016707Y029210D01*
X016812Y029105D01*
X017232Y029105D01*
X017337Y029210D01*
X017337Y029420D01*
X017232Y029526D01*
X016812Y029526D01*
X016707Y028886D02*
X016707Y028675D01*
X016707Y028781D02*
X017337Y028781D01*
X017337Y028886D02*
X017337Y028675D01*
X017232Y028451D02*
X016812Y028451D01*
X016707Y028346D01*
X016707Y028031D01*
X017337Y028031D01*
X017337Y028346D01*
X017232Y028451D01*
X017337Y027811D02*
X017337Y027601D01*
X017337Y027706D02*
X016707Y027706D01*
X016707Y027601D02*
X016707Y027811D01*
X016707Y027377D02*
X017337Y027377D01*
X016917Y027167D02*
X016707Y027377D01*
X016917Y027167D02*
X016707Y026957D01*
X017337Y026957D01*
X016707Y030394D02*
X016707Y030815D01*
X016707Y030604D02*
X017337Y030604D01*
G04 *
G04 next data from source file './midi-to-audio.plc', *
G04 source file key is 'infile_0004'. *
G04 *
D10*
X020004Y008422D02*
X020004Y016418D01*
X038999Y016418D01*
X038999Y008422D01*
X020004Y008422D01*
D11*
X039004Y008422D01*
X039004Y016422D01*
X020004Y016422D01*
X020004Y008422D01*
D12*
X024160Y010136D02*
X024610Y010136D01*
X024610Y009986D02*
X024610Y010287D01*
X024310Y009986D02*
X024160Y010136D01*
X026035Y009437D02*
X026035Y009136D01*
X025810Y009362D01*
X026260Y009362D01*
X028329Y009547D02*
X028329Y009997D01*
X028554Y009997D01*
X028629Y009922D01*
X028629Y009772D01*
X028554Y009697D01*
X028329Y009697D01*
X028479Y009697D02*
X028629Y009547D01*
X028789Y009547D02*
X029090Y009547D01*
X028939Y009547D02*
X028939Y009997D01*
X028789Y009847D01*
X030279Y010697D02*
X030579Y010697D01*
X030429Y010697D02*
X030429Y011147D01*
X030279Y010997D01*
X032029Y011447D02*
X032329Y011747D01*
X032329Y011822D01*
X032254Y011897D01*
X032104Y011897D01*
X032029Y011822D01*
X032029Y011447D02*
X032329Y011447D01*
X034397Y011872D02*
X034472Y011797D01*
X034397Y011872D02*
X034397Y012022D01*
X034472Y012097D01*
X034547Y012097D01*
X034847Y011797D01*
X034847Y012097D01*
X034772Y010297D02*
X034697Y010297D01*
X034622Y010222D01*
X034622Y010147D01*
X034622Y010222D02*
X034547Y010297D01*
X034472Y010297D01*
X034397Y010222D01*
X034397Y010072D01*
X034472Y009997D01*
X034772Y009997D02*
X034847Y010072D01*
X034847Y010222D01*
X034772Y010297D01*
X033197Y009422D02*
X033122Y009497D01*
X032972Y009497D01*
X032897Y009422D01*
X032897Y009347D01*
X032972Y009197D01*
X032747Y009197D01*
X032747Y009497D01*
X033197Y009422D02*
X033197Y009272D01*
X033122Y009197D01*
X027929Y011447D02*
X027629Y011447D01*
X027929Y011747D01*
X027929Y011822D01*
X027854Y011897D01*
X027704Y011897D01*
X027629Y011822D01*
X024610Y012636D02*
X024310Y012937D01*
X024235Y012937D01*
X024160Y012862D01*
X024160Y012711D01*
X024235Y012636D01*
X024610Y012636D02*
X024610Y012937D01*
X027129Y013897D02*
X027279Y014047D01*
X027579Y014047D01*
X027354Y014047D02*
X027354Y013747D01*
X027279Y013747D02*
X027129Y013897D01*
X027279Y013747D02*
X027579Y013747D01*
X027504Y014207D02*
X027129Y014207D01*
X027504Y014207D02*
X027579Y014282D01*
X027579Y014432D01*
X027504Y014507D01*
X027129Y014507D01*
X027129Y014667D02*
X027129Y014893D01*
X027204Y014968D01*
X027504Y014968D01*
X027579Y014893D01*
X027579Y014667D01*
X027129Y014667D01*
X027129Y015128D02*
X027129Y015278D01*
X027129Y015203D02*
X027579Y015203D01*
X027579Y015128D02*
X027579Y015278D01*
X027504Y015435D02*
X027204Y015435D01*
X027129Y015510D01*
X027129Y015660D01*
X027204Y015735D01*
X027504Y015735D01*
X027579Y015660D01*
X027579Y015510D01*
X027504Y015435D01*
X026260Y015462D02*
X026260Y015311D01*
X026185Y015236D01*
X026035Y015236D02*
X025960Y015386D01*
X025960Y015462D01*
X026035Y015537D01*
X026185Y015537D01*
X026260Y015462D01*
X026035Y015236D02*
X025810Y015236D01*
X025810Y015537D01*
X024610Y014662D02*
X024535Y014737D01*
X024460Y014737D01*
X024385Y014662D01*
X024385Y014586D01*
X024385Y014662D02*
X024310Y014737D01*
X024235Y014737D01*
X024160Y014662D01*
X024160Y014511D01*
X024235Y014436D01*
X024535Y014436D02*
X024610Y014511D01*
X024610Y014662D01*
X032747Y015522D02*
X032972Y015297D01*
X032972Y015597D01*
X033197Y015522D02*
X032747Y015522D01*
X034847Y014747D02*
X034847Y014447D01*
X034547Y014447D02*
X034397Y014597D01*
X034847Y014597D01*
D13*
X034972Y015422D02*
X035422Y015422D01*
X034972Y015422D02*
X034972Y013172D01*
X034222Y013172D01*
X034222Y013672D01*
X033472Y013672D01*
X033472Y013172D01*
X033172Y013172D01*
X033172Y012672D01*
X032572Y012672D01*
X032572Y012172D01*
X032572Y011672D01*
X033172Y011672D01*
X033422Y011672D01*
X034172Y011672D01*
X034972Y011672D01*
X034972Y009422D01*
X035422Y009422D01*
X034972Y009422D02*
X034972Y008572D01*
X033422Y008972D01*
X034972Y008572D02*
X036822Y008572D01*
X036822Y009422D01*
X036522Y009422D01*
X036822Y009422D02*
X038222Y009422D01*
X038222Y008458D01*
X038472Y008458D01*
X038472Y008475D01*
X038672Y008475D01*
X038672Y008458D01*
X038972Y008458D01*
X038972Y016350D01*
X038672Y016350D01*
X038633Y016346D01*
X038433Y016346D01*
X038472Y016350D01*
X038222Y016350D01*
X038222Y015422D01*
X038222Y013872D01*
X038222Y012972D02*
X038222Y011872D01*
X038222Y010972D02*
X038222Y009472D01*
X034172Y011172D02*
X034172Y011672D01*
X033422Y011672D02*
X033422Y011172D01*
X034172Y011172D01*
X034972Y011672D02*
X034972Y013172D01*
X034222Y013172D02*
X033472Y013172D01*
X033172Y013172D02*
X032572Y013172D01*
X032572Y012672D01*
X032572Y012172D02*
X033172Y012172D01*
X033172Y011672D01*
X030054Y012772D02*
X030054Y010422D01*
X028954Y010422D02*
X028954Y012772D01*
X028604Y013422D02*
X027604Y013422D01*
X027654Y013522D02*
X027680Y013524D01*
X027706Y013529D01*
X027731Y013537D01*
X027754Y013549D01*
X027776Y013563D01*
X027795Y013581D01*
X027813Y013600D01*
X027827Y013622D01*
X027839Y013645D01*
X027847Y013670D01*
X027852Y013696D01*
X027854Y013722D01*
X028654Y013722D01*
X028504Y013972D02*
X028504Y014522D01*
X028304Y014972D02*
X028304Y013972D01*
X028104Y013972D02*
X028104Y015622D01*
X027854Y015872D02*
X027856Y015898D01*
X027861Y015924D01*
X027869Y015949D01*
X027881Y015972D01*
X027895Y015994D01*
X027913Y016013D01*
X027932Y016031D01*
X027954Y016045D01*
X027977Y016057D01*
X028002Y016065D01*
X028028Y016070D01*
X028054Y016072D01*
X028304Y016072D01*
X030704Y016072D01*
X030954Y016072D01*
X030704Y016072D02*
X030704Y016122D01*
X028304Y016122D01*
X028304Y016072D01*
X028004Y015872D02*
X031004Y015872D01*
X031154Y015872D02*
X031152Y015898D01*
X031147Y015924D01*
X031139Y015949D01*
X031127Y015972D01*
X031113Y015994D01*
X031095Y016013D01*
X031076Y016031D01*
X031054Y016045D01*
X031031Y016057D01*
X031006Y016065D01*
X030980Y016070D01*
X030954Y016072D01*
X031154Y015872D02*
X031154Y013722D01*
X030354Y013722D01*
X030504Y013972D02*
X030504Y014522D01*
X030704Y014972D02*
X030704Y013972D01*
X030904Y013972D02*
X030904Y015622D01*
X033472Y015872D02*
X034972Y016272D01*
X034972Y015422D01*
X036522Y015422D02*
X036822Y015422D01*
X036822Y016272D01*
X034972Y016272D01*
X036822Y015422D02*
X038222Y015422D01*
X031354Y013522D02*
X031328Y013524D01*
X031302Y013529D01*
X031277Y013537D01*
X031254Y013549D01*
X031232Y013563D01*
X031213Y013581D01*
X031195Y013600D01*
X031181Y013622D01*
X031169Y013645D01*
X031161Y013670D01*
X031156Y013696D01*
X031154Y013722D01*
X031404Y013422D02*
X030404Y013422D01*
X027854Y013722D02*
X027854Y015872D01*
X025585Y015872D02*
X024035Y016272D01*
X024035Y015422D01*
X023585Y015422D01*
X024035Y015422D02*
X024035Y013172D01*
X024835Y013172D01*
X024835Y013672D01*
X025585Y013672D01*
X025585Y013172D01*
X025835Y013172D01*
X025835Y012672D01*
X026435Y012672D01*
X026435Y012172D01*
X025835Y012172D01*
X025835Y011672D01*
X025535Y011672D01*
X025535Y011172D01*
X024785Y011172D01*
X024785Y011672D01*
X024035Y011672D01*
X024035Y013172D01*
X024835Y013172D02*
X025585Y013172D01*
X025835Y013172D02*
X026435Y013172D01*
X026435Y012672D01*
X026435Y012172D02*
X026435Y011672D01*
X025835Y011672D01*
X025535Y011672D02*
X024785Y011672D01*
X024035Y011672D02*
X024035Y009422D01*
X023585Y009422D01*
X024035Y009422D02*
X024035Y008572D01*
X022185Y008572D01*
X022185Y009422D01*
X022485Y009422D01*
X022185Y009422D02*
X020785Y009422D01*
X020785Y010972D01*
X020785Y011872D02*
X020785Y012972D01*
X020785Y013872D02*
X020785Y015372D01*
X020785Y015422D02*
X022185Y015422D01*
X022485Y015422D01*
X022185Y015422D02*
X022185Y016272D01*
X024035Y016272D01*
X020785Y016386D02*
X020785Y015422D01*
X020785Y016386D02*
X020535Y016386D01*
X020535Y016369D01*
X020335Y016369D01*
X020335Y016386D01*
X020035Y016386D01*
X020035Y008493D01*
X020335Y008493D01*
X020375Y008497D01*
X020575Y008497D01*
X020535Y008493D01*
X020785Y008493D01*
X020785Y009422D01*
X024035Y008572D02*
X025535Y008972D01*
X028254Y009272D02*
X028254Y008572D01*
X028256Y008555D01*
X028260Y008538D01*
X028267Y008522D01*
X028277Y008508D01*
X028290Y008495D01*
X028304Y008485D01*
X028320Y008478D01*
X028337Y008474D01*
X028354Y008472D01*
X028504Y008472D01*
X028554Y008522D01*
X030454Y008522D01*
X030504Y008472D01*
X030654Y008472D01*
X030671Y008474D01*
X030688Y008478D01*
X030704Y008485D01*
X030718Y008495D01*
X030731Y008508D01*
X030741Y008522D01*
X030748Y008538D01*
X030752Y008555D01*
X030754Y008572D01*
X030754Y009272D01*
X030752Y009289D01*
X030748Y009306D01*
X030741Y009322D01*
X030731Y009336D01*
X030718Y009349D01*
X030704Y009359D01*
X030688Y009366D01*
X030671Y009370D01*
X030654Y009372D01*
X030504Y009372D01*
X030454Y009322D01*
X028554Y009322D01*
X028504Y009372D01*
X028354Y009372D01*
X028337Y009370D01*
X028320Y009366D01*
X028304Y009359D01*
X028290Y009349D01*
X028277Y009336D01*
X028267Y009322D01*
X028260Y009306D01*
X028256Y009289D01*
X028254Y009272D01*
D14*
X028084Y008922D03*
X030924Y008922D03*
D15*
X031704Y011372D02*
X031704Y013122D01*
X031702Y013156D01*
X031696Y013189D01*
X031687Y013221D01*
X031674Y013252D01*
X031658Y013282D01*
X031639Y013309D01*
X031616Y013334D01*
X031591Y013357D01*
X031564Y013376D01*
X031534Y013392D01*
X031503Y013405D01*
X031471Y013414D01*
X031438Y013420D01*
X031404Y013422D01*
X027604Y013422D02*
X027570Y013420D01*
X027537Y013414D01*
X027505Y013405D01*
X027474Y013392D01*
X027444Y013376D01*
X027417Y013357D01*
X027392Y013334D01*
X027369Y013309D01*
X027350Y013282D01*
X027334Y013252D01*
X027321Y013221D01*
X027312Y013189D01*
X027306Y013156D01*
X027304Y013122D01*
X027304Y011372D01*
D16*
X022837Y011477D02*
X022207Y011477D01*
X022417Y011267D01*
X022207Y011057D01*
X022837Y011057D01*
X022837Y011701D02*
X022837Y011911D01*
X022837Y011806D02*
X022207Y011806D01*
X022207Y011701D02*
X022207Y011911D01*
X022207Y012131D02*
X022207Y012446D01*
X022312Y012551D01*
X022732Y012551D01*
X022837Y012446D01*
X022837Y012131D01*
X022207Y012131D01*
X022207Y012775D02*
X022207Y012986D01*
X022207Y012881D02*
X022837Y012881D01*
X022837Y012986D02*
X022837Y012775D01*
X022837Y013205D02*
X022837Y013415D01*
X022837Y013310D02*
X022207Y013310D01*
X022207Y013205D02*
X022207Y013415D01*
X022207Y013635D02*
X022837Y014055D01*
X022207Y014055D01*
X022207Y013635D02*
X022837Y013635D01*
X036207Y013770D02*
X036732Y013770D01*
X036837Y013665D01*
X036837Y013455D01*
X036732Y013350D01*
X036207Y013350D01*
X036312Y013126D02*
X036207Y013020D01*
X036207Y012810D01*
X036312Y012705D01*
X036732Y012705D01*
X036837Y012810D01*
X036837Y013020D01*
X036732Y013126D01*
X036312Y013126D01*
X036207Y012486D02*
X036207Y012275D01*
X036207Y012381D02*
X036837Y012381D01*
X036837Y012486D02*
X036837Y012275D01*
X036732Y012051D02*
X036312Y012051D01*
X036207Y011946D01*
X036207Y011631D01*
X036837Y011631D01*
X036837Y011946D01*
X036732Y012051D01*
X036837Y011411D02*
X036837Y011201D01*
X036837Y011306D02*
X036207Y011306D01*
X036207Y011201D02*
X036207Y011411D01*
X036207Y010977D02*
X036837Y010977D01*
X036417Y010767D02*
X036207Y010977D01*
X036417Y010767D02*
X036207Y010557D01*
X036837Y010557D01*
X036207Y013994D02*
X036207Y014415D01*
X036207Y014204D02*
X036837Y014204D01*
G04 *
G04 next data from source file './midi-to-audio.plc', *
G04 source file key is 'infile_0012'. *
G04 *
D10*
X020004Y041622D02*
X020004Y049618D01*
X038999Y049618D01*
X038999Y041622D01*
X020004Y041622D01*
D11*
X039004Y041622D01*
X039004Y049622D01*
X020004Y049622D01*
X020004Y041622D01*
D12*
X024160Y043336D02*
X024610Y043336D01*
X024610Y043186D02*
X024610Y043487D01*
X024310Y043186D02*
X024160Y043336D01*
X026035Y042637D02*
X026035Y042336D01*
X025810Y042562D01*
X026260Y042562D01*
X028329Y042747D02*
X028329Y043197D01*
X028554Y043197D01*
X028629Y043122D01*
X028629Y042972D01*
X028554Y042897D01*
X028329Y042897D01*
X028479Y042897D02*
X028629Y042747D01*
X028789Y042747D02*
X029090Y042747D01*
X028939Y042747D02*
X028939Y043197D01*
X028789Y043047D01*
X030279Y043897D02*
X030579Y043897D01*
X030429Y043897D02*
X030429Y044347D01*
X030279Y044197D01*
X032029Y044647D02*
X032329Y044947D01*
X032329Y045022D01*
X032254Y045097D01*
X032104Y045097D01*
X032029Y045022D01*
X032029Y044647D02*
X032329Y044647D01*
X034397Y045072D02*
X034472Y044997D01*
X034397Y045072D02*
X034397Y045222D01*
X034472Y045297D01*
X034547Y045297D01*
X034847Y044997D01*
X034847Y045297D01*
X034772Y043497D02*
X034697Y043497D01*
X034622Y043422D01*
X034622Y043347D01*
X034622Y043422D02*
X034547Y043497D01*
X034472Y043497D01*
X034397Y043422D01*
X034397Y043272D01*
X034472Y043197D01*
X034772Y043197D02*
X034847Y043272D01*
X034847Y043422D01*
X034772Y043497D01*
X033197Y042622D02*
X033122Y042697D01*
X032972Y042697D01*
X032897Y042622D01*
X032897Y042547D01*
X032972Y042397D01*
X032747Y042397D01*
X032747Y042697D01*
X033197Y042622D02*
X033197Y042472D01*
X033122Y042397D01*
X027929Y044647D02*
X027629Y044647D01*
X027929Y044947D01*
X027929Y045022D01*
X027854Y045097D01*
X027704Y045097D01*
X027629Y045022D01*
X024610Y045836D02*
X024310Y046137D01*
X024235Y046137D01*
X024160Y046062D01*
X024160Y045911D01*
X024235Y045836D01*
X024610Y045836D02*
X024610Y046137D01*
X027129Y047097D02*
X027279Y047247D01*
X027579Y047247D01*
X027354Y047247D02*
X027354Y046947D01*
X027279Y046947D02*
X027129Y047097D01*
X027279Y046947D02*
X027579Y046947D01*
X027504Y047407D02*
X027129Y047407D01*
X027504Y047407D02*
X027579Y047482D01*
X027579Y047632D01*
X027504Y047707D01*
X027129Y047707D01*
X027129Y047867D02*
X027129Y048093D01*
X027204Y048168D01*
X027504Y048168D01*
X027579Y048093D01*
X027579Y047867D01*
X027129Y047867D01*
X027129Y048328D02*
X027129Y048478D01*
X027129Y048403D02*
X027579Y048403D01*
X027579Y048328D02*
X027579Y048478D01*
X027504Y048635D02*
X027204Y048635D01*
X027129Y048710D01*
X027129Y048860D01*
X027204Y048935D01*
X027504Y048935D01*
X027579Y048860D01*
X027579Y048710D01*
X027504Y048635D01*
X026260Y048662D02*
X026260Y048511D01*
X026185Y048436D01*
X026035Y048436D02*
X025960Y048586D01*
X025960Y048662D01*
X026035Y048737D01*
X026185Y048737D01*
X026260Y048662D01*
X026035Y048436D02*
X025810Y048436D01*
X025810Y048737D01*
X024610Y047862D02*
X024535Y047937D01*
X024460Y047937D01*
X024385Y047862D01*
X024385Y047786D01*
X024385Y047862D02*
X024310Y047937D01*
X024235Y047937D01*
X024160Y047862D01*
X024160Y047711D01*
X024235Y047636D01*
X024535Y047636D02*
X024610Y047711D01*
X024610Y047862D01*
X032747Y048722D02*
X032972Y048497D01*
X032972Y048797D01*
X033197Y048722D02*
X032747Y048722D01*
X034847Y047947D02*
X034847Y047647D01*
X034547Y047647D02*
X034397Y047797D01*
X034847Y047797D01*
D13*
X034972Y048622D02*
X035422Y048622D01*
X034972Y048622D02*
X034972Y046372D01*
X034222Y046372D01*
X034222Y046872D01*
X033472Y046872D01*
X033472Y046372D01*
X033172Y046372D01*
X033172Y045872D01*
X032572Y045872D01*
X032572Y045372D01*
X032572Y044872D01*
X033172Y044872D01*
X033422Y044872D01*
X034172Y044872D01*
X034972Y044872D01*
X034972Y042622D01*
X035422Y042622D01*
X034972Y042622D02*
X034972Y041772D01*
X033422Y042172D01*
X034972Y041772D02*
X036822Y041772D01*
X036822Y042622D01*
X036522Y042622D01*
X036822Y042622D02*
X038222Y042622D01*
X038222Y041658D01*
X038472Y041658D01*
X038472Y041675D01*
X038672Y041675D01*
X038672Y041658D01*
X038972Y041658D01*
X038972Y049550D01*
X038672Y049550D01*
X038633Y049546D01*
X038433Y049546D01*
X038472Y049550D01*
X038222Y049550D01*
X038222Y048622D01*
X038222Y047072D01*
X038222Y046172D02*
X038222Y045072D01*
X038222Y044172D02*
X038222Y042672D01*
X034172Y044372D02*
X034172Y044872D01*
X033422Y044872D02*
X033422Y044372D01*
X034172Y044372D01*
X034972Y044872D02*
X034972Y046372D01*
X034222Y046372D02*
X033472Y046372D01*
X033172Y046372D02*
X032572Y046372D01*
X032572Y045872D01*
X032572Y045372D02*
X033172Y045372D01*
X033172Y044872D01*
X030054Y045972D02*
X030054Y043622D01*
X028954Y043622D02*
X028954Y045972D01*
X028604Y046622D02*
X027604Y046622D01*
X027654Y046722D02*
X027680Y046724D01*
X027706Y046729D01*
X027731Y046737D01*
X027754Y046749D01*
X027776Y046763D01*
X027795Y046781D01*
X027813Y046800D01*
X027827Y046822D01*
X027839Y046845D01*
X027847Y046870D01*
X027852Y046896D01*
X027854Y046922D01*
X028654Y046922D01*
X028504Y047172D02*
X028504Y047722D01*
X028304Y048172D02*
X028304Y047172D01*
X028104Y047172D02*
X028104Y048822D01*
X027854Y049072D02*
X027856Y049098D01*
X027861Y049124D01*
X027869Y049149D01*
X027881Y049172D01*
X027895Y049194D01*
X027913Y049213D01*
X027932Y049231D01*
X027954Y049245D01*
X027977Y049257D01*
X028002Y049265D01*
X028028Y049270D01*
X028054Y049272D01*
X028304Y049272D01*
X030704Y049272D01*
X030954Y049272D01*
X030704Y049272D02*
X030704Y049322D01*
X028304Y049322D01*
X028304Y049272D01*
X028004Y049072D02*
X031004Y049072D01*
X031154Y049072D02*
X031152Y049098D01*
X031147Y049124D01*
X031139Y049149D01*
X031127Y049172D01*
X031113Y049194D01*
X031095Y049213D01*
X031076Y049231D01*
X031054Y049245D01*
X031031Y049257D01*
X031006Y049265D01*
X030980Y049270D01*
X030954Y049272D01*
X031154Y049072D02*
X031154Y046922D01*
X030354Y046922D01*
X030504Y047172D02*
X030504Y047722D01*
X030704Y048172D02*
X030704Y047172D01*
X030904Y047172D02*
X030904Y048822D01*
X033472Y049072D02*
X034972Y049472D01*
X034972Y048622D01*
X036522Y048622D02*
X036822Y048622D01*
X036822Y049472D01*
X034972Y049472D01*
X036822Y048622D02*
X038222Y048622D01*
X031354Y046722D02*
X031328Y046724D01*
X031302Y046729D01*
X031277Y046737D01*
X031254Y046749D01*
X031232Y046763D01*
X031213Y046781D01*
X031195Y046800D01*
X031181Y046822D01*
X031169Y046845D01*
X031161Y046870D01*
X031156Y046896D01*
X031154Y046922D01*
X031404Y046622D02*
X030404Y046622D01*
X027854Y046922D02*
X027854Y049072D01*
X025585Y049072D02*
X024035Y049472D01*
X024035Y048622D01*
X023585Y048622D01*
X024035Y048622D02*
X024035Y046372D01*
X024835Y046372D01*
X024835Y046872D01*
X025585Y046872D01*
X025585Y046372D01*
X025835Y046372D01*
X025835Y045872D01*
X026435Y045872D01*
X026435Y045372D01*
X025835Y045372D01*
X025835Y044872D01*
X025535Y044872D01*
X025535Y044372D01*
X024785Y044372D01*
X024785Y044872D01*
X024035Y044872D01*
X024035Y046372D01*
X024835Y046372D02*
X025585Y046372D01*
X025835Y046372D02*
X026435Y046372D01*
X026435Y045872D01*
X026435Y045372D02*
X026435Y044872D01*
X025835Y044872D01*
X025535Y044872D02*
X024785Y044872D01*
X024035Y044872D02*
X024035Y042622D01*
X023585Y042622D01*
X024035Y042622D02*
X024035Y041772D01*
X022185Y041772D01*
X022185Y042622D01*
X022485Y042622D01*
X022185Y042622D02*
X020785Y042622D01*
X020785Y044172D01*
X020785Y045072D02*
X020785Y046172D01*
X020785Y047072D02*
X020785Y048572D01*
X020785Y048622D02*
X022185Y048622D01*
X022485Y048622D01*
X022185Y048622D02*
X022185Y049472D01*
X024035Y049472D01*
X020785Y049586D02*
X020785Y048622D01*
X020785Y049586D02*
X020535Y049586D01*
X020535Y049569D01*
X020335Y049569D01*
X020335Y049586D01*
X020035Y049586D01*
X020035Y041693D01*
X020335Y041693D01*
X020375Y041697D01*
X020575Y041697D01*
X020535Y041693D01*
X020785Y041693D01*
X020785Y042622D01*
X024035Y041772D02*
X025535Y042172D01*
X028254Y042472D02*
X028254Y041772D01*
X028256Y041755D01*
X028260Y041738D01*
X028267Y041722D01*
X028277Y041708D01*
X028290Y041695D01*
X028304Y041685D01*
X028320Y041678D01*
X028337Y041674D01*
X028354Y041672D01*
X028504Y041672D01*
X028554Y041722D01*
X030454Y041722D01*
X030504Y041672D01*
X030654Y041672D01*
X030671Y041674D01*
X030688Y041678D01*
X030704Y041685D01*
X030718Y041695D01*
X030731Y041708D01*
X030741Y041722D01*
X030748Y041738D01*
X030752Y041755D01*
X030754Y041772D01*
X030754Y042472D01*
X030752Y042489D01*
X030748Y042506D01*
X030741Y042522D01*
X030731Y042536D01*
X030718Y042549D01*
X030704Y042559D01*
X030688Y042566D01*
X030671Y042570D01*
X030654Y042572D01*
X030504Y042572D01*
X030454Y042522D01*
X028554Y042522D01*
X028504Y042572D01*
X028354Y042572D01*
X028337Y042570D01*
X028320Y042566D01*
X028304Y042559D01*
X028290Y042549D01*
X028277Y042536D01*
X028267Y042522D01*
X028260Y042506D01*
X028256Y042489D01*
X028254Y042472D01*
D14*
X028084Y042122D03*
X030924Y042122D03*
D15*
X031704Y044572D02*
X031704Y046322D01*
X031702Y046356D01*
X031696Y046389D01*
X031687Y046421D01*
X031674Y046452D01*
X031658Y046482D01*
X031639Y046509D01*
X031616Y046534D01*
X031591Y046557D01*
X031564Y046576D01*
X031534Y046592D01*
X031503Y046605D01*
X031471Y046614D01*
X031438Y046620D01*
X031404Y046622D01*
X027604Y046622D02*
X027570Y046620D01*
X027537Y046614D01*
X027505Y046605D01*
X027474Y046592D01*
X027444Y046576D01*
X027417Y046557D01*
X027392Y046534D01*
X027369Y046509D01*
X027350Y046482D01*
X027334Y046452D01*
X027321Y046421D01*
X027312Y046389D01*
X027306Y046356D01*
X027304Y046322D01*
X027304Y044572D01*
D16*
X022837Y044677D02*
X022207Y044677D01*
X022417Y044467D01*
X022207Y044257D01*
X022837Y044257D01*
X022837Y044901D02*
X022837Y045111D01*
X022837Y045006D02*
X022207Y045006D01*
X022207Y044901D02*
X022207Y045111D01*
X022207Y045331D02*
X022207Y045646D01*
X022312Y045751D01*
X022732Y045751D01*
X022837Y045646D01*
X022837Y045331D01*
X022207Y045331D01*
X022207Y045975D02*
X022207Y046186D01*
X022207Y046081D02*
X022837Y046081D01*
X022837Y046186D02*
X022837Y045975D01*
X022837Y046405D02*
X022837Y046615D01*
X022837Y046510D02*
X022207Y046510D01*
X022207Y046405D02*
X022207Y046615D01*
X022207Y046835D02*
X022837Y047255D01*
X022207Y047255D01*
X022207Y046835D02*
X022837Y046835D01*
X036207Y046970D02*
X036732Y046970D01*
X036837Y046865D01*
X036837Y046655D01*
X036732Y046550D01*
X036207Y046550D01*
X036312Y046326D02*
X036207Y046220D01*
X036207Y046010D01*
X036312Y045905D01*
X036732Y045905D01*
X036837Y046010D01*
X036837Y046220D01*
X036732Y046326D01*
X036312Y046326D01*
X036207Y045686D02*
X036207Y045475D01*
X036207Y045581D02*
X036837Y045581D01*
X036837Y045686D02*
X036837Y045475D01*
X036732Y045251D02*
X036312Y045251D01*
X036207Y045146D01*
X036207Y044831D01*
X036837Y044831D01*
X036837Y045146D01*
X036732Y045251D01*
X036837Y044611D02*
X036837Y044401D01*
X036837Y044506D02*
X036207Y044506D01*
X036207Y044401D02*
X036207Y044611D01*
X036207Y044177D02*
X036837Y044177D01*
X036417Y043967D02*
X036207Y044177D01*
X036417Y043967D02*
X036207Y043757D01*
X036837Y043757D01*
X036207Y047194D02*
X036207Y047615D01*
X036207Y047404D02*
X036837Y047404D01*
G04 *
G04 next data from source file './midi-to-audio.plc', *
G04 source file key is 'infile_0002'. *
G04 *
D10*
X020004Y000222D02*
X020004Y008218D01*
X038999Y008218D01*
X038999Y000222D01*
X020004Y000222D01*
D11*
X039004Y000222D01*
X039004Y008222D01*
X020004Y008222D01*
X020004Y000222D01*
D12*
X024160Y001936D02*
X024610Y001936D01*
X024610Y001786D02*
X024610Y002087D01*
X024310Y001786D02*
X024160Y001936D01*
X026035Y001237D02*
X026035Y000936D01*
X025810Y001162D01*
X026260Y001162D01*
X028329Y001347D02*
X028329Y001797D01*
X028554Y001797D01*
X028629Y001722D01*
X028629Y001572D01*
X028554Y001497D01*
X028329Y001497D01*
X028479Y001497D02*
X028629Y001347D01*
X028789Y001347D02*
X029090Y001347D01*
X028939Y001347D02*
X028939Y001797D01*
X028789Y001647D01*
X030279Y002497D02*
X030579Y002497D01*
X030429Y002497D02*
X030429Y002947D01*
X030279Y002797D01*
X032029Y003247D02*
X032329Y003547D01*
X032329Y003622D01*
X032254Y003697D01*
X032104Y003697D01*
X032029Y003622D01*
X032029Y003247D02*
X032329Y003247D01*
X034397Y003672D02*
X034472Y003597D01*
X034397Y003672D02*
X034397Y003822D01*
X034472Y003897D01*
X034547Y003897D01*
X034847Y003597D01*
X034847Y003897D01*
X034772Y002097D02*
X034697Y002097D01*
X034622Y002022D01*
X034622Y001947D01*
X034622Y002022D02*
X034547Y002097D01*
X034472Y002097D01*
X034397Y002022D01*
X034397Y001872D01*
X034472Y001797D01*
X034772Y001797D02*
X034847Y001872D01*
X034847Y002022D01*
X034772Y002097D01*
X033197Y001222D02*
X033122Y001297D01*
X032972Y001297D01*
X032897Y001222D01*
X032897Y001147D01*
X032972Y000997D01*
X032747Y000997D01*
X032747Y001297D01*
X033197Y001222D02*
X033197Y001072D01*
X033122Y000997D01*
X027929Y003247D02*
X027629Y003247D01*
X027929Y003547D01*
X027929Y003622D01*
X027854Y003697D01*
X027704Y003697D01*
X027629Y003622D01*
X024610Y004436D02*
X024310Y004737D01*
X024235Y004737D01*
X024160Y004662D01*
X024160Y004511D01*
X024235Y004436D01*
X024610Y004436D02*
X024610Y004737D01*
X027129Y005697D02*
X027279Y005847D01*
X027579Y005847D01*
X027354Y005847D02*
X027354Y005547D01*
X027279Y005547D02*
X027129Y005697D01*
X027279Y005547D02*
X027579Y005547D01*
X027504Y006007D02*
X027129Y006007D01*
X027504Y006007D02*
X027579Y006082D01*
X027579Y006232D01*
X027504Y006307D01*
X027129Y006307D01*
X027129Y006467D02*
X027129Y006693D01*
X027204Y006768D01*
X027504Y006768D01*
X027579Y006693D01*
X027579Y006467D01*
X027129Y006467D01*
X027129Y006928D02*
X027129Y007078D01*
X027129Y007003D02*
X027579Y007003D01*
X027579Y006928D02*
X027579Y007078D01*
X027504Y007235D02*
X027204Y007235D01*
X027129Y007310D01*
X027129Y007460D01*
X027204Y007535D01*
X027504Y007535D01*
X027579Y007460D01*
X027579Y007310D01*
X027504Y007235D01*
X026260Y007262D02*
X026260Y007111D01*
X026185Y007036D01*
X026035Y007036D02*
X025960Y007186D01*
X025960Y007262D01*
X026035Y007337D01*
X026185Y007337D01*
X026260Y007262D01*
X026035Y007036D02*
X025810Y007036D01*
X025810Y007337D01*
X024610Y006462D02*
X024535Y006537D01*
X024460Y006537D01*
X024385Y006462D01*
X024385Y006386D01*
X024385Y006462D02*
X024310Y006537D01*
X024235Y006537D01*
X024160Y006462D01*
X024160Y006311D01*
X024235Y006236D01*
X024535Y006236D02*
X024610Y006311D01*
X024610Y006462D01*
X032747Y007322D02*
X032972Y007097D01*
X032972Y007397D01*
X033197Y007322D02*
X032747Y007322D01*
X034847Y006547D02*
X034847Y006247D01*
X034547Y006247D02*
X034397Y006397D01*
X034847Y006397D01*
D13*
X034972Y007222D02*
X035422Y007222D01*
X034972Y007222D02*
X034972Y004972D01*
X034222Y004972D01*
X034222Y005472D01*
X033472Y005472D01*
X033472Y004972D01*
X033172Y004972D01*
X033172Y004472D01*
X032572Y004472D01*
X032572Y003972D01*
X032572Y003472D01*
X033172Y003472D01*
X033422Y003472D01*
X034172Y003472D01*
X034972Y003472D01*
X034972Y001222D01*
X035422Y001222D01*
X034972Y001222D02*
X034972Y000372D01*
X033422Y000772D01*
X034972Y000372D02*
X036822Y000372D01*
X036822Y001222D01*
X036522Y001222D01*
X036822Y001222D02*
X038222Y001222D01*
X038222Y000258D01*
X038472Y000258D01*
X038472Y000275D01*
X038672Y000275D01*
X038672Y000258D01*
X038972Y000258D01*
X038972Y008150D01*
X038672Y008150D01*
X038633Y008146D01*
X038433Y008146D01*
X038472Y008150D01*
X038222Y008150D01*
X038222Y007222D01*
X038222Y005672D01*
X038222Y004772D02*
X038222Y003672D01*
X038222Y002772D02*
X038222Y001272D01*
X034172Y002972D02*
X034172Y003472D01*
X033422Y003472D02*
X033422Y002972D01*
X034172Y002972D01*
X034972Y003472D02*
X034972Y004972D01*
X034222Y004972D02*
X033472Y004972D01*
X033172Y004972D02*
X032572Y004972D01*
X032572Y004472D01*
X032572Y003972D02*
X033172Y003972D01*
X033172Y003472D01*
X030054Y004572D02*
X030054Y002222D01*
X028954Y002222D02*
X028954Y004572D01*
X028604Y005222D02*
X027604Y005222D01*
X027654Y005322D02*
X027680Y005324D01*
X027706Y005329D01*
X027731Y005337D01*
X027754Y005349D01*
X027776Y005363D01*
X027795Y005381D01*
X027813Y005400D01*
X027827Y005422D01*
X027839Y005445D01*
X027847Y005470D01*
X027852Y005496D01*
X027854Y005522D01*
X028654Y005522D01*
X028504Y005772D02*
X028504Y006322D01*
X028304Y006772D02*
X028304Y005772D01*
X028104Y005772D02*
X028104Y007422D01*
X027854Y007672D02*
X027856Y007698D01*
X027861Y007724D01*
X027869Y007749D01*
X027881Y007772D01*
X027895Y007794D01*
X027913Y007813D01*
X027932Y007831D01*
X027954Y007845D01*
X027977Y007857D01*
X028002Y007865D01*
X028028Y007870D01*
X028054Y007872D01*
X028304Y007872D01*
X030704Y007872D01*
X030954Y007872D01*
X030704Y007872D02*
X030704Y007922D01*
X028304Y007922D01*
X028304Y007872D01*
X028004Y007672D02*
X031004Y007672D01*
X031154Y007672D02*
X031152Y007698D01*
X031147Y007724D01*
X031139Y007749D01*
X031127Y007772D01*
X031113Y007794D01*
X031095Y007813D01*
X031076Y007831D01*
X031054Y007845D01*
X031031Y007857D01*
X031006Y007865D01*
X030980Y007870D01*
X030954Y007872D01*
X031154Y007672D02*
X031154Y005522D01*
X030354Y005522D01*
X030504Y005772D02*
X030504Y006322D01*
X030704Y006772D02*
X030704Y005772D01*
X030904Y005772D02*
X030904Y007422D01*
X033472Y007672D02*
X034972Y008072D01*
X034972Y007222D01*
X036522Y007222D02*
X036822Y007222D01*
X036822Y008072D01*
X034972Y008072D01*
X036822Y007222D02*
X038222Y007222D01*
X031354Y005322D02*
X031328Y005324D01*
X031302Y005329D01*
X031277Y005337D01*
X031254Y005349D01*
X031232Y005363D01*
X031213Y005381D01*
X031195Y005400D01*
X031181Y005422D01*
X031169Y005445D01*
X031161Y005470D01*
X031156Y005496D01*
X031154Y005522D01*
X031404Y005222D02*
X030404Y005222D01*
X027854Y005522D02*
X027854Y007672D01*
X025585Y007672D02*
X024035Y008072D01*
X024035Y007222D01*
X023585Y007222D01*
X024035Y007222D02*
X024035Y004972D01*
X024835Y004972D01*
X024835Y005472D01*
X025585Y005472D01*
X025585Y004972D01*
X025835Y004972D01*
X025835Y004472D01*
X026435Y004472D01*
X026435Y003972D01*
X025835Y003972D01*
X025835Y003472D01*
X025535Y003472D01*
X025535Y002972D01*
X024785Y002972D01*
X024785Y003472D01*
X024035Y003472D01*
X024035Y004972D01*
X024835Y004972D02*
X025585Y004972D01*
X025835Y004972D02*
X026435Y004972D01*
X026435Y004472D01*
X026435Y003972D02*
X026435Y003472D01*
X025835Y003472D01*
X025535Y003472D02*
X024785Y003472D01*
X024035Y003472D02*
X024035Y001222D01*
X023585Y001222D01*
X024035Y001222D02*
X024035Y000372D01*
X022185Y000372D01*
X022185Y001222D01*
X022485Y001222D01*
X022185Y001222D02*
X020785Y001222D01*
X020785Y002772D01*
X020785Y003672D02*
X020785Y004772D01*
X020785Y005672D02*
X020785Y007172D01*
X020785Y007222D02*
X022185Y007222D01*
X022485Y007222D01*
X022185Y007222D02*
X022185Y008072D01*
X024035Y008072D01*
X020785Y008186D02*
X020785Y007222D01*
X020785Y008186D02*
X020535Y008186D01*
X020535Y008169D01*
X020335Y008169D01*
X020335Y008186D01*
X020035Y008186D01*
X020035Y000293D01*
X020335Y000293D01*
X020375Y000297D01*
X020575Y000297D01*
X020535Y000293D01*
X020785Y000293D01*
X020785Y001222D01*
X024035Y000372D02*
X025535Y000772D01*
X028254Y001072D02*
X028254Y000372D01*
X028256Y000355D01*
X028260Y000338D01*
X028267Y000322D01*
X028277Y000308D01*
X028290Y000295D01*
X028304Y000285D01*
X028320Y000278D01*
X028337Y000274D01*
X028354Y000272D01*
X028504Y000272D01*
X028554Y000322D01*
X030454Y000322D01*
X030504Y000272D01*
X030654Y000272D01*
X030671Y000274D01*
X030688Y000278D01*
X030704Y000285D01*
X030718Y000295D01*
X030731Y000308D01*
X030741Y000322D01*
X030748Y000338D01*
X030752Y000355D01*
X030754Y000372D01*
X030754Y001072D01*
X030752Y001089D01*
X030748Y001106D01*
X030741Y001122D01*
X030731Y001136D01*
X030718Y001149D01*
X030704Y001159D01*
X030688Y001166D01*
X030671Y001170D01*
X030654Y001172D01*
X030504Y001172D01*
X030454Y001122D01*
X028554Y001122D01*
X028504Y001172D01*
X028354Y001172D01*
X028337Y001170D01*
X028320Y001166D01*
X028304Y001159D01*
X028290Y001149D01*
X028277Y001136D01*
X028267Y001122D01*
X028260Y001106D01*
X028256Y001089D01*
X028254Y001072D01*
D14*
X028084Y000722D03*
X030924Y000722D03*
D15*
X031704Y003172D02*
X031704Y004922D01*
X031702Y004956D01*
X031696Y004989D01*
X031687Y005021D01*
X031674Y005052D01*
X031658Y005082D01*
X031639Y005109D01*
X031616Y005134D01*
X031591Y005157D01*
X031564Y005176D01*
X031534Y005192D01*
X031503Y005205D01*
X031471Y005214D01*
X031438Y005220D01*
X031404Y005222D01*
X027604Y005222D02*
X027570Y005220D01*
X027537Y005214D01*
X027505Y005205D01*
X027474Y005192D01*
X027444Y005176D01*
X027417Y005157D01*
X027392Y005134D01*
X027369Y005109D01*
X027350Y005082D01*
X027334Y005052D01*
X027321Y005021D01*
X027312Y004989D01*
X027306Y004956D01*
X027304Y004922D01*
X027304Y003172D01*
D16*
X022837Y003277D02*
X022207Y003277D01*
X022417Y003067D01*
X022207Y002857D01*
X022837Y002857D01*
X022837Y003501D02*
X022837Y003711D01*
X022837Y003606D02*
X022207Y003606D01*
X022207Y003501D02*
X022207Y003711D01*
X022207Y003931D02*
X022207Y004246D01*
X022312Y004351D01*
X022732Y004351D01*
X022837Y004246D01*
X022837Y003931D01*
X022207Y003931D01*
X022207Y004575D02*
X022207Y004786D01*
X022207Y004681D02*
X022837Y004681D01*
X022837Y004786D02*
X022837Y004575D01*
X022837Y005005D02*
X022837Y005215D01*
X022837Y005110D02*
X022207Y005110D01*
X022207Y005005D02*
X022207Y005215D01*
X022207Y005435D02*
X022837Y005855D01*
X022207Y005855D01*
X022207Y005435D02*
X022837Y005435D01*
X036207Y005570D02*
X036732Y005570D01*
X036837Y005465D01*
X036837Y005255D01*
X036732Y005150D01*
X036207Y005150D01*
X036312Y004926D02*
X036207Y004820D01*
X036207Y004610D01*
X036312Y004505D01*
X036732Y004505D01*
X036837Y004610D01*
X036837Y004820D01*
X036732Y004926D01*
X036312Y004926D01*
X036207Y004286D02*
X036207Y004075D01*
X036207Y004181D02*
X036837Y004181D01*
X036837Y004286D02*
X036837Y004075D01*
X036732Y003851D02*
X036312Y003851D01*
X036207Y003746D01*
X036207Y003431D01*
X036837Y003431D01*
X036837Y003746D01*
X036732Y003851D01*
X036837Y003211D02*
X036837Y003001D01*
X036837Y003106D02*
X036207Y003106D01*
X036207Y003001D02*
X036207Y003211D01*
X036207Y002777D02*
X036837Y002777D01*
X036417Y002567D02*
X036207Y002777D01*
X036417Y002567D02*
X036207Y002357D01*
X036837Y002357D01*
X036207Y005794D02*
X036207Y006215D01*
X036207Y006004D02*
X036837Y006004D01*
G04 *
G04 next data from source file './midi-to-audio.plc', *
G04 source file key is 'infile_0013'. *
G04 *
D10*
X000504Y050022D02*
X000504Y058018D01*
X019499Y058018D01*
X019499Y050022D01*
X000504Y050022D01*
D11*
X019504Y050022D01*
X019504Y058022D01*
X000504Y058022D01*
X000504Y050022D01*
D12*
X004660Y051736D02*
X005110Y051736D01*
X005110Y051586D02*
X005110Y051887D01*
X004810Y051586D02*
X004660Y051736D01*
X006535Y051037D02*
X006535Y050736D01*
X006310Y050962D01*
X006760Y050962D01*
X008829Y051147D02*
X008829Y051597D01*
X009054Y051597D01*
X009129Y051522D01*
X009129Y051372D01*
X009054Y051297D01*
X008829Y051297D01*
X008979Y051297D02*
X009129Y051147D01*
X009289Y051147D02*
X009590Y051147D01*
X009439Y051147D02*
X009439Y051597D01*
X009289Y051447D01*
X010779Y052297D02*
X011079Y052297D01*
X010929Y052297D02*
X010929Y052747D01*
X010779Y052597D01*
X012529Y053047D02*
X012829Y053347D01*
X012829Y053422D01*
X012754Y053497D01*
X012604Y053497D01*
X012529Y053422D01*
X012529Y053047D02*
X012829Y053047D01*
X014897Y053472D02*
X014972Y053397D01*
X014897Y053472D02*
X014897Y053622D01*
X014972Y053697D01*
X015047Y053697D01*
X015347Y053397D01*
X015347Y053697D01*
X015272Y051897D02*
X015197Y051897D01*
X015122Y051822D01*
X015122Y051747D01*
X015122Y051822D02*
X015047Y051897D01*
X014972Y051897D01*
X014897Y051822D01*
X014897Y051672D01*
X014972Y051597D01*
X015272Y051597D02*
X015347Y051672D01*
X015347Y051822D01*
X015272Y051897D01*
X013697Y051022D02*
X013622Y051097D01*
X013472Y051097D01*
X013397Y051022D01*
X013397Y050947D01*
X013472Y050797D01*
X013247Y050797D01*
X013247Y051097D01*
X013697Y051022D02*
X013697Y050872D01*
X013622Y050797D01*
X008429Y053047D02*
X008129Y053047D01*
X008429Y053347D01*
X008429Y053422D01*
X008354Y053497D01*
X008204Y053497D01*
X008129Y053422D01*
X005110Y054236D02*
X004810Y054537D01*
X004735Y054537D01*
X004660Y054462D01*
X004660Y054311D01*
X004735Y054236D01*
X005110Y054236D02*
X005110Y054537D01*
X007629Y055497D02*
X007779Y055647D01*
X008079Y055647D01*
X007854Y055647D02*
X007854Y055347D01*
X007779Y055347D02*
X007629Y055497D01*
X007779Y055347D02*
X008079Y055347D01*
X008004Y055807D02*
X007629Y055807D01*
X008004Y055807D02*
X008079Y055882D01*
X008079Y056032D01*
X008004Y056107D01*
X007629Y056107D01*
X007629Y056267D02*
X007629Y056493D01*
X007704Y056568D01*
X008004Y056568D01*
X008079Y056493D01*
X008079Y056267D01*
X007629Y056267D01*
X007629Y056728D02*
X007629Y056878D01*
X007629Y056803D02*
X008079Y056803D01*
X008079Y056728D02*
X008079Y056878D01*
X008004Y057035D02*
X007704Y057035D01*
X007629Y057110D01*
X007629Y057260D01*
X007704Y057335D01*
X008004Y057335D01*
X008079Y057260D01*
X008079Y057110D01*
X008004Y057035D01*
X006760Y057062D02*
X006760Y056911D01*
X006685Y056836D01*
X006535Y056836D02*
X006460Y056986D01*
X006460Y057062D01*
X006535Y057137D01*
X006685Y057137D01*
X006760Y057062D01*
X006535Y056836D02*
X006310Y056836D01*
X006310Y057137D01*
X005110Y056262D02*
X005035Y056337D01*
X004960Y056337D01*
X004885Y056262D01*
X004885Y056186D01*
X004885Y056262D02*
X004810Y056337D01*
X004735Y056337D01*
X004660Y056262D01*
X004660Y056111D01*
X004735Y056036D01*
X005035Y056036D02*
X005110Y056111D01*
X005110Y056262D01*
X013247Y057122D02*
X013472Y056897D01*
X013472Y057197D01*
X013697Y057122D02*
X013247Y057122D01*
X015347Y056347D02*
X015347Y056047D01*
X015047Y056047D02*
X014897Y056197D01*
X015347Y056197D01*
D13*
X015472Y057022D02*
X015922Y057022D01*
X015472Y057022D02*
X015472Y054772D01*
X014722Y054772D01*
X014722Y055272D01*
X013972Y055272D01*
X013972Y054772D01*
X013672Y054772D01*
X013672Y054272D01*
X013072Y054272D01*
X013072Y053772D01*
X013072Y053272D01*
X013672Y053272D01*
X013922Y053272D01*
X014672Y053272D01*
X015472Y053272D01*
X015472Y051022D01*
X015922Y051022D01*
X015472Y051022D02*
X015472Y050172D01*
X013922Y050572D01*
X015472Y050172D02*
X017322Y050172D01*
X017322Y051022D01*
X017022Y051022D01*
X017322Y051022D02*
X018722Y051022D01*
X018722Y050058D01*
X018972Y050058D01*
X018972Y050075D01*
X019172Y050075D01*
X019172Y050058D01*
X019472Y050058D01*
X019472Y057950D01*
X019172Y057950D01*
X019133Y057946D01*
X018933Y057946D01*
X018972Y057950D01*
X018722Y057950D01*
X018722Y057022D01*
X018722Y055472D01*
X018722Y054572D02*
X018722Y053472D01*
X018722Y052572D02*
X018722Y051072D01*
X014672Y052772D02*
X014672Y053272D01*
X013922Y053272D02*
X013922Y052772D01*
X014672Y052772D01*
X015472Y053272D02*
X015472Y054772D01*
X014722Y054772D02*
X013972Y054772D01*
X013672Y054772D02*
X013072Y054772D01*
X013072Y054272D01*
X013072Y053772D02*
X013672Y053772D01*
X013672Y053272D01*
X010554Y054372D02*
X010554Y052022D01*
X009454Y052022D02*
X009454Y054372D01*
X009104Y055022D02*
X008104Y055022D01*
X008154Y055122D02*
X008180Y055124D01*
X008206Y055129D01*
X008231Y055137D01*
X008254Y055149D01*
X008276Y055163D01*
X008295Y055181D01*
X008313Y055200D01*
X008327Y055222D01*
X008339Y055245D01*
X008347Y055270D01*
X008352Y055296D01*
X008354Y055322D01*
X009154Y055322D01*
X009004Y055572D02*
X009004Y056122D01*
X008804Y056572D02*
X008804Y055572D01*
X008604Y055572D02*
X008604Y057222D01*
X008354Y057472D02*
X008356Y057498D01*
X008361Y057524D01*
X008369Y057549D01*
X008381Y057572D01*
X008395Y057594D01*
X008413Y057613D01*
X008432Y057631D01*
X008454Y057645D01*
X008477Y057657D01*
X008502Y057665D01*
X008528Y057670D01*
X008554Y057672D01*
X008804Y057672D01*
X011204Y057672D01*
X011454Y057672D01*
X011204Y057672D02*
X011204Y057722D01*
X008804Y057722D01*
X008804Y057672D01*
X008504Y057472D02*
X011504Y057472D01*
X011654Y057472D02*
X011652Y057498D01*
X011647Y057524D01*
X011639Y057549D01*
X011627Y057572D01*
X011613Y057594D01*
X011595Y057613D01*
X011576Y057631D01*
X011554Y057645D01*
X011531Y057657D01*
X011506Y057665D01*
X011480Y057670D01*
X011454Y057672D01*
X011654Y057472D02*
X011654Y055322D01*
X010854Y055322D01*
X011004Y055572D02*
X011004Y056122D01*
X011204Y056572D02*
X011204Y055572D01*
X011404Y055572D02*
X011404Y057222D01*
X013972Y057472D02*
X015472Y057872D01*
X015472Y057022D01*
X017022Y057022D02*
X017322Y057022D01*
X017322Y057872D01*
X015472Y057872D01*
X017322Y057022D02*
X018722Y057022D01*
X011854Y055122D02*
X011828Y055124D01*
X011802Y055129D01*
X011777Y055137D01*
X011754Y055149D01*
X011732Y055163D01*
X011713Y055181D01*
X011695Y055200D01*
X011681Y055222D01*
X011669Y055245D01*
X011661Y055270D01*
X011656Y055296D01*
X011654Y055322D01*
X011904Y055022D02*
X010904Y055022D01*
X008354Y055322D02*
X008354Y057472D01*
X006085Y057472D02*
X004535Y057872D01*
X004535Y057022D01*
X004085Y057022D01*
X004535Y057022D02*
X004535Y054772D01*
X005335Y054772D01*
X005335Y055272D01*
X006085Y055272D01*
X006085Y054772D01*
X006335Y054772D01*
X006335Y054272D01*
X006935Y054272D01*
X006935Y053772D01*
X006335Y053772D01*
X006335Y053272D01*
X006035Y053272D01*
X006035Y052772D01*
X005285Y052772D01*
X005285Y053272D01*
X004535Y053272D01*
X004535Y054772D01*
X005335Y054772D02*
X006085Y054772D01*
X006335Y054772D02*
X006935Y054772D01*
X006935Y054272D01*
X006935Y053772D02*
X006935Y053272D01*
X006335Y053272D01*
X006035Y053272D02*
X005285Y053272D01*
X004535Y053272D02*
X004535Y051022D01*
X004085Y051022D01*
X004535Y051022D02*
X004535Y050172D01*
X002685Y050172D01*
X002685Y051022D01*
X002985Y051022D01*
X002685Y051022D02*
X001285Y051022D01*
X001285Y052572D01*
X001285Y053472D02*
X001285Y054572D01*
X001285Y055472D02*
X001285Y056972D01*
X001285Y057022D02*
X002685Y057022D01*
X002985Y057022D01*
X002685Y057022D02*
X002685Y057872D01*
X004535Y057872D01*
X001285Y057986D02*
X001285Y057022D01*
X001285Y057986D02*
X001035Y057986D01*
X001035Y057969D01*
X000835Y057969D01*
X000835Y057986D01*
X000535Y057986D01*
X000535Y050093D01*
X000835Y050093D01*
X000875Y050097D01*
X001075Y050097D01*
X001035Y050093D01*
X001285Y050093D01*
X001285Y051022D01*
X004535Y050172D02*
X006035Y050572D01*
X008754Y050872D02*
X008754Y050172D01*
X008756Y050155D01*
X008760Y050138D01*
X008767Y050122D01*
X008777Y050108D01*
X008790Y050095D01*
X008804Y050085D01*
X008820Y050078D01*
X008837Y050074D01*
X008854Y050072D01*
X009004Y050072D01*
X009054Y050122D01*
X010954Y050122D01*
X011004Y050072D01*
X011154Y050072D01*
X011171Y050074D01*
X011188Y050078D01*
X011204Y050085D01*
X011218Y050095D01*
X011231Y050108D01*
X011241Y050122D01*
X011248Y050138D01*
X011252Y050155D01*
X011254Y050172D01*
X011254Y050872D01*
X011252Y050889D01*
X011248Y050906D01*
X011241Y050922D01*
X011231Y050936D01*
X011218Y050949D01*
X011204Y050959D01*
X011188Y050966D01*
X011171Y050970D01*
X011154Y050972D01*
X011004Y050972D01*
X010954Y050922D01*
X009054Y050922D01*
X009004Y050972D01*
X008854Y050972D01*
X008837Y050970D01*
X008820Y050966D01*
X008804Y050959D01*
X008790Y050949D01*
X008777Y050936D01*
X008767Y050922D01*
X008760Y050906D01*
X008756Y050889D01*
X008754Y050872D01*
D14*
X008584Y050522D03*
X011424Y050522D03*
D15*
X012204Y052972D02*
X012204Y054722D01*
X012202Y054756D01*
X012196Y054789D01*
X012187Y054821D01*
X012174Y054852D01*
X012158Y054882D01*
X012139Y054909D01*
X012116Y054934D01*
X012091Y054957D01*
X012064Y054976D01*
X012034Y054992D01*
X012003Y055005D01*
X011971Y055014D01*
X011938Y055020D01*
X011904Y055022D01*
X008104Y055022D02*
X008070Y055020D01*
X008037Y055014D01*
X008005Y055005D01*
X007974Y054992D01*
X007944Y054976D01*
X007917Y054957D01*
X007892Y054934D01*
X007869Y054909D01*
X007850Y054882D01*
X007834Y054852D01*
X007821Y054821D01*
X007812Y054789D01*
X007806Y054756D01*
X007804Y054722D01*
X007804Y052972D01*
D16*
X003337Y053077D02*
X002707Y053077D01*
X002917Y052867D01*
X002707Y052657D01*
X003337Y052657D01*
X003337Y053301D02*
X003337Y053511D01*
X003337Y053406D02*
X002707Y053406D01*
X002707Y053301D02*
X002707Y053511D01*
X002707Y053731D02*
X002707Y054046D01*
X002812Y054151D01*
X003232Y054151D01*
X003337Y054046D01*
X003337Y053731D01*
X002707Y053731D01*
X002707Y054375D02*
X002707Y054586D01*
X002707Y054481D02*
X003337Y054481D01*
X003337Y054586D02*
X003337Y054375D01*
X003337Y054805D02*
X003337Y055015D01*
X003337Y054910D02*
X002707Y054910D01*
X002707Y054805D02*
X002707Y055015D01*
X002707Y055235D02*
X003337Y055655D01*
X002707Y055655D01*
X002707Y055235D02*
X003337Y055235D01*
X016707Y055370D02*
X017232Y055370D01*
X017337Y055265D01*
X017337Y055055D01*
X017232Y054950D01*
X016707Y054950D01*
X016812Y054726D02*
X016707Y054620D01*
X016707Y054410D01*
X016812Y054305D01*
X017232Y054305D01*
X017337Y054410D01*
X017337Y054620D01*
X017232Y054726D01*
X016812Y054726D01*
X016707Y054086D02*
X016707Y053875D01*
X016707Y053981D02*
X017337Y053981D01*
X017337Y054086D02*
X017337Y053875D01*
X017232Y053651D02*
X016812Y053651D01*
X016707Y053546D01*
X016707Y053231D01*
X017337Y053231D01*
X017337Y053546D01*
X017232Y053651D01*
X017337Y053011D02*
X017337Y052801D01*
X017337Y052906D02*
X016707Y052906D01*
X016707Y052801D02*
X016707Y053011D01*
X016707Y052577D02*
X017337Y052577D01*
X016917Y052367D02*
X016707Y052577D01*
X016917Y052367D02*
X016707Y052157D01*
X017337Y052157D01*
X016707Y055594D02*
X016707Y056015D01*
X016707Y055804D02*
X017337Y055804D01*
G04 *
G04 next data from source file './midi-to-audio.plc', *
G04 source file key is 'infile_0005'. *
G04 *
D10*
X000504Y016622D02*
X000504Y024618D01*
X019499Y024618D01*
X019499Y016622D01*
X000504Y016622D01*
D11*
X019504Y016622D01*
X019504Y024622D01*
X000504Y024622D01*
X000504Y016622D01*
D12*
X004660Y018336D02*
X005110Y018336D01*
X005110Y018186D02*
X005110Y018487D01*
X004810Y018186D02*
X004660Y018336D01*
X006535Y017637D02*
X006535Y017336D01*
X006310Y017562D01*
X006760Y017562D01*
X008829Y017747D02*
X008829Y018197D01*
X009054Y018197D01*
X009129Y018122D01*
X009129Y017972D01*
X009054Y017897D01*
X008829Y017897D01*
X008979Y017897D02*
X009129Y017747D01*
X009289Y017747D02*
X009590Y017747D01*
X009439Y017747D02*
X009439Y018197D01*
X009289Y018047D01*
X010779Y018897D02*
X011079Y018897D01*
X010929Y018897D02*
X010929Y019347D01*
X010779Y019197D01*
X012529Y019647D02*
X012829Y019947D01*
X012829Y020022D01*
X012754Y020097D01*
X012604Y020097D01*
X012529Y020022D01*
X012529Y019647D02*
X012829Y019647D01*
X014897Y020072D02*
X014972Y019997D01*
X014897Y020072D02*
X014897Y020222D01*
X014972Y020297D01*
X015047Y020297D01*
X015347Y019997D01*
X015347Y020297D01*
X015272Y018497D02*
X015197Y018497D01*
X015122Y018422D01*
X015122Y018347D01*
X015122Y018422D02*
X015047Y018497D01*
X014972Y018497D01*
X014897Y018422D01*
X014897Y018272D01*
X014972Y018197D01*
X015272Y018197D02*
X015347Y018272D01*
X015347Y018422D01*
X015272Y018497D01*
X013697Y017622D02*
X013622Y017697D01*
X013472Y017697D01*
X013397Y017622D01*
X013397Y017547D01*
X013472Y017397D01*
X013247Y017397D01*
X013247Y017697D01*
X013697Y017622D02*
X013697Y017472D01*
X013622Y017397D01*
X008429Y019647D02*
X008129Y019647D01*
X008429Y019947D01*
X008429Y020022D01*
X008354Y020097D01*
X008204Y020097D01*
X008129Y020022D01*
X005110Y020836D02*
X004810Y021137D01*
X004735Y021137D01*
X004660Y021062D01*
X004660Y020911D01*
X004735Y020836D01*
X005110Y020836D02*
X005110Y021137D01*
X007629Y022097D02*
X007779Y022247D01*
X008079Y022247D01*
X007854Y022247D02*
X007854Y021947D01*
X007779Y021947D02*
X007629Y022097D01*
X007779Y021947D02*
X008079Y021947D01*
X008004Y022407D02*
X007629Y022407D01*
X008004Y022407D02*
X008079Y022482D01*
X008079Y022632D01*
X008004Y022707D01*
X007629Y022707D01*
X007629Y022867D02*
X007629Y023093D01*
X007704Y023168D01*
X008004Y023168D01*
X008079Y023093D01*
X008079Y022867D01*
X007629Y022867D01*
X007629Y023328D02*
X007629Y023478D01*
X007629Y023403D02*
X008079Y023403D01*
X008079Y023328D02*
X008079Y023478D01*
X008004Y023635D02*
X007704Y023635D01*
X007629Y023710D01*
X007629Y023860D01*
X007704Y023935D01*
X008004Y023935D01*
X008079Y023860D01*
X008079Y023710D01*
X008004Y023635D01*
X006760Y023662D02*
X006760Y023511D01*
X006685Y023436D01*
X006535Y023436D02*
X006460Y023586D01*
X006460Y023662D01*
X006535Y023737D01*
X006685Y023737D01*
X006760Y023662D01*
X006535Y023436D02*
X006310Y023436D01*
X006310Y023737D01*
X005110Y022862D02*
X005035Y022937D01*
X004960Y022937D01*
X004885Y022862D01*
X004885Y022786D01*
X004885Y022862D02*
X004810Y022937D01*
X004735Y022937D01*
X004660Y022862D01*
X004660Y022711D01*
X004735Y022636D01*
X005035Y022636D02*
X005110Y022711D01*
X005110Y022862D01*
X013247Y023722D02*
X013472Y023497D01*
X013472Y023797D01*
X013697Y023722D02*
X013247Y023722D01*
X015347Y022947D02*
X015347Y022647D01*
X015047Y022647D02*
X014897Y022797D01*
X015347Y022797D01*
D13*
X015472Y023622D02*
X015922Y023622D01*
X015472Y023622D02*
X015472Y021372D01*
X014722Y021372D01*
X014722Y021872D01*
X013972Y021872D01*
X013972Y021372D01*
X013672Y021372D01*
X013672Y020872D01*
X013072Y020872D01*
X013072Y020372D01*
X013072Y019872D01*
X013672Y019872D01*
X013922Y019872D01*
X014672Y019872D01*
X015472Y019872D01*
X015472Y017622D01*
X015922Y017622D01*
X015472Y017622D02*
X015472Y016772D01*
X013922Y017172D01*
X015472Y016772D02*
X017322Y016772D01*
X017322Y017622D01*
X017022Y017622D01*
X017322Y017622D02*
X018722Y017622D01*
X018722Y016658D01*
X018972Y016658D01*
X018972Y016675D01*
X019172Y016675D01*
X019172Y016658D01*
X019472Y016658D01*
X019472Y024550D01*
X019172Y024550D01*
X019133Y024546D01*
X018933Y024546D01*
X018972Y024550D01*
X018722Y024550D01*
X018722Y023622D01*
X018722Y022072D01*
X018722Y021172D02*
X018722Y020072D01*
X018722Y019172D02*
X018722Y017672D01*
X014672Y019372D02*
X014672Y019872D01*
X013922Y019872D02*
X013922Y019372D01*
X014672Y019372D01*
X015472Y019872D02*
X015472Y021372D01*
X014722Y021372D02*
X013972Y021372D01*
X013672Y021372D02*
X013072Y021372D01*
X013072Y020872D01*
X013072Y020372D02*
X013672Y020372D01*
X013672Y019872D01*
X010554Y020972D02*
X010554Y018622D01*
X009454Y018622D02*
X009454Y020972D01*
X009104Y021622D02*
X008104Y021622D01*
X008154Y021722D02*
X008180Y021724D01*
X008206Y021729D01*
X008231Y021737D01*
X008254Y021749D01*
X008276Y021763D01*
X008295Y021781D01*
X008313Y021800D01*
X008327Y021822D01*
X008339Y021845D01*
X008347Y021870D01*
X008352Y021896D01*
X008354Y021922D01*
X009154Y021922D01*
X009004Y022172D02*
X009004Y022722D01*
X008804Y023172D02*
X008804Y022172D01*
X008604Y022172D02*
X008604Y023822D01*
X008354Y024072D02*
X008356Y024098D01*
X008361Y024124D01*
X008369Y024149D01*
X008381Y024172D01*
X008395Y024194D01*
X008413Y024213D01*
X008432Y024231D01*
X008454Y024245D01*
X008477Y024257D01*
X008502Y024265D01*
X008528Y024270D01*
X008554Y024272D01*
X008804Y024272D01*
X011204Y024272D01*
X011454Y024272D01*
X011204Y024272D02*
X011204Y024322D01*
X008804Y024322D01*
X008804Y024272D01*
X008504Y024072D02*
X011504Y024072D01*
X011654Y024072D02*
X011652Y024098D01*
X011647Y024124D01*
X011639Y024149D01*
X011627Y024172D01*
X011613Y024194D01*
X011595Y024213D01*
X011576Y024231D01*
X011554Y024245D01*
X011531Y024257D01*
X011506Y024265D01*
X011480Y024270D01*
X011454Y024272D01*
X011654Y024072D02*
X011654Y021922D01*
X010854Y021922D01*
X011004Y022172D02*
X011004Y022722D01*
X011204Y023172D02*
X011204Y022172D01*
X011404Y022172D02*
X011404Y023822D01*
X013972Y024072D02*
X015472Y024472D01*
X015472Y023622D01*
X017022Y023622D02*
X017322Y023622D01*
X017322Y024472D01*
X015472Y024472D01*
X017322Y023622D02*
X018722Y023622D01*
X011854Y021722D02*
X011828Y021724D01*
X011802Y021729D01*
X011777Y021737D01*
X011754Y021749D01*
X011732Y021763D01*
X011713Y021781D01*
X011695Y021800D01*
X011681Y021822D01*
X011669Y021845D01*
X011661Y021870D01*
X011656Y021896D01*
X011654Y021922D01*
X011904Y021622D02*
X010904Y021622D01*
X008354Y021922D02*
X008354Y024072D01*
X006085Y024072D02*
X004535Y024472D01*
X004535Y023622D01*
X004085Y023622D01*
X004535Y023622D02*
X004535Y021372D01*
X005335Y021372D01*
X005335Y021872D01*
X006085Y021872D01*
X006085Y021372D01*
X006335Y021372D01*
X006335Y020872D01*
X006935Y020872D01*
X006935Y020372D01*
X006335Y020372D01*
X006335Y019872D01*
X006035Y019872D01*
X006035Y019372D01*
X005285Y019372D01*
X005285Y019872D01*
X004535Y019872D01*
X004535Y021372D01*
X005335Y021372D02*
X006085Y021372D01*
X006335Y021372D02*
X006935Y021372D01*
X006935Y020872D01*
X006935Y020372D02*
X006935Y019872D01*
X006335Y019872D01*
X006035Y019872D02*
X005285Y019872D01*
X004535Y019872D02*
X004535Y017622D01*
X004085Y017622D01*
X004535Y017622D02*
X004535Y016772D01*
X002685Y016772D01*
X002685Y017622D01*
X002985Y017622D01*
X002685Y017622D02*
X001285Y017622D01*
X001285Y019172D01*
X001285Y020072D02*
X001285Y021172D01*
X001285Y022072D02*
X001285Y023572D01*
X001285Y023622D02*
X002685Y023622D01*
X002985Y023622D01*
X002685Y023622D02*
X002685Y024472D01*
X004535Y024472D01*
X001285Y024586D02*
X001285Y023622D01*
X001285Y024586D02*
X001035Y024586D01*
X001035Y024569D01*
X000835Y024569D01*
X000835Y024586D01*
X000535Y024586D01*
X000535Y016693D01*
X000835Y016693D01*
X000875Y016697D01*
X001075Y016697D01*
X001035Y016693D01*
X001285Y016693D01*
X001285Y017622D01*
X004535Y016772D02*
X006035Y017172D01*
X008754Y017472D02*
X008754Y016772D01*
X008756Y016755D01*
X008760Y016738D01*
X008767Y016722D01*
X008777Y016708D01*
X008790Y016695D01*
X008804Y016685D01*
X008820Y016678D01*
X008837Y016674D01*
X008854Y016672D01*
X009004Y016672D01*
X009054Y016722D01*
X010954Y016722D01*
X011004Y016672D01*
X011154Y016672D01*
X011171Y016674D01*
X011188Y016678D01*
X011204Y016685D01*
X011218Y016695D01*
X011231Y016708D01*
X011241Y016722D01*
X011248Y016738D01*
X011252Y016755D01*
X011254Y016772D01*
X011254Y017472D01*
X011252Y017489D01*
X011248Y017506D01*
X011241Y017522D01*
X011231Y017536D01*
X011218Y017549D01*
X011204Y017559D01*
X011188Y017566D01*
X011171Y017570D01*
X011154Y017572D01*
X011004Y017572D01*
X010954Y017522D01*
X009054Y017522D01*
X009004Y017572D01*
X008854Y017572D01*
X008837Y017570D01*
X008820Y017566D01*
X008804Y017559D01*
X008790Y017549D01*
X008777Y017536D01*
X008767Y017522D01*
X008760Y017506D01*
X008756Y017489D01*
X008754Y017472D01*
D14*
X008584Y017122D03*
X011424Y017122D03*
D15*
X012204Y019572D02*
X012204Y021322D01*
X012202Y021356D01*
X012196Y021389D01*
X012187Y021421D01*
X012174Y021452D01*
X012158Y021482D01*
X012139Y021509D01*
X012116Y021534D01*
X012091Y021557D01*
X012064Y021576D01*
X012034Y021592D01*
X012003Y021605D01*
X011971Y021614D01*
X011938Y021620D01*
X011904Y021622D01*
X008104Y021622D02*
X008070Y021620D01*
X008037Y021614D01*
X008005Y021605D01*
X007974Y021592D01*
X007944Y021576D01*
X007917Y021557D01*
X007892Y021534D01*
X007869Y021509D01*
X007850Y021482D01*
X007834Y021452D01*
X007821Y021421D01*
X007812Y021389D01*
X007806Y021356D01*
X007804Y021322D01*
X007804Y019572D01*
D16*
X003337Y019677D02*
X002707Y019677D01*
X002917Y019467D01*
X002707Y019257D01*
X003337Y019257D01*
X003337Y019901D02*
X003337Y020111D01*
X003337Y020006D02*
X002707Y020006D01*
X002707Y019901D02*
X002707Y020111D01*
X002707Y020331D02*
X002707Y020646D01*
X002812Y020751D01*
X003232Y020751D01*
X003337Y020646D01*
X003337Y020331D01*
X002707Y020331D01*
X002707Y020975D02*
X002707Y021186D01*
X002707Y021081D02*
X003337Y021081D01*
X003337Y021186D02*
X003337Y020975D01*
X003337Y021405D02*
X003337Y021615D01*
X003337Y021510D02*
X002707Y021510D01*
X002707Y021405D02*
X002707Y021615D01*
X002707Y021835D02*
X003337Y022255D01*
X002707Y022255D01*
X002707Y021835D02*
X003337Y021835D01*
X016707Y021970D02*
X017232Y021970D01*
X017337Y021865D01*
X017337Y021655D01*
X017232Y021550D01*
X016707Y021550D01*
X016812Y021326D02*
X016707Y021220D01*
X016707Y021010D01*
X016812Y020905D01*
X017232Y020905D01*
X017337Y021010D01*
X017337Y021220D01*
X017232Y021326D01*
X016812Y021326D01*
X016707Y020686D02*
X016707Y020475D01*
X016707Y020581D02*
X017337Y020581D01*
X017337Y020686D02*
X017337Y020475D01*
X017232Y020251D02*
X016812Y020251D01*
X016707Y020146D01*
X016707Y019831D01*
X017337Y019831D01*
X017337Y020146D01*
X017232Y020251D01*
X017337Y019611D02*
X017337Y019401D01*
X017337Y019506D02*
X016707Y019506D01*
X016707Y019401D02*
X016707Y019611D01*
X016707Y019177D02*
X017337Y019177D01*
X016917Y018967D02*
X016707Y019177D01*
X016917Y018967D02*
X016707Y018757D01*
X017337Y018757D01*
X016707Y022194D02*
X016707Y022615D01*
X016707Y022404D02*
X017337Y022404D01*
G04 *
G04 next data from source file './midi-to-audio.plc', *
G04 source file key is 'infile_0011'. *
G04 *
D10*
X000504Y041622D02*
X000504Y049618D01*
X019499Y049618D01*
X019499Y041622D01*
X000504Y041622D01*
D11*
X019504Y041622D01*
X019504Y049622D01*
X000504Y049622D01*
X000504Y041622D01*
D12*
X004660Y043336D02*
X005110Y043336D01*
X005110Y043186D02*
X005110Y043487D01*
X004810Y043186D02*
X004660Y043336D01*
X006535Y042637D02*
X006535Y042336D01*
X006310Y042562D01*
X006760Y042562D01*
X008829Y042747D02*
X008829Y043197D01*
X009054Y043197D01*
X009129Y043122D01*
X009129Y042972D01*
X009054Y042897D01*
X008829Y042897D01*
X008979Y042897D02*
X009129Y042747D01*
X009289Y042747D02*
X009590Y042747D01*
X009439Y042747D02*
X009439Y043197D01*
X009289Y043047D01*
X010779Y043897D02*
X011079Y043897D01*
X010929Y043897D02*
X010929Y044347D01*
X010779Y044197D01*
X012529Y044647D02*
X012829Y044947D01*
X012829Y045022D01*
X012754Y045097D01*
X012604Y045097D01*
X012529Y045022D01*
X012529Y044647D02*
X012829Y044647D01*
X014897Y045072D02*
X014972Y044997D01*
X014897Y045072D02*
X014897Y045222D01*
X014972Y045297D01*
X015047Y045297D01*
X015347Y044997D01*
X015347Y045297D01*
X015272Y043497D02*
X015197Y043497D01*
X015122Y043422D01*
X015122Y043347D01*
X015122Y043422D02*
X015047Y043497D01*
X014972Y043497D01*
X014897Y043422D01*
X014897Y043272D01*
X014972Y043197D01*
X015272Y043197D02*
X015347Y043272D01*
X015347Y043422D01*
X015272Y043497D01*
X013697Y042622D02*
X013622Y042697D01*
X013472Y042697D01*
X013397Y042622D01*
X013397Y042547D01*
X013472Y042397D01*
X013247Y042397D01*
X013247Y042697D01*
X013697Y042622D02*
X013697Y042472D01*
X013622Y042397D01*
X008429Y044647D02*
X008129Y044647D01*
X008429Y044947D01*
X008429Y045022D01*
X008354Y045097D01*
X008204Y045097D01*
X008129Y045022D01*
X005110Y045836D02*
X004810Y046137D01*
X004735Y046137D01*
X004660Y046062D01*
X004660Y045911D01*
X004735Y045836D01*
X005110Y045836D02*
X005110Y046137D01*
X007629Y047097D02*
X007779Y047247D01*
X008079Y047247D01*
X007854Y047247D02*
X007854Y046947D01*
X007779Y046947D02*
X007629Y047097D01*
X007779Y046947D02*
X008079Y046947D01*
X008004Y047407D02*
X007629Y047407D01*
X008004Y047407D02*
X008079Y047482D01*
X008079Y047632D01*
X008004Y047707D01*
X007629Y047707D01*
X007629Y047867D02*
X007629Y048093D01*
X007704Y048168D01*
X008004Y048168D01*
X008079Y048093D01*
X008079Y047867D01*
X007629Y047867D01*
X007629Y048328D02*
X007629Y048478D01*
X007629Y048403D02*
X008079Y048403D01*
X008079Y048328D02*
X008079Y048478D01*
X008004Y048635D02*
X007704Y048635D01*
X007629Y048710D01*
X007629Y048860D01*
X007704Y048935D01*
X008004Y048935D01*
X008079Y048860D01*
X008079Y048710D01*
X008004Y048635D01*
X006760Y048662D02*
X006760Y048511D01*
X006685Y048436D01*
X006535Y048436D02*
X006460Y048586D01*
X006460Y048662D01*
X006535Y048737D01*
X006685Y048737D01*
X006760Y048662D01*
X006535Y048436D02*
X006310Y048436D01*
X006310Y048737D01*
X005110Y047862D02*
X005035Y047937D01*
X004960Y047937D01*
X004885Y047862D01*
X004885Y047786D01*
X004885Y047862D02*
X004810Y047937D01*
X004735Y047937D01*
X004660Y047862D01*
X004660Y047711D01*
X004735Y047636D01*
X005035Y047636D02*
X005110Y047711D01*
X005110Y047862D01*
X013247Y048722D02*
X013472Y048497D01*
X013472Y048797D01*
X013697Y048722D02*
X013247Y048722D01*
X015347Y047947D02*
X015347Y047647D01*
X015047Y047647D02*
X014897Y047797D01*
X015347Y047797D01*
D13*
X015472Y048622D02*
X015922Y048622D01*
X015472Y048622D02*
X015472Y046372D01*
X014722Y046372D01*
X014722Y046872D01*
X013972Y046872D01*
X013972Y046372D01*
X013672Y046372D01*
X013672Y045872D01*
X013072Y045872D01*
X013072Y045372D01*
X013072Y044872D01*
X013672Y044872D01*
X013922Y044872D01*
X014672Y044872D01*
X015472Y044872D01*
X015472Y042622D01*
X015922Y042622D01*
X015472Y042622D02*
X015472Y041772D01*
X013922Y042172D01*
X015472Y041772D02*
X017322Y041772D01*
X017322Y042622D01*
X017022Y042622D01*
X017322Y042622D02*
X018722Y042622D01*
X018722Y041658D01*
X018972Y041658D01*
X018972Y041675D01*
X019172Y041675D01*
X019172Y041658D01*
X019472Y041658D01*
X019472Y049550D01*
X019172Y049550D01*
X019133Y049546D01*
X018933Y049546D01*
X018972Y049550D01*
X018722Y049550D01*
X018722Y048622D01*
X018722Y047072D01*
X018722Y046172D02*
X018722Y045072D01*
X018722Y044172D02*
X018722Y042672D01*
X014672Y044372D02*
X014672Y044872D01*
X013922Y044872D02*
X013922Y044372D01*
X014672Y044372D01*
X015472Y044872D02*
X015472Y046372D01*
X014722Y046372D02*
X013972Y046372D01*
X013672Y046372D02*
X013072Y046372D01*
X013072Y045872D01*
X013072Y045372D02*
X013672Y045372D01*
X013672Y044872D01*
X010554Y045972D02*
X010554Y043622D01*
X009454Y043622D02*
X009454Y045972D01*
X009104Y046622D02*
X008104Y046622D01*
X008154Y046722D02*
X008180Y046724D01*
X008206Y046729D01*
X008231Y046737D01*
X008254Y046749D01*
X008276Y046763D01*
X008295Y046781D01*
X008313Y046800D01*
X008327Y046822D01*
X008339Y046845D01*
X008347Y046870D01*
X008352Y046896D01*
X008354Y046922D01*
X009154Y046922D01*
X009004Y047172D02*
X009004Y047722D01*
X008804Y048172D02*
X008804Y047172D01*
X008604Y047172D02*
X008604Y048822D01*
X008354Y049072D02*
X008356Y049098D01*
X008361Y049124D01*
X008369Y049149D01*
X008381Y049172D01*
X008395Y049194D01*
X008413Y049213D01*
X008432Y049231D01*
X008454Y049245D01*
X008477Y049257D01*
X008502Y049265D01*
X008528Y049270D01*
X008554Y049272D01*
X008804Y049272D01*
X011204Y049272D01*
X011454Y049272D01*
X011204Y049272D02*
X011204Y049322D01*
X008804Y049322D01*
X008804Y049272D01*
X008504Y049072D02*
X011504Y049072D01*
X011654Y049072D02*
X011652Y049098D01*
X011647Y049124D01*
X011639Y049149D01*
X011627Y049172D01*
X011613Y049194D01*
X011595Y049213D01*
X011576Y049231D01*
X011554Y049245D01*
X011531Y049257D01*
X011506Y049265D01*
X011480Y049270D01*
X011454Y049272D01*
X011654Y049072D02*
X011654Y046922D01*
X010854Y046922D01*
X011004Y047172D02*
X011004Y047722D01*
X011204Y048172D02*
X011204Y047172D01*
X011404Y047172D02*
X011404Y048822D01*
X013972Y049072D02*
X015472Y049472D01*
X015472Y048622D01*
X017022Y048622D02*
X017322Y048622D01*
X017322Y049472D01*
X015472Y049472D01*
X017322Y048622D02*
X018722Y048622D01*
X011854Y046722D02*
X011828Y046724D01*
X011802Y046729D01*
X011777Y046737D01*
X011754Y046749D01*
X011732Y046763D01*
X011713Y046781D01*
X011695Y046800D01*
X011681Y046822D01*
X011669Y046845D01*
X011661Y046870D01*
X011656Y046896D01*
X011654Y046922D01*
X011904Y046622D02*
X010904Y046622D01*
X008354Y046922D02*
X008354Y049072D01*
X006085Y049072D02*
X004535Y049472D01*
X004535Y048622D01*
X004085Y048622D01*
X004535Y048622D02*
X004535Y046372D01*
X005335Y046372D01*
X005335Y046872D01*
X006085Y046872D01*
X006085Y046372D01*
X006335Y046372D01*
X006335Y045872D01*
X006935Y045872D01*
X006935Y045372D01*
X006335Y045372D01*
X006335Y044872D01*
X006035Y044872D01*
X006035Y044372D01*
X005285Y044372D01*
X005285Y044872D01*
X004535Y044872D01*
X004535Y046372D01*
X005335Y046372D02*
X006085Y046372D01*
X006335Y046372D02*
X006935Y046372D01*
X006935Y045872D01*
X006935Y045372D02*
X006935Y044872D01*
X006335Y044872D01*
X006035Y044872D02*
X005285Y044872D01*
X004535Y044872D02*
X004535Y042622D01*
X004085Y042622D01*
X004535Y042622D02*
X004535Y041772D01*
X002685Y041772D01*
X002685Y042622D01*
X002985Y042622D01*
X002685Y042622D02*
X001285Y042622D01*
X001285Y044172D01*
X001285Y045072D02*
X001285Y046172D01*
X001285Y047072D02*
X001285Y048572D01*
X001285Y048622D02*
X002685Y048622D01*
X002985Y048622D01*
X002685Y048622D02*
X002685Y049472D01*
X004535Y049472D01*
X001285Y049586D02*
X001285Y048622D01*
X001285Y049586D02*
X001035Y049586D01*
X001035Y049569D01*
X000835Y049569D01*
X000835Y049586D01*
X000535Y049586D01*
X000535Y041693D01*
X000835Y041693D01*
X000875Y041697D01*
X001075Y041697D01*
X001035Y041693D01*
X001285Y041693D01*
X001285Y042622D01*
X004535Y041772D02*
X006035Y042172D01*
X008754Y042472D02*
X008754Y041772D01*
X008756Y041755D01*
X008760Y041738D01*
X008767Y041722D01*
X008777Y041708D01*
X008790Y041695D01*
X008804Y041685D01*
X008820Y041678D01*
X008837Y041674D01*
X008854Y041672D01*
X009004Y041672D01*
X009054Y041722D01*
X010954Y041722D01*
X011004Y041672D01*
X011154Y041672D01*
X011171Y041674D01*
X011188Y041678D01*
X011204Y041685D01*
X011218Y041695D01*
X011231Y041708D01*
X011241Y041722D01*
X011248Y041738D01*
X011252Y041755D01*
X011254Y041772D01*
X011254Y042472D01*
X011252Y042489D01*
X011248Y042506D01*
X011241Y042522D01*
X011231Y042536D01*
X011218Y042549D01*
X011204Y042559D01*
X011188Y042566D01*
X011171Y042570D01*
X011154Y042572D01*
X011004Y042572D01*
X010954Y042522D01*
X009054Y042522D01*
X009004Y042572D01*
X008854Y042572D01*
X008837Y042570D01*
X008820Y042566D01*
X008804Y042559D01*
X008790Y042549D01*
X008777Y042536D01*
X008767Y042522D01*
X008760Y042506D01*
X008756Y042489D01*
X008754Y042472D01*
D14*
X008584Y042122D03*
X011424Y042122D03*
D15*
X012204Y044572D02*
X012204Y046322D01*
X012202Y046356D01*
X012196Y046389D01*
X012187Y046421D01*
X012174Y046452D01*
X012158Y046482D01*
X012139Y046509D01*
X012116Y046534D01*
X012091Y046557D01*
X012064Y046576D01*
X012034Y046592D01*
X012003Y046605D01*
X011971Y046614D01*
X011938Y046620D01*
X011904Y046622D01*
X008104Y046622D02*
X008070Y046620D01*
X008037Y046614D01*
X008005Y046605D01*
X007974Y046592D01*
X007944Y046576D01*
X007917Y046557D01*
X007892Y046534D01*
X007869Y046509D01*
X007850Y046482D01*
X007834Y046452D01*
X007821Y046421D01*
X007812Y046389D01*
X007806Y046356D01*
X007804Y046322D01*
X007804Y044572D01*
D16*
X003337Y044677D02*
X002707Y044677D01*
X002917Y044467D01*
X002707Y044257D01*
X003337Y044257D01*
X003337Y044901D02*
X003337Y045111D01*
X003337Y045006D02*
X002707Y045006D01*
X002707Y044901D02*
X002707Y045111D01*
X002707Y045331D02*
X002707Y045646D01*
X002812Y045751D01*
X003232Y045751D01*
X003337Y045646D01*
X003337Y045331D01*
X002707Y045331D01*
X002707Y045975D02*
X002707Y046186D01*
X002707Y046081D02*
X003337Y046081D01*
X003337Y046186D02*
X003337Y045975D01*
X003337Y046405D02*
X003337Y046615D01*
X003337Y046510D02*
X002707Y046510D01*
X002707Y046405D02*
X002707Y046615D01*
X002707Y046835D02*
X003337Y047255D01*
X002707Y047255D01*
X002707Y046835D02*
X003337Y046835D01*
X016707Y046970D02*
X017232Y046970D01*
X017337Y046865D01*
X017337Y046655D01*
X017232Y046550D01*
X016707Y046550D01*
X016812Y046326D02*
X016707Y046220D01*
X016707Y046010D01*
X016812Y045905D01*
X017232Y045905D01*
X017337Y046010D01*
X017337Y046220D01*
X017232Y046326D01*
X016812Y046326D01*
X016707Y045686D02*
X016707Y045475D01*
X016707Y045581D02*
X017337Y045581D01*
X017337Y045686D02*
X017337Y045475D01*
X017232Y045251D02*
X016812Y045251D01*
X016707Y045146D01*
X016707Y044831D01*
X017337Y044831D01*
X017337Y045146D01*
X017232Y045251D01*
X017337Y044611D02*
X017337Y044401D01*
X017337Y044506D02*
X016707Y044506D01*
X016707Y044401D02*
X016707Y044611D01*
X016707Y044177D02*
X017337Y044177D01*
X016917Y043967D02*
X016707Y044177D01*
X016917Y043967D02*
X016707Y043757D01*
X017337Y043757D01*
X016707Y047194D02*
X016707Y047615D01*
X016707Y047404D02*
X017337Y047404D01*
G04 *
G04 next data from source file './midi-to-audio.plc', *
G04 source file key is 'infile_0009'. *
G04 *
D10*
X000504Y033222D02*
X000504Y041218D01*
X019499Y041218D01*
X019499Y033222D01*
X000504Y033222D01*
D11*
X019504Y033222D01*
X019504Y041222D01*
X000504Y041222D01*
X000504Y033222D01*
D12*
X004660Y034936D02*
X005110Y034936D01*
X005110Y034786D02*
X005110Y035087D01*
X004810Y034786D02*
X004660Y034936D01*
X006535Y034237D02*
X006535Y033936D01*
X006310Y034162D01*
X006760Y034162D01*
X008829Y034347D02*
X008829Y034797D01*
X009054Y034797D01*
X009129Y034722D01*
X009129Y034572D01*
X009054Y034497D01*
X008829Y034497D01*
X008979Y034497D02*
X009129Y034347D01*
X009289Y034347D02*
X009590Y034347D01*
X009439Y034347D02*
X009439Y034797D01*
X009289Y034647D01*
X010779Y035497D02*
X011079Y035497D01*
X010929Y035497D02*
X010929Y035947D01*
X010779Y035797D01*
X012529Y036247D02*
X012829Y036547D01*
X012829Y036622D01*
X012754Y036697D01*
X012604Y036697D01*
X012529Y036622D01*
X012529Y036247D02*
X012829Y036247D01*
X014897Y036672D02*
X014972Y036597D01*
X014897Y036672D02*
X014897Y036822D01*
X014972Y036897D01*
X015047Y036897D01*
X015347Y036597D01*
X015347Y036897D01*
X015272Y035097D02*
X015197Y035097D01*
X015122Y035022D01*
X015122Y034947D01*
X015122Y035022D02*
X015047Y035097D01*
X014972Y035097D01*
X014897Y035022D01*
X014897Y034872D01*
X014972Y034797D01*
X015272Y034797D02*
X015347Y034872D01*
X015347Y035022D01*
X015272Y035097D01*
X013697Y034222D02*
X013622Y034297D01*
X013472Y034297D01*
X013397Y034222D01*
X013397Y034147D01*
X013472Y033997D01*
X013247Y033997D01*
X013247Y034297D01*
X013697Y034222D02*
X013697Y034072D01*
X013622Y033997D01*
X008429Y036247D02*
X008129Y036247D01*
X008429Y036547D01*
X008429Y036622D01*
X008354Y036697D01*
X008204Y036697D01*
X008129Y036622D01*
X005110Y037436D02*
X004810Y037737D01*
X004735Y037737D01*
X004660Y037662D01*
X004660Y037511D01*
X004735Y037436D01*
X005110Y037436D02*
X005110Y037737D01*
X007629Y038697D02*
X007779Y038847D01*
X008079Y038847D01*
X007854Y038847D02*
X007854Y038547D01*
X007779Y038547D02*
X007629Y038697D01*
X007779Y038547D02*
X008079Y038547D01*
X008004Y039007D02*
X007629Y039007D01*
X008004Y039007D02*
X008079Y039082D01*
X008079Y039232D01*
X008004Y039307D01*
X007629Y039307D01*
X007629Y039467D02*
X007629Y039693D01*
X007704Y039768D01*
X008004Y039768D01*
X008079Y039693D01*
X008079Y039467D01*
X007629Y039467D01*
X007629Y039928D02*
X007629Y040078D01*
X007629Y040003D02*
X008079Y040003D01*
X008079Y039928D02*
X008079Y040078D01*
X008004Y040235D02*
X007704Y040235D01*
X007629Y040310D01*
X007629Y040460D01*
X007704Y040535D01*
X008004Y040535D01*
X008079Y040460D01*
X008079Y040310D01*
X008004Y040235D01*
X006760Y040262D02*
X006760Y040111D01*
X006685Y040036D01*
X006535Y040036D02*
X006460Y040186D01*
X006460Y040262D01*
X006535Y040337D01*
X006685Y040337D01*
X006760Y040262D01*
X006535Y040036D02*
X006310Y040036D01*
X006310Y040337D01*
X005110Y039462D02*
X005035Y039537D01*
X004960Y039537D01*
X004885Y039462D01*
X004885Y039386D01*
X004885Y039462D02*
X004810Y039537D01*
X004735Y039537D01*
X004660Y039462D01*
X004660Y039311D01*
X004735Y039236D01*
X005035Y039236D02*
X005110Y039311D01*
X005110Y039462D01*
X013247Y040322D02*
X013472Y040097D01*
X013472Y040397D01*
X013697Y040322D02*
X013247Y040322D01*
X015347Y039547D02*
X015347Y039247D01*
X015047Y039247D02*
X014897Y039397D01*
X015347Y039397D01*
D13*
X015472Y040222D02*
X015922Y040222D01*
X015472Y040222D02*
X015472Y037972D01*
X014722Y037972D01*
X014722Y038472D01*
X013972Y038472D01*
X013972Y037972D01*
X013672Y037972D01*
X013672Y037472D01*
X013072Y037472D01*
X013072Y036972D01*
X013072Y036472D01*
X013672Y036472D01*
X013922Y036472D01*
X014672Y036472D01*
X015472Y036472D01*
X015472Y034222D01*
X015922Y034222D01*
X015472Y034222D02*
X015472Y033372D01*
X013922Y033772D01*
X015472Y033372D02*
X017322Y033372D01*
X017322Y034222D01*
X017022Y034222D01*
X017322Y034222D02*
X018722Y034222D01*
X018722Y033258D01*
X018972Y033258D01*
X018972Y033275D01*
X019172Y033275D01*
X019172Y033258D01*
X019472Y033258D01*
X019472Y041150D01*
X019172Y041150D01*
X019133Y041146D01*
X018933Y041146D01*
X018972Y041150D01*
X018722Y041150D01*
X018722Y040222D01*
X018722Y038672D01*
X018722Y037772D02*
X018722Y036672D01*
X018722Y035772D02*
X018722Y034272D01*
X014672Y035972D02*
X014672Y036472D01*
X013922Y036472D02*
X013922Y035972D01*
X014672Y035972D01*
X015472Y036472D02*
X015472Y037972D01*
X014722Y037972D02*
X013972Y037972D01*
X013672Y037972D02*
X013072Y037972D01*
X013072Y037472D01*
X013072Y036972D02*
X013672Y036972D01*
X013672Y036472D01*
X010554Y037572D02*
X010554Y035222D01*
X009454Y035222D02*
X009454Y037572D01*
X009104Y038222D02*
X008104Y038222D01*
X008154Y038322D02*
X008180Y038324D01*
X008206Y038329D01*
X008231Y038337D01*
X008254Y038349D01*
X008276Y038363D01*
X008295Y038381D01*
X008313Y038400D01*
X008327Y038422D01*
X008339Y038445D01*
X008347Y038470D01*
X008352Y038496D01*
X008354Y038522D01*
X009154Y038522D01*
X009004Y038772D02*
X009004Y039322D01*
X008804Y039772D02*
X008804Y038772D01*
X008604Y038772D02*
X008604Y040422D01*
X008354Y040672D02*
X008356Y040698D01*
X008361Y040724D01*
X008369Y040749D01*
X008381Y040772D01*
X008395Y040794D01*
X008413Y040813D01*
X008432Y040831D01*
X008454Y040845D01*
X008477Y040857D01*
X008502Y040865D01*
X008528Y040870D01*
X008554Y040872D01*
X008804Y040872D01*
X011204Y040872D01*
X011454Y040872D01*
X011204Y040872D02*
X011204Y040922D01*
X008804Y040922D01*
X008804Y040872D01*
X008504Y040672D02*
X011504Y040672D01*
X011654Y040672D02*
X011652Y040698D01*
X011647Y040724D01*
X011639Y040749D01*
X011627Y040772D01*
X011613Y040794D01*
X011595Y040813D01*
X011576Y040831D01*
X011554Y040845D01*
X011531Y040857D01*
X011506Y040865D01*
X011480Y040870D01*
X011454Y040872D01*
X011654Y040672D02*
X011654Y038522D01*
X010854Y038522D01*
X011004Y038772D02*
X011004Y039322D01*
X011204Y039772D02*
X011204Y038772D01*
X011404Y038772D02*
X011404Y040422D01*
X013972Y040672D02*
X015472Y041072D01*
X015472Y040222D01*
X017022Y040222D02*
X017322Y040222D01*
X017322Y041072D01*
X015472Y041072D01*
X017322Y040222D02*
X018722Y040222D01*
X011854Y038322D02*
X011828Y038324D01*
X011802Y038329D01*
X011777Y038337D01*
X011754Y038349D01*
X011732Y038363D01*
X011713Y038381D01*
X011695Y038400D01*
X011681Y038422D01*
X011669Y038445D01*
X011661Y038470D01*
X011656Y038496D01*
X011654Y038522D01*
X011904Y038222D02*
X010904Y038222D01*
X008354Y038522D02*
X008354Y040672D01*
X006085Y040672D02*
X004535Y041072D01*
X004535Y040222D01*
X004085Y040222D01*
X004535Y040222D02*
X004535Y037972D01*
X005335Y037972D01*
X005335Y038472D01*
X006085Y038472D01*
X006085Y037972D01*
X006335Y037972D01*
X006335Y037472D01*
X006935Y037472D01*
X006935Y036972D01*
X006335Y036972D01*
X006335Y036472D01*
X006035Y036472D01*
X006035Y035972D01*
X005285Y035972D01*
X005285Y036472D01*
X004535Y036472D01*
X004535Y037972D01*
X005335Y037972D02*
X006085Y037972D01*
X006335Y037972D02*
X006935Y037972D01*
X006935Y037472D01*
X006935Y036972D02*
X006935Y036472D01*
X006335Y036472D01*
X006035Y036472D02*
X005285Y036472D01*
X004535Y036472D02*
X004535Y034222D01*
X004085Y034222D01*
X004535Y034222D02*
X004535Y033372D01*
X002685Y033372D01*
X002685Y034222D01*
X002985Y034222D01*
X002685Y034222D02*
X001285Y034222D01*
X001285Y035772D01*
X001285Y036672D02*
X001285Y037772D01*
X001285Y038672D02*
X001285Y040172D01*
X001285Y040222D02*
X002685Y040222D01*
X002985Y040222D01*
X002685Y040222D02*
X002685Y041072D01*
X004535Y041072D01*
X001285Y041186D02*
X001285Y040222D01*
X001285Y041186D02*
X001035Y041186D01*
X001035Y041169D01*
X000835Y041169D01*
X000835Y041186D01*
X000535Y041186D01*
X000535Y033293D01*
X000835Y033293D01*
X000875Y033297D01*
X001075Y033297D01*
X001035Y033293D01*
X001285Y033293D01*
X001285Y034222D01*
X004535Y033372D02*
X006035Y033772D01*
X008754Y034072D02*
X008754Y033372D01*
X008756Y033355D01*
X008760Y033338D01*
X008767Y033322D01*
X008777Y033308D01*
X008790Y033295D01*
X008804Y033285D01*
X008820Y033278D01*
X008837Y033274D01*
X008854Y033272D01*
X009004Y033272D01*
X009054Y033322D01*
X010954Y033322D01*
X011004Y033272D01*
X011154Y033272D01*
X011171Y033274D01*
X011188Y033278D01*
X011204Y033285D01*
X011218Y033295D01*
X011231Y033308D01*
X011241Y033322D01*
X011248Y033338D01*
X011252Y033355D01*
X011254Y033372D01*
X011254Y034072D01*
X011252Y034089D01*
X011248Y034106D01*
X011241Y034122D01*
X011231Y034136D01*
X011218Y034149D01*
X011204Y034159D01*
X011188Y034166D01*
X011171Y034170D01*
X011154Y034172D01*
X011004Y034172D01*
X010954Y034122D01*
X009054Y034122D01*
X009004Y034172D01*
X008854Y034172D01*
X008837Y034170D01*
X008820Y034166D01*
X008804Y034159D01*
X008790Y034149D01*
X008777Y034136D01*
X008767Y034122D01*
X008760Y034106D01*
X008756Y034089D01*
X008754Y034072D01*
D14*
X008584Y033722D03*
X011424Y033722D03*
D15*
X012204Y036172D02*
X012204Y037922D01*
X012202Y037956D01*
X012196Y037989D01*
X012187Y038021D01*
X012174Y038052D01*
X012158Y038082D01*
X012139Y038109D01*
X012116Y038134D01*
X012091Y038157D01*
X012064Y038176D01*
X012034Y038192D01*
X012003Y038205D01*
X011971Y038214D01*
X011938Y038220D01*
X011904Y038222D01*
X008104Y038222D02*
X008070Y038220D01*
X008037Y038214D01*
X008005Y038205D01*
X007974Y038192D01*
X007944Y038176D01*
X007917Y038157D01*
X007892Y038134D01*
X007869Y038109D01*
X007850Y038082D01*
X007834Y038052D01*
X007821Y038021D01*
X007812Y037989D01*
X007806Y037956D01*
X007804Y037922D01*
X007804Y036172D01*
D16*
X003337Y036277D02*
X002707Y036277D01*
X002917Y036067D01*
X002707Y035857D01*
X003337Y035857D01*
X003337Y036501D02*
X003337Y036711D01*
X003337Y036606D02*
X002707Y036606D01*
X002707Y036501D02*
X002707Y036711D01*
X002707Y036931D02*
X002707Y037246D01*
X002812Y037351D01*
X003232Y037351D01*
X003337Y037246D01*
X003337Y036931D01*
X002707Y036931D01*
X002707Y037575D02*
X002707Y037786D01*
X002707Y037681D02*
X003337Y037681D01*
X003337Y037786D02*
X003337Y037575D01*
X003337Y038005D02*
X003337Y038215D01*
X003337Y038110D02*
X002707Y038110D01*
X002707Y038005D02*
X002707Y038215D01*
X002707Y038435D02*
X003337Y038855D01*
X002707Y038855D01*
X002707Y038435D02*
X003337Y038435D01*
X016707Y038570D02*
X017232Y038570D01*
X017337Y038465D01*
X017337Y038255D01*
X017232Y038150D01*
X016707Y038150D01*
X016812Y037926D02*
X016707Y037820D01*
X016707Y037610D01*
X016812Y037505D01*
X017232Y037505D01*
X017337Y037610D01*
X017337Y037820D01*
X017232Y037926D01*
X016812Y037926D01*
X016707Y037286D02*
X016707Y037075D01*
X016707Y037181D02*
X017337Y037181D01*
X017337Y037286D02*
X017337Y037075D01*
X017232Y036851D02*
X016812Y036851D01*
X016707Y036746D01*
X016707Y036431D01*
X017337Y036431D01*
X017337Y036746D01*
X017232Y036851D01*
X017337Y036211D02*
X017337Y036001D01*
X017337Y036106D02*
X016707Y036106D01*
X016707Y036001D02*
X016707Y036211D01*
X016707Y035777D02*
X017337Y035777D01*
X016917Y035567D02*
X016707Y035777D01*
X016917Y035567D02*
X016707Y035357D01*
X017337Y035357D01*
X016707Y038794D02*
X016707Y039215D01*
X016707Y039004D02*
X017337Y039004D01*
G04 *
G04 next data from source file './midi-to-audio.plc', *
G04 source file key is 'infile_0006'. *
G04 *
D10*
X020004Y016622D02*
X020004Y024618D01*
X038999Y024618D01*
X038999Y016622D01*
X020004Y016622D01*
D11*
X039004Y016622D01*
X039004Y024622D01*
X020004Y024622D01*
X020004Y016622D01*
D12*
X024160Y018336D02*
X024610Y018336D01*
X024610Y018186D02*
X024610Y018487D01*
X024310Y018186D02*
X024160Y018336D01*
X026035Y017637D02*
X026035Y017336D01*
X025810Y017562D01*
X026260Y017562D01*
X028329Y017747D02*
X028329Y018197D01*
X028554Y018197D01*
X028629Y018122D01*
X028629Y017972D01*
X028554Y017897D01*
X028329Y017897D01*
X028479Y017897D02*
X028629Y017747D01*
X028789Y017747D02*
X029090Y017747D01*
X028939Y017747D02*
X028939Y018197D01*
X028789Y018047D01*
X030279Y018897D02*
X030579Y018897D01*
X030429Y018897D02*
X030429Y019347D01*
X030279Y019197D01*
X032029Y019647D02*
X032329Y019947D01*
X032329Y020022D01*
X032254Y020097D01*
X032104Y020097D01*
X032029Y020022D01*
X032029Y019647D02*
X032329Y019647D01*
X034397Y020072D02*
X034472Y019997D01*
X034397Y020072D02*
X034397Y020222D01*
X034472Y020297D01*
X034547Y020297D01*
X034847Y019997D01*
X034847Y020297D01*
X034772Y018497D02*
X034697Y018497D01*
X034622Y018422D01*
X034622Y018347D01*
X034622Y018422D02*
X034547Y018497D01*
X034472Y018497D01*
X034397Y018422D01*
X034397Y018272D01*
X034472Y018197D01*
X034772Y018197D02*
X034847Y018272D01*
X034847Y018422D01*
X034772Y018497D01*
X033197Y017622D02*
X033122Y017697D01*
X032972Y017697D01*
X032897Y017622D01*
X032897Y017547D01*
X032972Y017397D01*
X032747Y017397D01*
X032747Y017697D01*
X033197Y017622D02*
X033197Y017472D01*
X033122Y017397D01*
X027929Y019647D02*
X027629Y019647D01*
X027929Y019947D01*
X027929Y020022D01*
X027854Y020097D01*
X027704Y020097D01*
X027629Y020022D01*
X024610Y020836D02*
X024310Y021137D01*
X024235Y021137D01*
X024160Y021062D01*
X024160Y020911D01*
X024235Y020836D01*
X024610Y020836D02*
X024610Y021137D01*
X027129Y022097D02*
X027279Y022247D01*
X027579Y022247D01*
X027354Y022247D02*
X027354Y021947D01*
X027279Y021947D02*
X027129Y022097D01*
X027279Y021947D02*
X027579Y021947D01*
X027504Y022407D02*
X027129Y022407D01*
X027504Y022407D02*
X027579Y022482D01*
X027579Y022632D01*
X027504Y022707D01*
X027129Y022707D01*
X027129Y022867D02*
X027129Y023093D01*
X027204Y023168D01*
X027504Y023168D01*
X027579Y023093D01*
X027579Y022867D01*
X027129Y022867D01*
X027129Y023328D02*
X027129Y023478D01*
X027129Y023403D02*
X027579Y023403D01*
X027579Y023328D02*
X027579Y023478D01*
X027504Y023635D02*
X027204Y023635D01*
X027129Y023710D01*
X027129Y023860D01*
X027204Y023935D01*
X027504Y023935D01*
X027579Y023860D01*
X027579Y023710D01*
X027504Y023635D01*
X026260Y023662D02*
X026260Y023511D01*
X026185Y023436D01*
X026035Y023436D02*
X025960Y023586D01*
X025960Y023662D01*
X026035Y023737D01*
X026185Y023737D01*
X026260Y023662D01*
X026035Y023436D02*
X025810Y023436D01*
X025810Y023737D01*
X024610Y022862D02*
X024535Y022937D01*
X024460Y022937D01*
X024385Y022862D01*
X024385Y022786D01*
X024385Y022862D02*
X024310Y022937D01*
X024235Y022937D01*
X024160Y022862D01*
X024160Y022711D01*
X024235Y022636D01*
X024535Y022636D02*
X024610Y022711D01*
X024610Y022862D01*
X032747Y023722D02*
X032972Y023497D01*
X032972Y023797D01*
X033197Y023722D02*
X032747Y023722D01*
X034847Y022947D02*
X034847Y022647D01*
X034547Y022647D02*
X034397Y022797D01*
X034847Y022797D01*
D13*
X034972Y023622D02*
X035422Y023622D01*
X034972Y023622D02*
X034972Y021372D01*
X034222Y021372D01*
X034222Y021872D01*
X033472Y021872D01*
X033472Y021372D01*
X033172Y021372D01*
X033172Y020872D01*
X032572Y020872D01*
X032572Y020372D01*
X032572Y019872D01*
X033172Y019872D01*
X033422Y019872D01*
X034172Y019872D01*
X034972Y019872D01*
X034972Y017622D01*
X035422Y017622D01*
X034972Y017622D02*
X034972Y016772D01*
X033422Y017172D01*
X034972Y016772D02*
X036822Y016772D01*
X036822Y017622D01*
X036522Y017622D01*
X036822Y017622D02*
X038222Y017622D01*
X038222Y016658D01*
X038472Y016658D01*
X038472Y016675D01*
X038672Y016675D01*
X038672Y016658D01*
X038972Y016658D01*
X038972Y024550D01*
X038672Y024550D01*
X038633Y024546D01*
X038433Y024546D01*
X038472Y024550D01*
X038222Y024550D01*
X038222Y023622D01*
X038222Y022072D01*
X038222Y021172D02*
X038222Y020072D01*
X038222Y019172D02*
X038222Y017672D01*
X034172Y019372D02*
X034172Y019872D01*
X033422Y019872D02*
X033422Y019372D01*
X034172Y019372D01*
X034972Y019872D02*
X034972Y021372D01*
X034222Y021372D02*
X033472Y021372D01*
X033172Y021372D02*
X032572Y021372D01*
X032572Y020872D01*
X032572Y020372D02*
X033172Y020372D01*
X033172Y019872D01*
X030054Y020972D02*
X030054Y018622D01*
X028954Y018622D02*
X028954Y020972D01*
X028604Y021622D02*
X027604Y021622D01*
X027654Y021722D02*
X027680Y021724D01*
X027706Y021729D01*
X027731Y021737D01*
X027754Y021749D01*
X027776Y021763D01*
X027795Y021781D01*
X027813Y021800D01*
X027827Y021822D01*
X027839Y021845D01*
X027847Y021870D01*
X027852Y021896D01*
X027854Y021922D01*
X028654Y021922D01*
X028504Y022172D02*
X028504Y022722D01*
X028304Y023172D02*
X028304Y022172D01*
X028104Y022172D02*
X028104Y023822D01*
X027854Y024072D02*
X027856Y024098D01*
X027861Y024124D01*
X027869Y024149D01*
X027881Y024172D01*
X027895Y024194D01*
X027913Y024213D01*
X027932Y024231D01*
X027954Y024245D01*
X027977Y024257D01*
X028002Y024265D01*
X028028Y024270D01*
X028054Y024272D01*
X028304Y024272D01*
X030704Y024272D01*
X030954Y024272D01*
X030704Y024272D02*
X030704Y024322D01*
X028304Y024322D01*
X028304Y024272D01*
X028004Y024072D02*
X031004Y024072D01*
X031154Y024072D02*
X031152Y024098D01*
X031147Y024124D01*
X031139Y024149D01*
X031127Y024172D01*
X031113Y024194D01*
X031095Y024213D01*
X031076Y024231D01*
X031054Y024245D01*
X031031Y024257D01*
X031006Y024265D01*
X030980Y024270D01*
X030954Y024272D01*
X031154Y024072D02*
X031154Y021922D01*
X030354Y021922D01*
X030504Y022172D02*
X030504Y022722D01*
X030704Y023172D02*
X030704Y022172D01*
X030904Y022172D02*
X030904Y023822D01*
X033472Y024072D02*
X034972Y024472D01*
X034972Y023622D01*
X036522Y023622D02*
X036822Y023622D01*
X036822Y024472D01*
X034972Y024472D01*
X036822Y023622D02*
X038222Y023622D01*
X031354Y021722D02*
X031328Y021724D01*
X031302Y021729D01*
X031277Y021737D01*
X031254Y021749D01*
X031232Y021763D01*
X031213Y021781D01*
X031195Y021800D01*
X031181Y021822D01*
X031169Y021845D01*
X031161Y021870D01*
X031156Y021896D01*
X031154Y021922D01*
X031404Y021622D02*
X030404Y021622D01*
X027854Y021922D02*
X027854Y024072D01*
X025585Y024072D02*
X024035Y024472D01*
X024035Y023622D01*
X023585Y023622D01*
X024035Y023622D02*
X024035Y021372D01*
X024835Y021372D01*
X024835Y021872D01*
X025585Y021872D01*
X025585Y021372D01*
X025835Y021372D01*
X025835Y020872D01*
X026435Y020872D01*
X026435Y020372D01*
X025835Y020372D01*
X025835Y019872D01*
X025535Y019872D01*
X025535Y019372D01*
X024785Y019372D01*
X024785Y019872D01*
X024035Y019872D01*
X024035Y021372D01*
X024835Y021372D02*
X025585Y021372D01*
X025835Y021372D02*
X026435Y021372D01*
X026435Y020872D01*
X026435Y020372D02*
X026435Y019872D01*
X025835Y019872D01*
X025535Y019872D02*
X024785Y019872D01*
X024035Y019872D02*
X024035Y017622D01*
X023585Y017622D01*
X024035Y017622D02*
X024035Y016772D01*
X022185Y016772D01*
X022185Y017622D01*
X022485Y017622D01*
X022185Y017622D02*
X020785Y017622D01*
X020785Y019172D01*
X020785Y020072D02*
X020785Y021172D01*
X020785Y022072D02*
X020785Y023572D01*
X020785Y023622D02*
X022185Y023622D01*
X022485Y023622D01*
X022185Y023622D02*
X022185Y024472D01*
X024035Y024472D01*
X020785Y024586D02*
X020785Y023622D01*
X020785Y024586D02*
X020535Y024586D01*
X020535Y024569D01*
X020335Y024569D01*
X020335Y024586D01*
X020035Y024586D01*
X020035Y016693D01*
X020335Y016693D01*
X020375Y016697D01*
X020575Y016697D01*
X020535Y016693D01*
X020785Y016693D01*
X020785Y017622D01*
X024035Y016772D02*
X025535Y017172D01*
X028254Y017472D02*
X028254Y016772D01*
X028256Y016755D01*
X028260Y016738D01*
X028267Y016722D01*
X028277Y016708D01*
X028290Y016695D01*
X028304Y016685D01*
X028320Y016678D01*
X028337Y016674D01*
X028354Y016672D01*
X028504Y016672D01*
X028554Y016722D01*
X030454Y016722D01*
X030504Y016672D01*
X030654Y016672D01*
X030671Y016674D01*
X030688Y016678D01*
X030704Y016685D01*
X030718Y016695D01*
X030731Y016708D01*
X030741Y016722D01*
X030748Y016738D01*
X030752Y016755D01*
X030754Y016772D01*
X030754Y017472D01*
X030752Y017489D01*
X030748Y017506D01*
X030741Y017522D01*
X030731Y017536D01*
X030718Y017549D01*
X030704Y017559D01*
X030688Y017566D01*
X030671Y017570D01*
X030654Y017572D01*
X030504Y017572D01*
X030454Y017522D01*
X028554Y017522D01*
X028504Y017572D01*
X028354Y017572D01*
X028337Y017570D01*
X028320Y017566D01*
X028304Y017559D01*
X028290Y017549D01*
X028277Y017536D01*
X028267Y017522D01*
X028260Y017506D01*
X028256Y017489D01*
X028254Y017472D01*
D14*
X028084Y017122D03*
X030924Y017122D03*
D15*
X031704Y019572D02*
X031704Y021322D01*
X031702Y021356D01*
X031696Y021389D01*
X031687Y021421D01*
X031674Y021452D01*
X031658Y021482D01*
X031639Y021509D01*
X031616Y021534D01*
X031591Y021557D01*
X031564Y021576D01*
X031534Y021592D01*
X031503Y021605D01*
X031471Y021614D01*
X031438Y021620D01*
X031404Y021622D01*
X027604Y021622D02*
X027570Y021620D01*
X027537Y021614D01*
X027505Y021605D01*
X027474Y021592D01*
X027444Y021576D01*
X027417Y021557D01*
X027392Y021534D01*
X027369Y021509D01*
X027350Y021482D01*
X027334Y021452D01*
X027321Y021421D01*
X027312Y021389D01*
X027306Y021356D01*
X027304Y021322D01*
X027304Y019572D01*
D16*
X022837Y019677D02*
X022207Y019677D01*
X022417Y019467D01*
X022207Y019257D01*
X022837Y019257D01*
X022837Y019901D02*
X022837Y020111D01*
X022837Y020006D02*
X022207Y020006D01*
X022207Y019901D02*
X022207Y020111D01*
X022207Y020331D02*
X022207Y020646D01*
X022312Y020751D01*
X022732Y020751D01*
X022837Y020646D01*
X022837Y020331D01*
X022207Y020331D01*
X022207Y020975D02*
X022207Y021186D01*
X022207Y021081D02*
X022837Y021081D01*
X022837Y021186D02*
X022837Y020975D01*
X022837Y021405D02*
X022837Y021615D01*
X022837Y021510D02*
X022207Y021510D01*
X022207Y021405D02*
X022207Y021615D01*
X022207Y021835D02*
X022837Y022255D01*
X022207Y022255D01*
X022207Y021835D02*
X022837Y021835D01*
X036207Y021970D02*
X036732Y021970D01*
X036837Y021865D01*
X036837Y021655D01*
X036732Y021550D01*
X036207Y021550D01*
X036312Y021326D02*
X036207Y021220D01*
X036207Y021010D01*
X036312Y020905D01*
X036732Y020905D01*
X036837Y021010D01*
X036837Y021220D01*
X036732Y021326D01*
X036312Y021326D01*
X036207Y020686D02*
X036207Y020475D01*
X036207Y020581D02*
X036837Y020581D01*
X036837Y020686D02*
X036837Y020475D01*
X036732Y020251D02*
X036312Y020251D01*
X036207Y020146D01*
X036207Y019831D01*
X036837Y019831D01*
X036837Y020146D01*
X036732Y020251D01*
X036837Y019611D02*
X036837Y019401D01*
X036837Y019506D02*
X036207Y019506D01*
X036207Y019401D02*
X036207Y019611D01*
X036207Y019177D02*
X036837Y019177D01*
X036417Y018967D02*
X036207Y019177D01*
X036417Y018967D02*
X036207Y018757D01*
X036837Y018757D01*
X036207Y022194D02*
X036207Y022615D01*
X036207Y022404D02*
X036837Y022404D01*
G04 *
G04 next data from source file './midi-to-audio.plc', *
G04 source file key is 'infile_0014'. *
G04 *
D10*
X020004Y050022D02*
X020004Y058018D01*
X038999Y058018D01*
X038999Y050022D01*
X020004Y050022D01*
D11*
X039004Y050022D01*
X039004Y058022D01*
X020004Y058022D01*
X020004Y050022D01*
D12*
X024160Y051736D02*
X024610Y051736D01*
X024610Y051586D02*
X024610Y051887D01*
X024310Y051586D02*
X024160Y051736D01*
X026035Y051037D02*
X026035Y050736D01*
X025810Y050962D01*
X026260Y050962D01*
X028329Y051147D02*
X028329Y051597D01*
X028554Y051597D01*
X028629Y051522D01*
X028629Y051372D01*
X028554Y051297D01*
X028329Y051297D01*
X028479Y051297D02*
X028629Y051147D01*
X028789Y051147D02*
X029090Y051147D01*
X028939Y051147D02*
X028939Y051597D01*
X028789Y051447D01*
X030279Y052297D02*
X030579Y052297D01*
X030429Y052297D02*
X030429Y052747D01*
X030279Y052597D01*
X032029Y053047D02*
X032329Y053347D01*
X032329Y053422D01*
X032254Y053497D01*
X032104Y053497D01*
X032029Y053422D01*
X032029Y053047D02*
X032329Y053047D01*
X034397Y053472D02*
X034472Y053397D01*
X034397Y053472D02*
X034397Y053622D01*
X034472Y053697D01*
X034547Y053697D01*
X034847Y053397D01*
X034847Y053697D01*
X034772Y051897D02*
X034697Y051897D01*
X034622Y051822D01*
X034622Y051747D01*
X034622Y051822D02*
X034547Y051897D01*
X034472Y051897D01*
X034397Y051822D01*
X034397Y051672D01*
X034472Y051597D01*
X034772Y051597D02*
X034847Y051672D01*
X034847Y051822D01*
X034772Y051897D01*
X033197Y051022D02*
X033122Y051097D01*
X032972Y051097D01*
X032897Y051022D01*
X032897Y050947D01*
X032972Y050797D01*
X032747Y050797D01*
X032747Y051097D01*
X033197Y051022D02*
X033197Y050872D01*
X033122Y050797D01*
X027929Y053047D02*
X027629Y053047D01*
X027929Y053347D01*
X027929Y053422D01*
X027854Y053497D01*
X027704Y053497D01*
X027629Y053422D01*
X024610Y054236D02*
X024310Y054537D01*
X024235Y054537D01*
X024160Y054462D01*
X024160Y054311D01*
X024235Y054236D01*
X024610Y054236D02*
X024610Y054537D01*
X027129Y055497D02*
X027279Y055647D01*
X027579Y055647D01*
X027354Y055647D02*
X027354Y055347D01*
X027279Y055347D02*
X027129Y055497D01*
X027279Y055347D02*
X027579Y055347D01*
X027504Y055807D02*
X027129Y055807D01*
X027504Y055807D02*
X027579Y055882D01*
X027579Y056032D01*
X027504Y056107D01*
X027129Y056107D01*
X027129Y056267D02*
X027129Y056493D01*
X027204Y056568D01*
X027504Y056568D01*
X027579Y056493D01*
X027579Y056267D01*
X027129Y056267D01*
X027129Y056728D02*
X027129Y056878D01*
X027129Y056803D02*
X027579Y056803D01*
X027579Y056728D02*
X027579Y056878D01*
X027504Y057035D02*
X027204Y057035D01*
X027129Y057110D01*
X027129Y057260D01*
X027204Y057335D01*
X027504Y057335D01*
X027579Y057260D01*
X027579Y057110D01*
X027504Y057035D01*
X026260Y057062D02*
X026260Y056911D01*
X026185Y056836D01*
X026035Y056836D02*
X025960Y056986D01*
X025960Y057062D01*
X026035Y057137D01*
X026185Y057137D01*
X026260Y057062D01*
X026035Y056836D02*
X025810Y056836D01*
X025810Y057137D01*
X024610Y056262D02*
X024535Y056337D01*
X024460Y056337D01*
X024385Y056262D01*
X024385Y056186D01*
X024385Y056262D02*
X024310Y056337D01*
X024235Y056337D01*
X024160Y056262D01*
X024160Y056111D01*
X024235Y056036D01*
X024535Y056036D02*
X024610Y056111D01*
X024610Y056262D01*
X032747Y057122D02*
X032972Y056897D01*
X032972Y057197D01*
X033197Y057122D02*
X032747Y057122D01*
X034847Y056347D02*
X034847Y056047D01*
X034547Y056047D02*
X034397Y056197D01*
X034847Y056197D01*
D13*
X034972Y057022D02*
X035422Y057022D01*
X034972Y057022D02*
X034972Y054772D01*
X034222Y054772D01*
X034222Y055272D01*
X033472Y055272D01*
X033472Y054772D01*
X033172Y054772D01*
X033172Y054272D01*
X032572Y054272D01*
X032572Y053772D01*
X032572Y053272D01*
X033172Y053272D01*
X033422Y053272D01*
X034172Y053272D01*
X034972Y053272D01*
X034972Y051022D01*
X035422Y051022D01*
X034972Y051022D02*
X034972Y050172D01*
X033422Y050572D01*
X034972Y050172D02*
X036822Y050172D01*
X036822Y051022D01*
X036522Y051022D01*
X036822Y051022D02*
X038222Y051022D01*
X038222Y050058D01*
X038472Y050058D01*
X038472Y050075D01*
X038672Y050075D01*
X038672Y050058D01*
X038972Y050058D01*
X038972Y057950D01*
X038672Y057950D01*
X038633Y057946D01*
X038433Y057946D01*
X038472Y057950D01*
X038222Y057950D01*
X038222Y057022D01*
X038222Y055472D01*
X038222Y054572D02*
X038222Y053472D01*
X038222Y052572D02*
X038222Y051072D01*
X034172Y052772D02*
X034172Y053272D01*
X033422Y053272D02*
X033422Y052772D01*
X034172Y052772D01*
X034972Y053272D02*
X034972Y054772D01*
X034222Y054772D02*
X033472Y054772D01*
X033172Y054772D02*
X032572Y054772D01*
X032572Y054272D01*
X032572Y053772D02*
X033172Y053772D01*
X033172Y053272D01*
X030054Y054372D02*
X030054Y052022D01*
X028954Y052022D02*
X028954Y054372D01*
X028604Y055022D02*
X027604Y055022D01*
X027654Y055122D02*
X027680Y055124D01*
X027706Y055129D01*
X027731Y055137D01*
X027754Y055149D01*
X027776Y055163D01*
X027795Y055181D01*
X027813Y055200D01*
X027827Y055222D01*
X027839Y055245D01*
X027847Y055270D01*
X027852Y055296D01*
X027854Y055322D01*
X028654Y055322D01*
X028504Y055572D02*
X028504Y056122D01*
X028304Y056572D02*
X028304Y055572D01*
X028104Y055572D02*
X028104Y057222D01*
X027854Y057472D02*
X027856Y057498D01*
X027861Y057524D01*
X027869Y057549D01*
X027881Y057572D01*
X027895Y057594D01*
X027913Y057613D01*
X027932Y057631D01*
X027954Y057645D01*
X027977Y057657D01*
X028002Y057665D01*
X028028Y057670D01*
X028054Y057672D01*
X028304Y057672D01*
X030704Y057672D01*
X030954Y057672D01*
X030704Y057672D02*
X030704Y057722D01*
X028304Y057722D01*
X028304Y057672D01*
X028004Y057472D02*
X031004Y057472D01*
X031154Y057472D02*
X031152Y057498D01*
X031147Y057524D01*
X031139Y057549D01*
X031127Y057572D01*
X031113Y057594D01*
X031095Y057613D01*
X031076Y057631D01*
X031054Y057645D01*
X031031Y057657D01*
X031006Y057665D01*
X030980Y057670D01*
X030954Y057672D01*
X031154Y057472D02*
X031154Y055322D01*
X030354Y055322D01*
X030504Y055572D02*
X030504Y056122D01*
X030704Y056572D02*
X030704Y055572D01*
X030904Y055572D02*
X030904Y057222D01*
X033472Y057472D02*
X034972Y057872D01*
X034972Y057022D01*
X036522Y057022D02*
X036822Y057022D01*
X036822Y057872D01*
X034972Y057872D01*
X036822Y057022D02*
X038222Y057022D01*
X031354Y055122D02*
X031328Y055124D01*
X031302Y055129D01*
X031277Y055137D01*
X031254Y055149D01*
X031232Y055163D01*
X031213Y055181D01*
X031195Y055200D01*
X031181Y055222D01*
X031169Y055245D01*
X031161Y055270D01*
X031156Y055296D01*
X031154Y055322D01*
X031404Y055022D02*
X030404Y055022D01*
X027854Y055322D02*
X027854Y057472D01*
X025585Y057472D02*
X024035Y057872D01*
X024035Y057022D01*
X023585Y057022D01*
X024035Y057022D02*
X024035Y054772D01*
X024835Y054772D01*
X024835Y055272D01*
X025585Y055272D01*
X025585Y054772D01*
X025835Y054772D01*
X025835Y054272D01*
X026435Y054272D01*
X026435Y053772D01*
X025835Y053772D01*
X025835Y053272D01*
X025535Y053272D01*
X025535Y052772D01*
X024785Y052772D01*
X024785Y053272D01*
X024035Y053272D01*
X024035Y054772D01*
X024835Y054772D02*
X025585Y054772D01*
X025835Y054772D02*
X026435Y054772D01*
X026435Y054272D01*
X026435Y053772D02*
X026435Y053272D01*
X025835Y053272D01*
X025535Y053272D02*
X024785Y053272D01*
X024035Y053272D02*
X024035Y051022D01*
X023585Y051022D01*
X024035Y051022D02*
X024035Y050172D01*
X022185Y050172D01*
X022185Y051022D01*
X022485Y051022D01*
X022185Y051022D02*
X020785Y051022D01*
X020785Y052572D01*
X020785Y053472D02*
X020785Y054572D01*
X020785Y055472D02*
X020785Y056972D01*
X020785Y057022D02*
X022185Y057022D01*
X022485Y057022D01*
X022185Y057022D02*
X022185Y057872D01*
X024035Y057872D01*
X020785Y057986D02*
X020785Y057022D01*
X020785Y057986D02*
X020535Y057986D01*
X020535Y057969D01*
X020335Y057969D01*
X020335Y057986D01*
X020035Y057986D01*
X020035Y050093D01*
X020335Y050093D01*
X020375Y050097D01*
X020575Y050097D01*
X020535Y050093D01*
X020785Y050093D01*
X020785Y051022D01*
X024035Y050172D02*
X025535Y050572D01*
X028254Y050872D02*
X028254Y050172D01*
X028256Y050155D01*
X028260Y050138D01*
X028267Y050122D01*
X028277Y050108D01*
X028290Y050095D01*
X028304Y050085D01*
X028320Y050078D01*
X028337Y050074D01*
X028354Y050072D01*
X028504Y050072D01*
X028554Y050122D01*
X030454Y050122D01*
X030504Y050072D01*
X030654Y050072D01*
X030671Y050074D01*
X030688Y050078D01*
X030704Y050085D01*
X030718Y050095D01*
X030731Y050108D01*
X030741Y050122D01*
X030748Y050138D01*
X030752Y050155D01*
X030754Y050172D01*
X030754Y050872D01*
X030752Y050889D01*
X030748Y050906D01*
X030741Y050922D01*
X030731Y050936D01*
X030718Y050949D01*
X030704Y050959D01*
X030688Y050966D01*
X030671Y050970D01*
X030654Y050972D01*
X030504Y050972D01*
X030454Y050922D01*
X028554Y050922D01*
X028504Y050972D01*
X028354Y050972D01*
X028337Y050970D01*
X028320Y050966D01*
X028304Y050959D01*
X028290Y050949D01*
X028277Y050936D01*
X028267Y050922D01*
X028260Y050906D01*
X028256Y050889D01*
X028254Y050872D01*
D14*
X028084Y050522D03*
X030924Y050522D03*
D15*
X031704Y052972D02*
X031704Y054722D01*
X031702Y054756D01*
X031696Y054789D01*
X031687Y054821D01*
X031674Y054852D01*
X031658Y054882D01*
X031639Y054909D01*
X031616Y054934D01*
X031591Y054957D01*
X031564Y054976D01*
X031534Y054992D01*
X031503Y055005D01*
X031471Y055014D01*
X031438Y055020D01*
X031404Y055022D01*
X027604Y055022D02*
X027570Y055020D01*
X027537Y055014D01*
X027505Y055005D01*
X027474Y054992D01*
X027444Y054976D01*
X027417Y054957D01*
X027392Y054934D01*
X027369Y054909D01*
X027350Y054882D01*
X027334Y054852D01*
X027321Y054821D01*
X027312Y054789D01*
X027306Y054756D01*
X027304Y054722D01*
X027304Y052972D01*
D16*
X022837Y053077D02*
X022207Y053077D01*
X022417Y052867D01*
X022207Y052657D01*
X022837Y052657D01*
X022837Y053301D02*
X022837Y053511D01*
X022837Y053406D02*
X022207Y053406D01*
X022207Y053301D02*
X022207Y053511D01*
X022207Y053731D02*
X022207Y054046D01*
X022312Y054151D01*
X022732Y054151D01*
X022837Y054046D01*
X022837Y053731D01*
X022207Y053731D01*
X022207Y054375D02*
X022207Y054586D01*
X022207Y054481D02*
X022837Y054481D01*
X022837Y054586D02*
X022837Y054375D01*
X022837Y054805D02*
X022837Y055015D01*
X022837Y054910D02*
X022207Y054910D01*
X022207Y054805D02*
X022207Y055015D01*
X022207Y055235D02*
X022837Y055655D01*
X022207Y055655D01*
X022207Y055235D02*
X022837Y055235D01*
X036207Y055370D02*
X036732Y055370D01*
X036837Y055265D01*
X036837Y055055D01*
X036732Y054950D01*
X036207Y054950D01*
X036312Y054726D02*
X036207Y054620D01*
X036207Y054410D01*
X036312Y054305D01*
X036732Y054305D01*
X036837Y054410D01*
X036837Y054620D01*
X036732Y054726D01*
X036312Y054726D01*
X036207Y054086D02*
X036207Y053875D01*
X036207Y053981D02*
X036837Y053981D01*
X036837Y054086D02*
X036837Y053875D01*
X036732Y053651D02*
X036312Y053651D01*
X036207Y053546D01*
X036207Y053231D01*
X036837Y053231D01*
X036837Y053546D01*
X036732Y053651D01*
X036837Y053011D02*
X036837Y052801D01*
X036837Y052906D02*
X036207Y052906D01*
X036207Y052801D02*
X036207Y053011D01*
X036207Y052577D02*
X036837Y052577D01*
X036417Y052367D02*
X036207Y052577D01*
X036417Y052367D02*
X036207Y052157D01*
X036837Y052157D01*
X036207Y055594D02*
X036207Y056015D01*
X036207Y055804D02*
X036837Y055804D01*
G04 *
G04 next data from source file './midi-to-audio.plc', *
G04 source file key is 'infile_0001'. *
G04 *
D10*
X000504Y000222D02*
X000504Y008218D01*
X019499Y008218D01*
X019499Y000222D01*
X000504Y000222D01*
D11*
X019504Y000222D01*
X019504Y008222D01*
X000504Y008222D01*
X000504Y000222D01*
D12*
X004660Y001936D02*
X005110Y001936D01*
X005110Y001786D02*
X005110Y002087D01*
X004810Y001786D02*
X004660Y001936D01*
X006535Y001237D02*
X006535Y000936D01*
X006310Y001162D01*
X006760Y001162D01*
X008829Y001347D02*
X008829Y001797D01*
X009054Y001797D01*
X009129Y001722D01*
X009129Y001572D01*
X009054Y001497D01*
X008829Y001497D01*
X008979Y001497D02*
X009129Y001347D01*
X009289Y001347D02*
X009590Y001347D01*
X009439Y001347D02*
X009439Y001797D01*
X009289Y001647D01*
X010779Y002497D02*
X011079Y002497D01*
X010929Y002497D02*
X010929Y002947D01*
X010779Y002797D01*
X012529Y003247D02*
X012829Y003547D01*
X012829Y003622D01*
X012754Y003697D01*
X012604Y003697D01*
X012529Y003622D01*
X012529Y003247D02*
X012829Y003247D01*
X014897Y003672D02*
X014972Y003597D01*
X014897Y003672D02*
X014897Y003822D01*
X014972Y003897D01*
X015047Y003897D01*
X015347Y003597D01*
X015347Y003897D01*
X015272Y002097D02*
X015197Y002097D01*
X015122Y002022D01*
X015122Y001947D01*
X015122Y002022D02*
X015047Y002097D01*
X014972Y002097D01*
X014897Y002022D01*
X014897Y001872D01*
X014972Y001797D01*
X015272Y001797D02*
X015347Y001872D01*
X015347Y002022D01*
X015272Y002097D01*
X013697Y001222D02*
X013622Y001297D01*
X013472Y001297D01*
X013397Y001222D01*
X013397Y001147D01*
X013472Y000997D01*
X013247Y000997D01*
X013247Y001297D01*
X013697Y001222D02*
X013697Y001072D01*
X013622Y000997D01*
X008429Y003247D02*
X008129Y003247D01*
X008429Y003547D01*
X008429Y003622D01*
X008354Y003697D01*
X008204Y003697D01*
X008129Y003622D01*
X005110Y004436D02*
X004810Y004737D01*
X004735Y004737D01*
X004660Y004662D01*
X004660Y004511D01*
X004735Y004436D01*
X005110Y004436D02*
X005110Y004737D01*
X007629Y005697D02*
X007779Y005847D01*
X008079Y005847D01*
X007854Y005847D02*
X007854Y005547D01*
X007779Y005547D02*
X007629Y005697D01*
X007779Y005547D02*
X008079Y005547D01*
X008004Y006007D02*
X007629Y006007D01*
X008004Y006007D02*
X008079Y006082D01*
X008079Y006232D01*
X008004Y006307D01*
X007629Y006307D01*
X007629Y006467D02*
X007629Y006693D01*
X007704Y006768D01*
X008004Y006768D01*
X008079Y006693D01*
X008079Y006467D01*
X007629Y006467D01*
X007629Y006928D02*
X007629Y007078D01*
X007629Y007003D02*
X008079Y007003D01*
X008079Y006928D02*
X008079Y007078D01*
X008004Y007235D02*
X007704Y007235D01*
X007629Y007310D01*
X007629Y007460D01*
X007704Y007535D01*
X008004Y007535D01*
X008079Y007460D01*
X008079Y007310D01*
X008004Y007235D01*
X006760Y007262D02*
X006760Y007111D01*
X006685Y007036D01*
X006535Y007036D02*
X006460Y007186D01*
X006460Y007262D01*
X006535Y007337D01*
X006685Y007337D01*
X006760Y007262D01*
X006535Y007036D02*
X006310Y007036D01*
X006310Y007337D01*
X005110Y006462D02*
X005035Y006537D01*
X004960Y006537D01*
X004885Y006462D01*
X004885Y006386D01*
X004885Y006462D02*
X004810Y006537D01*
X004735Y006537D01*
X004660Y006462D01*
X004660Y006311D01*
X004735Y006236D01*
X005035Y006236D02*
X005110Y006311D01*
X005110Y006462D01*
X013247Y007322D02*
X013472Y007097D01*
X013472Y007397D01*
X013697Y007322D02*
X013247Y007322D01*
X015347Y006547D02*
X015347Y006247D01*
X015047Y006247D02*
X014897Y006397D01*
X015347Y006397D01*
D13*
X015472Y007222D02*
X015922Y007222D01*
X015472Y007222D02*
X015472Y004972D01*
X014722Y004972D01*
X014722Y005472D01*
X013972Y005472D01*
X013972Y004972D01*
X013672Y004972D01*
X013672Y004472D01*
X013072Y004472D01*
X013072Y003972D01*
X013072Y003472D01*
X013672Y003472D01*
X013922Y003472D01*
X014672Y003472D01*
X015472Y003472D01*
X015472Y001222D01*
X015922Y001222D01*
X015472Y001222D02*
X015472Y000372D01*
X013922Y000772D01*
X015472Y000372D02*
X017322Y000372D01*
X017322Y001222D01*
X017022Y001222D01*
X017322Y001222D02*
X018722Y001222D01*
X018722Y000258D01*
X018972Y000258D01*
X018972Y000275D01*
X019172Y000275D01*
X019172Y000258D01*
X019472Y000258D01*
X019472Y008150D01*
X019172Y008150D01*
X019133Y008146D01*
X018933Y008146D01*
X018972Y008150D01*
X018722Y008150D01*
X018722Y007222D01*
X018722Y005672D01*
X018722Y004772D02*
X018722Y003672D01*
X018722Y002772D02*
X018722Y001272D01*
X014672Y002972D02*
X014672Y003472D01*
X013922Y003472D02*
X013922Y002972D01*
X014672Y002972D01*
X015472Y003472D02*
X015472Y004972D01*
X014722Y004972D02*
X013972Y004972D01*
X013672Y004972D02*
X013072Y004972D01*
X013072Y004472D01*
X013072Y003972D02*
X013672Y003972D01*
X013672Y003472D01*
X010554Y004572D02*
X010554Y002222D01*
X009454Y002222D02*
X009454Y004572D01*
X009104Y005222D02*
X008104Y005222D01*
X008154Y005322D02*
X008180Y005324D01*
X008206Y005329D01*
X008231Y005337D01*
X008254Y005349D01*
X008276Y005363D01*
X008295Y005381D01*
X008313Y005400D01*
X008327Y005422D01*
X008339Y005445D01*
X008347Y005470D01*
X008352Y005496D01*
X008354Y005522D01*
X009154Y005522D01*
X009004Y005772D02*
X009004Y006322D01*
X008804Y006772D02*
X008804Y005772D01*
X008604Y005772D02*
X008604Y007422D01*
X008354Y007672D02*
X008356Y007698D01*
X008361Y007724D01*
X008369Y007749D01*
X008381Y007772D01*
X008395Y007794D01*
X008413Y007813D01*
X008432Y007831D01*
X008454Y007845D01*
X008477Y007857D01*
X008502Y007865D01*
X008528Y007870D01*
X008554Y007872D01*
X008804Y007872D01*
X011204Y007872D01*
X011454Y007872D01*
X011204Y007872D02*
X011204Y007922D01*
X008804Y007922D01*
X008804Y007872D01*
X008504Y007672D02*
X011504Y007672D01*
X011654Y007672D02*
X011652Y007698D01*
X011647Y007724D01*
X011639Y007749D01*
X011627Y007772D01*
X011613Y007794D01*
X011595Y007813D01*
X011576Y007831D01*
X011554Y007845D01*
X011531Y007857D01*
X011506Y007865D01*
X011480Y007870D01*
X011454Y007872D01*
X011654Y007672D02*
X011654Y005522D01*
X010854Y005522D01*
X011004Y005772D02*
X011004Y006322D01*
X011204Y006772D02*
X011204Y005772D01*
X011404Y005772D02*
X011404Y007422D01*
X013972Y007672D02*
X015472Y008072D01*
X015472Y007222D01*
X017022Y007222D02*
X017322Y007222D01*
X017322Y008072D01*
X015472Y008072D01*
X017322Y007222D02*
X018722Y007222D01*
X011854Y005322D02*
X011828Y005324D01*
X011802Y005329D01*
X011777Y005337D01*
X011754Y005349D01*
X011732Y005363D01*
X011713Y005381D01*
X011695Y005400D01*
X011681Y005422D01*
X011669Y005445D01*
X011661Y005470D01*
X011656Y005496D01*
X011654Y005522D01*
X011904Y005222D02*
X010904Y005222D01*
X008354Y005522D02*
X008354Y007672D01*
X006085Y007672D02*
X004535Y008072D01*
X004535Y007222D01*
X004085Y007222D01*
X004535Y007222D02*
X004535Y004972D01*
X005335Y004972D01*
X005335Y005472D01*
X006085Y005472D01*
X006085Y004972D01*
X006335Y004972D01*
X006335Y004472D01*
X006935Y004472D01*
X006935Y003972D01*
X006335Y003972D01*
X006335Y003472D01*
X006035Y003472D01*
X006035Y002972D01*
X005285Y002972D01*
X005285Y003472D01*
X004535Y003472D01*
X004535Y004972D01*
X005335Y004972D02*
X006085Y004972D01*
X006335Y004972D02*
X006935Y004972D01*
X006935Y004472D01*
X006935Y003972D02*
X006935Y003472D01*
X006335Y003472D01*
X006035Y003472D02*
X005285Y003472D01*
X004535Y003472D02*
X004535Y001222D01*
X004085Y001222D01*
X004535Y001222D02*
X004535Y000372D01*
X002685Y000372D01*
X002685Y001222D01*
X002985Y001222D01*
X002685Y001222D02*
X001285Y001222D01*
X001285Y002772D01*
X001285Y003672D02*
X001285Y004772D01*
X001285Y005672D02*
X001285Y007172D01*
X001285Y007222D02*
X002685Y007222D01*
X002985Y007222D01*
X002685Y007222D02*
X002685Y008072D01*
X004535Y008072D01*
X001285Y008186D02*
X001285Y007222D01*
X001285Y008186D02*
X001035Y008186D01*
X001035Y008169D01*
X000835Y008169D01*
X000835Y008186D01*
X000535Y008186D01*
X000535Y000293D01*
X000835Y000293D01*
X000875Y000297D01*
X001075Y000297D01*
X001035Y000293D01*
X001285Y000293D01*
X001285Y001222D01*
X004535Y000372D02*
X006035Y000772D01*
X008754Y001072D02*
X008754Y000372D01*
X008756Y000355D01*
X008760Y000338D01*
X008767Y000322D01*
X008777Y000308D01*
X008790Y000295D01*
X008804Y000285D01*
X008820Y000278D01*
X008837Y000274D01*
X008854Y000272D01*
X009004Y000272D01*
X009054Y000322D01*
X010954Y000322D01*
X011004Y000272D01*
X011154Y000272D01*
X011171Y000274D01*
X011188Y000278D01*
X011204Y000285D01*
X011218Y000295D01*
X011231Y000308D01*
X011241Y000322D01*
X011248Y000338D01*
X011252Y000355D01*
X011254Y000372D01*
X011254Y001072D01*
X011252Y001089D01*
X011248Y001106D01*
X011241Y001122D01*
X011231Y001136D01*
X011218Y001149D01*
X011204Y001159D01*
X011188Y001166D01*
X011171Y001170D01*
X011154Y001172D01*
X011004Y001172D01*
X010954Y001122D01*
X009054Y001122D01*
X009004Y001172D01*
X008854Y001172D01*
X008837Y001170D01*
X008820Y001166D01*
X008804Y001159D01*
X008790Y001149D01*
X008777Y001136D01*
X008767Y001122D01*
X008760Y001106D01*
X008756Y001089D01*
X008754Y001072D01*
D14*
X008584Y000722D03*
X011424Y000722D03*
D15*
X012204Y003172D02*
X012204Y004922D01*
X012202Y004956D01*
X012196Y004989D01*
X012187Y005021D01*
X012174Y005052D01*
X012158Y005082D01*
X012139Y005109D01*
X012116Y005134D01*
X012091Y005157D01*
X012064Y005176D01*
X012034Y005192D01*
X012003Y005205D01*
X011971Y005214D01*
X011938Y005220D01*
X011904Y005222D01*
X008104Y005222D02*
X008070Y005220D01*
X008037Y005214D01*
X008005Y005205D01*
X007974Y005192D01*
X007944Y005176D01*
X007917Y005157D01*
X007892Y005134D01*
X007869Y005109D01*
X007850Y005082D01*
X007834Y005052D01*
X007821Y005021D01*
X007812Y004989D01*
X007806Y004956D01*
X007804Y004922D01*
X007804Y003172D01*
D16*
X003337Y003277D02*
X002707Y003277D01*
X002917Y003067D01*
X002707Y002857D01*
X003337Y002857D01*
X003337Y003501D02*
X003337Y003711D01*
X003337Y003606D02*
X002707Y003606D01*
X002707Y003501D02*
X002707Y003711D01*
X002707Y003931D02*
X002707Y004246D01*
X002812Y004351D01*
X003232Y004351D01*
X003337Y004246D01*
X003337Y003931D01*
X002707Y003931D01*
X002707Y004575D02*
X002707Y004786D01*
X002707Y004681D02*
X003337Y004681D01*
X003337Y004786D02*
X003337Y004575D01*
X003337Y005005D02*
X003337Y005215D01*
X003337Y005110D02*
X002707Y005110D01*
X002707Y005005D02*
X002707Y005215D01*
X002707Y005435D02*
X003337Y005855D01*
X002707Y005855D01*
X002707Y005435D02*
X003337Y005435D01*
X016707Y005570D02*
X017232Y005570D01*
X017337Y005465D01*
X017337Y005255D01*
X017232Y005150D01*
X016707Y005150D01*
X016812Y004926D02*
X016707Y004820D01*
X016707Y004610D01*
X016812Y004505D01*
X017232Y004505D01*
X017337Y004610D01*
X017337Y004820D01*
X017232Y004926D01*
X016812Y004926D01*
X016707Y004286D02*
X016707Y004075D01*
X016707Y004181D02*
X017337Y004181D01*
X017337Y004286D02*
X017337Y004075D01*
X017232Y003851D02*
X016812Y003851D01*
X016707Y003746D01*
X016707Y003431D01*
X017337Y003431D01*
X017337Y003746D01*
X017232Y003851D01*
X017337Y003211D02*
X017337Y003001D01*
X017337Y003106D02*
X016707Y003106D01*
X016707Y003001D02*
X016707Y003211D01*
X016707Y002777D02*
X017337Y002777D01*
X016917Y002567D02*
X016707Y002777D01*
X016917Y002567D02*
X016707Y002357D01*
X017337Y002357D01*
X016707Y005794D02*
X016707Y006215D01*
X016707Y006004D02*
X017337Y006004D01*
M02*
